# MagicaVoxel @ Ephtracy

# group
o 

# material
mtllib mesh_hanger_wall_grid_door_frame.mtl
usemtl palette

# normals
vn -1 0 0
vn 1 0 0
vn 0 0 1
vn 0 0 -1
vn 0 -1 0
vn 0 1 0

# texcoords
vt 0.373047 0.5
vt 0.986328 0.5
vt 0.990234 0.5
vt 0.994141 0.5

# verts
v -2.2 -2.2 2.2
v -2.2 -2.2 -2.2
v -2.2 -2.1 2
v -2.2 -2.1 1.8
v -2.2 -2.1 1.6
v -2.2 -2.1 1.5
v -2.2 -2.1 1.4
v -2.2 -2.1 1.3
v -2.2 -2.1 1.1
v -2.2 -2.1 1
v -2.2 -2 2.2
v -2.2 -2 2
v -2.2 -2 1.8
v -2.2 -2 1.6
v -2.2 -2 1.5
v -2.2 -2 1.4
v -2.2 -2 1.3
v -2.2 -2 1.1
v -2.2 -2 1
v -2.2 -2 -2.2
v -2.2 2.2 2.2
v -2.2 2.2 2
v 2 -1.8 2.2
v 2 -1.8 2
v 2 2 2.2
v 2 2 2
v -2 -1.8 2.2
v -2 -1.8 2
v -2 2 2.2
v -2 2 2
v 2.2 -2.2 2.2
v 2.2 -2.2 -2.2
v 2.2 -2.1 2
v 2.2 -2.1 1.8
v 2.2 -2.1 1.6
v 2.2 -2.1 1.5
v 2.2 -2.1 1.4
v 2.2 -2.1 1.3
v 2.2 -2.1 1.1
v 2.2 -2.1 1
v 2.2 -2 2.2
v 2.2 -2 2
v 2.2 -2 1.8
v 2.2 -2 1.6
v 2.2 -2 1.5
v 2.2 -2 1.4
v 2.2 -2 1.3
v 2.2 -2 1.1
v 2.2 -2 1
v 2.2 -2 -2.2
v 2.2 2.2 2.2
v 2.2 2.2 2
v -2.2 -2.2 2.2
v -2.2 -2 2.2
v -2.2 2.2 2.2
v -2 -1.8 2.2
v -2 2 2.2
v 2 -1.8 2.2
v 2 2 2.2
v 2.2 -2.2 2.2
v 2.2 -2 2.2
v 2.2 2.2 2.2
v -2.2 -2 2
v -2.2 2.2 2
v -2 -1.8 2
v -2 2 2
v 2 -1.8 2
v 2 2 2
v 2.2 -2 2
v 2.2 2.2 2
v -2.2 -2.2 -2.2
v -2.2 -2 -2.2
v 2.2 -2.2 -2.2
v 2.2 -2 -2.2
v -2.2 -2.2 2.2
v 2.2 -2.2 2.2
v -2.2 -2.2 -2.2
v 2.2 -2.2 -2.2
v -2 2 2.2
v 2 2 2.2
v -2 2 2
v 2 2 2
v -2.2 -2 2
v 2.2 -2 2
v -2.2 -2 1.8
v 2.2 -2 1.8
v -2.2 -2 1.6
v 2.2 -2 1.6
v -2.2 -2 1.5
v 2.2 -2 1.5
v -2.2 -2 1.4
v 2.2 -2 1.4
v -2.2 -2 1.3
v 2.2 -2 1.3
v -2.2 -2 1.1
v 2.2 -2 1.1
v -2.2 -2 1
v 2.2 -2 1
v -2.2 -2 -2.2
v 2.2 -2 -2.2
v -2 -1.8 2.2
v 2 -1.8 2.2
v -2 -1.8 2
v 2 -1.8 2
v -2.2 2.2 2.2
v 2.2 2.2 2.2
v -2.2 2.2 2
v 2.2 2.2 2

# faces
f 3/2/1 2/2/1 1/2/1
f 4/2/1 2/2/1 3/2/1
f 5/2/1 2/2/1 4/2/1
f 6/2/1 2/2/1 5/2/1
f 7/2/1 2/2/1 6/2/1
f 8/2/1 2/2/1 7/2/1
f 9/2/1 2/2/1 8/2/1
f 10/2/1 2/2/1 9/2/1
f 11/2/1 3/2/1 1/2/1
f 12/3/1 4/3/1 3/3/1
f 12/2/1 3/2/1 11/2/1
f 13/4/1 5/4/1 4/4/1
f 13/3/1 4/3/1 12/3/1
f 14/3/1 6/3/1 5/3/1
f 14/4/1 5/4/1 13/4/1
f 15/1/1 7/1/1 6/1/1
f 15/3/1 6/3/1 14/3/1
f 16/3/1 8/3/1 7/3/1
f 16/1/1 7/1/1 15/1/1
f 17/4/1 9/4/1 8/4/1
f 17/3/1 8/3/1 16/3/1
f 18/3/1 10/3/1 9/3/1
f 18/4/1 9/4/1 17/4/1
f 19/2/1 2/2/1 10/2/1
f 19/3/1 10/3/1 18/3/1
f 20/2/1 2/2/1 19/2/1
f 21/4/1 12/4/1 11/4/1
f 22/4/1 12/4/1 21/4/1
f 25/4/1 24/4/1 23/4/1
f 26/4/1 24/4/1 25/4/1
f 27/4/2 28/4/2 29/4/2
f 29/4/2 28/4/2 30/4/2
f 31/2/2 32/2/2 33/2/2
f 33/2/2 32/2/2 34/2/2
f 34/2/2 32/2/2 35/2/2
f 35/2/2 32/2/2 36/2/2
f 36/2/2 32/2/2 37/2/2
f 37/2/2 32/2/2 38/2/2
f 38/2/2 32/2/2 39/2/2
f 39/2/2 32/2/2 40/2/2
f 31/2/2 33/2/2 41/2/2
f 33/3/2 34/3/2 42/3/2
f 41/2/2 33/2/2 42/2/2
f 34/4/2 35/4/2 43/4/2
f 42/3/2 34/3/2 43/3/2
f 35/3/2 36/3/2 44/3/2
f 43/4/2 35/4/2 44/4/2
f 36/1/2 37/1/2 45/1/2
f 44/3/2 36/3/2 45/3/2
f 37/3/2 38/3/2 46/3/2
f 45/1/2 37/1/2 46/1/2
f 38/4/2 39/4/2 47/4/2
f 46/3/2 38/3/2 47/3/2
f 39/3/2 40/3/2 48/3/2
f 47/4/2 39/4/2 48/4/2
f 40/2/2 32/2/2 49/2/2
f 48/3/2 40/3/2 49/3/2
f 49/2/2 32/2/2 50/2/2
f 41/4/2 42/4/2 51/4/2
f 51/4/2 42/4/2 52/4/2
f 56/4/3 55/4/3 54/4/3
f 57/4/3 55/4/3 56/4/3
f 58/4/3 56/4/3 54/4/3
f 59/4/3 55/4/3 57/4/3
f 60/2/3 54/2/3 53/2/3
f 61/4/3 59/4/3 58/4/3
f 61/2/3 54/2/3 60/2/3
f 61/4/3 58/4/3 54/4/3
f 62/4/3 55/4/3 59/4/3
f 62/4/3 59/4/3 61/4/3
f 63/4/4 64/4/4 65/4/4
f 65/4/4 64/4/4 66/4/4
f 63/4/4 65/4/4 67/4/4
f 66/4/4 64/4/4 68/4/4
f 63/4/4 67/4/4 69/4/4
f 67/4/4 68/4/4 69/4/4
f 68/4/4 64/4/4 70/4/4
f 69/4/4 68/4/4 70/4/4
f 71/2/4 72/2/4 73/2/4
f 73/2/4 72/2/4 74/2/4
f 77/2/5 76/2/5 75/2/5
f 78/2/5 76/2/5 77/2/5
f 81/4/5 80/4/5 79/4/5
f 82/4/5 80/4/5 81/4/5
f 83/3/6 84/3/6 85/3/6
f 85/3/6 84/3/6 86/3/6
f 85/4/6 86/4/6 87/4/6
f 87/4/6 86/4/6 88/4/6
f 87/3/6 88/3/6 89/3/6
f 89/3/6 88/3/6 90/3/6
f 89/1/6 90/1/6 91/1/6
f 91/1/6 90/1/6 92/1/6
f 91/3/6 92/3/6 93/3/6
f 93/3/6 92/3/6 94/3/6
f 93/4/6 94/4/6 95/4/6
f 95/4/6 94/4/6 96/4/6
f 95/3/6 96/3/6 97/3/6
f 97/3/6 96/3/6 98/3/6
f 97/2/6 98/2/6 99/2/6
f 99/2/6 98/2/6 100/2/6
f 101/4/6 102/4/6 103/4/6
f 103/4/6 102/4/6 104/4/6
f 105/4/6 106/4/6 107/4/6
f 107/4/6 106/4/6 108/4/6
