# MagicaVoxel @ Ephtracy

# group
o 

# material
mtllib mesh_hanger_door_frame_right.mtl
usemtl palette

# normals
vn -1 0 0
vn 1 0 0
vn 0 0 1
vn 0 0 -1
vn 0 -1 0
vn 0 1 0

# texcoords
vt 0.986328 0.5
vt 0.990234 0.5
vt 0.994141 0.5

# verts
v -2.2 -2.2 2.2
v -2.2 -2.2 -2.2
v -2.2 -2 2.2
v -2.2 -2 -2
v -2.2 -2 -2.1
v -2.2 -1.9 -1.9
v -2.2 -1.9 -2
v -2.2 -1.9 -2.1
v -2.2 -1.9 -2.2
v -2.2 -1.8 -1.7
v -2.2 -1.8 -1.9
v -2.2 -1.8 -2.1
v -2.2 -1.7 -1.7
v -2.2 -1.7 -2.2
v -2.2 1.6 -1.7
v -2.2 1.6 -2.2
v -2.2 1.7 -1.7
v -2.2 1.7 -1.8
v -2.2 1.8 -1.8
v -2.2 1.8 -1.9
v -2.2 1.8 -2.2
v -2.2 1.9 -1.9
v -2.2 1.9 -2
v -2.2 1.9 -2.2
v -2.2 2.1 -2.1
v -2.2 2.1 -2.2
v -2.2 2.2 -2
v -2.2 2.2 -2.1
v -2.2 2.2 -2.2
v 1.5 -1.7 -1.7
v 1.5 -1.7 -2.2
v 1.5 -1.6 -1.7
v 1.5 -1.6 -2.2
v 1.5 1.5 -1.7
v 1.5 1.5 -2.2
v 1.5 1.6 -1.7
v 1.5 1.6 -2.2
v 1.6 -1.6 -1.7
v 1.6 -1.6 -2.2
v 1.6 -1.5 -1.7
v 1.6 -1.5 -2.2
v 1.6 1.4 -1.7
v 1.6 1.4 -2.2
v 1.6 1.5 -1.7
v 1.6 1.5 -2.2
v 1.7 -1.5 -1.7
v 1.7 -1.5 -2.2
v 1.7 -1.4 -1.7
v 1.7 -1.4 -2.2
v 1.7 1.3 -1.7
v 1.7 1.3 -2.2
v 1.7 1.4 -1.7
v 1.7 1.4 -2.2
v 1.8 -1.4 -1.7
v 1.8 -1.4 -2.2
v 1.8 1.3 -1.7
v 1.8 1.3 -2.2
v 1.6 -1.8 -1.7
v 1.6 -1.8 -1.8
v 1.6 -1.7 -1.7
v 1.6 -1.7 -1.8
v 1.6 1.6 -1.7
v 1.6 1.6 -1.8
v 1.6 1.7 -1.7
v 1.6 1.7 -1.8
v 1.7 -1.7 -1.7
v 1.7 -1.7 -1.8
v 1.7 -1.6 -1.7
v 1.7 -1.6 -1.8
v 1.7 1.5 -1.7
v 1.7 1.5 -1.8
v 1.7 1.6 -1.7
v 1.7 1.6 -1.8
v 1.7 1.7 -1.8
v 1.7 1.7 -1.9
v 1.7 1.8 -1.8
v 1.7 1.8 -1.9
v 1.8 -1.8 -1.8
v 1.8 -1.8 -1.9
v 1.8 -1.7 -1.8
v 1.8 -1.7 -1.9
v 1.8 -1.6 -1.7
v 1.8 -1.6 -1.8
v 1.8 -1.5 -1.7
v 1.8 -1.5 -1.8
v 1.8 1.4 -1.7
v 1.8 1.4 -1.8
v 1.8 1.5 -1.7
v 1.8 1.5 -1.8
v 1.8 1.6 -1.8
v 1.8 1.6 -1.9
v 1.8 1.7 -1.8
v 1.8 1.7 -1.9
v 1.8 1.8 -1.9
v 1.8 1.8 -2
v 1.8 1.9 -1.9
v 1.8 1.9 -2
v 1.9 -1.9 -1.9
v 1.9 -1.9 -2
v 1.9 -1.8 -1.9
v 1.9 -1.8 -2
v 1.9 -1.7 -1.8
v 1.9 -1.7 -1.9
v 1.9 -1.6 -1.8
v 1.9 -1.6 -1.9
v 1.9 -1.5 -1.7
v 1.9 -1.5 -1.8
v 1.9 1.4 -1.7
v 1.9 1.4 -1.8
v 1.9 1.5 -1.8
v 1.9 1.5 -1.9
v 1.9 1.6 -1.8
v 1.9 1.6 -1.9
v 1.9 1.7 -1.9
v 1.9 1.7 -2
v 1.9 1.8 -1.9
v 1.9 1.8 -2
v 2 -1.8 -1.9
v 2 -1.8 -2
v 2 -1.7 -1.9
v 2 -1.7 -2
v 2 -1.6 -1.8
v 2 -1.6 -1.9
v 2 1.5 -1.8
v 2 1.5 -1.9
v 2 1.6 -1.9
v 2 1.6 -2
v 2 1.7 -1.9
v 2 1.7 -2
v 2.1 -1.7 -1.9
v 2.1 -1.7 -2
v 2.1 1.6 -1.9
v 2.1 1.6 -2
v 2.2 -2.2 2.2
v 2.2 -2.2 -2.2
v 2.2 -2 2.2
v 2.2 -2 -2
v 2.2 -2 -2.1
v 2.2 2.2 -2
v 2.2 2.2 -2.1
v 2.2 2.2 -2.2
v -2.2 -2.2 2.2
v -2.2 -2 2.2
v 2.2 -2.2 2.2
v 2.2 -2 2.2
v -2.2 -1.8 -1.7
v -2.2 -1.7 -1.7
v -2.2 1.6 -1.7
v -2.2 1.7 -1.7
v 1.5 -1.7 -1.7
v 1.5 -1.6 -1.7
v 1.5 1.5 -1.7
v 1.5 1.6 -1.7
v 1.6 -1.8 -1.7
v 1.6 -1.7 -1.7
v 1.6 -1.6 -1.7
v 1.6 -1.5 -1.7
v 1.6 1.4 -1.7
v 1.6 1.5 -1.7
v 1.6 1.6 -1.7
v 1.6 1.7 -1.7
v 1.7 -1.7 -1.7
v 1.7 -1.6 -1.7
v 1.7 -1.5 -1.7
v 1.7 -1.4 -1.7
v 1.7 1.3 -1.7
v 1.7 1.4 -1.7
v 1.7 1.5 -1.7
v 1.7 1.6 -1.7
v 1.8 -1.6 -1.7
v 1.8 -1.5 -1.7
v 1.8 -1.4 -1.7
v 1.8 1.3 -1.7
v 1.8 1.4 -1.7
v 1.8 1.5 -1.7
v 1.9 -1.5 -1.7
v 1.9 1.4 -1.7
v -2.2 1.7 -1.8
v -2.2 1.8 -1.8
v 1.6 -1.8 -1.8
v 1.6 -1.7 -1.8
v 1.6 1.6 -1.8
v 1.6 1.7 -1.8
v 1.7 -1.7 -1.8
v 1.7 -1.6 -1.8
v 1.7 1.5 -1.8
v 1.7 1.6 -1.8
v 1.7 1.7 -1.8
v 1.7 1.8 -1.8
v 1.8 -1.8 -1.8
v 1.8 -1.7 -1.8
v 1.8 -1.6 -1.8
v 1.8 -1.5 -1.8
v 1.8 1.4 -1.8
v 1.8 1.5 -1.8
v 1.8 1.6 -1.8
v 1.8 1.7 -1.8
v 1.9 -1.7 -1.8
v 1.9 -1.6 -1.8
v 1.9 -1.5 -1.8
v 1.9 1.4 -1.8
v 1.9 1.5 -1.8
v 1.9 1.6 -1.8
v 2 -1.6 -1.8
v 2 1.5 -1.8
v -2.2 -1.9 -1.9
v -2.2 -1.8 -1.9
v -2.2 1.8 -1.9
v -2.2 1.9 -1.9
v 1.7 1.7 -1.9
v 1.7 1.8 -1.9
v 1.8 -1.8 -1.9
v 1.8 -1.7 -1.9
v 1.8 1.6 -1.9
v 1.8 1.7 -1.9
v 1.8 1.8 -1.9
v 1.8 1.9 -1.9
v 1.9 -1.9 -1.9
v 1.9 -1.8 -1.9
v 1.9 -1.7 -1.9
v 1.9 -1.6 -1.9
v 1.9 1.5 -1.9
v 1.9 1.6 -1.9
v 1.9 1.7 -1.9
v 1.9 1.8 -1.9
v 2 -1.8 -1.9
v 2 -1.7 -1.9
v 2 -1.6 -1.9
v 2 1.5 -1.9
v 2 1.6 -1.9
v 2 1.7 -1.9
v 2.1 -1.7 -1.9
v 2.1 1.6 -1.9
v -2.2 -2 -2
v -2.2 -1.9 -2
v -2.2 1.9 -2
v -2.2 2.2 -2
v -2 -2 -2
v 1.8 1.8 -2
v 1.8 1.9 -2
v 1.9 -1.9 -2
v 1.9 -1.8 -2
v 1.9 1.7 -2
v 1.9 1.8 -2
v 2 -2 -2
v 2 -1.8 -2
v 2 -1.7 -2
v 2 1.6 -2
v 2 1.7 -2
v 2.1 -1.7 -2
v 2.1 1.6 -2
v 2.2 -2 -2
v 2.2 2.2 -2
v -2.2 -2.2 -2.2
v -2.2 -1.9 -2.2
v -2.2 -1.7 -2.2
v -2.2 1.6 -2.2
v -2.2 1.8 -2.2
v -2.2 1.9 -2.2
v -2.2 2.1 -2.2
v -2.2 2.2 -2.2
v 1.5 -1.7 -2.2
v 1.5 -1.6 -2.2
v 1.5 1.5 -2.2
v 1.5 1.6 -2.2
v 1.6 -1.6 -2.2
v 1.6 -1.5 -2.2
v 1.6 1.4 -2.2
v 1.6 1.5 -2.2
v 1.7 -1.9 -2.2
v 1.7 -1.8 -2.2
v 1.7 -1.5 -2.2
v 1.7 -1.4 -2.2
v 1.7 1.3 -2.2
v 1.7 1.4 -2.2
v 1.7 1.7 -2.2
v 1.7 1.8 -2.2
v 1.8 -1.8 -2.2
v 1.8 -1.7 -2.2
v 1.8 -1.4 -2.2
v 1.8 1.3 -2.2
v 1.8 1.6 -2.2
v 1.8 1.7 -2.2
v 1.8 1.8 -2.2
v 1.8 1.9 -2.2
v 1.9 -1.9 -2.2
v 1.9 -1.8 -2.2
v 1.9 -1.7 -2.2
v 1.9 -1.6 -2.2
v 1.9 1.5 -2.2
v 1.9 1.6 -2.2
v 1.9 1.7 -2.2
v 1.9 1.8 -2.2
v 2 -1.8 -2.2
v 2 -1.7 -2.2
v 2 -1.6 -2.2
v 2 1.5 -2.2
v 2 1.6 -2.2
v 2 1.7 -2.2
v 2.1 -1.9 -2.2
v 2.1 -1.7 -2.2
v 2.1 1.6 -2.2
v 2.1 2.1 -2.2
v 2.2 -2.2 -2.2
v 2.2 2.2 -2.2
v -2.2 -2.2 2.2
v 2.2 -2.2 2.2
v -2 -2.2 2
v 2 -2.2 2
v -1.8 -2.2 1.8
v 1.8 -2.2 1.8
v -1.6 -2.2 1.6
v 1.5 -2.2 1.6
v -1.6 -2.2 -1.6
v 1.5 -2.2 -1.6
v -1.8 -2.2 -1.8
v 1.8 -2.2 -1.8
v -2 -2.2 -2
v 2 -2.2 -2
v -2.2 -2.2 -2.2
v 2.2 -2.2 -2.2
v -2.2 -1.9 -1.9
v 1.9 -1.9 -1.9
v -2.2 -1.9 -2
v 1.9 -1.9 -2
v -2.2 -1.8 -1.7
v 1.6 -1.8 -1.7
v 1.6 -1.8 -1.8
v 1.8 -1.8 -1.8
v -2.2 -1.8 -1.9
v 1.8 -1.8 -1.9
v 1.9 -1.8 -1.9
v 2 -1.8 -1.9
v 1.9 -1.8 -2
v 2 -1.8 -2
v 1.6 -1.7 -1.7
v 1.7 -1.7 -1.7
v 1.6 -1.7 -1.8
v 1.7 -1.7 -1.8
v 1.8 -1.7 -1.8
v 1.9 -1.7 -1.8
v 1.8 -1.7 -1.9
v 1.9 -1.7 -1.9
v 2 -1.7 -1.9
v 2.1 -1.7 -1.9
v 2 -1.7 -2
v 2.1 -1.7 -2
v 1.7 -1.6 -1.7
v 1.8 -1.6 -1.7
v 1.7 -1.6 -1.8
v 1.8 -1.6 -1.8
v 1.9 -1.6 -1.8
v 2 -1.6 -1.8
v 1.9 -1.6 -1.9
v 2 -1.6 -1.9
v 1.8 -1.5 -1.7
v 1.9 -1.5 -1.7
v 1.8 -1.5 -1.8
v 1.9 -1.5 -1.8
v 1.7 1.3 -1.7
v 1.8 1.3 -1.7
v 1.7 1.3 -2.2
v 1.8 1.3 -2.2
v 1.6 1.4 -1.7
v 1.7 1.4 -1.7
v 1.6 1.4 -2.2
v 1.7 1.4 -2.2
v 1.5 1.5 -1.7
v 1.6 1.5 -1.7
v 1.5 1.5 -2.2
v 1.6 1.5 -2.2
v -2.2 1.6 -1.7
v 1.5 1.6 -1.7
v -2.2 1.6 -2.2
v 1.5 1.6 -2.2
v -2.2 -2 2.2
v 2.2 -2 2.2
v -2 -2 2
v 2 -2 2
v -1.8 -2 1.8
v 1.8 -2 1.8
v -1.6 -2 1.6
v 1.5 -2 1.6
v -1.6 -2 -1.6
v 1.5 -2 -1.6
v -1.8 -2 -1.8
v 1.8 -2 -1.8
v -2.2 -2 -2
v -2 -2 -2
v 2 -2 -2
v 2.2 -2 -2
v -2.2 -1.7 -1.7
v 1.5 -1.7 -1.7
v -2.2 -1.7 -2.2
v 1.5 -1.7 -2.2
v 1.5 -1.6 -1.7
v 1.6 -1.6 -1.7
v 1.5 -1.6 -2.2
v 1.6 -1.6 -2.2
v 1.6 -1.5 -1.7
v 1.7 -1.5 -1.7
v 1.6 -1.5 -2.2
v 1.7 -1.5 -2.2
v 1.7 -1.4 -1.7
v 1.8 -1.4 -1.7
v 1.7 -1.4 -2.2
v 1.8 -1.4 -2.2
v 1.8 1.4 -1.7
v 1.9 1.4 -1.7
v 1.8 1.4 -1.8
v 1.9 1.4 -1.8
v 1.7 1.5 -1.7
v 1.8 1.5 -1.7
v 1.7 1.5 -1.8
v 1.8 1.5 -1.8
v 1.9 1.5 -1.8
v 2 1.5 -1.8
v 1.9 1.5 -1.9
v 2 1.5 -1.9
v 1.6 1.6 -1.7
v 1.7 1.6 -1.7
v 1.6 1.6 -1.8
v 1.7 1.6 -1.8
v 1.8 1.6 -1.8
v 1.9 1.6 -1.8
v 1.8 1.6 -1.9
v 1.9 1.6 -1.9
v 2 1.6 -1.9
v 2.1 1.6 -1.9
v 2 1.6 -2
v 2.1 1.6 -2
v -2.2 1.7 -1.7
v 1.6 1.7 -1.7
v -2.2 1.7 -1.8
v 1.6 1.7 -1.8
v 1.7 1.7 -1.8
v 1.8 1.7 -1.8
v 1.7 1.7 -1.9
v 1.8 1.7 -1.9
v 1.9 1.7 -1.9
v 2 1.7 -1.9
v 1.9 1.7 -2
v 2 1.7 -2
v -2.2 1.8 -1.8
v 1.7 1.8 -1.8
v -2.2 1.8 -1.9
v 1.7 1.8 -1.9
v 1.8 1.8 -1.9
v 1.9 1.8 -1.9
v 1.8 1.8 -2
v 1.9 1.8 -2
v -2.2 1.9 -1.9
v 1.8 1.9 -1.9
v -2.2 1.9 -2
v 1.8 1.9 -2
v -2.2 2.2 -2
v 2.2 2.2 -2
v -2.2 2.2 -2.1
v 2.2 2.2 -2.1
v -2.2 2.2 -2.2
v 2.2 2.2 -2.2

# faces
f 3/3/1 2/3/1 1/3/1
f 4/3/1 2/3/1 3/3/1
f 5/3/1 2/3/1 4/3/1
f 7/1/1 5/1/1 4/1/1
f 8/3/1 2/3/1 5/3/1
f 8/1/1 5/1/1 7/1/1
f 9/3/1 2/3/1 8/3/1
f 11/3/1 7/3/1 6/3/1
f 11/3/1 8/3/1 7/3/1
f 12/2/1 9/2/1 8/2/1
f 12/3/1 8/3/1 11/3/1
f 13/2/1 11/2/1 10/2/1
f 13/2/1 12/2/1 11/2/1
f 14/2/1 9/2/1 12/2/1
f 14/2/1 12/2/1 13/2/1
f 17/2/1 16/2/1 15/2/1
f 18/2/1 16/2/1 17/2/1
f 19/2/1 16/2/1 18/2/1
f 20/2/1 16/2/1 19/2/1
f 21/2/1 16/2/1 20/2/1
f 22/3/1 21/3/1 20/3/1
f 23/3/1 21/3/1 22/3/1
f 24/3/1 21/3/1 23/3/1
f 25/1/1 24/1/1 23/1/1
f 26/1/1 24/1/1 25/1/1
f 27/1/1 25/1/1 23/1/1
f 28/3/1 26/3/1 25/3/1
f 28/1/1 25/1/1 27/1/1
f 29/3/1 26/3/1 28/3/1
f 32/2/1 31/2/1 30/2/1
f 33/2/1 31/2/1 32/2/1
f 36/2/1 35/2/1 34/2/1
f 37/2/1 35/2/1 36/2/1
f 40/2/1 39/2/1 38/2/1
f 41/2/1 39/2/1 40/2/1
f 44/2/1 43/2/1 42/2/1
f 45/2/1 43/2/1 44/2/1
f 48/2/1 47/2/1 46/2/1
f 49/2/1 47/2/1 48/2/1
f 52/2/1 51/2/1 50/2/1
f 53/2/1 51/2/1 52/2/1
f 56/2/1 55/2/1 54/2/1
f 57/2/1 55/2/1 56/2/1
f 58/2/2 59/2/2 60/2/2
f 60/2/2 59/2/2 61/2/2
f 62/2/2 63/2/2 64/2/2
f 64/2/2 63/2/2 65/2/2
f 66/2/2 67/2/2 68/2/2
f 68/2/2 67/2/2 69/2/2
f 70/2/2 71/2/2 72/2/2
f 72/2/2 71/2/2 73/2/2
f 74/2/2 75/2/2 76/2/2
f 76/2/2 75/2/2 77/2/2
f 78/2/2 79/2/2 80/2/2
f 80/2/2 79/2/2 81/2/2
f 82/2/2 83/2/2 84/2/2
f 84/2/2 83/2/2 85/2/2
f 86/2/2 87/2/2 88/2/2
f 88/2/2 87/2/2 89/2/2
f 90/2/2 91/2/2 92/2/2
f 92/2/2 91/2/2 93/2/2
f 94/3/2 95/3/2 96/3/2
f 96/3/2 95/3/2 97/3/2
f 98/3/2 99/3/2 100/3/2
f 100/3/2 99/3/2 101/3/2
f 102/2/2 103/2/2 104/2/2
f 104/2/2 103/2/2 105/2/2
f 106/2/2 107/2/2 108/2/2
f 108/2/2 107/2/2 109/2/2
f 110/2/2 111/2/2 112/2/2
f 112/2/2 111/2/2 113/2/2
f 114/3/2 115/3/2 116/3/2
f 116/3/2 115/3/2 117/3/2
f 118/3/2 119/3/2 120/3/2
f 120/3/2 119/3/2 121/3/2
f 122/2/2 123/2/2 124/2/2
f 124/2/2 123/2/2 125/2/2
f 126/3/2 127/3/2 128/3/2
f 128/3/2 127/3/2 129/3/2
f 130/3/2 131/3/2 132/3/2
f 132/3/2 131/3/2 133/3/2
f 134/3/2 135/3/2 136/3/2
f 136/3/2 135/3/2 137/3/2
f 137/3/2 135/3/2 138/3/2
f 137/1/2 138/1/2 139/1/2
f 138/3/2 135/3/2 140/3/2
f 139/1/2 138/1/2 140/1/2
f 140/3/2 135/3/2 141/3/2
f 144/3/3 143/3/3 142/3/3
f 145/3/3 143/3/3 144/3/3
f 150/2/3 147/2/3 146/2/3
f 153/2/3 149/2/3 148/2/3
f 154/2/3 151/2/3 150/2/3
f 154/2/3 150/2/3 146/2/3
f 155/2/3 151/2/3 154/2/3
f 156/2/3 151/2/3 155/2/3
f 159/2/3 153/2/3 152/2/3
f 160/2/3 149/2/3 153/2/3
f 160/2/3 153/2/3 159/2/3
f 161/2/3 149/2/3 160/2/3
f 162/2/3 157/2/3 156/2/3
f 162/2/3 156/2/3 155/2/3
f 163/2/3 157/2/3 162/2/3
f 164/2/3 157/2/3 163/2/3
f 167/2/3 159/2/3 158/2/3
f 167/2/3 160/2/3 159/2/3
f 168/2/3 160/2/3 167/2/3
f 169/2/3 160/2/3 168/2/3
f 170/2/3 165/2/3 164/2/3
f 170/2/3 164/2/3 163/2/3
f 171/2/3 165/2/3 170/2/3
f 172/2/3 165/2/3 171/2/3
f 173/2/3 168/2/3 167/2/3
f 173/2/3 167/2/3 166/2/3
f 174/2/3 168/2/3 173/2/3
f 175/2/3 168/2/3 174/2/3
f 176/2/3 172/2/3 171/2/3
f 176/2/3 174/2/3 173/2/3
f 176/2/3 173/2/3 172/2/3
f 177/2/3 174/2/3 176/2/3
f 183/2/3 179/2/3 178/2/3
f 184/2/3 181/2/3 180/2/3
f 187/2/3 183/2/3 182/2/3
f 188/2/3 179/2/3 183/2/3
f 188/2/3 183/2/3 187/2/3
f 189/2/3 179/2/3 188/2/3
f 190/2/3 185/2/3 184/2/3
f 190/2/3 184/2/3 180/2/3
f 191/2/3 185/2/3 190/2/3
f 192/2/3 185/2/3 191/2/3
f 195/2/3 187/2/3 186/2/3
f 195/2/3 188/2/3 187/2/3
f 196/2/3 188/2/3 195/2/3
f 197/2/3 188/2/3 196/2/3
f 198/2/3 193/2/3 192/2/3
f 198/2/3 192/2/3 191/2/3
f 199/2/3 193/2/3 198/2/3
f 200/2/3 193/2/3 199/2/3
f 201/2/3 196/2/3 195/2/3
f 201/2/3 195/2/3 194/2/3
f 202/2/3 196/2/3 201/2/3
f 203/2/3 196/2/3 202/2/3
f 204/2/3 200/2/3 199/2/3
f 204/2/3 202/2/3 201/2/3
f 204/2/3 201/2/3 200/2/3
f 205/2/3 202/2/3 204/2/3
f 211/3/3 209/3/3 208/3/3
f 212/3/3 207/3/3 206/3/3
f 215/3/3 211/3/3 210/3/3
f 216/3/3 209/3/3 211/3/3
f 216/3/3 211/3/3 215/3/3
f 217/3/3 209/3/3 216/3/3
f 218/3/3 213/3/3 212/3/3
f 218/3/3 212/3/3 206/3/3
f 219/3/3 213/3/3 218/3/3
f 220/3/3 213/3/3 219/3/3
f 223/3/3 215/3/3 214/3/3
f 223/3/3 216/3/3 215/3/3
f 224/3/3 216/3/3 223/3/3
f 225/3/3 216/3/3 224/3/3
f 226/3/3 221/3/3 220/3/3
f 226/3/3 220/3/3 219/3/3
f 227/3/3 221/3/3 226/3/3
f 228/3/3 221/3/3 227/3/3
f 229/3/3 224/3/3 223/3/3
f 229/3/3 223/3/3 222/3/3
f 230/3/3 224/3/3 229/3/3
f 231/3/3 224/3/3 230/3/3
f 232/3/3 228/3/3 227/3/3
f 232/3/3 230/3/3 229/3/3
f 232/3/3 229/3/3 228/3/3
f 233/3/3 230/3/3 232/3/3
f 238/1/3 235/1/3 234/1/3
f 240/1/3 237/1/3 236/1/3
f 241/1/3 235/1/3 238/1/3
f 244/1/3 240/1/3 239/1/3
f 245/1/3 242/1/3 241/1/3
f 245/1/3 241/1/3 238/1/3
f 246/1/3 242/1/3 245/1/3
f 249/1/3 244/1/3 243/1/3
f 250/1/3 247/1/3 246/1/3
f 250/1/3 246/1/3 245/1/3
f 251/1/3 249/1/3 248/1/3
f 252/1/3 250/1/3 245/1/3
f 252/1/3 251/1/3 250/1/3
f 253/1/3 249/1/3 251/1/3
f 253/1/3 251/1/3 252/1/3
f 253/1/3 237/1/3 240/1/3
f 253/1/3 240/1/3 244/1/3
f 253/1/3 244/1/3 249/1/3
f 255/2/4 256/2/4 262/2/4
f 257/2/4 258/2/4 265/2/4
f 262/2/4 263/2/4 266/2/4
f 264/2/4 265/2/4 269/2/4
f 254/3/4 255/3/4 270/3/4
f 266/2/4 267/2/4 270/2/4
f 255/2/4 262/2/4 270/2/4
f 262/2/4 266/2/4 270/2/4
f 270/2/4 267/2/4 271/2/4
f 271/2/4 267/2/4 272/2/4
f 268/2/4 269/2/4 275/2/4
f 269/2/4 265/2/4 276/2/4
f 265/2/4 258/2/4 276/2/4
f 275/2/4 269/2/4 276/2/4
f 258/3/4 259/3/4 277/3/4
f 276/2/4 258/2/4 277/2/4
f 272/2/4 273/2/4 278/2/4
f 270/3/4 271/3/4 278/3/4
f 271/2/4 272/2/4 278/2/4
f 278/2/4 273/2/4 279/2/4
f 279/2/4 273/2/4 280/2/4
f 274/2/4 275/2/4 281/2/4
f 275/2/4 276/2/4 281/2/4
f 281/2/4 276/2/4 282/2/4
f 276/3/4 277/3/4 283/3/4
f 282/2/4 276/2/4 283/2/4
f 277/3/4 259/3/4 284/3/4
f 283/3/4 277/3/4 284/3/4
f 259/1/4 260/1/4 285/1/4
f 284/3/4 259/3/4 285/3/4
f 278/3/4 279/3/4 286/3/4
f 254/3/4 270/3/4 286/3/4
f 270/3/4 278/3/4 286/3/4
f 286/3/4 279/3/4 287/3/4
f 279/2/4 280/2/4 288/2/4
f 287/3/4 279/3/4 288/3/4
f 281/2/4 282/2/4 288/2/4
f 280/2/4 281/2/4 288/2/4
f 288/2/4 282/2/4 289/2/4
f 289/2/4 282/2/4 290/2/4
f 282/3/4 283/3/4 291/3/4
f 290/2/4 282/2/4 291/2/4
f 283/3/4 284/3/4 291/3/4
f 291/3/4 284/3/4 292/3/4
f 284/1/4 285/1/4 293/1/4
f 292/3/4 284/3/4 293/3/4
f 286/1/4 287/1/4 294/1/4
f 288/3/4 289/3/4 294/3/4
f 287/3/4 288/3/4 294/3/4
f 294/3/4 289/3/4 295/3/4
f 289/2/4 290/2/4 296/2/4
f 295/3/4 289/3/4 296/3/4
f 291/3/4 292/3/4 297/3/4
f 296/2/4 290/2/4 297/2/4
f 290/3/4 291/3/4 297/3/4
f 297/3/4 292/3/4 298/3/4
f 292/1/4 293/1/4 299/1/4
f 298/3/4 292/3/4 299/3/4
f 294/1/4 295/1/4 300/1/4
f 254/3/4 286/3/4 300/3/4
f 286/1/4 294/1/4 300/1/4
f 297/3/4 298/3/4 301/3/4
f 300/1/4 295/1/4 301/1/4
f 295/3/4 296/3/4 301/3/4
f 296/3/4 297/3/4 301/3/4
f 298/1/4 299/1/4 302/1/4
f 301/3/4 298/3/4 302/3/4
f 299/1/4 293/1/4 303/1/4
f 302/1/4 299/1/4 303/1/4
f 260/3/4 261/3/4 303/3/4
f 293/1/4 285/1/4 303/1/4
f 285/1/4 260/1/4 303/1/4
f 301/3/4 302/3/4 304/3/4
f 300/3/4 301/3/4 304/3/4
f 302/3/4 303/3/4 304/3/4
f 254/3/4 300/3/4 304/3/4
f 303/3/4 261/3/4 305/3/4
f 304/3/4 303/3/4 305/3/4
f 308/3/5 307/3/5 306/3/5
f 309/3/5 307/3/5 308/3/5
f 310/2/5 309/2/5 308/2/5
f 311/2/5 309/2/5 310/2/5
f 312/3/5 311/3/5 310/3/5
f 313/3/5 311/3/5 312/3/5
f 314/3/5 312/3/5 310/3/5
f 314/1/5 313/1/5 312/1/5
f 315/3/5 311/3/5 313/3/5
f 315/1/5 313/1/5 314/1/5
f 316/2/5 310/2/5 308/2/5
f 316/3/5 314/3/5 310/3/5
f 316/3/5 315/3/5 314/3/5
f 317/3/5 311/3/5 315/3/5
f 317/3/5 315/3/5 316/3/5
f 317/2/5 309/2/5 311/2/5
f 318/3/5 308/3/5 306/3/5
f 318/2/5 316/2/5 308/2/5
f 318/2/5 317/2/5 316/2/5
f 319/2/5 309/2/5 317/2/5
f 319/2/5 317/2/5 318/2/5
f 319/3/5 307/3/5 309/3/5
f 320/3/5 318/3/5 306/3/5
f 320/3/5 319/3/5 318/3/5
f 321/3/5 307/3/5 319/3/5
f 321/3/5 319/3/5 320/3/5
f 324/3/5 323/3/5 322/3/5
f 325/3/5 323/3/5 324/3/5
f 328/2/5 327/2/5 326/2/5
f 330/2/5 328/2/5 326/2/5
f 330/2/5 329/2/5 328/2/5
f 331/2/5 329/2/5 330/2/5
f 334/3/5 333/3/5 332/3/5
f 335/3/5 333/3/5 334/3/5
f 338/2/5 337/2/5 336/2/5
f 339/2/5 337/2/5 338/2/5
f 342/2/5 341/2/5 340/2/5
f 343/2/5 341/2/5 342/2/5
f 346/3/5 345/3/5 344/3/5
f 347/3/5 345/3/5 346/3/5
f 350/2/5 349/2/5 348/2/5
f 351/2/5 349/2/5 350/2/5
f 354/2/5 353/2/5 352/2/5
f 355/2/5 353/2/5 354/2/5
f 358/2/5 357/2/5 356/2/5
f 359/2/5 357/2/5 358/2/5
f 362/2/5 361/2/5 360/2/5
f 363/2/5 361/2/5 362/2/5
f 366/2/5 365/2/5 364/2/5
f 367/2/5 365/2/5 366/2/5
f 370/2/5 369/2/5 368/2/5
f 371/2/5 369/2/5 370/2/5
f 374/2/5 373/2/5 372/2/5
f 375/2/5 373/2/5 374/2/5
f 376/3/6 377/3/6 378/3/6
f 378/3/6 377/3/6 379/3/6
f 378/2/6 379/2/6 380/2/6
f 380/2/6 379/2/6 381/2/6
f 380/3/6 381/3/6 382/3/6
f 382/3/6 381/3/6 383/3/6
f 380/3/6 382/3/6 384/3/6
f 382/1/6 383/1/6 384/1/6
f 383/3/6 381/3/6 385/3/6
f 384/1/6 383/1/6 385/1/6
f 378/2/6 380/2/6 386/2/6
f 380/3/6 384/3/6 386/3/6
f 384/3/6 385/3/6 386/3/6
f 385/3/6 381/3/6 387/3/6
f 386/3/6 385/3/6 387/3/6
f 381/2/6 379/2/6 387/2/6
f 376/3/6 378/3/6 388/3/6
f 378/2/6 386/2/6 389/2/6
f 388/3/6 378/3/6 389/3/6
f 386/2/6 387/2/6 389/2/6
f 387/2/6 379/2/6 390/2/6
f 389/2/6 387/2/6 390/2/6
f 379/3/6 377/3/6 390/3/6
f 390/3/6 377/3/6 391/3/6
f 392/2/6 393/2/6 394/2/6
f 394/2/6 393/2/6 395/2/6
f 396/2/6 397/2/6 398/2/6
f 398/2/6 397/2/6 399/2/6
f 400/2/6 401/2/6 402/2/6
f 402/2/6 401/2/6 403/2/6
f 404/2/6 405/2/6 406/2/6
f 406/2/6 405/2/6 407/2/6
f 408/2/6 409/2/6 410/2/6
f 410/2/6 409/2/6 411/2/6
f 412/2/6 413/2/6 414/2/6
f 414/2/6 413/2/6 415/2/6
f 416/2/6 417/2/6 418/2/6
f 418/2/6 417/2/6 419/2/6
f 420/2/6 421/2/6 422/2/6
f 422/2/6 421/2/6 423/2/6
f 424/2/6 425/2/6 426/2/6
f 426/2/6 425/2/6 427/2/6
f 428/3/6 429/3/6 430/3/6
f 430/3/6 429/3/6 431/3/6
f 432/2/6 433/2/6 434/2/6
f 434/2/6 433/2/6 435/2/6
f 436/2/6 437/2/6 438/2/6
f 438/2/6 437/2/6 439/2/6
f 440/3/6 441/3/6 442/3/6
f 442/3/6 441/3/6 443/3/6
f 444/2/6 445/2/6 446/2/6
f 446/2/6 445/2/6 447/2/6
f 448/3/6 449/3/6 450/3/6
f 450/3/6 449/3/6 451/3/6
f 452/3/6 453/3/6 454/3/6
f 454/3/6 453/3/6 455/3/6
f 456/1/6 457/1/6 458/1/6
f 458/1/6 457/1/6 459/1/6
f 458/3/6 459/3/6 460/3/6
f 460/3/6 459/3/6 461/3/6
