# MagicaVoxel @ Ephtracy

# group
o 

# material
mtllib mesh_hanger_ship_door_top_middle.mtl
usemtl palette

# normals
vn -1 0 0
vn 1 0 0
vn 0 0 1
vn 0 0 -1
vn 0 -1 0
vn 0 1 0

# texcoords
vt 0.373047 0.5
vt 0.837891 0.5
vt 0.986328 0.5
vt 0.990234 0.5
vt 0.994141 0.5

# verts
v -2.2 2 2.2
v -2.2 2 -2.2
v -2.2 2.2 2.2
v -2.2 2.2 -2.2
v 1.8 1.5 2.2
v 1.8 1.5 -2.2
v 1.8 1.6 2.2
v 1.8 1.6 -2.2
v 1.9 -2.2 2.2
v 1.9 -2.2 -2.2
v 1.9 -2 2.2
v 1.9 -2 -2.2
v 1.9 -1.9 2.2
v 1.9 -1.9 -2.2
v 1.9 -1.7 2.2
v 1.9 -1.7 -2.2
v 1.9 -1.5 2.2
v 1.9 -1.5 -2.2
v 1.9 -1.4 2.2
v 1.9 -1.4 -2.2
v 1.9 -1.2 2.2
v 1.9 -1.2 -2.2
v 1.9 -1 2.2
v 1.9 -1 -2.2
v 1.9 -0.9 2.2
v 1.9 -0.9 -2.2
v 1.9 -0.7 2.2
v 1.9 -0.7 -2.2
v 1.9 -0.5 2.2
v 1.9 -0.5 -2.2
v 1.9 -0.4 2.2
v 1.9 -0.4 -2.2
v 1.9 -0.2 2.2
v 1.9 -0.2 -2.2
v 1.9 0 2.2
v 1.9 0 -2.2
v 1.9 0.1 2.2
v 1.9 0.1 -2.2
v 1.9 0.3 2.2
v 1.9 0.3 -2.2
v 1.9 0.5 2.2
v 1.9 0.5 -2.2
v 1.9 0.6 2.2
v 1.9 0.6 -2.2
v 1.9 0.8 2.2
v 1.9 0.8 -2.2
v 1.9 1 2.2
v 1.9 1 -2.2
v 1.9 1.1 2.2
v 1.9 1.1 -2.2
v 1.9 1.3 2.2
v 1.9 1.3 -2.2
v 1.9 1.5 2.2
v 1.9 1.5 -2.2
v 2 1.6 2.2
v 2 1.6 -2.2
v 2 1.8 2.2
v 2 1.8 -2.2
v 2 2 2.2
v 2 2 -2.2
v 2.1 -2.2 2.2
v 2.1 -2.2 -2.2
v 2.1 1.5 2.2
v 2.1 1.5 -2.2
v 2.2 1.5 2.2
v 2.2 1.5 -2.2
v 2.2 1.6 2.2
v 2.2 1.6 -2.2
v 2.2 1.8 2.2
v 2.2 1.8 -2.2
v 2.2 2 2.2
v 2.2 2 -2.2
v 2.2 2.2 2.2
v 2.2 2.2 -2.2
v -2.2 2 2.2
v -2.2 2.2 2.2
v 1 2 2.2
v 1 2.1 2.2
v 1.1 2 2.2
v 1.1 2.1 2.2
v 1.3 2 2.2
v 1.3 2.1 2.2
v 1.4 2 2.2
v 1.4 2.1 2.2
v 1.5 2 2.2
v 1.5 2.1 2.2
v 1.6 2 2.2
v 1.6 2.1 2.2
v 1.8 1.5 2.2
v 1.8 1.6 2.2
v 1.8 2 2.2
v 1.8 2.1 2.2
v 1.9 -2.2 2.2
v 1.9 -2 2.2
v 1.9 -1.9 2.2
v 1.9 -1.7 2.2
v 1.9 -1.5 2.2
v 1.9 -1.4 2.2
v 1.9 -1.2 2.2
v 1.9 -1 2.2
v 1.9 -0.9 2.2
v 1.9 -0.7 2.2
v 1.9 -0.5 2.2
v 1.9 -0.4 2.2
v 1.9 -0.2 2.2
v 1.9 0 2.2
v 1.9 0.1 2.2
v 1.9 0.3 2.2
v 1.9 0.5 2.2
v 1.9 0.6 2.2
v 1.9 0.8 2.2
v 1.9 1 2.2
v 1.9 1.1 2.2
v 1.9 1.3 2.2
v 1.9 1.5 2.2
v 2 -2 2.2
v 2 -1.9 2.2
v 2 -1.7 2.2
v 2 -1.5 2.2
v 2 -1.4 2.2
v 2 -1.2 2.2
v 2 -1 2.2
v 2 -0.9 2.2
v 2 -0.7 2.2
v 2 -0.5 2.2
v 2 -0.4 2.2
v 2 -0.2 2.2
v 2 0 2.2
v 2 0.1 2.2
v 2 0.3 2.2
v 2 0.5 2.2
v 2 0.6 2.2
v 2 0.8 2.2
v 2 1 2.2
v 2 1.1 2.2
v 2 1.3 2.2
v 2 1.6 2.2
v 2 1.8 2.2
v 2 2 2.2
v 2 2.1 2.2
v 2.1 -2.2 2.2
v 2.1 1.5 2.2
v 2.2 1.5 2.2
v 2.2 1.6 2.2
v 2.2 1.8 2.2
v 2.2 2 2.2
v 2.2 2.2 2.2
v -2.2 2 -2.2
v -2.2 2.2 -2.2
v 1 2 -2.2
v 1 2.1 -2.2
v 1.1 2 -2.2
v 1.1 2.1 -2.2
v 1.3 2 -2.2
v 1.3 2.1 -2.2
v 1.4 2 -2.2
v 1.4 2.1 -2.2
v 1.5 2 -2.2
v 1.5 2.1 -2.2
v 1.6 2 -2.2
v 1.6 2.1 -2.2
v 1.8 1.5 -2.2
v 1.8 1.6 -2.2
v 1.8 2 -2.2
v 1.8 2.1 -2.2
v 1.9 -2.2 -2.2
v 1.9 -2 -2.2
v 1.9 -1.9 -2.2
v 1.9 -1.7 -2.2
v 1.9 -1.5 -2.2
v 1.9 -1.4 -2.2
v 1.9 -1.2 -2.2
v 1.9 -1 -2.2
v 1.9 -0.9 -2.2
v 1.9 -0.7 -2.2
v 1.9 -0.5 -2.2
v 1.9 -0.4 -2.2
v 1.9 -0.2 -2.2
v 1.9 0 -2.2
v 1.9 0.1 -2.2
v 1.9 0.3 -2.2
v 1.9 0.5 -2.2
v 1.9 0.6 -2.2
v 1.9 0.8 -2.2
v 1.9 1 -2.2
v 1.9 1.1 -2.2
v 1.9 1.3 -2.2
v 1.9 1.5 -2.2
v 2 -2 -2.2
v 2 -1.9 -2.2
v 2 -1.7 -2.2
v 2 -1.5 -2.2
v 2 -1.4 -2.2
v 2 -1.2 -2.2
v 2 -1 -2.2
v 2 -0.9 -2.2
v 2 -0.7 -2.2
v 2 -0.5 -2.2
v 2 -0.4 -2.2
v 2 -0.2 -2.2
v 2 0 -2.2
v 2 0.1 -2.2
v 2 0.3 -2.2
v 2 0.5 -2.2
v 2 0.6 -2.2
v 2 0.8 -2.2
v 2 1 -2.2
v 2 1.1 -2.2
v 2 1.3 -2.2
v 2 1.6 -2.2
v 2 1.8 -2.2
v 2 2 -2.2
v 2 2.1 -2.2
v 2.1 -2.2 -2.2
v 2.1 1.5 -2.2
v 2.2 1.5 -2.2
v 2.2 1.6 -2.2
v 2.2 1.8 -2.2
v 2.2 2 -2.2
v 2.2 2.2 -2.2
v 1.9 -2.2 2.2
v 2.1 -2.2 2.2
v 1.9 -2.2 -2.2
v 2.1 -2.2 -2.2
v 1.8 1.5 2.2
v 1.9 1.5 2.2
v 2.1 1.5 2.2
v 2.2 1.5 2.2
v 1.8 1.5 -2.2
v 1.9 1.5 -2.2
v 2.1 1.5 -2.2
v 2.2 1.5 -2.2
v -2.2 2 2.2
v 1 2 2.2
v 1.1 2 2.2
v 1.3 2 2.2
v 1.4 2 2.2
v 1.5 2 2.2
v 1.6 2 2.2
v 1.8 2 2.2
v 2 2 2.2
v -2.2 2 -2.2
v 1 2 -2.2
v 1.1 2 -2.2
v 1.3 2 -2.2
v 1.4 2 -2.2
v 1.5 2 -2.2
v 1.6 2 -2.2
v 1.8 2 -2.2
v 2 2 -2.2
v 1.8 1.6 2.2
v 2 1.6 2.2
v 1.8 1.6 -2.2
v 2 1.6 -2.2
v -2.2 2.2 2.2
v 2.2 2.2 2.2
v -2.2 2.2 -2.2
v 2.2 2.2 -2.2

# faces
f 3/3/1 2/3/1 1/3/1
f 4/3/1 2/3/1 3/3/1
f 7/2/1 6/2/1 5/2/1
f 8/2/1 6/2/1 7/2/1
f 11/3/1 10/3/1 9/3/1
f 12/3/1 10/3/1 11/3/1
f 13/5/1 12/5/1 11/5/1
f 14/5/1 12/5/1 13/5/1
f 15/4/1 14/4/1 13/4/1
f 16/4/1 14/4/1 15/4/1
f 17/3/1 16/3/1 15/3/1
f 18/3/1 16/3/1 17/3/1
f 19/5/1 18/5/1 17/5/1
f 20/5/1 18/5/1 19/5/1
f 21/4/1 20/4/1 19/4/1
f 22/4/1 20/4/1 21/4/1
f 23/3/1 22/3/1 21/3/1
f 24/3/1 22/3/1 23/3/1
f 25/5/1 24/5/1 23/5/1
f 26/5/1 24/5/1 25/5/1
f 27/4/1 26/4/1 25/4/1
f 28/4/1 26/4/1 27/4/1
f 29/3/1 28/3/1 27/3/1
f 30/3/1 28/3/1 29/3/1
f 31/5/1 30/5/1 29/5/1
f 32/5/1 30/5/1 31/5/1
f 33/4/1 32/4/1 31/4/1
f 34/4/1 32/4/1 33/4/1
f 35/3/1 34/3/1 33/3/1
f 36/3/1 34/3/1 35/3/1
f 37/5/1 36/5/1 35/5/1
f 38/5/1 36/5/1 37/5/1
f 39/4/1 38/4/1 37/4/1
f 40/4/1 38/4/1 39/4/1
f 41/3/1 40/3/1 39/3/1
f 42/3/1 40/3/1 41/3/1
f 43/5/1 42/5/1 41/5/1
f 44/5/1 42/5/1 43/5/1
f 45/4/1 44/4/1 43/4/1
f 46/4/1 44/4/1 45/4/1
f 47/3/1 46/3/1 45/3/1
f 48/3/1 46/3/1 47/3/1
f 49/5/1 48/5/1 47/5/1
f 50/5/1 48/5/1 49/5/1
f 51/4/1 50/4/1 49/4/1
f 52/4/1 50/4/1 51/4/1
f 53/3/1 52/3/1 51/3/1
f 54/3/1 52/3/1 53/3/1
f 57/4/1 56/4/1 55/4/1
f 58/4/1 56/4/1 57/4/1
f 59/2/1 58/2/1 57/2/1
f 60/2/1 58/2/1 59/2/1
f 61/3/2 62/3/2 63/3/2
f 63/3/2 62/3/2 64/3/2
f 65/2/2 66/2/2 67/2/2
f 67/2/2 66/2/2 68/2/2
f 67/4/2 68/4/2 69/4/2
f 69/4/2 68/4/2 70/4/2
f 69/2/2 70/2/2 71/2/2
f 71/2/2 70/2/2 72/2/2
f 71/3/2 72/3/2 73/3/2
f 73/3/2 72/3/2 74/3/2
f 77/3/3 76/3/3 75/3/3
f 78/3/3 76/3/3 77/3/3
f 79/4/3 78/4/3 77/4/3
f 80/3/3 76/3/3 78/3/3
f 80/4/3 78/4/3 79/4/3
f 81/5/3 80/5/3 79/5/3
f 82/3/3 76/3/3 80/3/3
f 82/5/3 80/5/3 81/5/3
f 83/4/3 82/4/3 81/4/3
f 84/3/3 76/3/3 82/3/3
f 84/4/3 82/4/3 83/4/3
f 85/1/3 84/1/3 83/1/3
f 86/3/3 76/3/3 84/3/3
f 86/1/3 84/1/3 85/1/3
f 87/4/3 86/4/3 85/4/3
f 88/3/3 76/3/3 86/3/3
f 88/4/3 86/4/3 87/4/3
f 91/5/3 88/5/3 87/5/3
f 92/3/3 76/3/3 88/3/3
f 92/5/3 88/5/3 91/5/3
f 115/2/3 90/2/3 89/2/3
f 116/3/3 94/3/3 93/3/3
f 116/5/3 95/5/3 94/5/3
f 117/4/3 96/4/3 95/4/3
f 117/5/3 95/5/3 116/5/3
f 118/3/3 97/3/3 96/3/3
f 118/4/3 96/4/3 117/4/3
f 119/5/3 98/5/3 97/5/3
f 119/3/3 97/3/3 118/3/3
f 120/4/3 99/4/3 98/4/3
f 120/5/3 98/5/3 119/5/3
f 121/3/3 100/3/3 99/3/3
f 121/4/3 99/4/3 120/4/3
f 122/5/3 101/5/3 100/5/3
f 122/3/3 100/3/3 121/3/3
f 123/4/3 102/4/3 101/4/3
f 123/5/3 101/5/3 122/5/3
f 124/3/3 103/3/3 102/3/3
f 124/4/3 102/4/3 123/4/3
f 125/5/3 104/5/3 103/5/3
f 125/3/3 103/3/3 124/3/3
f 126/4/3 105/4/3 104/4/3
f 126/5/3 104/5/3 125/5/3
f 127/3/3 106/3/3 105/3/3
f 127/4/3 105/4/3 126/4/3
f 128/5/3 107/5/3 106/5/3
f 128/3/3 106/3/3 127/3/3
f 129/4/3 108/4/3 107/4/3
f 129/5/3 107/5/3 128/5/3
f 130/3/3 109/3/3 108/3/3
f 130/4/3 108/4/3 129/4/3
f 131/5/3 110/5/3 109/5/3
f 131/3/3 109/3/3 130/3/3
f 132/4/3 111/4/3 110/4/3
f 132/5/3 110/5/3 131/5/3
f 133/3/3 112/3/3 111/3/3
f 133/4/3 111/4/3 132/4/3
f 134/5/3 113/5/3 112/5/3
f 134/3/3 112/3/3 133/3/3
f 135/4/3 114/4/3 113/4/3
f 135/5/3 113/5/3 134/5/3
f 136/3/3 115/3/3 114/3/3
f 136/4/3 114/4/3 135/4/3
f 137/2/3 90/2/3 115/2/3
f 139/4/3 92/4/3 91/4/3
f 140/3/3 76/3/3 92/3/3
f 140/4/3 92/4/3 139/4/3
f 141/3/3 134/3/3 133/3/3
f 141/3/3 135/3/3 134/3/3
f 141/3/3 116/3/3 93/3/3
f 141/3/3 117/3/3 116/3/3
f 141/3/3 118/3/3 117/3/3
f 141/3/3 136/3/3 135/3/3
f 141/3/3 119/3/3 118/3/3
f 141/3/3 133/3/3 132/3/3
f 141/3/3 132/3/3 131/3/3
f 141/3/3 131/3/3 130/3/3
f 141/3/3 130/3/3 129/3/3
f 141/3/3 129/3/3 128/3/3
f 141/3/3 128/3/3 127/3/3
f 141/3/3 127/3/3 126/3/3
f 141/3/3 126/3/3 125/3/3
f 141/3/3 125/3/3 124/3/3
f 141/3/3 124/3/3 123/3/3
f 141/3/3 123/3/3 122/3/3
f 141/3/3 122/3/3 121/3/3
f 141/3/3 121/3/3 120/3/3
f 141/3/3 120/3/3 119/3/3
f 142/3/3 115/3/3 136/3/3
f 142/3/3 136/3/3 141/3/3
f 142/2/3 137/2/3 115/2/3
f 143/2/3 137/2/3 142/2/3
f 144/4/3 138/4/3 137/4/3
f 144/2/3 137/2/3 143/2/3
f 145/2/3 139/2/3 138/2/3
f 145/4/3 138/4/3 144/4/3
f 146/3/3 140/3/3 139/3/3
f 146/2/3 139/2/3 145/2/3
f 147/3/3 76/3/3 140/3/3
f 147/3/3 140/3/3 146/3/3
f 148/3/4 149/3/4 150/3/4
f 150/3/4 149/3/4 151/3/4
f 150/4/4 151/4/4 152/4/4
f 151/3/4 149/3/4 153/3/4
f 152/4/4 151/4/4 153/4/4
f 152/5/4 153/5/4 154/5/4
f 153/3/4 149/3/4 155/3/4
f 154/5/4 153/5/4 155/5/4
f 154/4/4 155/4/4 156/4/4
f 155/3/4 149/3/4 157/3/4
f 156/4/4 155/4/4 157/4/4
f 156/1/4 157/1/4 158/1/4
f 157/3/4 149/3/4 159/3/4
f 158/1/4 157/1/4 159/1/4
f 158/4/4 159/4/4 160/4/4
f 159/3/4 149/3/4 161/3/4
f 160/4/4 159/4/4 161/4/4
f 160/5/4 161/5/4 164/5/4
f 161/3/4 149/3/4 165/3/4
f 164/5/4 161/5/4 165/5/4
f 162/2/4 163/2/4 188/2/4
f 166/3/4 167/3/4 189/3/4
f 167/5/4 168/5/4 189/5/4
f 168/4/4 169/4/4 190/4/4
f 189/5/4 168/5/4 190/5/4
f 169/3/4 170/3/4 191/3/4
f 190/4/4 169/4/4 191/4/4
f 170/5/4 171/5/4 192/5/4
f 191/3/4 170/3/4 192/3/4
f 171/4/4 172/4/4 193/4/4
f 192/5/4 171/5/4 193/5/4
f 172/3/4 173/3/4 194/3/4
f 193/4/4 172/4/4 194/4/4
f 173/5/4 174/5/4 195/5/4
f 194/3/4 173/3/4 195/3/4
f 174/4/4 175/4/4 196/4/4
f 195/5/4 174/5/4 196/5/4
f 175/3/4 176/3/4 197/3/4
f 196/4/4 175/4/4 197/4/4
f 176/5/4 177/5/4 198/5/4
f 197/3/4 176/3/4 198/3/4
f 177/4/4 178/4/4 199/4/4
f 198/5/4 177/5/4 199/5/4
f 178/3/4 179/3/4 200/3/4
f 199/4/4 178/4/4 200/4/4
f 179/5/4 180/5/4 201/5/4
f 200/3/4 179/3/4 201/3/4
f 180/4/4 181/4/4 202/4/4
f 201/5/4 180/5/4 202/5/4
f 181/3/4 182/3/4 203/3/4
f 202/4/4 181/4/4 203/4/4
f 182/5/4 183/5/4 204/5/4
f 203/3/4 182/3/4 204/3/4
f 183/4/4 184/4/4 205/4/4
f 204/5/4 183/5/4 205/5/4
f 184/3/4 185/3/4 206/3/4
f 205/4/4 184/4/4 206/4/4
f 185/5/4 186/5/4 207/5/4
f 206/3/4 185/3/4 207/3/4
f 186/4/4 187/4/4 208/4/4
f 207/5/4 186/5/4 208/5/4
f 187/3/4 188/3/4 209/3/4
f 208/4/4 187/4/4 209/4/4
f 188/2/4 163/2/4 210/2/4
f 164/4/4 165/4/4 212/4/4
f 165/3/4 149/3/4 213/3/4
f 212/4/4 165/4/4 213/4/4
f 206/3/4 207/3/4 214/3/4
f 207/3/4 208/3/4 214/3/4
f 166/3/4 189/3/4 214/3/4
f 189/3/4 190/3/4 214/3/4
f 190/3/4 191/3/4 214/3/4
f 208/3/4 209/3/4 214/3/4
f 191/3/4 192/3/4 214/3/4
f 205/3/4 206/3/4 214/3/4
f 204/3/4 205/3/4 214/3/4
f 203/3/4 204/3/4 214/3/4
f 202/3/4 203/3/4 214/3/4
f 201/3/4 202/3/4 214/3/4
f 200/3/4 201/3/4 214/3/4
f 199/3/4 200/3/4 214/3/4
f 198/3/4 199/3/4 214/3/4
f 197/3/4 198/3/4 214/3/4
f 196/3/4 197/3/4 214/3/4
f 195/3/4 196/3/4 214/3/4
f 194/3/4 195/3/4 214/3/4
f 193/3/4 194/3/4 214/3/4
f 192/3/4 193/3/4 214/3/4
f 209/3/4 188/3/4 215/3/4
f 214/3/4 209/3/4 215/3/4
f 188/2/4 210/2/4 215/2/4
f 215/2/4 210/2/4 216/2/4
f 210/4/4 211/4/4 217/4/4
f 216/2/4 210/2/4 217/2/4
f 211/2/4 212/2/4 218/2/4
f 217/4/4 211/4/4 218/4/4
f 212/3/4 213/3/4 219/3/4
f 218/2/4 212/2/4 219/2/4
f 213/3/4 149/3/4 220/3/4
f 219/3/4 213/3/4 220/3/4
f 223/3/5 222/3/5 221/3/5
f 224/3/5 222/3/5 223/3/5
f 229/2/5 226/2/5 225/2/5
f 230/2/5 226/2/5 229/2/5
f 231/2/5 228/2/5 227/2/5
f 232/2/5 228/2/5 231/2/5
f 242/3/5 234/3/5 233/3/5
f 243/4/5 235/4/5 234/4/5
f 243/3/5 234/3/5 242/3/5
f 244/5/5 236/5/5 235/5/5
f 244/4/5 235/4/5 243/4/5
f 245/4/5 237/4/5 236/4/5
f 245/5/5 236/5/5 244/5/5
f 246/1/5 238/1/5 237/1/5
f 246/4/5 237/4/5 245/4/5
f 247/4/5 239/4/5 238/4/5
f 247/1/5 238/1/5 246/1/5
f 248/5/5 240/5/5 239/5/5
f 248/4/5 239/4/5 247/4/5
f 249/4/5 241/4/5 240/4/5
f 249/5/5 240/5/5 248/5/5
f 250/4/5 241/4/5 249/4/5
f 251/2/6 252/2/6 253/2/6
f 253/2/6 252/2/6 254/2/6
f 255/3/6 256/3/6 257/3/6
f 257/3/6 256/3/6 258/3/6
