# MagicaVoxel @ Ephtracy

# group
o 

# material
mtllib mesh_hanger_door_frame_left.mtl
usemtl palette

# normals
vn -1 0 0
vn 1 0 0
vn 0 0 1
vn 0 0 -1
vn 0 -1 0
vn 0 1 0

# texcoords
vt 0.986328 0.5
vt 0.990234 0.5
vt 0.994141 0.5

# verts
v -2.2 -2.2 2.2
v -2.2 -2.2 -2.2
v -2.2 -2 2.2
v -2.2 -2 -2
v -2.2 -2 -2.1
v -2.2 2.2 -2
v -2.2 2.2 -2.1
v -2.2 2.2 -2.2
v -2.1 -1.7 -1.9
v -2.1 -1.7 -2
v -2.1 1.6 -1.9
v -2.1 1.6 -2
v -2 -1.8 -1.9
v -2 -1.8 -2
v -2 -1.7 -1.9
v -2 -1.7 -2
v -2 -1.6 -1.8
v -2 -1.6 -1.9
v -2 1.5 -1.8
v -2 1.5 -1.9
v -2 1.6 -1.9
v -2 1.6 -2
v -2 1.7 -1.9
v -2 1.7 -2
v -1.9 -1.9 -1.9
v -1.9 -1.9 -2
v -1.9 -1.8 -1.9
v -1.9 -1.8 -2
v -1.9 -1.7 -1.8
v -1.9 -1.7 -1.9
v -1.9 -1.6 -1.8
v -1.9 -1.6 -1.9
v -1.9 -1.5 -1.7
v -1.9 -1.5 -1.8
v -1.9 1.4 -1.7
v -1.9 1.4 -1.8
v -1.9 1.5 -1.8
v -1.9 1.5 -1.9
v -1.9 1.6 -1.8
v -1.9 1.6 -1.9
v -1.9 1.7 -1.9
v -1.9 1.7 -2
v -1.9 1.8 -1.9
v -1.9 1.8 -2
v -1.8 -1.8 -1.8
v -1.8 -1.8 -1.9
v -1.8 -1.7 -1.8
v -1.8 -1.7 -1.9
v -1.8 -1.6 -1.7
v -1.8 -1.6 -1.8
v -1.8 -1.5 -1.7
v -1.8 -1.5 -1.8
v -1.8 1.4 -1.7
v -1.8 1.4 -1.8
v -1.8 1.5 -1.7
v -1.8 1.5 -1.8
v -1.8 1.6 -1.8
v -1.8 1.6 -1.9
v -1.8 1.7 -1.8
v -1.8 1.7 -1.9
v -1.8 1.8 -1.9
v -1.8 1.8 -2
v -1.8 1.9 -1.9
v -1.8 1.9 -2
v -1.7 -1.7 -1.7
v -1.7 -1.7 -1.8
v -1.7 -1.6 -1.7
v -1.7 -1.6 -1.8
v -1.7 1.5 -1.7
v -1.7 1.5 -1.8
v -1.7 1.6 -1.7
v -1.7 1.6 -1.8
v -1.7 1.7 -1.8
v -1.7 1.7 -1.9
v -1.7 1.8 -1.8
v -1.7 1.8 -1.9
v -1.6 -1.8 -1.7
v -1.6 -1.8 -1.8
v -1.6 -1.7 -1.7
v -1.6 -1.7 -1.8
v -1.6 1.6 -1.7
v -1.6 1.6 -1.8
v -1.6 1.7 -1.7
v -1.6 1.7 -1.8
v -1.8 -1.4 -1.7
v -1.8 -1.4 -2.2
v -1.8 1.3 -1.7
v -1.8 1.3 -2.2
v -1.7 -1.5 -1.7
v -1.7 -1.5 -2.2
v -1.7 -1.4 -1.7
v -1.7 -1.4 -2.2
v -1.7 1.3 -1.7
v -1.7 1.3 -2.2
v -1.7 1.4 -1.7
v -1.7 1.4 -2.2
v -1.6 -1.6 -1.7
v -1.6 -1.6 -2.2
v -1.6 -1.5 -1.7
v -1.6 -1.5 -2.2
v -1.6 1.4 -1.7
v -1.6 1.4 -2.2
v -1.6 1.5 -1.7
v -1.6 1.5 -2.2
v -1.5 -1.7 -1.7
v -1.5 -1.7 -2.2
v -1.5 -1.6 -1.7
v -1.5 -1.6 -2.2
v -1.5 1.5 -1.7
v -1.5 1.5 -2.2
v -1.5 1.6 -1.7
v -1.5 1.6 -2.2
v 2.2 -2.2 2.2
v 2.2 -2.2 -2.2
v 2.2 -2 2.2
v 2.2 -2 -2
v 2.2 -2 -2.1
v 2.2 -1.9 -1.9
v 2.2 -1.9 -2
v 2.2 -1.9 -2.1
v 2.2 -1.9 -2.2
v 2.2 -1.8 -1.7
v 2.2 -1.8 -1.9
v 2.2 -1.8 -2.1
v 2.2 -1.7 -1.7
v 2.2 -1.7 -2.2
v 2.2 1.6 -1.7
v 2.2 1.6 -2.2
v 2.2 1.7 -1.7
v 2.2 1.7 -1.8
v 2.2 1.8 -1.8
v 2.2 1.8 -1.9
v 2.2 1.8 -2.2
v 2.2 1.9 -1.9
v 2.2 1.9 -2
v 2.2 1.9 -2.2
v 2.2 2.1 -2.1
v 2.2 2.1 -2.2
v 2.2 2.2 -2
v 2.2 2.2 -2.1
v 2.2 2.2 -2.2
v -2.2 -2.2 2.2
v -2.2 -2 2.2
v 2.2 -2.2 2.2
v 2.2 -2 2.2
v -1.9 -1.5 -1.7
v -1.9 1.4 -1.7
v -1.8 -1.6 -1.7
v -1.8 -1.5 -1.7
v -1.8 -1.4 -1.7
v -1.8 1.3 -1.7
v -1.8 1.4 -1.7
v -1.8 1.5 -1.7
v -1.7 -1.7 -1.7
v -1.7 -1.6 -1.7
v -1.7 -1.5 -1.7
v -1.7 -1.4 -1.7
v -1.7 1.3 -1.7
v -1.7 1.4 -1.7
v -1.7 1.5 -1.7
v -1.7 1.6 -1.7
v -1.6 -1.8 -1.7
v -1.6 -1.7 -1.7
v -1.6 -1.6 -1.7
v -1.6 -1.5 -1.7
v -1.6 1.4 -1.7
v -1.6 1.5 -1.7
v -1.6 1.6 -1.7
v -1.6 1.7 -1.7
v -1.5 -1.7 -1.7
v -1.5 -1.6 -1.7
v -1.5 1.5 -1.7
v -1.5 1.6 -1.7
v 2.2 -1.8 -1.7
v 2.2 -1.7 -1.7
v 2.2 1.6 -1.7
v 2.2 1.7 -1.7
v -2 -1.6 -1.8
v -2 1.5 -1.8
v -1.9 -1.7 -1.8
v -1.9 -1.6 -1.8
v -1.9 -1.5 -1.8
v -1.9 1.4 -1.8
v -1.9 1.5 -1.8
v -1.9 1.6 -1.8
v -1.8 -1.8 -1.8
v -1.8 -1.7 -1.8
v -1.8 -1.6 -1.8
v -1.8 -1.5 -1.8
v -1.8 1.4 -1.8
v -1.8 1.5 -1.8
v -1.8 1.6 -1.8
v -1.8 1.7 -1.8
v -1.7 -1.7 -1.8
v -1.7 -1.6 -1.8
v -1.7 1.5 -1.8
v -1.7 1.6 -1.8
v -1.7 1.7 -1.8
v -1.7 1.8 -1.8
v -1.6 -1.8 -1.8
v -1.6 -1.7 -1.8
v -1.6 1.6 -1.8
v -1.6 1.7 -1.8
v 2.2 1.7 -1.8
v 2.2 1.8 -1.8
v -2.1 -1.7 -1.9
v -2.1 1.6 -1.9
v -2 -1.8 -1.9
v -2 -1.7 -1.9
v -2 -1.6 -1.9
v -2 1.5 -1.9
v -2 1.6 -1.9
v -2 1.7 -1.9
v -1.9 -1.9 -1.9
v -1.9 -1.8 -1.9
v -1.9 -1.7 -1.9
v -1.9 -1.6 -1.9
v -1.9 1.5 -1.9
v -1.9 1.6 -1.9
v -1.9 1.7 -1.9
v -1.9 1.8 -1.9
v -1.8 -1.8 -1.9
v -1.8 -1.7 -1.9
v -1.8 1.6 -1.9
v -1.8 1.7 -1.9
v -1.8 1.8 -1.9
v -1.8 1.9 -1.9
v -1.7 1.7 -1.9
v -1.7 1.8 -1.9
v 2.2 -1.9 -1.9
v 2.2 -1.8 -1.9
v 2.2 1.8 -1.9
v 2.2 1.9 -1.9
v -2.2 -2 -2
v -2.2 2.2 -2
v -2.1 -1.7 -2
v -2.1 1.6 -2
v -2 -2 -2
v -2 -1.8 -2
v -2 -1.7 -2
v -2 1.6 -2
v -2 1.7 -2
v -1.9 -1.9 -2
v -1.9 -1.8 -2
v -1.9 1.7 -2
v -1.9 1.8 -2
v -1.8 1.8 -2
v -1.8 1.9 -2
v 2 -2 -2
v 2.2 -2 -2
v 2.2 -1.9 -2
v 2.2 1.9 -2
v 2.2 2.2 -2
v -2.2 -2.2 -2.2
v -2.2 2.2 -2.2
v -2.1 -1.9 -2.2
v -2.1 -1.7 -2.2
v -2.1 1.6 -2.2
v -2.1 2.1 -2.2
v -2 -1.8 -2.2
v -2 -1.7 -2.2
v -2 -1.6 -2.2
v -2 1.5 -2.2
v -2 1.6 -2.2
v -2 1.7 -2.2
v -1.9 -1.9 -2.2
v -1.9 -1.8 -2.2
v -1.9 -1.7 -2.2
v -1.9 -1.6 -2.2
v -1.9 1.5 -2.2
v -1.9 1.6 -2.2
v -1.9 1.7 -2.2
v -1.9 1.8 -2.2
v -1.8 -1.8 -2.2
v -1.8 -1.7 -2.2
v -1.8 -1.4 -2.2
v -1.8 1.3 -2.2
v -1.8 1.6 -2.2
v -1.8 1.7 -2.2
v -1.8 1.8 -2.2
v -1.8 1.9 -2.2
v -1.7 -1.9 -2.2
v -1.7 -1.8 -2.2
v -1.7 -1.5 -2.2
v -1.7 -1.4 -2.2
v -1.7 1.3 -2.2
v -1.7 1.4 -2.2
v -1.7 1.7 -2.2
v -1.7 1.8 -2.2
v -1.6 -1.6 -2.2
v -1.6 -1.5 -2.2
v -1.6 1.4 -2.2
v -1.6 1.5 -2.2
v -1.5 -1.7 -2.2
v -1.5 -1.6 -2.2
v -1.5 1.5 -2.2
v -1.5 1.6 -2.2
v 2.2 -2.2 -2.2
v 2.2 -1.9 -2.2
v 2.2 -1.7 -2.2
v 2.2 1.6 -2.2
v 2.2 1.8 -2.2
v 2.2 1.9 -2.2
v 2.2 2.1 -2.2
v 2.2 2.2 -2.2
v -2.2 -2.2 2.2
v 2.2 -2.2 2.2
v -2 -2.2 2
v 2 -2.2 2
v -1.8 -2.2 1.8
v 1.8 -2.2 1.8
v -1.6 -2.2 1.6
v 1.5 -2.2 1.6
v -1.6 -2.2 -1.6
v 1.5 -2.2 -1.6
v -1.8 -2.2 -1.8
v 1.8 -2.2 -1.8
v -2 -2.2 -2
v 2 -2.2 -2
v -2.2 -2.2 -2.2
v 2.2 -2.2 -2.2
v -1.9 -1.9 -1.9
v 2.2 -1.9 -1.9
v -1.9 -1.9 -2
v 2.2 -1.9 -2
v -1.6 -1.8 -1.7
v 2.2 -1.8 -1.7
v -1.8 -1.8 -1.8
v -1.6 -1.8 -1.8
v -2 -1.8 -1.9
v -1.9 -1.8 -1.9
v -1.8 -1.8 -1.9
v 2.2 -1.8 -1.9
v -2 -1.8 -2
v -1.9 -1.8 -2
v -1.7 -1.7 -1.7
v -1.6 -1.7 -1.7
v -1.9 -1.7 -1.8
v -1.8 -1.7 -1.8
v -1.7 -1.7 -1.8
v -1.6 -1.7 -1.8
v -2.1 -1.7 -1.9
v -2 -1.7 -1.9
v -1.9 -1.7 -1.9
v -1.8 -1.7 -1.9
v -2.1 -1.7 -2
v -2 -1.7 -2
v -1.8 -1.6 -1.7
v -1.7 -1.6 -1.7
v -2 -1.6 -1.8
v -1.9 -1.6 -1.8
v -1.8 -1.6 -1.8
v -1.7 -1.6 -1.8
v -2 -1.6 -1.9
v -1.9 -1.6 -1.9
v -1.9 -1.5 -1.7
v -1.8 -1.5 -1.7
v -1.9 -1.5 -1.8
v -1.8 -1.5 -1.8
v -1.8 1.3 -1.7
v -1.7 1.3 -1.7
v -1.8 1.3 -2.2
v -1.7 1.3 -2.2
v -1.7 1.4 -1.7
v -1.6 1.4 -1.7
v -1.7 1.4 -2.2
v -1.6 1.4 -2.2
v -1.6 1.5 -1.7
v -1.5 1.5 -1.7
v -1.6 1.5 -2.2
v -1.5 1.5 -2.2
v -1.5 1.6 -1.7
v 2.2 1.6 -1.7
v -1.5 1.6 -2.2
v 2.2 1.6 -2.2
v -2.2 -2 2.2
v 2.2 -2 2.2
v -2 -2 2
v 2 -2 2
v -1.8 -2 1.8
v 1.8 -2 1.8
v -1.6 -2 1.6
v 1.5 -2 1.6
v -1.6 -2 -1.6
v 1.5 -2 -1.6
v -1.8 -2 -1.8
v 1.8 -2 -1.8
v -2.2 -2 -2
v -2 -2 -2
v 2 -2 -2
v 2.2 -2 -2
v -1.5 -1.7 -1.7
v 2.2 -1.7 -1.7
v -1.5 -1.7 -2.2
v 2.2 -1.7 -2.2
v -1.6 -1.6 -1.7
v -1.5 -1.6 -1.7
v -1.6 -1.6 -2.2
v -1.5 -1.6 -2.2
v -1.7 -1.5 -1.7
v -1.6 -1.5 -1.7
v -1.7 -1.5 -2.2
v -1.6 -1.5 -2.2
v -1.8 -1.4 -1.7
v -1.7 -1.4 -1.7
v -1.8 -1.4 -2.2
v -1.7 -1.4 -2.2
v -1.9 1.4 -1.7
v -1.8 1.4 -1.7
v -1.9 1.4 -1.8
v -1.8 1.4 -1.8
v -1.8 1.5 -1.7
v -1.7 1.5 -1.7
v -2 1.5 -1.8
v -1.9 1.5 -1.8
v -1.8 1.5 -1.8
v -1.7 1.5 -1.8
v -2 1.5 -1.9
v -1.9 1.5 -1.9
v -1.7 1.6 -1.7
v -1.6 1.6 -1.7
v -1.9 1.6 -1.8
v -1.8 1.6 -1.8
v -1.7 1.6 -1.8
v -1.6 1.6 -1.8
v -2.1 1.6 -1.9
v -2 1.6 -1.9
v -1.9 1.6 -1.9
v -1.8 1.6 -1.9
v -2.1 1.6 -2
v -2 1.6 -2
v -1.6 1.7 -1.7
v 2.2 1.7 -1.7
v -1.8 1.7 -1.8
v -1.7 1.7 -1.8
v -1.6 1.7 -1.8
v 2.2 1.7 -1.8
v -2 1.7 -1.9
v -1.9 1.7 -1.9
v -1.8 1.7 -1.9
v -1.7 1.7 -1.9
v -2 1.7 -2
v -1.9 1.7 -2
v -1.7 1.8 -1.8
v 2.2 1.8 -1.8
v -1.9 1.8 -1.9
v -1.8 1.8 -1.9
v -1.7 1.8 -1.9
v 2.2 1.8 -1.9
v -1.9 1.8 -2
v -1.8 1.8 -2
v -1.8 1.9 -1.9
v 2.2 1.9 -1.9
v -1.8 1.9 -2
v 2.2 1.9 -2
v -2.2 2.2 -2
v 2.2 2.2 -2
v -2.2 2.2 -2.1
v 2.2 2.2 -2.1
v -2.2 2.2 -2.2
v 2.2 2.2 -2.2

# faces
f 3/3/1 2/3/1 1/3/1
f 4/3/1 2/3/1 3/3/1
f 5/3/1 2/3/1 4/3/1
f 6/1/1 5/1/1 4/1/1
f 7/3/1 2/3/1 5/3/1
f 7/1/1 5/1/1 6/1/1
f 8/3/1 2/3/1 7/3/1
f 11/3/1 10/3/1 9/3/1
f 12/3/1 10/3/1 11/3/1
f 15/3/1 14/3/1 13/3/1
f 16/3/1 14/3/1 15/3/1
f 19/2/1 18/2/1 17/2/1
f 20/2/1 18/2/1 19/2/1
f 23/3/1 22/3/1 21/3/1
f 24/3/1 22/3/1 23/3/1
f 27/3/1 26/3/1 25/3/1
f 28/3/1 26/3/1 27/3/1
f 31/2/1 30/2/1 29/2/1
f 32/2/1 30/2/1 31/2/1
f 35/2/1 34/2/1 33/2/1
f 36/2/1 34/2/1 35/2/1
f 39/2/1 38/2/1 37/2/1
f 40/2/1 38/2/1 39/2/1
f 43/3/1 42/3/1 41/3/1
f 44/3/1 42/3/1 43/3/1
f 47/2/1 46/2/1 45/2/1
f 48/2/1 46/2/1 47/2/1
f 51/2/1 50/2/1 49/2/1
f 52/2/1 50/2/1 51/2/1
f 55/2/1 54/2/1 53/2/1
f 56/2/1 54/2/1 55/2/1
f 59/2/1 58/2/1 57/2/1
f 60/2/1 58/2/1 59/2/1
f 63/3/1 62/3/1 61/3/1
f 64/3/1 62/3/1 63/3/1
f 67/2/1 66/2/1 65/2/1
f 68/2/1 66/2/1 67/2/1
f 71/2/1 70/2/1 69/2/1
f 72/2/1 70/2/1 71/2/1
f 75/2/1 74/2/1 73/2/1
f 76/2/1 74/2/1 75/2/1
f 79/2/1 78/2/1 77/2/1
f 80/2/1 78/2/1 79/2/1
f 83/2/1 82/2/1 81/2/1
f 84/2/1 82/2/1 83/2/1
f 85/2/2 86/2/2 87/2/2
f 87/2/2 86/2/2 88/2/2
f 89/2/2 90/2/2 91/2/2
f 91/2/2 90/2/2 92/2/2
f 93/2/2 94/2/2 95/2/2
f 95/2/2 94/2/2 96/2/2
f 97/2/2 98/2/2 99/2/2
f 99/2/2 98/2/2 100/2/2
f 101/2/2 102/2/2 103/2/2
f 103/2/2 102/2/2 104/2/2
f 105/2/2 106/2/2 107/2/2
f 107/2/2 106/2/2 108/2/2
f 109/2/2 110/2/2 111/2/2
f 111/2/2 110/2/2 112/2/2
f 113/3/2 114/3/2 115/3/2
f 115/3/2 114/3/2 116/3/2
f 116/3/2 114/3/2 117/3/2
f 116/1/2 117/1/2 119/1/2
f 117/3/2 114/3/2 120/3/2
f 119/1/2 117/1/2 120/1/2
f 120/3/2 114/3/2 121/3/2
f 118/3/2 119/3/2 123/3/2
f 119/3/2 120/3/2 123/3/2
f 120/2/2 121/2/2 124/2/2
f 123/3/2 120/3/2 124/3/2
f 122/2/2 123/2/2 125/2/2
f 123/2/2 124/2/2 125/2/2
f 124/2/2 121/2/2 126/2/2
f 125/2/2 124/2/2 126/2/2
f 127/2/2 128/2/2 129/2/2
f 129/2/2 128/2/2 130/2/2
f 130/2/2 128/2/2 131/2/2
f 131/2/2 128/2/2 132/2/2
f 132/2/2 128/2/2 133/2/2
f 132/3/2 133/3/2 134/3/2
f 134/3/2 133/3/2 135/3/2
f 135/3/2 133/3/2 136/3/2
f 135/1/2 136/1/2 137/1/2
f 137/1/2 136/1/2 138/1/2
f 135/1/2 137/1/2 139/1/2
f 137/3/2 138/3/2 140/3/2
f 139/1/2 137/1/2 140/1/2
f 140/3/2 138/3/2 141/3/2
f 144/3/3 143/3/3 142/3/3
f 145/3/3 143/3/3 144/3/3
f 149/2/3 147/2/3 146/2/3
f 150/2/3 147/2/3 149/2/3
f 151/2/3 147/2/3 150/2/3
f 152/2/3 147/2/3 151/2/3
f 155/2/3 149/2/3 148/2/3
f 155/2/3 150/2/3 149/2/3
f 156/2/3 150/2/3 155/2/3
f 157/2/3 150/2/3 156/2/3
f 158/2/3 152/2/3 151/2/3
f 158/2/3 153/2/3 152/2/3
f 159/2/3 153/2/3 158/2/3
f 160/2/3 153/2/3 159/2/3
f 163/2/3 156/2/3 155/2/3
f 163/2/3 155/2/3 154/2/3
f 164/2/3 156/2/3 163/2/3
f 165/2/3 156/2/3 164/2/3
f 166/2/3 161/2/3 160/2/3
f 166/2/3 160/2/3 159/2/3
f 167/2/3 161/2/3 166/2/3
f 168/2/3 161/2/3 167/2/3
f 170/2/3 164/2/3 163/2/3
f 170/2/3 163/2/3 162/2/3
f 171/2/3 164/2/3 170/2/3
f 172/2/3 169/2/3 168/2/3
f 172/2/3 168/2/3 167/2/3
f 173/2/3 169/2/3 172/2/3
f 174/2/3 170/2/3 162/2/3
f 175/2/3 170/2/3 174/2/3
f 176/2/3 169/2/3 173/2/3
f 177/2/3 169/2/3 176/2/3
f 181/2/3 179/2/3 178/2/3
f 182/2/3 179/2/3 181/2/3
f 183/2/3 179/2/3 182/2/3
f 184/2/3 179/2/3 183/2/3
f 187/2/3 181/2/3 180/2/3
f 187/2/3 182/2/3 181/2/3
f 188/2/3 182/2/3 187/2/3
f 189/2/3 182/2/3 188/2/3
f 190/2/3 184/2/3 183/2/3
f 190/2/3 185/2/3 184/2/3
f 191/2/3 185/2/3 190/2/3
f 192/2/3 185/2/3 191/2/3
f 194/2/3 188/2/3 187/2/3
f 194/2/3 187/2/3 186/2/3
f 195/2/3 188/2/3 194/2/3
f 196/2/3 193/2/3 192/2/3
f 196/2/3 192/2/3 191/2/3
f 197/2/3 193/2/3 196/2/3
f 198/2/3 193/2/3 197/2/3
f 200/2/3 194/2/3 186/2/3
f 201/2/3 194/2/3 200/2/3
f 202/2/3 199/2/3 198/2/3
f 202/2/3 198/2/3 197/2/3
f 203/2/3 199/2/3 202/2/3
f 204/2/3 199/2/3 203/2/3
f 205/2/3 199/2/3 204/2/3
f 209/3/3 207/3/3 206/3/3
f 210/3/3 207/3/3 209/3/3
f 211/3/3 207/3/3 210/3/3
f 212/3/3 207/3/3 211/3/3
f 215/3/3 209/3/3 208/3/3
f 215/3/3 210/3/3 209/3/3
f 216/3/3 210/3/3 215/3/3
f 217/3/3 210/3/3 216/3/3
f 218/3/3 212/3/3 211/3/3
f 218/3/3 213/3/3 212/3/3
f 219/3/3 213/3/3 218/3/3
f 220/3/3 213/3/3 219/3/3
f 222/3/3 216/3/3 215/3/3
f 222/3/3 215/3/3 214/3/3
f 223/3/3 216/3/3 222/3/3
f 224/3/3 221/3/3 220/3/3
f 224/3/3 220/3/3 219/3/3
f 225/3/3 221/3/3 224/3/3
f 226/3/3 221/3/3 225/3/3
f 228/3/3 227/3/3 226/3/3
f 228/3/3 226/3/3 225/3/3
f 229/3/3 227/3/3 228/3/3
f 230/3/3 222/3/3 214/3/3
f 231/3/3 222/3/3 230/3/3
f 232/3/3 227/3/3 229/3/3
f 233/3/3 227/3/3 232/3/3
f 236/1/3 235/1/3 234/1/3
f 237/1/3 235/1/3 236/1/3
f 238/1/3 236/1/3 234/1/3
f 239/1/3 236/1/3 238/1/3
f 240/1/3 236/1/3 239/1/3
f 241/1/3 235/1/3 237/1/3
f 242/1/3 235/1/3 241/1/3
f 243/1/3 239/1/3 238/1/3
f 244/1/3 239/1/3 243/1/3
f 245/1/3 235/1/3 242/1/3
f 246/1/3 235/1/3 245/1/3
f 247/1/3 235/1/3 246/1/3
f 248/1/3 235/1/3 247/1/3
f 249/1/3 243/1/3 238/1/3
f 250/1/3 243/1/3 249/1/3
f 251/1/3 243/1/3 250/1/3
f 252/1/3 235/1/3 248/1/3
f 253/1/3 235/1/3 252/1/3
f 254/3/4 255/3/4 256/3/4
f 256/3/4 255/3/4 257/3/4
f 257/3/4 255/3/4 258/3/4
f 258/3/4 255/3/4 259/3/4
f 256/1/4 257/1/4 260/1/4
f 257/3/4 258/3/4 261/3/4
f 260/1/4 257/1/4 261/1/4
f 261/3/4 258/3/4 262/3/4
f 262/3/4 258/3/4 263/3/4
f 258/1/4 259/1/4 264/1/4
f 263/3/4 258/3/4 264/3/4
f 264/1/4 259/1/4 265/1/4
f 254/3/4 256/3/4 266/3/4
f 256/1/4 260/1/4 266/1/4
f 260/3/4 261/3/4 267/3/4
f 266/1/4 260/1/4 267/1/4
f 261/3/4 262/3/4 267/3/4
f 267/3/4 262/3/4 268/3/4
f 262/2/4 263/2/4 269/2/4
f 268/3/4 262/3/4 269/3/4
f 264/3/4 265/3/4 270/3/4
f 269/2/4 263/2/4 270/2/4
f 263/3/4 264/3/4 270/3/4
f 270/3/4 265/3/4 271/3/4
f 265/1/4 259/1/4 272/1/4
f 271/3/4 265/3/4 272/3/4
f 272/1/4 259/1/4 273/1/4
f 267/3/4 268/3/4 274/3/4
f 266/3/4 267/3/4 274/3/4
f 270/2/4 271/2/4 275/2/4
f 274/3/4 268/3/4 275/3/4
f 268/2/4 269/2/4 275/2/4
f 269/2/4 270/2/4 275/2/4
f 275/2/4 271/2/4 276/2/4
f 276/2/4 271/2/4 277/2/4
f 271/3/4 272/3/4 278/3/4
f 277/2/4 271/2/4 278/2/4
f 272/3/4 273/3/4 278/3/4
f 278/3/4 273/3/4 279/3/4
f 273/1/4 259/1/4 280/1/4
f 279/3/4 273/3/4 280/3/4
f 280/1/4 259/1/4 281/1/4
f 266/3/4 274/3/4 282/3/4
f 254/3/4 266/3/4 282/3/4
f 275/2/4 276/2/4 283/2/4
f 282/3/4 274/3/4 283/3/4
f 274/2/4 275/2/4 283/2/4
f 283/2/4 276/2/4 284/2/4
f 284/2/4 276/2/4 285/2/4
f 278/2/4 279/2/4 286/2/4
f 277/2/4 278/2/4 286/2/4
f 286/2/4 279/2/4 287/2/4
f 280/3/4 281/3/4 288/3/4
f 287/2/4 279/2/4 288/2/4
f 279/3/4 280/3/4 288/3/4
f 288/3/4 281/3/4 289/3/4
f 283/2/4 284/2/4 290/2/4
f 282/2/4 283/2/4 290/2/4
f 290/2/4 284/2/4 291/2/4
f 288/2/4 289/2/4 292/2/4
f 287/2/4 288/2/4 292/2/4
f 292/2/4 289/2/4 293/2/4
f 282/2/4 290/2/4 294/2/4
f 294/2/4 290/2/4 295/2/4
f 293/2/4 289/2/4 296/2/4
f 296/2/4 289/2/4 297/2/4
f 254/3/4 282/3/4 298/3/4
f 282/2/4 294/2/4 299/2/4
f 298/3/4 282/3/4 299/3/4
f 299/2/4 294/2/4 300/2/4
f 297/2/4 289/2/4 301/2/4
f 289/3/4 281/3/4 302/3/4
f 301/2/4 289/2/4 302/2/4
f 281/1/4 259/1/4 303/1/4
f 302/3/4 281/3/4 303/3/4
f 259/3/4 255/3/4 304/3/4
f 303/1/4 259/1/4 304/1/4
f 304/3/4 255/3/4 305/3/4
f 308/3/5 307/3/5 306/3/5
f 309/3/5 307/3/5 308/3/5
f 310/2/5 309/2/5 308/2/5
f 311/2/5 309/2/5 310/2/5
f 312/3/5 311/3/5 310/3/5
f 313/3/5 311/3/5 312/3/5
f 314/3/5 312/3/5 310/3/5
f 314/1/5 313/1/5 312/1/5
f 315/3/5 311/3/5 313/3/5
f 315/1/5 313/1/5 314/1/5
f 316/2/5 310/2/5 308/2/5
f 316/3/5 314/3/5 310/3/5
f 316/3/5 315/3/5 314/3/5
f 317/3/5 311/3/5 315/3/5
f 317/3/5 315/3/5 316/3/5
f 317/2/5 309/2/5 311/2/5
f 318/3/5 308/3/5 306/3/5
f 318/2/5 316/2/5 308/2/5
f 318/2/5 317/2/5 316/2/5
f 319/2/5 309/2/5 317/2/5
f 319/2/5 317/2/5 318/2/5
f 319/3/5 307/3/5 309/3/5
f 320/3/5 318/3/5 306/3/5
f 320/3/5 319/3/5 318/3/5
f 321/3/5 307/3/5 319/3/5
f 321/3/5 319/3/5 320/3/5
f 324/3/5 323/3/5 322/3/5
f 325/3/5 323/3/5 324/3/5
f 329/2/5 327/2/5 326/2/5
f 332/2/5 329/2/5 328/2/5
f 333/2/5 327/2/5 329/2/5
f 333/2/5 329/2/5 332/2/5
f 334/3/5 331/3/5 330/3/5
f 335/3/5 331/3/5 334/3/5
f 340/2/5 337/2/5 336/2/5
f 341/2/5 337/2/5 340/2/5
f 344/2/5 339/2/5 338/2/5
f 345/2/5 339/2/5 344/2/5
f 346/3/5 343/3/5 342/3/5
f 347/3/5 343/3/5 346/3/5
f 352/2/5 349/2/5 348/2/5
f 353/2/5 349/2/5 352/2/5
f 354/2/5 351/2/5 350/2/5
f 355/2/5 351/2/5 354/2/5
f 358/2/5 357/2/5 356/2/5
f 359/2/5 357/2/5 358/2/5
f 362/2/5 361/2/5 360/2/5
f 363/2/5 361/2/5 362/2/5
f 366/2/5 365/2/5 364/2/5
f 367/2/5 365/2/5 366/2/5
f 370/2/5 369/2/5 368/2/5
f 371/2/5 369/2/5 370/2/5
f 374/2/5 373/2/5 372/2/5
f 375/2/5 373/2/5 374/2/5
f 376/3/6 377/3/6 378/3/6
f 378/3/6 377/3/6 379/3/6
f 378/2/6 379/2/6 380/2/6
f 380/2/6 379/2/6 381/2/6
f 380/3/6 381/3/6 382/3/6
f 382/3/6 381/3/6 383/3/6
f 380/3/6 382/3/6 384/3/6
f 382/1/6 383/1/6 384/1/6
f 383/3/6 381/3/6 385/3/6
f 384/1/6 383/1/6 385/1/6
f 378/2/6 380/2/6 386/2/6
f 380/3/6 384/3/6 386/3/6
f 384/3/6 385/3/6 386/3/6
f 385/3/6 381/3/6 387/3/6
f 386/3/6 385/3/6 387/3/6
f 381/2/6 379/2/6 387/2/6
f 376/3/6 378/3/6 388/3/6
f 378/2/6 386/2/6 389/2/6
f 388/3/6 378/3/6 389/3/6
f 386/2/6 387/2/6 389/2/6
f 387/2/6 379/2/6 390/2/6
f 389/2/6 387/2/6 390/2/6
f 379/3/6 377/3/6 390/3/6
f 390/3/6 377/3/6 391/3/6
f 392/2/6 393/2/6 394/2/6
f 394/2/6 393/2/6 395/2/6
f 396/2/6 397/2/6 398/2/6
f 398/2/6 397/2/6 399/2/6
f 400/2/6 401/2/6 402/2/6
f 402/2/6 401/2/6 403/2/6
f 404/2/6 405/2/6 406/2/6
f 406/2/6 405/2/6 407/2/6
f 408/2/6 409/2/6 410/2/6
f 410/2/6 409/2/6 411/2/6
f 412/2/6 413/2/6 416/2/6
f 416/2/6 413/2/6 417/2/6
f 414/2/6 415/2/6 418/2/6
f 418/2/6 415/2/6 419/2/6
f 420/2/6 421/2/6 424/2/6
f 424/2/6 421/2/6 425/2/6
f 422/2/6 423/2/6 428/2/6
f 428/2/6 423/2/6 429/2/6
f 426/3/6 427/3/6 430/3/6
f 430/3/6 427/3/6 431/3/6
f 432/2/6 433/2/6 436/2/6
f 436/2/6 433/2/6 437/2/6
f 434/2/6 435/2/6 440/2/6
f 440/2/6 435/2/6 441/2/6
f 438/3/6 439/3/6 442/3/6
f 442/3/6 439/3/6 443/3/6
f 444/2/6 445/2/6 448/2/6
f 448/2/6 445/2/6 449/2/6
f 446/3/6 447/3/6 450/3/6
f 450/3/6 447/3/6 451/3/6
f 452/3/6 453/3/6 454/3/6
f 454/3/6 453/3/6 455/3/6
f 456/1/6 457/1/6 458/1/6
f 458/1/6 457/1/6 459/1/6
f 458/3/6 459/3/6 460/3/6
f 460/3/6 459/3/6 461/3/6
