# MagicaVoxel @ Ephtracy

# group
o 

# material
mtllib mesh_hanger_floor_straight_wall.mtl
usemtl palette

# normals
vn -1 0 0
vn 1 0 0
vn 0 0 1
vn 0 0 -1
vn 0 -1 0
vn 0 1 0

# texcoords
vt 0.982422 0.5
vt 0.986328 0.5
vt 0.990234 0.5
vt 0.994141 0.5

# verts
v -2.2 -2.2 2.2
v -2.2 -2.2 -1
v -2.2 -2.2 -1.6
v -2.2 -2.2 -1.8
v -2.2 -2.2 -2
v -2.2 -2.2 -2.2
v -2.2 -2.1 -1
v -2.2 -2.1 -1.2
v -2.2 -2 2.2
v -2.2 -2 -1
v -2.2 -2 -1.2
v -2.2 -2 -1.6
v -2.2 -2 -1.8
v -2.2 -2 -2
v -2.2 -1.8 -2
v -2.2 -1.8 -2.2
v -2.2 2.2 -2
v -2.2 2.2 -2.2
v 2.2 -2.2 2.2
v 2.2 -2.2 -1
v 2.2 -2.2 -1.6
v 2.2 -2.2 -1.8
v 2.2 -2.2 -2
v 2.2 -2.2 -2.2
v 2.2 -2.1 -1
v 2.2 -2.1 -1.2
v 2.2 -2 2.2
v 2.2 -2 -1
v 2.2 -2 -1.2
v 2.2 -2 -1.6
v 2.2 -2 -1.8
v 2.2 -2 -2
v 2.2 2.2 -2
v 2.2 2.2 -2.2
v -2.2 -2.2 2.2
v -2.2 -2 2.2
v 2.2 -2.2 2.2
v 2.2 -2 2.2
v -2.2 -2 -2
v -2.2 -1.8 -2
v -2.2 2.2 -2
v -2 -1.6 -2
v -2 2 -2
v -1.8 -1.4 -2
v -1.8 1.8 -2
v -1.7 -1.3 -2
v -1.7 1.7 -2
v -1.7 1.8 -2
v 1.5 -1.3 -2
v 1.5 1.7 -2
v 1.6 -1.4 -2
v 1.6 -1.3 -2
v 1.6 1.8 -2
v 1.8 -1.6 -2
v 1.8 2 -2
v 2 -1.8 -2
v 2 2.2 -2
v 2.2 -2 -2
v 2.2 2.2 -2
v -2.2 -2.2 -2.2
v -2.2 -1.8 -2.2
v -2.2 2.2 -2.2
v -0.7 -2.2 -2.2
v -0.7 -2.1 -2.2
v 1 -2.2 -2.2
v 1 -2.1 -2.2
v 1.6 -2.2 -2.2
v 1.6 -2.1 -2.2
v 1.8 -2.2 -2.2
v 1.8 -2.1 -2.2
v 1.8 -1.8 -2.2
v 1.8 2 -2.2
v 2 -2.2 -2.2
v 2 -2.1 -2.2
v 2 2 -2.2
v 2 2.2 -2.2
v 2.2 -2.2 -2.2
v 2.2 2.2 -2.2
v -2.2 -2.2 2.2
v 2.2 -2.2 2.2
v -2.2 -2.2 -1
v 2.2 -2.2 -1
v -2.2 -2.2 -1.6
v -2 -2.2 -1.6
v -1.8 -2.2 -1.6
v 1.8 -2.2 -1.6
v 2 -2.2 -1.6
v 2.2 -2.2 -1.6
v -2.2 -2.2 -1.8
v -2 -2.2 -1.8
v -1.8 -2.2 -1.8
v 1.8 -2.2 -1.8
v 2 -2.2 -1.8
v 2.2 -2.2 -1.8
v -2.2 -2.2 -2
v -0.7 -2.2 -2
v 1 -2.2 -2
v 1.6 -2.2 -2
v 1.8 -2.2 -2
v 2 -2.2 -2
v 2.2 -2.2 -2
v -2.2 -2.2 -2.2
v -0.7 -2.2 -2.2
v 1 -2.2 -2.2
v 1.6 -2.2 -2.2
v 1.8 -2.2 -2.2
v 2 -2.2 -2.2
v 2.2 -2.2 -2.2
v -2.2 -2 2.2
v 2.2 -2 2.2
v -2.2 -2 -1
v 2.2 -2 -1
v -2.2 -2 -1.2
v 2.2 -2 -1.2
v -2.2 -2 -1.6
v 2.2 -2 -1.6
v -2.2 -2 -1.8
v 2.2 -2 -1.8
v -2.2 -2 -2
v 2.2 -2 -2
v -2.2 2.2 -2
v 2 2.2 -2
v 2.2 2.2 -2
v -2.2 2.2 -2.2
v 2 2.2 -2.2
v 2.2 2.2 -2.2

# faces
f 7/3/1 2/3/1 1/3/1
f 7/2/1 3/2/1 2/2/1
f 8/2/1 3/2/1 7/2/1
f 9/3/1 7/3/1 1/3/1
f 10/4/1 8/4/1 7/4/1
f 10/3/1 7/3/1 9/3/1
f 11/2/1 3/2/1 8/2/1
f 11/4/1 8/4/1 10/4/1
f 12/4/1 4/4/1 3/4/1
f 12/2/1 3/2/1 11/2/1
f 13/3/1 5/3/1 4/3/1
f 13/4/1 4/4/1 12/4/1
f 14/4/1 6/4/1 5/4/1
f 14/3/1 5/3/1 13/3/1
f 15/4/1 6/4/1 14/4/1
f 16/4/1 6/4/1 15/4/1
f 17/3/1 16/3/1 15/3/1
f 18/3/1 16/3/1 17/3/1
f 19/3/2 20/3/2 25/3/2
f 20/2/2 21/2/2 25/2/2
f 25/2/2 21/2/2 26/2/2
f 19/3/2 25/3/2 27/3/2
f 25/4/2 26/4/2 28/4/2
f 27/3/2 25/3/2 28/3/2
f 26/2/2 21/2/2 29/2/2
f 28/4/2 26/4/2 29/4/2
f 21/4/2 22/4/2 30/4/2
f 29/2/2 21/2/2 30/2/2
f 22/3/2 23/3/2 31/3/2
f 30/4/2 22/4/2 31/4/2
f 23/4/2 24/4/2 32/4/2
f 31/3/2 23/3/2 32/3/2
f 32/4/2 24/4/2 33/4/2
f 33/4/2 24/4/2 34/4/2
f 37/3/3 36/3/3 35/3/3
f 38/3/3 36/3/3 37/3/3
f 42/3/3 41/3/3 40/3/3
f 43/3/3 41/3/3 42/3/3
f 44/4/3 43/4/3 42/4/3
f 45/4/3 43/4/3 44/4/3
f 46/3/3 45/3/3 44/3/3
f 47/3/3 45/3/3 46/3/3
f 48/4/3 43/4/3 45/4/3
f 48/3/3 45/3/3 47/3/3
f 49/2/3 47/2/3 46/2/3
f 49/3/3 46/3/3 44/3/3
f 50/1/3 48/1/3 47/1/3
f 50/2/3 47/2/3 49/2/3
f 51/4/3 44/4/3 42/4/3
f 51/3/3 49/3/3 44/3/3
f 52/1/3 50/1/3 49/1/3
f 52/3/3 49/3/3 51/3/3
f 53/1/3 48/1/3 50/1/3
f 53/1/3 50/1/3 52/1/3
f 53/4/3 43/4/3 48/4/3
f 54/3/3 42/3/3 40/3/3
f 54/4/3 52/4/3 51/4/3
f 54/4/3 53/4/3 52/4/3
f 54/4/3 51/4/3 42/4/3
f 55/4/3 43/4/3 53/4/3
f 55/4/3 53/4/3 54/4/3
f 55/3/3 41/3/3 43/3/3
f 56/4/3 40/4/3 39/4/3
f 56/3/3 54/3/3 40/3/3
f 56/3/3 55/3/3 54/3/3
f 57/3/3 41/3/3 55/3/3
f 57/3/3 55/3/3 56/3/3
f 58/4/3 56/4/3 39/4/3
f 58/4/3 57/4/3 56/4/3
f 59/4/3 57/4/3 58/4/3
f 60/4/4 61/4/4 63/4/4
f 63/4/4 61/4/4 64/4/4
f 63/3/4 64/3/4 65/3/4
f 64/4/4 61/4/4 66/4/4
f 65/3/4 64/3/4 66/3/4
f 65/2/4 66/2/4 67/2/4
f 66/4/4 61/4/4 68/4/4
f 67/2/4 66/2/4 68/2/4
f 67/4/4 68/4/4 69/4/4
f 68/4/4 61/4/4 70/4/4
f 69/4/4 68/4/4 70/4/4
f 61/3/4 62/3/4 71/3/4
f 70/4/4 61/4/4 71/4/4
f 71/3/4 62/3/4 72/3/4
f 69/3/4 70/3/4 73/3/4
f 70/4/4 71/4/4 74/4/4
f 73/3/4 70/3/4 74/3/4
f 71/4/4 72/4/4 74/4/4
f 72/3/4 62/3/4 75/3/4
f 74/4/4 72/4/4 75/4/4
f 75/3/4 62/3/4 76/3/4
f 73/4/4 74/4/4 77/4/4
f 74/4/4 75/4/4 77/4/4
f 75/4/4 76/4/4 77/4/4
f 77/4/4 76/4/4 78/4/4
f 81/3/5 80/3/5 79/3/5
f 82/3/5 80/3/5 81/3/5
f 83/2/5 82/2/5 81/2/5
f 84/2/5 82/2/5 83/2/5
f 85/2/5 82/2/5 84/2/5
f 86/2/5 82/2/5 85/2/5
f 87/2/5 82/2/5 86/2/5
f 88/2/5 82/2/5 87/2/5
f 89/4/5 84/4/5 83/4/5
f 90/3/5 85/3/5 84/3/5
f 90/4/5 84/4/5 89/4/5
f 91/4/5 86/4/5 85/4/5
f 91/3/5 85/3/5 90/3/5
f 92/3/5 87/3/5 86/3/5
f 92/4/5 86/4/5 91/4/5
f 93/4/5 88/4/5 87/4/5
f 93/3/5 87/3/5 92/3/5
f 94/4/5 88/4/5 93/4/5
f 95/3/5 90/3/5 89/3/5
f 95/3/5 91/3/5 90/3/5
f 95/3/5 94/3/5 93/3/5
f 95/3/5 93/3/5 92/3/5
f 95/3/5 92/3/5 91/3/5
f 96/3/5 94/3/5 95/3/5
f 97/3/5 94/3/5 96/3/5
f 98/3/5 94/3/5 97/3/5
f 99/3/5 94/3/5 98/3/5
f 100/3/5 94/3/5 99/3/5
f 101/3/5 94/3/5 100/3/5
f 102/4/5 96/4/5 95/4/5
f 103/3/5 97/3/5 96/3/5
f 103/4/5 96/4/5 102/4/5
f 104/2/5 98/2/5 97/2/5
f 104/3/5 97/3/5 103/3/5
f 105/4/5 99/4/5 98/4/5
f 105/2/5 98/2/5 104/2/5
f 106/3/5 100/3/5 99/3/5
f 106/4/5 99/4/5 105/4/5
f 107/4/5 101/4/5 100/4/5
f 107/3/5 100/3/5 106/3/5
f 108/4/5 101/4/5 107/4/5
f 109/3/6 110/3/6 111/3/6
f 111/3/6 110/3/6 112/3/6
f 111/4/6 112/4/6 113/4/6
f 113/4/6 112/4/6 114/4/6
f 113/2/6 114/2/6 115/2/6
f 115/2/6 114/2/6 116/2/6
f 115/4/6 116/4/6 117/4/6
f 117/4/6 116/4/6 118/4/6
f 117/3/6 118/3/6 119/3/6
f 119/3/6 118/3/6 120/3/6
f 121/3/6 122/3/6 124/3/6
f 122/4/6 123/4/6 125/4/6
f 124/3/6 122/3/6 125/3/6
f 125/4/6 123/4/6 126/4/6
