# MagicaVoxel @ Ephtracy

# group
o 

# material
mtllib mesh_hanger_floor_corner_door.mtl
usemtl palette

# normals
vn -1 0 0
vn 1 0 0
vn 0 0 1
vn 0 0 -1
vn 0 -1 0
vn 0 1 0

# texcoords
vt 0.982422 0.5
vt 0.986328 0.5
vt 0.990234 0.5
vt 0.994141 0.5

# verts
v -2.2 -2.2 2.2
v -2.2 -2.2 -1
v -2.2 -2.2 -1.6
v -2.2 -2.2 -1.8
v -2.2 -2.2 -2
v -2.2 -2.2 -2.2
v -2.2 -2.1 -1
v -2.2 -2.1 -1.2
v -2.2 -2 2.2
v -2.2 -2 -1
v -2.2 -2 -1.2
v -2.2 -2 -1.6
v -2.2 -2 -1.8
v -2.2 -2 -2
v -2.2 -1.8 -2
v -2.2 -1.8 -2.2
v -2.2 2.2 -2
v -2.2 2.2 -2.2
v 1.4 -1.8 -2
v 1.4 -1.8 -2.2
v 1.4 1.8 -2
v 1.4 1.8 -2.2
v 2 -2 2.2
v 2 -2 -2
v 2 -1.8 2.2
v 2 -1.8 -1.8
v 2 -1.6 2
v 2 -1.6 -1.6
v 2 -1.4 1.8
v 2 -1.4 -1.4
v 2 -1.3 1.7
v 2 -1.3 -1.3
v 2 -1.3 -1.4
v 2 1.7 1.7
v 2 1.7 -1.3
v 2 1.8 1.8
v 2 1.8 1.7
v 2 1.8 -1.4
v 2 2 2
v 2 2 -1.6
v 2 2.2 2.2
v 2 2.2 -1.8
v 2 2.2 -2
v -1.8 -1.8 -2
v -1.8 -1.8 -2.2
v -1.8 1.8 -2
v -1.8 1.8 -2.2
v 2.2 -2.2 2.2
v 2.2 -2.2 0.7
v 2.2 -2.2 -1
v 2.2 -2.2 -1.6
v 2.2 -2.2 -1.8
v 2.2 -2.2 -2
v 2.2 -2.2 -2.2
v 2.2 -2.1 0.7
v 2.2 -2.1 -1
v 2.2 -2.1 -1.6
v 2.2 -2.1 -1.8
v 2.2 -2.1 -2
v 2.2 -1.8 2.2
v 2.2 -1.8 -1.8
v 2.2 2.2 2.2
v 2.2 2.2 -1.8
v 2.2 2.2 -2.2
v -2.2 -2.2 2.2
v -2.2 -2 2.2
v 1 -2.2 2.2
v 1 -2 2.2
v 1.2 -2.2 2.2
v 1.2 -2 2.2
v 1.6 -2.1 2.2
v 1.6 -2 2.2
v 1.8 -2.2 2.2
v 1.8 -2.1 2.2
v 1.8 -2 2.2
v 2 -2.2 2.2
v 2 -2 2.2
v 2 -1.8 2.2
v 2 2.2 2.2
v 2.2 -2.2 2.2
v 2.2 -1.8 2.2
v 2.2 2.2 2.2
v -2.2 -2 -2
v -2.2 -1.8 -2
v -2.2 2.2 -2
v -2 -1.8 -2
v -2 2 -2
v -1.8 -1.8 -2
v -1.8 1.8 -2
v 1.4 -1.8 -2
v 1.4 1.8 -2
v 1.6 -1.8 -2
v 1.6 2 -2
v 1.8 -1.8 -2
v 1.8 2.2 -2
v 2 -2 -2
v 2 2.2 -2
v -2.2 -2.2 -2.2
v -2.2 -1.8 -2.2
v -2.2 2.2 -2.2
v -2 -1.8 -2.2
v -2 2 -2.2
v -1.8 -1.8 -2.2
v -1.8 1.8 -2.2
v 1.3 -2.2 -2.2
v 1.3 -2.1 -2.2
v 1.4 -1.8 -2.2
v 1.4 1.8 -2.2
v 1.6 -1.8 -2.2
v 1.6 2 -2.2
v 1.8 -1.8 -2.2
v 1.8 2.2 -2.2
v 1.9 -2.2 -2.2
v 1.9 -2.1 -2.2
v 2.2 -2.2 -2.2
v 2.2 2.2 -2.2
v -2.2 -2.2 2.2
v 1 -2.2 2.2
v 1.2 -2.2 2.2
v 1.8 -2.2 2.2
v 2 -2.2 2.2
v 2.2 -2.2 2.2
v 1 -2.2 2
v 1.2 -2.2 2
v 1 -2.2 1.8
v 1.2 -2.2 1.8
v 2 -2.2 0.7
v 2.2 -2.2 0.7
v -2.2 -2.2 -1
v 1 -2.2 -1
v 1.9 -2.2 -1
v 2.2 -2.2 -1
v -2.2 -2.2 -1.6
v -2 -2.2 -1.6
v -1.8 -2.2 -1.6
v 1 -2.2 -1.6
v 1.9 -2.2 -1.6
v 2 -2.2 -1.6
v 2.2 -2.2 -1.6
v 1.2 -2.2 -1.7
v 1.3 -2.2 -1.7
v 1.8 -2.2 -1.7
v 1.9 -2.2 -1.7
v -2.2 -2.2 -1.8
v -2 -2.2 -1.8
v -1.8 -2.2 -1.8
v 1.3 -2.2 -1.8
v 2 -2.2 -1.8
v 2.2 -2.2 -1.8
v -2.2 -2.2 -2
v 1.3 -2.2 -2
v 1.9 -2.2 -2
v 2.2 -2.2 -2
v -2.2 -2.2 -2.2
v 1.3 -2.2 -2.2
v 1.9 -2.2 -2.2
v 2.2 -2.2 -2.2
v -1.8 1.8 -2
v 1.4 1.8 -2
v -1.8 1.8 -2.2
v 1.4 1.8 -2.2
v -2.2 -2 2.2
v 1 -2 2.2
v 1.2 -2 2.2
v 1.6 -2 2.2
v 1.8 -2 2.2
v 2 -2 2.2
v -2.2 -2 -1
v 1 -2 -1
v -2.2 -2 -1.2
v 1.2 -2 -1.2
v -2.2 -2 -1.6
v 1.6 -2 -1.6
v -2.2 -2 -1.8
v 1.8 -2 -1.8
v -2.2 -2 -2
v 2 -2 -2
v -1.8 -1.8 -2
v 1.4 -1.8 -2
v -1.8 -1.8 -2.2
v 1.4 -1.8 -2.2
v 2 2.2 2.2
v 2.2 2.2 2.2
v 2 2.2 -1.8
v 2.2 2.2 -1.8
v -2.2 2.2 -2
v 1.8 2.2 -2
v 2 2.2 -2
v -2.2 2.2 -2.2
v 1.8 2.2 -2.2
v 2.2 2.2 -2.2

# faces
f 7/3/1 2/3/1 1/3/1
f 7/2/1 3/2/1 2/2/1
f 8/2/1 3/2/1 7/2/1
f 9/3/1 7/3/1 1/3/1
f 10/4/1 8/4/1 7/4/1
f 10/3/1 7/3/1 9/3/1
f 11/2/1 3/2/1 8/2/1
f 11/4/1 8/4/1 10/4/1
f 12/4/1 4/4/1 3/4/1
f 12/2/1 3/2/1 11/2/1
f 13/3/1 5/3/1 4/3/1
f 13/4/1 4/4/1 12/4/1
f 14/4/1 6/4/1 5/4/1
f 14/3/1 5/3/1 13/3/1
f 15/4/1 6/4/1 14/4/1
f 16/4/1 6/4/1 15/4/1
f 17/3/1 16/3/1 15/3/1
f 18/3/1 16/3/1 17/3/1
f 21/4/1 20/4/1 19/4/1
f 22/4/1 20/4/1 21/4/1
f 25/4/1 24/4/1 23/4/1
f 26/4/1 24/4/1 25/4/1
f 27/3/1 26/3/1 25/3/1
f 28/3/1 26/3/1 27/3/1
f 29/4/1 28/4/1 27/4/1
f 30/4/1 28/4/1 29/4/1
f 31/3/1 30/3/1 29/3/1
f 32/3/1 30/3/1 31/3/1
f 33/4/1 28/4/1 30/4/1
f 33/3/1 30/3/1 32/3/1
f 34/2/1 32/2/1 31/2/1
f 34/3/1 31/3/1 29/3/1
f 35/1/1 33/1/1 32/1/1
f 35/2/1 32/2/1 34/2/1
f 36/4/1 29/4/1 27/4/1
f 36/3/1 34/3/1 29/3/1
f 37/1/1 35/1/1 34/1/1
f 37/3/1 34/3/1 36/3/1
f 38/1/1 33/1/1 35/1/1
f 38/1/1 35/1/1 37/1/1
f 38/4/1 28/4/1 33/4/1
f 39/3/1 27/3/1 25/3/1
f 39/4/1 37/4/1 36/4/1
f 39/4/1 38/4/1 37/4/1
f 39/4/1 36/4/1 27/4/1
f 40/4/1 28/4/1 38/4/1
f 40/4/1 38/4/1 39/4/1
f 40/3/1 26/3/1 28/3/1
f 41/3/1 39/3/1 25/3/1
f 41/3/1 40/3/1 39/3/1
f 42/4/1 24/4/1 26/4/1
f 42/3/1 40/3/1 41/3/1
f 42/3/1 26/3/1 40/3/1
f 43/4/1 24/4/1 42/4/1
f 44/4/2 45/4/2 46/4/2
f 46/4/2 45/4/2 47/4/2
f 48/4/2 49/4/2 55/4/2
f 49/3/2 50/3/2 55/3/2
f 50/2/2 51/2/2 56/2/2
f 55/3/2 50/3/2 56/3/2
f 51/4/2 52/4/2 57/4/2
f 56/2/2 51/2/2 57/2/2
f 52/3/2 53/3/2 58/3/2
f 57/4/2 52/4/2 58/4/2
f 53/4/2 54/4/2 59/4/2
f 58/3/2 53/3/2 59/3/2
f 57/4/2 58/4/2 60/4/2
f 56/4/2 57/4/2 60/4/2
f 58/4/2 59/4/2 60/4/2
f 55/4/2 56/4/2 60/4/2
f 48/4/2 55/4/2 60/4/2
f 60/4/2 59/4/2 61/4/2
f 60/3/2 61/3/2 62/3/2
f 61/4/2 59/4/2 63/4/2
f 62/3/2 61/3/2 63/3/2
f 59/4/2 54/4/2 64/4/2
f 63/4/2 59/4/2 64/4/2
f 67/3/3 66/3/3 65/3/3
f 68/3/3 66/3/3 67/3/3
f 69/4/3 68/4/3 67/4/3
f 70/4/3 68/4/3 69/4/3
f 71/2/3 70/2/3 69/2/3
f 72/2/3 70/2/3 71/2/3
f 73/2/3 71/2/3 69/2/3
f 74/4/3 72/4/3 71/4/3
f 74/2/3 71/2/3 73/2/3
f 75/4/3 72/4/3 74/4/3
f 76/3/3 74/3/3 73/3/3
f 76/3/3 75/3/3 74/3/3
f 77/3/3 75/3/3 76/3/3
f 80/4/3 77/4/3 76/4/3
f 80/4/3 78/4/3 77/4/3
f 81/3/3 79/3/3 78/3/3
f 81/4/3 78/4/3 80/4/3
f 82/3/3 79/3/3 81/3/3
f 86/4/3 84/4/3 83/4/3
f 86/3/3 85/3/3 84/3/3
f 87/3/3 85/3/3 86/3/3
f 88/4/3 86/4/3 83/4/3
f 88/4/3 87/4/3 86/4/3
f 89/4/3 87/4/3 88/4/3
f 90/4/3 88/4/3 83/4/3
f 91/4/3 87/4/3 89/4/3
f 92/4/3 90/4/3 83/4/3
f 92/4/3 91/4/3 90/4/3
f 93/3/3 85/3/3 87/3/3
f 93/4/3 91/4/3 92/4/3
f 93/4/3 87/4/3 91/4/3
f 94/4/3 92/4/3 83/4/3
f 94/3/3 93/3/3 92/3/3
f 95/3/3 85/3/3 93/3/3
f 95/3/3 93/3/3 94/3/3
f 96/4/3 94/4/3 83/4/3
f 96/4/3 95/4/3 94/4/3
f 97/4/3 95/4/3 96/4/3
f 98/4/4 99/4/4 101/4/4
f 99/3/4 100/3/4 101/3/4
f 101/3/4 100/3/4 102/3/4
f 98/4/4 101/4/4 103/4/4
f 101/4/4 102/4/4 103/4/4
f 103/4/4 102/4/4 104/4/4
f 98/4/4 103/4/4 105/4/4
f 105/4/4 103/4/4 106/4/4
f 106/4/4 103/4/4 107/4/4
f 104/4/4 102/4/4 108/4/4
f 106/4/4 107/4/4 109/4/4
f 107/4/4 108/4/4 109/4/4
f 102/3/4 100/3/4 110/3/4
f 109/4/4 108/4/4 110/4/4
f 108/4/4 102/4/4 110/4/4
f 106/4/4 109/4/4 111/4/4
f 109/3/4 110/3/4 111/3/4
f 110/3/4 100/3/4 112/3/4
f 111/3/4 110/3/4 112/3/4
f 105/2/4 106/2/4 113/2/4
f 106/4/4 111/4/4 114/4/4
f 113/2/4 106/2/4 114/2/4
f 111/4/4 112/4/4 114/4/4
f 113/4/4 114/4/4 115/4/4
f 114/4/4 112/4/4 116/4/4
f 115/4/4 114/4/4 116/4/4
f 123/3/5 118/3/5 117/3/5
f 123/4/5 119/4/5 118/4/5
f 124/2/5 120/2/5 119/2/5
f 124/4/5 119/4/5 123/4/5
f 125/3/5 123/3/5 117/3/5
f 125/3/5 124/3/5 123/3/5
f 126/2/5 120/2/5 124/2/5
f 126/3/5 124/3/5 125/3/5
f 127/4/5 122/4/5 121/4/5
f 127/3/5 121/3/5 120/3/5
f 128/4/5 122/4/5 127/4/5
f 129/3/5 125/3/5 117/3/5
f 130/4/5 126/4/5 125/4/5
f 130/3/5 125/3/5 129/3/5
f 131/3/5 127/3/5 120/3/5
f 131/3/5 128/3/5 127/3/5
f 132/3/5 128/3/5 131/3/5
f 133/2/5 130/2/5 129/2/5
f 134/2/5 130/2/5 133/2/5
f 135/2/5 130/2/5 134/2/5
f 136/4/5 126/4/5 130/4/5
f 136/2/5 130/2/5 135/2/5
f 137/3/5 131/3/5 120/3/5
f 137/2/5 132/2/5 131/2/5
f 138/2/5 132/2/5 137/2/5
f 139/2/5 132/2/5 138/2/5
f 140/2/5 120/2/5 126/2/5
f 140/4/5 126/4/5 136/4/5
f 140/4/5 136/4/5 135/4/5
f 141/2/5 120/2/5 140/2/5
f 142/3/5 138/3/5 137/3/5
f 142/2/5 120/2/5 141/2/5
f 142/3/5 137/3/5 120/3/5
f 143/3/5 138/3/5 142/3/5
f 144/4/5 134/4/5 133/4/5
f 145/3/5 135/3/5 134/3/5
f 145/4/5 134/4/5 144/4/5
f 146/4/5 141/4/5 140/4/5
f 146/3/5 135/3/5 145/3/5
f 146/4/5 140/4/5 135/4/5
f 147/2/5 143/2/5 142/2/5
f 147/4/5 141/4/5 146/4/5
f 147/2/5 142/2/5 141/2/5
f 148/4/5 139/4/5 138/4/5
f 148/3/5 138/3/5 143/3/5
f 149/4/5 139/4/5 148/4/5
f 150/3/5 145/3/5 144/3/5
f 150/3/5 147/3/5 146/3/5
f 150/3/5 146/3/5 145/3/5
f 151/2/5 143/2/5 147/2/5
f 151/3/5 147/3/5 150/3/5
f 152/3/5 149/3/5 148/3/5
f 152/2/5 143/2/5 151/2/5
f 152/3/5 148/3/5 143/3/5
f 153/3/5 149/3/5 152/3/5
f 154/4/5 151/4/5 150/4/5
f 155/2/5 152/2/5 151/2/5
f 155/4/5 151/4/5 154/4/5
f 156/4/5 153/4/5 152/4/5
f 156/2/5 152/2/5 155/2/5
f 157/4/5 153/4/5 156/4/5
f 160/4/5 159/4/5 158/4/5
f 161/4/5 159/4/5 160/4/5
f 162/3/6 163/3/6 168/3/6
f 163/4/6 164/4/6 169/4/6
f 168/3/6 163/3/6 169/3/6
f 168/4/6 169/4/6 170/4/6
f 164/2/6 165/2/6 171/2/6
f 170/4/6 169/4/6 171/4/6
f 169/4/6 164/4/6 171/4/6
f 170/2/6 171/2/6 172/2/6
f 165/4/6 166/4/6 173/4/6
f 172/2/6 171/2/6 173/2/6
f 171/2/6 165/2/6 173/2/6
f 172/4/6 173/4/6 174/4/6
f 166/3/6 167/3/6 175/3/6
f 174/4/6 173/4/6 175/4/6
f 173/4/6 166/4/6 175/4/6
f 174/3/6 175/3/6 176/3/6
f 175/3/6 167/3/6 177/3/6
f 176/3/6 175/3/6 177/3/6
f 178/4/6 179/4/6 180/4/6
f 180/4/6 179/4/6 181/4/6
f 182/3/6 183/3/6 184/3/6
f 184/3/6 183/3/6 185/3/6
f 184/4/6 185/4/6 188/4/6
f 186/3/6 187/3/6 189/3/6
f 187/4/6 188/4/6 190/4/6
f 189/3/6 187/3/6 190/3/6
f 188/4/6 185/4/6 191/4/6
f 190/4/6 188/4/6 191/4/6
