# MagicaVoxel @ Ephtracy

# group
o 

# material
mtllib mesh_hanger_ship_door_middle_middle.mtl
usemtl palette

# normals
vn -1 0 0
vn 1 0 0
vn 0 0 1
vn 0 0 -1
vn 0 -1 0
vn 0 1 0

# texcoords
vt 0.986328 0.5
vt 0.990234 0.5
vt 0.994141 0.5

# verts
v 1.9 -2.2 2.2
v 1.9 -2.2 -2.2
v 1.9 -2.1 2.2
v 1.9 -2.1 -2.2
v 1.9 -2 2.2
v 1.9 -2 -2.2
v 1.9 -1.8 2.2
v 1.9 -1.8 -2.2
v 1.9 -1.6 2.2
v 1.9 -1.6 -2.2
v 1.9 -1.5 2.2
v 1.9 -1.5 -2.2
v 1.9 -1.3 2.2
v 1.9 -1.3 -2.2
v 1.9 -1.1 2.2
v 1.9 -1.1 -2.2
v 1.9 -1 2.2
v 1.9 -1 -2.2
v 1.9 -0.8 2.2
v 1.9 -0.8 -2.2
v 1.9 -0.6 2.2
v 1.9 -0.6 -2.2
v 1.9 -0.5 2.2
v 1.9 -0.5 -2.2
v 1.9 -0.3 2.2
v 1.9 -0.3 -2.2
v 1.9 -0.0999999 2.2
v 1.9 -0.0999999 -2.2
v 1.9 0 2.2
v 1.9 0 -2.2
v 1.9 0.2 2.2
v 1.9 0.2 -2.2
v 1.9 0.4 2.2
v 1.9 0.4 -2.2
v 1.9 0.5 2.2
v 1.9 0.5 -2.2
v 1.9 0.7 2.2
v 1.9 0.7 -2.2
v 1.9 0.9 2.2
v 1.9 0.9 -2.2
v 1.9 1 2.2
v 1.9 1 -2.2
v 1.9 1.2 2.2
v 1.9 1.2 -2.2
v 1.9 1.4 2.2
v 1.9 1.4 -2.2
v 1.9 1.5 2.2
v 1.9 1.5 -2.2
v 1.9 1.7 2.2
v 1.9 1.7 -2.2
v 1.9 1.9 2.2
v 1.9 1.9 -2.2
v 1.9 2 2.2
v 1.9 2 -2.2
v 1.9 2.2 2.2
v 1.9 2.2 -2.2
v 2.1 -2.2 2.2
v 2.1 -2.2 -2.2
v 2.1 2.2 2.2
v 2.1 2.2 -2.2
v 1.9 -2.2 2.2
v 1.9 -2.1 2.2
v 1.9 -2 2.2
v 1.9 -1.8 2.2
v 1.9 -1.6 2.2
v 1.9 -1.5 2.2
v 1.9 -1.3 2.2
v 1.9 -1.1 2.2
v 1.9 -1 2.2
v 1.9 -0.8 2.2
v 1.9 -0.6 2.2
v 1.9 -0.5 2.2
v 1.9 -0.3 2.2
v 1.9 -0.0999999 2.2
v 1.9 0 2.2
v 1.9 0.2 2.2
v 1.9 0.4 2.2
v 1.9 0.5 2.2
v 1.9 0.7 2.2
v 1.9 0.9 2.2
v 1.9 1 2.2
v 1.9 1.2 2.2
v 1.9 1.4 2.2
v 1.9 1.5 2.2
v 1.9 1.7 2.2
v 1.9 1.9 2.2
v 1.9 2 2.2
v 1.9 2.2 2.2
v 2 -2.1 2.2
v 2 -2 2.2
v 2 -1.8 2.2
v 2 -1.6 2.2
v 2 -1.5 2.2
v 2 -1.3 2.2
v 2 -1.1 2.2
v 2 -1 2.2
v 2 -0.8 2.2
v 2 -0.6 2.2
v 2 -0.5 2.2
v 2 -0.3 2.2
v 2 -0.0999999 2.2
v 2 0 2.2
v 2 0.2 2.2
v 2 0.4 2.2
v 2 0.5 2.2
v 2 0.7 2.2
v 2 0.9 2.2
v 2 1 2.2
v 2 1.2 2.2
v 2 1.4 2.2
v 2 1.5 2.2
v 2 1.7 2.2
v 2 1.9 2.2
v 2 2 2.2
v 2 2.2 2.2
v 2.1 -2.2 2.2
v 2.1 2.2 2.2
v 1.9 -2.2 -2.2
v 1.9 -2.1 -2.2
v 1.9 -2 -2.2
v 1.9 -1.8 -2.2
v 1.9 -1.6 -2.2
v 1.9 -1.5 -2.2
v 1.9 -1.3 -2.2
v 1.9 -1.1 -2.2
v 1.9 -1 -2.2
v 1.9 -0.8 -2.2
v 1.9 -0.6 -2.2
v 1.9 -0.5 -2.2
v 1.9 -0.3 -2.2
v 1.9 -0.0999999 -2.2
v 1.9 0 -2.2
v 1.9 0.2 -2.2
v 1.9 0.4 -2.2
v 1.9 0.5 -2.2
v 1.9 0.7 -2.2
v 1.9 0.9 -2.2
v 1.9 1 -2.2
v 1.9 1.2 -2.2
v 1.9 1.4 -2.2
v 1.9 1.5 -2.2
v 1.9 1.7 -2.2
v 1.9 1.9 -2.2
v 1.9 2 -2.2
v 1.9 2.2 -2.2
v 2 -2.1 -2.2
v 2 -2 -2.2
v 2 -1.8 -2.2
v 2 -1.6 -2.2
v 2 -1.5 -2.2
v 2 -1.3 -2.2
v 2 -1.1 -2.2
v 2 -1 -2.2
v 2 -0.8 -2.2
v 2 -0.6 -2.2
v 2 -0.5 -2.2
v 2 -0.3 -2.2
v 2 -0.0999999 -2.2
v 2 0 -2.2
v 2 0.2 -2.2
v 2 0.4 -2.2
v 2 0.5 -2.2
v 2 0.7 -2.2
v 2 0.9 -2.2
v 2 1 -2.2
v 2 1.2 -2.2
v 2 1.4 -2.2
v 2 1.5 -2.2
v 2 1.7 -2.2
v 2 1.9 -2.2
v 2 2 -2.2
v 2 2.2 -2.2
v 2.1 -2.2 -2.2
v 2.1 2.2 -2.2
v 1.9 -2.2 2.2
v 2.1 -2.2 2.2
v 1.9 -2.2 -2.2
v 2.1 -2.2 -2.2
v 1.9 2.2 2.2
v 2 2.2 2.2
v 2.1 2.2 2.2
v 1.9 2.2 -2.2
v 2 2.2 -2.2
v 2.1 2.2 -2.2

# faces
f 3/1/1 2/1/1 1/1/1
f 4/1/1 2/1/1 3/1/1
f 5/3/1 4/3/1 3/3/1
f 6/3/1 4/3/1 5/3/1
f 7/2/1 6/2/1 5/2/1
f 8/2/1 6/2/1 7/2/1
f 9/1/1 8/1/1 7/1/1
f 10/1/1 8/1/1 9/1/1
f 11/3/1 10/3/1 9/3/1
f 12/3/1 10/3/1 11/3/1
f 13/2/1 12/2/1 11/2/1
f 14/2/1 12/2/1 13/2/1
f 15/1/1 14/1/1 13/1/1
f 16/1/1 14/1/1 15/1/1
f 17/3/1 16/3/1 15/3/1
f 18/3/1 16/3/1 17/3/1
f 19/2/1 18/2/1 17/2/1
f 20/2/1 18/2/1 19/2/1
f 21/1/1 20/1/1 19/1/1
f 22/1/1 20/1/1 21/1/1
f 23/3/1 22/3/1 21/3/1
f 24/3/1 22/3/1 23/3/1
f 25/2/1 24/2/1 23/2/1
f 26/2/1 24/2/1 25/2/1
f 27/1/1 26/1/1 25/1/1
f 28/1/1 26/1/1 27/1/1
f 29/3/1 28/3/1 27/3/1
f 30/3/1 28/3/1 29/3/1
f 31/2/1 30/2/1 29/2/1
f 32/2/1 30/2/1 31/2/1
f 33/1/1 32/1/1 31/1/1
f 34/1/1 32/1/1 33/1/1
f 35/3/1 34/3/1 33/3/1
f 36/3/1 34/3/1 35/3/1
f 37/2/1 36/2/1 35/2/1
f 38/2/1 36/2/1 37/2/1
f 39/1/1 38/1/1 37/1/1
f 40/1/1 38/1/1 39/1/1
f 41/3/1 40/3/1 39/3/1
f 42/3/1 40/3/1 41/3/1
f 43/2/1 42/2/1 41/2/1
f 44/2/1 42/2/1 43/2/1
f 45/1/1 44/1/1 43/1/1
f 46/1/1 44/1/1 45/1/1
f 47/3/1 46/3/1 45/3/1
f 48/3/1 46/3/1 47/3/1
f 49/2/1 48/2/1 47/2/1
f 50/2/1 48/2/1 49/2/1
f 51/1/1 50/1/1 49/1/1
f 52/1/1 50/1/1 51/1/1
f 53/3/1 52/3/1 51/3/1
f 54/3/1 52/3/1 53/3/1
f 55/2/1 54/2/1 53/2/1
f 56/2/1 54/2/1 55/2/1
f 57/1/2 58/1/2 59/1/2
f 59/1/2 58/1/2 60/1/2
f 89/1/3 62/1/3 61/1/3
f 89/3/3 63/3/3 62/3/3
f 90/2/3 64/2/3 63/2/3
f 90/3/3 63/3/3 89/3/3
f 91/1/3 65/1/3 64/1/3
f 91/2/3 64/2/3 90/2/3
f 92/3/3 66/3/3 65/3/3
f 92/1/3 65/1/3 91/1/3
f 93/2/3 67/2/3 66/2/3
f 93/3/3 66/3/3 92/3/3
f 94/1/3 68/1/3 67/1/3
f 94/2/3 67/2/3 93/2/3
f 95/3/3 69/3/3 68/3/3
f 95/1/3 68/1/3 94/1/3
f 96/2/3 70/2/3 69/2/3
f 96/3/3 69/3/3 95/3/3
f 97/1/3 71/1/3 70/1/3
f 97/2/3 70/2/3 96/2/3
f 98/3/3 72/3/3 71/3/3
f 98/1/3 71/1/3 97/1/3
f 99/2/3 73/2/3 72/2/3
f 99/3/3 72/3/3 98/3/3
f 100/1/3 74/1/3 73/1/3
f 100/2/3 73/2/3 99/2/3
f 101/3/3 75/3/3 74/3/3
f 101/1/3 74/1/3 100/1/3
f 102/2/3 76/2/3 75/2/3
f 102/3/3 75/3/3 101/3/3
f 103/1/3 77/1/3 76/1/3
f 103/2/3 76/2/3 102/2/3
f 104/3/3 78/3/3 77/3/3
f 104/1/3 77/1/3 103/1/3
f 105/2/3 79/2/3 78/2/3
f 105/3/3 78/3/3 104/3/3
f 106/1/3 80/1/3 79/1/3
f 106/2/3 79/2/3 105/2/3
f 107/3/3 81/3/3 80/3/3
f 107/1/3 80/1/3 106/1/3
f 108/2/3 82/2/3 81/2/3
f 108/3/3 81/3/3 107/3/3
f 109/1/3 83/1/3 82/1/3
f 109/2/3 82/2/3 108/2/3
f 110/3/3 84/3/3 83/3/3
f 110/1/3 83/1/3 109/1/3
f 111/2/3 85/2/3 84/2/3
f 111/3/3 84/3/3 110/3/3
f 112/1/3 86/1/3 85/1/3
f 112/2/3 85/2/3 111/2/3
f 113/3/3 87/3/3 86/3/3
f 113/1/3 86/1/3 112/1/3
f 114/2/3 88/2/3 87/2/3
f 114/3/3 87/3/3 113/3/3
f 115/2/3 88/2/3 114/2/3
f 116/1/3 113/1/3 112/1/3
f 116/1/3 112/1/3 111/1/3
f 116/1/3 115/1/3 114/1/3
f 116/1/3 114/1/3 113/1/3
f 116/1/3 111/1/3 110/1/3
f 116/1/3 110/1/3 109/1/3
f 116/1/3 109/1/3 108/1/3
f 116/1/3 108/1/3 107/1/3
f 116/1/3 107/1/3 106/1/3
f 116/1/3 106/1/3 105/1/3
f 116/1/3 105/1/3 104/1/3
f 116/1/3 104/1/3 103/1/3
f 116/1/3 103/1/3 102/1/3
f 116/1/3 102/1/3 101/1/3
f 116/1/3 101/1/3 100/1/3
f 116/1/3 100/1/3 99/1/3
f 116/1/3 99/1/3 98/1/3
f 116/1/3 98/1/3 97/1/3
f 116/1/3 97/1/3 96/1/3
f 116/1/3 96/1/3 95/1/3
f 116/1/3 95/1/3 94/1/3
f 116/1/3 94/1/3 93/1/3
f 116/1/3 93/1/3 92/1/3
f 116/1/3 92/1/3 91/1/3
f 116/1/3 91/1/3 90/1/3
f 116/1/3 90/1/3 89/1/3
f 116/1/3 89/1/3 61/1/3
f 117/1/3 115/1/3 116/1/3
f 118/1/4 119/1/4 146/1/4
f 119/3/4 120/3/4 146/3/4
f 120/2/4 121/2/4 147/2/4
f 146/3/4 120/3/4 147/3/4
f 121/1/4 122/1/4 148/1/4
f 147/2/4 121/2/4 148/2/4
f 122/3/4 123/3/4 149/3/4
f 148/1/4 122/1/4 149/1/4
f 123/2/4 124/2/4 150/2/4
f 149/3/4 123/3/4 150/3/4
f 124/1/4 125/1/4 151/1/4
f 150/2/4 124/2/4 151/2/4
f 125/3/4 126/3/4 152/3/4
f 151/1/4 125/1/4 152/1/4
f 126/2/4 127/2/4 153/2/4
f 152/3/4 126/3/4 153/3/4
f 127/1/4 128/1/4 154/1/4
f 153/2/4 127/2/4 154/2/4
f 128/3/4 129/3/4 155/3/4
f 154/1/4 128/1/4 155/1/4
f 129/2/4 130/2/4 156/2/4
f 155/3/4 129/3/4 156/3/4
f 130/1/4 131/1/4 157/1/4
f 156/2/4 130/2/4 157/2/4
f 131/3/4 132/3/4 158/3/4
f 157/1/4 131/1/4 158/1/4
f 132/2/4 133/2/4 159/2/4
f 158/3/4 132/3/4 159/3/4
f 133/1/4 134/1/4 160/1/4
f 159/2/4 133/2/4 160/2/4
f 134/3/4 135/3/4 161/3/4
f 160/1/4 134/1/4 161/1/4
f 135/2/4 136/2/4 162/2/4
f 161/3/4 135/3/4 162/3/4
f 136/1/4 137/1/4 163/1/4
f 162/2/4 136/2/4 163/2/4
f 137/3/4 138/3/4 164/3/4
f 163/1/4 137/1/4 164/1/4
f 138/2/4 139/2/4 165/2/4
f 164/3/4 138/3/4 165/3/4
f 139/1/4 140/1/4 166/1/4
f 165/2/4 139/2/4 166/2/4
f 140/3/4 141/3/4 167/3/4
f 166/1/4 140/1/4 167/1/4
f 141/2/4 142/2/4 168/2/4
f 167/3/4 141/3/4 168/3/4
f 142/1/4 143/1/4 169/1/4
f 168/2/4 142/2/4 169/2/4
f 143/3/4 144/3/4 170/3/4
f 169/1/4 143/1/4 170/1/4
f 144/2/4 145/2/4 171/2/4
f 170/3/4 144/3/4 171/3/4
f 171/2/4 145/2/4 172/2/4
f 169/1/4 170/1/4 173/1/4
f 168/1/4 169/1/4 173/1/4
f 171/1/4 172/1/4 173/1/4
f 170/1/4 171/1/4 173/1/4
f 167/1/4 168/1/4 173/1/4
f 166/1/4 167/1/4 173/1/4
f 165/1/4 166/1/4 173/1/4
f 164/1/4 165/1/4 173/1/4
f 163/1/4 164/1/4 173/1/4
f 162/1/4 163/1/4 173/1/4
f 161/1/4 162/1/4 173/1/4
f 160/1/4 161/1/4 173/1/4
f 159/1/4 160/1/4 173/1/4
f 158/1/4 159/1/4 173/1/4
f 157/1/4 158/1/4 173/1/4
f 156/1/4 157/1/4 173/1/4
f 155/1/4 156/1/4 173/1/4
f 154/1/4 155/1/4 173/1/4
f 153/1/4 154/1/4 173/1/4
f 152/1/4 153/1/4 173/1/4
f 151/1/4 152/1/4 173/1/4
f 150/1/4 151/1/4 173/1/4
f 149/1/4 150/1/4 173/1/4
f 148/1/4 149/1/4 173/1/4
f 147/1/4 148/1/4 173/1/4
f 146/1/4 147/1/4 173/1/4
f 118/1/4 146/1/4 173/1/4
f 173/1/4 172/1/4 174/1/4
f 177/1/5 176/1/5 175/1/5
f 178/1/5 176/1/5 177/1/5
f 179/2/6 180/2/6 182/2/6
f 180/1/6 181/1/6 183/1/6
f 182/2/6 180/2/6 183/2/6
f 183/1/6 181/1/6 184/1/6
