# MagicaVoxel @ Ephtracy

# group
o 

# material
mtllib mesh_hanger_door_frame_mid.mtl
usemtl palette

# normals
vn -1 0 0
vn 1 0 0
vn 0 0 1
vn 0 0 -1
vn 0 -1 0
vn 0 1 0

# texcoords
vt 0.986328 0.5
vt 0.990234 0.5
vt 0.994141 0.5

# verts
v -2.2 -2.2 2.2
v -2.2 -2.2 2.1
v -2.2 -2.2 2
v -2.2 -2 2.1
v -2.2 -2 2
v -2.2 2.2 2.2
v -2.2 2.2 2.1
v -2.2 2.2 2
v 2.2 -2.2 2.2
v 2.2 -2.2 2.1
v 2.2 -2.2 2
v 2.2 -2 2.1
v 2.2 -2 2
v 2.2 2.2 2.2
v 2.2 2.2 2.1
v 2.2 2.2 2
v -2.2 -2.2 2.2
v -2.2 2.2 2.2
v 2.2 -2.2 2.2
v 2.2 2.2 2.2
v -2.2 -2.2 2
v -2.2 -2 2
v -2.2 2.2 2
v -2.1 -1.9 2
v -2.1 2.2 2
v -1.9 -1.7 2
v -1.9 2.2 2
v -1.8 -1.6 2
v -1.8 2.2 2
v 1.8 -1.6 2
v 1.8 2.2 2
v 1.9 -1.7 2
v 1.9 2.2 2
v 2.1 -1.9 2
v 2.1 2.2 2
v 2.2 -2.2 2
v 2.2 -2 2
v 2.2 2.2 2
v -2.2 -2.2 2.2
v 2.2 -2.2 2.2
v -2.2 -2.2 2.1
v 2.2 -2.2 2.1
v -2.2 -2.2 2
v 2.2 -2.2 2
v -2.2 2.2 2.2
v 2.2 2.2 2.2
v -2.2 2.2 2.1
v -2.1 2.2 2.1
v -1.9 2.2 2.1
v -1.8 2.2 2.1
v 1.8 2.2 2.1
v 1.9 2.2 2.1
v 2.1 2.2 2.1
v 2.2 2.2 2.1
v -2.2 2.2 2
v -2.1 2.2 2
v -1.9 2.2 2
v -1.8 2.2 2
v 1.8 2.2 2
v 1.9 2.2 2
v 2.1 2.2 2
v 2.2 2.2 2

# faces
f 4/1/1 2/1/1 1/1/1
f 4/2/1 3/2/1 2/2/1
f 5/2/1 3/2/1 4/2/1
f 6/1/1 4/1/1 1/1/1
f 7/3/1 5/3/1 4/3/1
f 7/1/1 4/1/1 6/1/1
f 8/3/1 5/3/1 7/3/1
f 9/1/2 10/1/2 12/1/2
f 10/2/2 11/2/2 12/2/2
f 12/2/2 11/2/2 13/2/2
f 9/1/2 12/1/2 14/1/2
f 12/3/2 13/3/2 15/3/2
f 14/1/2 12/1/2 15/1/2
f 15/3/2 13/3/2 16/3/2
f 19/1/3 18/1/3 17/1/3
f 20/1/3 18/1/3 19/1/3
f 22/3/4 23/3/4 24/3/4
f 24/3/4 23/3/4 25/3/4
f 24/2/4 25/2/4 26/2/4
f 26/2/4 25/2/4 27/2/4
f 26/3/4 27/3/4 28/3/4
f 28/3/4 27/3/4 29/3/4
f 26/3/4 28/3/4 30/3/4
f 28/1/4 29/1/4 30/1/4
f 30/1/4 29/1/4 31/1/4
f 24/2/4 26/2/4 32/2/4
f 26/3/4 30/3/4 32/3/4
f 30/3/4 31/3/4 32/3/4
f 32/3/4 31/3/4 33/3/4
f 22/3/4 24/3/4 34/3/4
f 24/2/4 32/2/4 34/2/4
f 32/2/4 33/2/4 34/2/4
f 34/2/4 33/2/4 35/2/4
f 21/2/4 22/2/4 36/2/4
f 22/3/4 34/3/4 37/3/4
f 36/2/4 22/2/4 37/2/4
f 34/3/4 35/3/4 37/3/4
f 37/3/4 35/3/4 38/3/4
f 41/1/5 40/1/5 39/1/5
f 42/1/5 40/1/5 41/1/5
f 43/2/5 42/2/5 41/2/5
f 44/2/5 42/2/5 43/2/5
f 45/1/6 46/1/6 47/1/6
f 47/1/6 46/1/6 48/1/6
f 48/1/6 46/1/6 49/1/6
f 49/1/6 46/1/6 50/1/6
f 50/1/6 46/1/6 51/1/6
f 51/1/6 46/1/6 52/1/6
f 52/1/6 46/1/6 53/1/6
f 53/1/6 46/1/6 54/1/6
f 47/3/6 48/3/6 55/3/6
f 48/2/6 49/2/6 56/2/6
f 55/3/6 48/3/6 56/3/6
f 49/3/6 50/3/6 57/3/6
f 56/2/6 49/2/6 57/2/6
f 50/1/6 51/1/6 58/1/6
f 57/3/6 50/3/6 58/3/6
f 51/3/6 52/3/6 59/3/6
f 58/1/6 51/1/6 59/1/6
f 52/2/6 53/2/6 60/2/6
f 59/3/6 52/3/6 60/3/6
f 53/3/6 54/3/6 61/3/6
f 60/2/6 53/2/6 61/2/6
f 61/3/6 54/3/6 62/3/6
