# MagicaVoxel @ Ephtracy

# group
o 

# material
mtllib mesh_hanger_wall_grid_corner_top.mtl
usemtl palette

# normals
vn -1 0 0
vn 1 0 0
vn 0 0 1
vn 0 0 -1
vn 0 -1 0
vn 0 1 0

# texcoords
vt 0.373047 0.5
vt 0.837891 0.5
vt 0.841797 0.5
vt 0.986328 0.5
vt 0.990234 0.5
vt 0.994141 0.5

# verts
v -2.2 -2.2 2.2
v -2.2 -2.2 2.1
v -2.2 -2.2 2
v -2.2 1.8 2.2
v -2.2 1.8 2.1
v -2.2 2 2
v -2.2 2 1.8
v -2.2 2 1.6
v -2.2 2 1.5
v -2.2 2 1.4
v -2.2 2 1.3
v -2.2 2 1.1
v -2.2 2 1
v -2.2 2 -2.2
v -2.2 2.2 2.2
v -2.2 2.2 2
v -2.2 2.2 1.8
v -2.2 2.2 1.6
v -2.2 2.2 1.5
v -2.2 2.2 1.4
v -2.2 2.2 1.3
v -2.2 2.2 1.1
v -2.2 2.2 1
v -2.2 2.2 -2.2
v 2 -2.2 2
v 2 -2.2 1.8
v 2 -2.2 1.5
v 2 -2.2 1.4
v 2 -2.2 1.2
v 2 -2.2 0.9
v 2 -2.2 0.8
v 2 -2.2 0.6
v 2 -2.2 0.3
v 2 -2.2 0.2
v 2 -2.2 0
v 2 -2.2 -0.3
v 2 -2.2 -0.4
v 2 -2.2 -0.6
v 2 -2.2 -0.9
v 2 -2.2 -1
v 2 -2.2 -1.2
v 2 -2.2 -1.5
v 2 -2.2 -2.2
v 2 1.8 1.8
v 2 1.8 1.5
v 2 1.8 1.4
v 2 1.8 1.2
v 2 1.8 0.9
v 2 1.8 0.8
v 2 1.8 0.6
v 2 1.8 0.3
v 2 1.8 0.2
v 2 1.8 0
v 2 1.8 -0.3
v 2 1.8 -0.4
v 2 1.8 -0.6
v 2 1.8 -0.9
v 2 1.8 -1
v 2 1.8 -1.2
v 2 1.8 -1.5
v 2 2 2
v 2 2 -2.2
v 2.2 -2.2 2.2
v 2.2 -2.2 2
v 2.2 -2.2 -2.2
v 2.2 1.8 2
v 2.2 1.8 -2.2
v 2.2 2.2 2.2
v 2.2 2.2 -2.2
v -2.2 -2.2 2.2
v -2.2 1.8 2.2
v -2.2 2.2 2.2
v 2 -2.2 2.2
v 2 1.8 2.2
v 2.2 -2.2 2.2
v 2.2 2.2 2.2
v -2.2 -2.2 2
v -2.2 2 2
v -1.6 -2.2 2
v -1.6 1.8 2
v -1.5 -2.2 2
v -1.5 1.8 2
v -1.2 -2.2 2
v -1.2 1.8 2
v -1 -2.2 2
v -1 1.8 2
v -0.9 -2.2 2
v -0.9 1.8 2
v -0.6 -2.2 2
v -0.6 1.8 2
v -0.4 -2.2 2
v -0.4 1.8 2
v -0.3 -2.2 2
v -0.3 1.8 2
v 0 -2.2 2
v 0 1.8 2
v 0.2 -2.2 2
v 0.2 1.8 2
v 0.3 -2.2 2
v 0.3 1.8 2
v 0.6 -2.2 2
v 0.6 1.8 2
v 0.8 -2.2 2
v 0.8 1.8 2
v 0.9 -2.2 2
v 0.9 1.8 2
v 1.2 -2.2 2
v 1.2 1.8 2
v 1.4 -2.2 2
v 1.4 1.8 2
v 1.5 -2.2 2
v 1.5 1.8 2
v 1.8 -2.2 2
v 1.8 1.8 2
v 2 -2.2 2
v 2 2 2
v -2.2 2 -2.2
v -2.2 2.2 -2.2
v 1 2 -2.2
v 1 2.2 -2.2
v 1.1 2 -2.2
v 1.1 2.2 -2.2
v 1.3 2 -2.2
v 1.3 2.2 -2.2
v 1.4 2 -2.2
v 1.4 2.2 -2.2
v 1.5 2 -2.2
v 1.5 2.2 -2.2
v 1.6 2 -2.2
v 1.6 2.2 -2.2
v 1.8 2 -2.2
v 1.8 2.2 -2.2
v 2 -2.2 -2.2
v 2 2 -2.2
v 2 2.2 -2.2
v 2.1 -2.2 -2.2
v 2.1 1.8 -2.2
v 2.2 -2.2 -2.2
v 2.2 1.8 -2.2
v 2.2 2.2 -2.2
v -2.2 -2.2 2.2
v 2 -2.2 2.2
v 2.2 -2.2 2.2
v -2.2 -2.2 2.1
v -1.6 -2.2 2.1
v -1.5 -2.2 2.1
v -1.2 -2.2 2.1
v -1 -2.2 2.1
v -0.9 -2.2 2.1
v -0.6 -2.2 2.1
v -0.4 -2.2 2.1
v -0.3 -2.2 2.1
v 0 -2.2 2.1
v 0.2 -2.2 2.1
v 0.3 -2.2 2.1
v 0.6 -2.2 2.1
v 0.8 -2.2 2.1
v 0.9 -2.2 2.1
v 1.2 -2.2 2.1
v 1.4 -2.2 2.1
v 1.5 -2.2 2.1
v 1.8 -2.2 2.1
v 2 -2.2 2.1
v -2.2 -2.2 2
v -1.6 -2.2 2
v -1.5 -2.2 2
v -1.2 -2.2 2
v -1 -2.2 2
v -0.9 -2.2 2
v -0.6 -2.2 2
v -0.4 -2.2 2
v -0.3 -2.2 2
v 0 -2.2 2
v 0.2 -2.2 2
v 0.3 -2.2 2
v 0.6 -2.2 2
v 0.8 -2.2 2
v 0.9 -2.2 2
v 1.2 -2.2 2
v 1.4 -2.2 2
v 1.5 -2.2 2
v 1.8 -2.2 2
v 2 -2.2 2
v 2.1 -2.2 2
v 2.2 -2.2 2
v 2 -2.2 1.8
v 2.1 -2.2 1.8
v 2 -2.2 1.5
v 2.1 -2.2 1.5
v 2 -2.2 1.4
v 2.1 -2.2 1.4
v 2 -2.2 1.2
v 2.1 -2.2 1.2
v 2 -2.2 0.9
v 2.1 -2.2 0.9
v 2 -2.2 0.8
v 2.1 -2.2 0.8
v 2 -2.2 0.6
v 2.1 -2.2 0.6
v 2 -2.2 0.3
v 2.1 -2.2 0.3
v 2 -2.2 0.2
v 2.1 -2.2 0.2
v 2 -2.2 0
v 2.1 -2.2 0
v 2 -2.2 -0.3
v 2.1 -2.2 -0.3
v 2 -2.2 -0.4
v 2.1 -2.2 -0.4
v 2 -2.2 -0.6
v 2.1 -2.2 -0.6
v 2 -2.2 -0.9
v 2.1 -2.2 -0.9
v 2 -2.2 -1
v 2.1 -2.2 -1
v 2 -2.2 -1.2
v 2.1 -2.2 -1.2
v 2 -2.2 -1.5
v 2.1 -2.2 -1.5
v 2 -2.2 -2.2
v 2.1 -2.2 -2.2
v 2.2 -2.2 -2.2
v -2.2 2 2
v 2 2 2
v -2.2 2 1.8
v 1.8 2 1.8
v -2.2 2 1.6
v 1.6 2 1.6
v -2.2 2 1.5
v 1.5 2 1.5
v -2.2 2 1.4
v 1.4 2 1.4
v -2.2 2 1.3
v 1.3 2 1.3
v -2.2 2 1.1
v 1.1 2 1.1
v -2.2 2 1
v 1 2 1
v -2.2 2 -2.2
v 1 2 -2.2
v 1.1 2 -2.2
v 1.3 2 -2.2
v 1.4 2 -2.2
v 1.5 2 -2.2
v 1.6 2 -2.2
v 1.8 2 -2.2
v 2 2 -2.2
v -2.2 2.2 2.2
v 2.2 2.2 2.2
v -2.2 2.2 2
v 2 2.2 2
v -2.2 2.2 1.8
v 1.8 2.2 1.8
v -2.2 2.2 1.6
v 1.6 2.2 1.6
v -2.2 2.2 1.5
v 1.5 2.2 1.5
v -2.2 2.2 1.4
v 1.4 2.2 1.4
v -2.2 2.2 1.3
v 1.3 2.2 1.3
v -2.2 2.2 1.1
v 1.1 2.2 1.1
v -2.2 2.2 1
v 1 2.2 1
v -2.2 2.2 -2.2
v 1 2.2 -2.2
v 1.1 2.2 -2.2
v 1.3 2.2 -2.2
v 1.4 2.2 -2.2
v 1.5 2.2 -2.2
v 1.6 2.2 -2.2
v 1.8 2.2 -2.2
v 2 2.2 -2.2
v 2.2 2.2 -2.2

# faces
f 4/4/1 2/4/1 1/4/1
f 5/6/1 3/6/1 2/6/1
f 5/4/1 2/4/1 4/4/1
f 6/6/1 5/6/1 4/6/1
f 6/6/1 3/6/1 5/6/1
f 15/6/1 6/6/1 4/6/1
f 16/5/1 7/5/1 6/5/1
f 16/6/1 6/6/1 15/6/1
f 17/6/1 8/6/1 7/6/1
f 17/5/1 7/5/1 16/5/1
f 18/5/1 9/5/1 8/5/1
f 18/6/1 8/6/1 17/6/1
f 19/1/1 10/1/1 9/1/1
f 19/5/1 9/5/1 18/5/1
f 20/5/1 11/5/1 10/5/1
f 20/1/1 10/1/1 19/1/1
f 21/6/1 12/6/1 11/6/1
f 21/5/1 11/5/1 20/5/1
f 22/5/1 13/5/1 12/5/1
f 22/6/1 12/6/1 21/6/1
f 23/4/1 14/4/1 13/4/1
f 23/5/1 13/5/1 22/5/1
f 24/4/1 14/4/1 23/4/1
f 44/6/1 26/6/1 25/6/1
f 44/4/1 27/4/1 26/4/1
f 45/3/1 28/3/1 27/3/1
f 45/4/1 27/4/1 44/4/1
f 46/2/1 29/2/1 28/2/1
f 46/3/1 28/3/1 45/3/1
f 47/4/1 30/4/1 29/4/1
f 47/2/1 29/2/1 46/2/1
f 48/3/1 31/3/1 30/3/1
f 48/4/1 30/4/1 47/4/1
f 49/2/1 32/2/1 31/2/1
f 49/3/1 31/3/1 48/3/1
f 50/4/1 33/4/1 32/4/1
f 50/2/1 32/2/1 49/2/1
f 51/3/1 34/3/1 33/3/1
f 51/4/1 33/4/1 50/4/1
f 52/2/1 35/2/1 34/2/1
f 52/3/1 34/3/1 51/3/1
f 53/4/1 36/4/1 35/4/1
f 53/2/1 35/2/1 52/2/1
f 54/3/1 37/3/1 36/3/1
f 54/4/1 36/4/1 53/4/1
f 55/2/1 38/2/1 37/2/1
f 55/3/1 37/3/1 54/3/1
f 56/4/1 39/4/1 38/4/1
f 56/2/1 38/2/1 55/2/1
f 57/3/1 40/3/1 39/3/1
f 57/4/1 39/4/1 56/4/1
f 58/2/1 41/2/1 40/2/1
f 58/3/1 40/3/1 57/3/1
f 59/4/1 42/4/1 41/4/1
f 59/2/1 41/2/1 58/2/1
f 60/6/1 43/6/1 42/6/1
f 60/4/1 42/4/1 59/4/1
f 61/6/1 59/6/1 58/6/1
f 61/6/1 58/6/1 57/6/1
f 61/6/1 60/6/1 59/6/1
f 61/6/1 57/6/1 56/6/1
f 61/6/1 56/6/1 55/6/1
f 61/6/1 55/6/1 54/6/1
f 61/6/1 54/6/1 53/6/1
f 61/6/1 53/6/1 52/6/1
f 61/6/1 52/6/1 51/6/1
f 61/6/1 51/6/1 50/6/1
f 61/6/1 50/6/1 49/6/1
f 61/6/1 49/6/1 48/6/1
f 61/6/1 48/6/1 47/6/1
f 61/6/1 47/6/1 46/6/1
f 61/6/1 46/6/1 45/6/1
f 61/6/1 45/6/1 44/6/1
f 61/6/1 44/6/1 25/6/1
f 62/6/1 43/6/1 60/6/1
f 62/6/1 60/6/1 61/6/1
f 63/6/2 64/6/2 66/6/2
f 64/4/2 65/4/2 66/4/2
f 66/4/2 65/4/2 67/4/2
f 63/6/2 66/6/2 68/6/2
f 66/6/2 67/6/2 68/6/2
f 68/6/2 67/6/2 69/6/2
f 73/4/3 71/4/3 70/4/3
f 74/6/3 72/6/3 71/6/3
f 74/4/3 71/4/3 73/4/3
f 75/6/3 74/6/3 73/6/3
f 76/6/3 72/6/3 74/6/3
f 76/6/3 74/6/3 75/6/3
f 77/6/4 78/6/4 79/6/4
f 79/6/4 78/6/4 80/6/4
f 79/3/4 80/3/4 81/3/4
f 80/6/4 78/6/4 82/6/4
f 81/3/4 80/3/4 82/3/4
f 81/4/4 82/4/4 83/4/4
f 82/6/4 78/6/4 84/6/4
f 83/4/4 82/4/4 84/4/4
f 83/2/4 84/2/4 85/2/4
f 84/6/4 78/6/4 86/6/4
f 85/2/4 84/2/4 86/2/4
f 85/3/4 86/3/4 87/3/4
f 86/6/4 78/6/4 88/6/4
f 87/3/4 86/3/4 88/3/4
f 87/4/4 88/4/4 89/4/4
f 88/6/4 78/6/4 90/6/4
f 89/4/4 88/4/4 90/4/4
f 89/2/4 90/2/4 91/2/4
f 90/6/4 78/6/4 92/6/4
f 91/2/4 90/2/4 92/2/4
f 91/3/4 92/3/4 93/3/4
f 92/6/4 78/6/4 94/6/4
f 93/3/4 92/3/4 94/3/4
f 93/4/4 94/4/4 95/4/4
f 94/6/4 78/6/4 96/6/4
f 95/4/4 94/4/4 96/4/4
f 95/2/4 96/2/4 97/2/4
f 96/6/4 78/6/4 98/6/4
f 97/2/4 96/2/4 98/2/4
f 97/3/4 98/3/4 99/3/4
f 98/6/4 78/6/4 100/6/4
f 99/3/4 98/3/4 100/3/4
f 99/4/4 100/4/4 101/4/4
f 100/6/4 78/6/4 102/6/4
f 101/4/4 100/4/4 102/4/4
f 101/2/4 102/2/4 103/2/4
f 102/6/4 78/6/4 104/6/4
f 103/2/4 102/2/4 104/2/4
f 103/3/4 104/3/4 105/3/4
f 104/6/4 78/6/4 106/6/4
f 105/3/4 104/3/4 106/3/4
f 105/4/4 106/4/4 107/4/4
f 106/6/4 78/6/4 108/6/4
f 107/4/4 106/4/4 108/4/4
f 107/2/4 108/2/4 109/2/4
f 108/6/4 78/6/4 110/6/4
f 109/2/4 108/2/4 110/2/4
f 109/3/4 110/3/4 111/3/4
f 110/6/4 78/6/4 112/6/4
f 111/3/4 110/3/4 112/3/4
f 111/4/4 112/4/4 113/4/4
f 112/6/4 78/6/4 114/6/4
f 113/4/4 112/4/4 114/4/4
f 113/6/4 114/6/4 115/6/4
f 114/6/4 78/6/4 116/6/4
f 115/6/4 114/6/4 116/6/4
f 117/4/4 118/4/4 119/4/4
f 119/4/4 118/4/4 120/4/4
f 119/5/4 120/5/4 121/5/4
f 121/5/4 120/5/4 122/5/4
f 121/6/4 122/6/4 123/6/4
f 123/6/4 122/6/4 124/6/4
f 123/5/4 124/5/4 125/5/4
f 125/5/4 124/5/4 126/5/4
f 125/1/4 126/1/4 127/1/4
f 127/1/4 126/1/4 128/1/4
f 127/5/4 128/5/4 129/5/4
f 129/5/4 128/5/4 130/5/4
f 129/6/4 130/6/4 131/6/4
f 131/6/4 130/6/4 132/6/4
f 131/5/4 132/5/4 134/5/4
f 134/5/4 132/5/4 135/5/4
f 133/6/4 134/6/4 136/6/4
f 134/6/4 135/6/4 136/6/4
f 136/6/4 135/6/4 137/6/4
f 136/4/4 137/4/4 138/4/4
f 137/6/4 135/6/4 139/6/4
f 138/4/4 137/4/4 139/4/4
f 139/6/4 135/6/4 140/6/4
f 144/4/5 142/4/5 141/4/5
f 145/4/5 142/4/5 144/4/5
f 146/4/5 142/4/5 145/4/5
f 147/4/5 142/4/5 146/4/5
f 148/4/5 142/4/5 147/4/5
f 149/4/5 142/4/5 148/4/5
f 150/4/5 142/4/5 149/4/5
f 151/4/5 142/4/5 150/4/5
f 152/4/5 142/4/5 151/4/5
f 153/4/5 142/4/5 152/4/5
f 154/4/5 142/4/5 153/4/5
f 155/4/5 142/4/5 154/4/5
f 156/4/5 142/4/5 155/4/5
f 157/4/5 142/4/5 156/4/5
f 158/4/5 142/4/5 157/4/5
f 159/4/5 142/4/5 158/4/5
f 160/4/5 142/4/5 159/4/5
f 161/4/5 142/4/5 160/4/5
f 162/4/5 142/4/5 161/4/5
f 163/6/5 143/6/5 142/6/5
f 163/4/5 142/4/5 162/4/5
f 164/6/5 145/6/5 144/6/5
f 165/3/5 146/3/5 145/3/5
f 165/6/5 145/6/5 164/6/5
f 166/4/5 147/4/5 146/4/5
f 166/3/5 146/3/5 165/3/5
f 167/2/5 148/2/5 147/2/5
f 167/4/5 147/4/5 166/4/5
f 168/3/5 149/3/5 148/3/5
f 168/2/5 148/2/5 167/2/5
f 169/4/5 150/4/5 149/4/5
f 169/3/5 149/3/5 168/3/5
f 170/2/5 151/2/5 150/2/5
f 170/4/5 150/4/5 169/4/5
f 171/3/5 152/3/5 151/3/5
f 171/2/5 151/2/5 170/2/5
f 172/4/5 153/4/5 152/4/5
f 172/3/5 152/3/5 171/3/5
f 173/2/5 154/2/5 153/2/5
f 173/4/5 153/4/5 172/4/5
f 174/3/5 155/3/5 154/3/5
f 174/2/5 154/2/5 173/2/5
f 175/4/5 156/4/5 155/4/5
f 175/3/5 155/3/5 174/3/5
f 176/2/5 157/2/5 156/2/5
f 176/4/5 156/4/5 175/4/5
f 177/3/5 158/3/5 157/3/5
f 177/2/5 157/2/5 176/2/5
f 178/4/5 159/4/5 158/4/5
f 178/3/5 158/3/5 177/3/5
f 179/2/5 160/2/5 159/2/5
f 179/4/5 159/4/5 178/4/5
f 180/3/5 161/3/5 160/3/5
f 180/2/5 160/2/5 179/2/5
f 181/4/5 162/4/5 161/4/5
f 181/3/5 161/3/5 180/3/5
f 182/6/5 163/6/5 162/6/5
f 182/4/5 162/4/5 181/4/5
f 183/6/5 143/6/5 163/6/5
f 183/6/5 163/6/5 182/6/5
f 184/6/5 143/6/5 183/6/5
f 185/6/5 143/6/5 184/6/5
f 186/6/5 184/6/5 183/6/5
f 187/4/5 185/4/5 184/4/5
f 187/6/5 184/6/5 186/6/5
f 188/4/5 187/4/5 186/4/5
f 189/4/5 185/4/5 187/4/5
f 189/4/5 187/4/5 188/4/5
f 190/3/5 189/3/5 188/3/5
f 191/4/5 185/4/5 189/4/5
f 191/3/5 189/3/5 190/3/5
f 192/2/5 191/2/5 190/2/5
f 193/4/5 185/4/5 191/4/5
f 193/2/5 191/2/5 192/2/5
f 194/4/5 193/4/5 192/4/5
f 195/4/5 185/4/5 193/4/5
f 195/4/5 193/4/5 194/4/5
f 196/3/5 195/3/5 194/3/5
f 197/4/5 185/4/5 195/4/5
f 197/3/5 195/3/5 196/3/5
f 198/2/5 197/2/5 196/2/5
f 199/4/5 185/4/5 197/4/5
f 199/2/5 197/2/5 198/2/5
f 200/4/5 199/4/5 198/4/5
f 201/4/5 185/4/5 199/4/5
f 201/4/5 199/4/5 200/4/5
f 202/3/5 201/3/5 200/3/5
f 203/4/5 185/4/5 201/4/5
f 203/3/5 201/3/5 202/3/5
f 204/2/5 203/2/5 202/2/5
f 205/4/5 185/4/5 203/4/5
f 205/2/5 203/2/5 204/2/5
f 206/4/5 205/4/5 204/4/5
f 207/4/5 185/4/5 205/4/5
f 207/4/5 205/4/5 206/4/5
f 208/3/5 207/3/5 206/3/5
f 209/4/5 185/4/5 207/4/5
f 209/3/5 207/3/5 208/3/5
f 210/2/5 209/2/5 208/2/5
f 211/4/5 185/4/5 209/4/5
f 211/2/5 209/2/5 210/2/5
f 212/4/5 211/4/5 210/4/5
f 213/4/5 185/4/5 211/4/5
f 213/4/5 211/4/5 212/4/5
f 214/3/5 213/3/5 212/3/5
f 215/4/5 185/4/5 213/4/5
f 215/3/5 213/3/5 214/3/5
f 216/2/5 215/2/5 214/2/5
f 217/4/5 185/4/5 215/4/5
f 217/2/5 215/2/5 216/2/5
f 218/4/5 217/4/5 216/4/5
f 219/4/5 185/4/5 217/4/5
f 219/4/5 217/4/5 218/4/5
f 220/6/5 219/6/5 218/6/5
f 221/4/5 185/4/5 219/4/5
f 221/6/5 219/6/5 220/6/5
f 222/4/5 185/4/5 221/4/5
f 225/5/5 224/5/5 223/5/5
f 226/5/5 224/5/5 225/5/5
f 227/6/5 226/6/5 225/6/5
f 228/6/5 226/6/5 227/6/5
f 229/5/5 228/5/5 227/5/5
f 230/5/5 228/5/5 229/5/5
f 231/1/5 230/1/5 229/1/5
f 232/1/5 230/1/5 231/1/5
f 233/5/5 232/5/5 231/5/5
f 234/5/5 232/5/5 233/5/5
f 235/6/5 234/6/5 233/6/5
f 236/6/5 234/6/5 235/6/5
f 237/5/5 236/5/5 235/5/5
f 238/5/5 236/5/5 237/5/5
f 239/4/5 238/4/5 237/4/5
f 240/5/5 236/5/5 238/5/5
f 240/4/5 238/4/5 239/4/5
f 241/6/5 234/6/5 236/6/5
f 241/5/5 236/5/5 240/5/5
f 242/5/5 232/5/5 234/5/5
f 242/6/5 234/6/5 241/6/5
f 243/1/5 230/1/5 232/1/5
f 243/5/5 232/5/5 242/5/5
f 244/5/5 228/5/5 230/5/5
f 244/1/5 230/1/5 243/1/5
f 245/6/5 226/6/5 228/6/5
f 245/5/5 228/5/5 244/5/5
f 246/5/5 224/5/5 226/5/5
f 246/6/5 226/6/5 245/6/5
f 247/5/5 224/5/5 246/5/5
f 248/6/6 249/6/6 250/6/6
f 250/6/6 249/6/6 251/6/6
f 250/5/6 251/5/6 252/5/6
f 252/5/6 251/5/6 253/5/6
f 252/6/6 253/6/6 254/6/6
f 254/6/6 253/6/6 255/6/6
f 254/5/6 255/5/6 256/5/6
f 256/5/6 255/5/6 257/5/6
f 256/1/6 257/1/6 258/1/6
f 258/1/6 257/1/6 259/1/6
f 258/5/6 259/5/6 260/5/6
f 260/5/6 259/5/6 261/5/6
f 260/6/6 261/6/6 262/6/6
f 262/6/6 261/6/6 263/6/6
f 262/5/6 263/5/6 264/5/6
f 264/5/6 263/5/6 265/5/6
f 264/4/6 265/4/6 266/4/6
f 265/5/6 263/5/6 267/5/6
f 266/4/6 265/4/6 267/4/6
f 263/6/6 261/6/6 268/6/6
f 267/5/6 263/5/6 268/5/6
f 261/5/6 259/5/6 269/5/6
f 268/6/6 261/6/6 269/6/6
f 259/1/6 257/1/6 270/1/6
f 269/5/6 259/5/6 270/5/6
f 257/5/6 255/5/6 271/5/6
f 270/1/6 257/1/6 271/1/6
f 255/6/6 253/6/6 272/6/6
f 271/5/6 255/5/6 272/5/6
f 253/5/6 251/5/6 273/5/6
f 272/6/6 253/6/6 273/6/6
f 251/6/6 249/6/6 274/6/6
f 273/5/6 251/5/6 274/5/6
f 274/6/6 249/6/6 275/6/6
