# MagicaVoxel @ Ephtracy

# group
o 

# material
mtllib mesh_hanger_floor_corner_no_wall-0.mtl
usemtl palette

# normals
vn -1 0 0
vn 1 0 0
vn 0 0 1
vn 0 0 -1
vn 0 -1 0
vn 0 1 0

# texcoords
vt 0.986328 0.5
vt 0.990234 0.5
vt 0.994141 0.5

# verts
v -2.2 -2.2 2.2
v -2.2 -2.2 -1
v -2.2 -2.2 -1.6
v -2.2 -2.2 -1.8
v -2.2 -2.2 -2
v -2.2 -2.2 -2.2
v -2.2 -2.1 -1
v -2.2 -2.1 -1.2
v -2.2 -2 2.2
v -2.2 -2 -1
v -2.2 -2 -1.2
v -2.2 -2 -1.6
v -2.2 -2 -1.8
v -2.2 -2 -2
v -2.2 -2 -2.2
v 2.2 -2.2 2.2
v 2.2 -2.2 0.7
v 2.2 -2.2 -1
v 2.2 -2.2 -1.6
v 2.2 -2.2 -1.8
v 2.2 -2.2 -2
v 2.2 -2.2 -2.2
v 2.2 -2.1 0.7
v 2.2 -2.1 -1
v 2.2 -2.1 -1.6
v 2.2 -2.1 -1.8
v 2.2 -2.1 -2
v 2.2 -2 2.2
v 2.2 -2 -2.2
v -2.2 -2.2 2.2
v -2.2 -2 2.2
v 1 -2.2 2.2
v 1 -2 2.2
v 1.2 -2.2 2.2
v 1.2 -2 2.2
v 1.6 -2.1 2.2
v 1.6 -2 2.2
v 1.8 -2.2 2.2
v 1.8 -2.1 2.2
v 1.8 -2 2.2
v 2 -2.2 2.2
v 2 -2 2.2
v 2.2 -2.2 2.2
v 2.2 -2 2.2
v -2.2 -2.2 -2.2
v -2.2 -2 -2.2
v 1.3 -2.2 -2.2
v 1.3 -2.1 -2.2
v 1.9 -2.2 -2.2
v 1.9 -2.1 -2.2
v 2.2 -2.2 -2.2
v 2.2 -2 -2.2
v -2.2 -2.2 2.2
v 1 -2.2 2.2
v 1.2 -2.2 2.2
v 1.8 -2.2 2.2
v 2 -2.2 2.2
v 2.2 -2.2 2.2
v 1 -2.2 2
v 1.2 -2.2 2
v 1 -2.2 1.8
v 1.2 -2.2 1.8
v 2 -2.2 0.7
v 2.2 -2.2 0.7
v -2.2 -2.2 -1
v 1 -2.2 -1
v 1.9 -2.2 -1
v 2.2 -2.2 -1
v -2.2 -2.2 -1.6
v -2 -2.2 -1.6
v -1.8 -2.2 -1.6
v 1 -2.2 -1.6
v 1.9 -2.2 -1.6
v 2 -2.2 -1.6
v 2.2 -2.2 -1.6
v 1.2 -2.2 -1.7
v 1.3 -2.2 -1.7
v 1.8 -2.2 -1.7
v 1.9 -2.2 -1.7
v -2.2 -2.2 -1.8
v -2 -2.2 -1.8
v -1.8 -2.2 -1.8
v 1.3 -2.2 -1.8
v 2 -2.2 -1.8
v 2.2 -2.2 -1.8
v -2.2 -2.2 -2
v 1.3 -2.2 -2
v 1.9 -2.2 -2
v 2.2 -2.2 -2
v -2.2 -2.2 -2.2
v 1.3 -2.2 -2.2
v 1.9 -2.2 -2.2
v 2.2 -2.2 -2.2
v -2.2 -2 2.2
v 1 -2 2.2
v 1.2 -2 2.2
v 1.6 -2 2.2
v 1.8 -2 2.2
v 2 -2 2.2
v 2.2 -2 2.2
v -2.2 -2 -1
v 1 -2 -1
v -2.2 -2 -1.2
v 1.2 -2 -1.2
v -2.2 -2 -1.6
v 1.6 -2 -1.6
v -2.2 -2 -1.8
v 1.8 -2 -1.8
v -2.2 -2 -2
v 2 -2 -2
v -2.2 -2 -2.2
v 2.2 -2 -2.2

# faces
f 7/2/1 2/2/1 1/2/1
f 7/1/1 3/1/1 2/1/1
f 8/1/1 3/1/1 7/1/1
f 9/2/1 7/2/1 1/2/1
f 10/3/1 8/3/1 7/3/1
f 10/2/1 7/2/1 9/2/1
f 11/1/1 3/1/1 8/1/1
f 11/3/1 8/3/1 10/3/1
f 12/3/1 4/3/1 3/3/1
f 12/1/1 3/1/1 11/1/1
f 13/2/1 5/2/1 4/2/1
f 13/3/1 4/3/1 12/3/1
f 14/3/1 6/3/1 5/3/1
f 14/2/1 5/2/1 13/2/1
f 15/3/1 6/3/1 14/3/1
f 16/3/2 17/3/2 23/3/2
f 17/2/2 18/2/2 23/2/2
f 18/1/2 19/1/2 24/1/2
f 23/2/2 18/2/2 24/2/2
f 19/3/2 20/3/2 25/3/2
f 24/1/2 19/1/2 25/1/2
f 20/2/2 21/2/2 26/2/2
f 25/3/2 20/3/2 26/3/2
f 21/3/2 22/3/2 27/3/2
f 26/2/2 21/2/2 27/2/2
f 25/3/2 26/3/2 28/3/2
f 24/3/2 25/3/2 28/3/2
f 26/3/2 27/3/2 28/3/2
f 23/3/2 24/3/2 28/3/2
f 16/3/2 23/3/2 28/3/2
f 27/3/2 22/3/2 29/3/2
f 28/3/2 27/3/2 29/3/2
f 32/2/3 31/2/3 30/2/3
f 33/2/3 31/2/3 32/2/3
f 34/3/3 33/3/3 32/3/3
f 35/3/3 33/3/3 34/3/3
f 36/1/3 35/1/3 34/1/3
f 37/1/3 35/1/3 36/1/3
f 38/1/3 36/1/3 34/1/3
f 39/3/3 37/3/3 36/3/3
f 39/1/3 36/1/3 38/1/3
f 40/3/3 37/3/3 39/3/3
f 41/2/3 39/2/3 38/2/3
f 41/2/3 40/2/3 39/2/3
f 42/2/3 40/2/3 41/2/3
f 43/3/3 42/3/3 41/3/3
f 44/3/3 42/3/3 43/3/3
f 45/3/4 46/3/4 47/3/4
f 47/3/4 46/3/4 48/3/4
f 47/1/4 48/1/4 49/1/4
f 48/3/4 46/3/4 50/3/4
f 49/1/4 48/1/4 50/1/4
f 49/3/4 50/3/4 51/3/4
f 50/3/4 46/3/4 52/3/4
f 51/3/4 50/3/4 52/3/4
f 59/2/5 54/2/5 53/2/5
f 59/3/5 55/3/5 54/3/5
f 60/1/5 56/1/5 55/1/5
f 60/3/5 55/3/5 59/3/5
f 61/2/5 59/2/5 53/2/5
f 61/2/5 60/2/5 59/2/5
f 62/1/5 56/1/5 60/1/5
f 62/2/5 60/2/5 61/2/5
f 63/3/5 58/3/5 57/3/5
f 63/2/5 57/2/5 56/2/5
f 64/3/5 58/3/5 63/3/5
f 65/2/5 61/2/5 53/2/5
f 66/3/5 62/3/5 61/3/5
f 66/2/5 61/2/5 65/2/5
f 67/2/5 63/2/5 56/2/5
f 67/2/5 64/2/5 63/2/5
f 68/2/5 64/2/5 67/2/5
f 69/1/5 66/1/5 65/1/5
f 70/1/5 66/1/5 69/1/5
f 71/1/5 66/1/5 70/1/5
f 72/3/5 62/3/5 66/3/5
f 72/1/5 66/1/5 71/1/5
f 73/2/5 67/2/5 56/2/5
f 73/1/5 68/1/5 67/1/5
f 74/1/5 68/1/5 73/1/5
f 75/1/5 68/1/5 74/1/5
f 76/1/5 56/1/5 62/1/5
f 76/3/5 62/3/5 72/3/5
f 76/3/5 72/3/5 71/3/5
f 77/1/5 56/1/5 76/1/5
f 78/2/5 74/2/5 73/2/5
f 78/1/5 56/1/5 77/1/5
f 78/2/5 73/2/5 56/2/5
f 79/2/5 74/2/5 78/2/5
f 80/3/5 70/3/5 69/3/5
f 81/2/5 71/2/5 70/2/5
f 81/3/5 70/3/5 80/3/5
f 82/3/5 77/3/5 76/3/5
f 82/2/5 71/2/5 81/2/5
f 82/3/5 76/3/5 71/3/5
f 83/1/5 79/1/5 78/1/5
f 83/3/5 77/3/5 82/3/5
f 83/1/5 78/1/5 77/1/5
f 84/3/5 75/3/5 74/3/5
f 84/2/5 74/2/5 79/2/5
f 85/3/5 75/3/5 84/3/5
f 86/2/5 81/2/5 80/2/5
f 86/2/5 83/2/5 82/2/5
f 86/2/5 82/2/5 81/2/5
f 87/1/5 79/1/5 83/1/5
f 87/2/5 83/2/5 86/2/5
f 88/2/5 85/2/5 84/2/5
f 88/1/5 79/1/5 87/1/5
f 88/2/5 84/2/5 79/2/5
f 89/2/5 85/2/5 88/2/5
f 90/3/5 87/3/5 86/3/5
f 91/1/5 88/1/5 87/1/5
f 91/3/5 87/3/5 90/3/5
f 92/3/5 89/3/5 88/3/5
f 92/1/5 88/1/5 91/1/5
f 93/3/5 89/3/5 92/3/5
f 94/2/6 95/2/6 101/2/6
f 95/3/6 96/3/6 102/3/6
f 101/2/6 95/2/6 102/2/6
f 101/3/6 102/3/6 103/3/6
f 96/1/6 97/1/6 104/1/6
f 103/3/6 102/3/6 104/3/6
f 102/3/6 96/3/6 104/3/6
f 103/1/6 104/1/6 105/1/6
f 97/3/6 98/3/6 106/3/6
f 105/1/6 104/1/6 106/1/6
f 104/1/6 97/1/6 106/1/6
f 105/3/6 106/3/6 107/3/6
f 98/2/6 99/2/6 108/2/6
f 107/3/6 106/3/6 108/3/6
f 106/3/6 98/3/6 108/3/6
f 107/2/6 108/2/6 109/2/6
f 99/3/6 100/3/6 110/3/6
f 109/2/6 108/2/6 110/2/6
f 108/2/6 99/2/6 110/2/6
f 109/3/6 110/3/6 111/3/6
f 110/3/6 100/3/6 112/3/6
f 111/3/6 110/3/6 112/3/6
