# MagicaVoxel @ Ephtracy

# group
o 

# material
mtllib mesh_hanger_ship_door_top_right.mtl
usemtl palette

# normals
vn -1 0 0
vn 1 0 0
vn 0 0 1
vn 0 0 -1
vn 0 -1 0
vn 0 1 0

# texcoords
vt 0.373047 0.5
vt 0.837891 0.5
vt 0.986328 0.5
vt 0.990234 0.5
vt 0.994141 0.5

# verts
v -2.2 2 2.2
v -2.2 2 -2.2
v -2.2 2.2 2.2
v -2.2 2.2 -2.2
v 1.8 -2.2 2
v 1.8 -2.2 1.8
v 1.8 1.1 1.8
v 1.8 1.1 1.4
v 1.8 1.2 2
v 1.8 1.2 1.6
v 1.8 1.2 1.4
v 1.8 1.2 1
v 1.8 1.3 1.6
v 1.8 1.3 1.2
v 1.8 1.3 1
v 1.8 1.3 0.6
v 1.8 1.4 1.2
v 1.8 1.4 0.8
v 1.8 1.4 0.6
v 1.8 1.4 0.2
v 1.8 1.5 0.8
v 1.8 1.5 0.4
v 1.8 1.5 0.2
v 1.8 1.5 -2.2
v 1.8 1.6 0.4
v 1.8 1.6 -2.2
v 1.9 -2.2 1.8
v 1.9 -2.2 -2.2
v 1.9 -2 1.8
v 1.9 -2 -2.2
v 1.9 -1.9 1.8
v 1.9 -1.9 -2.2
v 1.9 -1.7 1.8
v 1.9 -1.7 -2.2
v 1.9 -1.5 1.8
v 1.9 -1.5 -2.2
v 1.9 -1.4 1.8
v 1.9 -1.4 -2.2
v 1.9 -1.2 1.8
v 1.9 -1.2 -2.2
v 1.9 -1 1.8
v 1.9 -1 -2.2
v 1.9 -0.9 1.8
v 1.9 -0.9 -2.2
v 1.9 -0.7 1.8
v 1.9 -0.7 -2.2
v 1.9 -0.5 1.8
v 1.9 -0.5 -2.2
v 1.9 -0.4 1.8
v 1.9 -0.4 -2.2
v 1.9 -0.2 1.8
v 1.9 -0.2 -2.2
v 1.9 0 1.8
v 1.9 0 -2.2
v 1.9 0.1 1.8
v 1.9 0.1 -2.2
v 1.9 0.3 1.8
v 1.9 0.3 -2.2
v 1.9 0.5 1.8
v 1.9 0.5 -2.2
v 1.9 0.6 1.8
v 1.9 0.6 -2.2
v 1.9 0.8 1.8
v 1.9 0.8 -2.2
v 1.9 1 1.8
v 1.9 1 -2.2
v 1.9 1.1 1.8
v 1.9 1.1 1.4
v 1.9 1.1 -2.2
v 1.9 1.2 1.4
v 1.9 1.2 1
v 1.9 1.3 1
v 1.9 1.3 0.6
v 1.9 1.3 -2.2
v 1.9 1.4 0.6
v 1.9 1.4 0.2
v 1.9 1.5 0.2
v 1.9 1.5 -2.2
v 2 -2.2 2.2
v 2 -2.2 2
v 2 1.2 2
v 2 1.2 1.6
v 2 1.3 1.6
v 2 1.3 1.2
v 2 1.4 1.2
v 2 1.4 0.8
v 2 1.5 0.8
v 2 1.5 0.4
v 2 1.6 0.4
v 2 1.6 -2.2
v 2 1.8 2.2
v 2 1.8 -2.2
v 2 2 2.2
v 2 2 -2.2
v 2.1 -2.2 1.8
v 2.1 -2.2 -2.2
v 2.1 1.1 1.8
v 2.1 1.1 1.4
v 2.1 1.2 1.4
v 2.1 1.2 1
v 2.1 1.3 1
v 2.1 1.3 0.6
v 2.1 1.4 0.6
v 2.1 1.4 0.2
v 2.1 1.5 0.2
v 2.1 1.5 -2.2
v 2.2 -2.2 2.2
v 2.2 -2.2 2
v 2.2 -2.2 1.8
v 2.2 1.1 1.8
v 2.2 1.1 1.4
v 2.2 1.2 2
v 2.2 1.2 1.6
v 2.2 1.2 1.4
v 2.2 1.2 1
v 2.2 1.3 1.6
v 2.2 1.3 1.2
v 2.2 1.3 1
v 2.2 1.3 0.6
v 2.2 1.4 1.2
v 2.2 1.4 0.8
v 2.2 1.4 0.6
v 2.2 1.4 0.2
v 2.2 1.5 0.8
v 2.2 1.5 0.4
v 2.2 1.5 0.2
v 2.2 1.5 -2.2
v 2.2 1.6 0.4
v 2.2 1.6 -2.2
v 2.2 1.8 2.2
v 2.2 1.8 -2.2
v 2.2 2 2.2
v 2.2 2 -2.2
v 2.2 2.2 2.2
v 2.2 2.2 -2.2
v -2.2 2 2.2
v -2.2 2.2 2.2
v 1 2 2.2
v 1 2.1 2.2
v 1.1 2 2.2
v 1.1 2.1 2.2
v 1.3 2 2.2
v 1.3 2.1 2.2
v 1.4 2 2.2
v 1.4 2.1 2.2
v 1.5 2 2.2
v 1.5 2.1 2.2
v 1.6 2 2.2
v 1.6 2.1 2.2
v 1.8 2 2.2
v 1.8 2.1 2.2
v 2 -2.2 2.2
v 2 1.8 2.2
v 2 2 2.2
v 2 2.1 2.2
v 2.2 -2.2 2.2
v 2.2 1.8 2.2
v 2.2 2 2.2
v 2.2 2.2 2.2
v 1.8 -2.2 2
v 1.8 1.2 2
v 2 -2.2 2
v 2 1.2 2
v 1.8 1.2 1.6
v 1.8 1.3 1.6
v 2 1.2 1.6
v 2 1.3 1.6
v 1.8 1.3 1.2
v 1.8 1.4 1.2
v 2 1.3 1.2
v 2 1.4 1.2
v 1.8 1.4 0.8
v 1.8 1.5 0.8
v 2 1.4 0.8
v 2 1.5 0.8
v 1.8 1.5 0.4
v 1.8 1.6 0.4
v 2 1.5 0.4
v 2 1.6 0.4
v 1.8 -2.2 1.8
v 1.8 1.1 1.8
v 1.9 -2.2 1.8
v 1.9 -2 1.8
v 1.9 -1.9 1.8
v 1.9 -1.7 1.8
v 1.9 -1.5 1.8
v 1.9 -1.4 1.8
v 1.9 -1.2 1.8
v 1.9 -1 1.8
v 1.9 -0.9 1.8
v 1.9 -0.7 1.8
v 1.9 -0.5 1.8
v 1.9 -0.4 1.8
v 1.9 -0.2 1.8
v 1.9 0 1.8
v 1.9 0.1 1.8
v 1.9 0.3 1.8
v 1.9 0.5 1.8
v 1.9 0.6 1.8
v 1.9 0.8 1.8
v 1.9 1 1.8
v 1.9 1.1 1.8
v 2.1 -2.2 1.8
v 2.1 1.1 1.8
v 2.2 -2.2 1.8
v 2.2 1.1 1.8
v 1.8 1.1 1.4
v 1.8 1.2 1.4
v 1.9 1.1 1.4
v 1.9 1.2 1.4
v 2.1 1.1 1.4
v 2.1 1.2 1.4
v 2.2 1.1 1.4
v 2.2 1.2 1.4
v 1.8 1.2 1
v 1.8 1.3 1
v 1.9 1.2 1
v 1.9 1.3 1
v 2.1 1.2 1
v 2.1 1.3 1
v 2.2 1.2 1
v 2.2 1.3 1
v 1.8 1.3 0.6
v 1.8 1.4 0.6
v 1.9 1.3 0.6
v 1.9 1.4 0.6
v 2.1 1.3 0.6
v 2.1 1.4 0.6
v 2.2 1.3 0.6
v 2.2 1.4 0.6
v 1.8 1.4 0.2
v 1.8 1.5 0.2
v 1.9 1.4 0.2
v 1.9 1.5 0.2
v 2.1 1.4 0.2
v 2.1 1.5 0.2
v 2.2 1.4 0.2
v 2.2 1.5 0.2
v -2.2 2 -2.2
v -2.2 2.2 -2.2
v 1 2 -2.2
v 1 2.1 -2.2
v 1.1 2 -2.2
v 1.1 2.1 -2.2
v 1.3 2 -2.2
v 1.3 2.1 -2.2
v 1.4 2 -2.2
v 1.4 2.1 -2.2
v 1.5 2 -2.2
v 1.5 2.1 -2.2
v 1.6 2 -2.2
v 1.6 2.1 -2.2
v 1.8 1.5 -2.2
v 1.8 1.6 -2.2
v 1.8 2 -2.2
v 1.8 2.1 -2.2
v 1.9 -2.2 -2.2
v 1.9 -2 -2.2
v 1.9 -1.9 -2.2
v 1.9 -1.7 -2.2
v 1.9 -1.5 -2.2
v 1.9 -1.4 -2.2
v 1.9 -1.2 -2.2
v 1.9 -1 -2.2
v 1.9 -0.9 -2.2
v 1.9 -0.7 -2.2
v 1.9 -0.5 -2.2
v 1.9 -0.4 -2.2
v 1.9 -0.2 -2.2
v 1.9 0 -2.2
v 1.9 0.1 -2.2
v 1.9 0.3 -2.2
v 1.9 0.5 -2.2
v 1.9 0.6 -2.2
v 1.9 0.8 -2.2
v 1.9 1 -2.2
v 1.9 1.1 -2.2
v 1.9 1.3 -2.2
v 1.9 1.5 -2.2
v 2 -2 -2.2
v 2 -1.9 -2.2
v 2 -1.7 -2.2
v 2 -1.5 -2.2
v 2 -1.4 -2.2
v 2 -1.2 -2.2
v 2 -1 -2.2
v 2 -0.9 -2.2
v 2 -0.7 -2.2
v 2 -0.5 -2.2
v 2 -0.4 -2.2
v 2 -0.2 -2.2
v 2 0 -2.2
v 2 0.1 -2.2
v 2 0.3 -2.2
v 2 0.5 -2.2
v 2 0.6 -2.2
v 2 0.8 -2.2
v 2 1 -2.2
v 2 1.1 -2.2
v 2 1.3 -2.2
v 2 1.6 -2.2
v 2 1.8 -2.2
v 2 2 -2.2
v 2 2.1 -2.2
v 2.1 -2.2 -2.2
v 2.1 1.5 -2.2
v 2.2 1.5 -2.2
v 2.2 1.6 -2.2
v 2.2 1.8 -2.2
v 2.2 2 -2.2
v 2.2 2.2 -2.2
v 2 -2.2 2.2
v 2.2 -2.2 2.2
v 1.8 -2.2 2
v 2 -2.2 2
v 2.2 -2.2 2
v 1.8 -2.2 1.8
v 1.9 -2.2 1.8
v 2.1 -2.2 1.8
v 2.2 -2.2 1.8
v 1.9 -2.2 -2.2
v 2.1 -2.2 -2.2
v 1.8 1.1 1.8
v 1.9 1.1 1.8
v 2.1 1.1 1.8
v 2.2 1.1 1.8
v 1.8 1.1 1.4
v 1.9 1.1 1.4
v 2.1 1.1 1.4
v 2.2 1.1 1.4
v 1.8 1.2 1.4
v 1.9 1.2 1.4
v 2.1 1.2 1.4
v 2.2 1.2 1.4
v 1.8 1.2 1
v 1.9 1.2 1
v 2.1 1.2 1
v 2.2 1.2 1
v 1.8 1.3 1
v 1.9 1.3 1
v 2.1 1.3 1
v 2.2 1.3 1
v 1.8 1.3 0.6
v 1.9 1.3 0.6
v 2.1 1.3 0.6
v 2.2 1.3 0.6
v 1.8 1.4 0.6
v 1.9 1.4 0.6
v 2.1 1.4 0.6
v 2.2 1.4 0.6
v 1.8 1.4 0.2
v 1.9 1.4 0.2
v 2.1 1.4 0.2
v 2.2 1.4 0.2
v 1.8 1.5 0.2
v 1.9 1.5 0.2
v 2.1 1.5 0.2
v 2.2 1.5 0.2
v 1.8 1.5 -2.2
v 1.9 1.5 -2.2
v 2.1 1.5 -2.2
v 2.2 1.5 -2.2
v -2.2 2 2.2
v 1 2 2.2
v 1.1 2 2.2
v 1.3 2 2.2
v 1.4 2 2.2
v 1.5 2 2.2
v 1.6 2 2.2
v 1.8 2 2.2
v 2 2 2.2
v -2.2 2 -2.2
v 1 2 -2.2
v 1.1 2 -2.2
v 1.3 2 -2.2
v 1.4 2 -2.2
v 1.5 2 -2.2
v 1.6 2 -2.2
v 1.8 2 -2.2
v 2 2 -2.2
v 1.8 1.2 2
v 2 1.2 2
v 1.8 1.2 1.6
v 2 1.2 1.6
v 1.8 1.3 1.6
v 2 1.3 1.6
v 1.8 1.3 1.2
v 2 1.3 1.2
v 1.8 1.4 1.2
v 2 1.4 1.2
v 1.8 1.4 0.8
v 2 1.4 0.8
v 1.8 1.5 0.8
v 2 1.5 0.8
v 1.8 1.5 0.4
v 2 1.5 0.4
v 1.8 1.6 0.4
v 2 1.6 0.4
v 1.8 1.6 -2.2
v 2 1.6 -2.2
v -2.2 2.2 2.2
v 2.2 2.2 2.2
v -2.2 2.2 -2.2
v 2.2 2.2 -2.2

# faces
f 3/3/1 2/3/1 1/3/1
f 4/3/1 2/3/1 3/3/1
f 7/2/1 6/2/1 5/2/1
f 9/2/1 7/2/1 5/2/1
f 9/2/1 8/2/1 7/2/1
f 10/2/1 8/2/1 9/2/1
f 11/2/1 8/2/1 10/2/1
f 13/2/1 12/2/1 11/2/1
f 13/2/1 11/2/1 10/2/1
f 14/2/1 12/2/1 13/2/1
f 15/2/1 12/2/1 14/2/1
f 17/2/1 16/2/1 15/2/1
f 17/2/1 15/2/1 14/2/1
f 18/2/1 16/2/1 17/2/1
f 19/2/1 16/2/1 18/2/1
f 21/2/1 20/2/1 19/2/1
f 21/2/1 19/2/1 18/2/1
f 22/2/1 20/2/1 21/2/1
f 23/2/1 20/2/1 22/2/1
f 25/2/1 24/2/1 23/2/1
f 25/2/1 23/2/1 22/2/1
f 26/2/1 24/2/1 25/2/1
f 29/3/1 28/3/1 27/3/1
f 30/3/1 28/3/1 29/3/1
f 31/5/1 30/5/1 29/5/1
f 32/5/1 30/5/1 31/5/1
f 33/4/1 32/4/1 31/4/1
f 34/4/1 32/4/1 33/4/1
f 35/3/1 34/3/1 33/3/1
f 36/3/1 34/3/1 35/3/1
f 37/5/1 36/5/1 35/5/1
f 38/5/1 36/5/1 37/5/1
f 39/4/1 38/4/1 37/4/1
f 40/4/1 38/4/1 39/4/1
f 41/3/1 40/3/1 39/3/1
f 42/3/1 40/3/1 41/3/1
f 43/5/1 42/5/1 41/5/1
f 44/5/1 42/5/1 43/5/1
f 45/4/1 44/4/1 43/4/1
f 46/4/1 44/4/1 45/4/1
f 47/3/1 46/3/1 45/3/1
f 48/3/1 46/3/1 47/3/1
f 49/5/1 48/5/1 47/5/1
f 50/5/1 48/5/1 49/5/1
f 51/4/1 50/4/1 49/4/1
f 52/4/1 50/4/1 51/4/1
f 53/3/1 52/3/1 51/3/1
f 54/3/1 52/3/1 53/3/1
f 55/5/1 54/5/1 53/5/1
f 56/5/1 54/5/1 55/5/1
f 57/4/1 56/4/1 55/4/1
f 58/4/1 56/4/1 57/4/1
f 59/3/1 58/3/1 57/3/1
f 60/3/1 58/3/1 59/3/1
f 61/5/1 60/5/1 59/5/1
f 62/5/1 60/5/1 61/5/1
f 63/4/1 62/4/1 61/4/1
f 64/4/1 62/4/1 63/4/1
f 65/3/1 64/3/1 63/3/1
f 66/3/1 64/3/1 65/3/1
f 67/5/1 66/5/1 65/5/1
f 68/5/1 66/5/1 67/5/1
f 69/5/1 66/5/1 68/5/1
f 70/4/1 69/4/1 68/4/1
f 71/4/1 69/4/1 70/4/1
f 72/4/1 69/4/1 71/4/1
f 73/4/1 69/4/1 72/4/1
f 74/4/1 69/4/1 73/4/1
f 75/3/1 74/3/1 73/3/1
f 76/3/1 74/3/1 75/3/1
f 77/3/1 74/3/1 76/3/1
f 78/3/1 74/3/1 77/3/1
f 81/4/1 80/4/1 79/4/1
f 83/4/1 82/4/1 81/4/1
f 85/4/1 84/4/1 83/4/1
f 87/4/1 86/4/1 85/4/1
f 89/4/1 88/4/1 87/4/1
f 91/4/1 81/4/1 79/4/1
f 91/4/1 90/4/1 89/4/1
f 91/4/1 89/4/1 87/4/1
f 91/4/1 87/4/1 85/4/1
f 91/4/1 85/4/1 83/4/1
f 91/4/1 83/4/1 81/4/1
f 92/4/1 90/4/1 91/4/1
f 93/2/1 92/2/1 91/2/1
f 94/2/1 92/2/1 93/2/1
f 95/3/2 96/3/2 97/3/2
f 97/3/2 96/3/2 98/3/2
f 98/3/2 96/3/2 99/3/2
f 99/3/2 96/3/2 100/3/2
f 100/3/2 96/3/2 101/3/2
f 101/3/2 96/3/2 102/3/2
f 102/3/2 96/3/2 103/3/2
f 103/3/2 96/3/2 104/3/2
f 104/3/2 96/3/2 105/3/2
f 105/3/2 96/3/2 106/3/2
f 108/2/2 109/2/2 110/2/2
f 107/4/2 108/4/2 112/4/2
f 110/2/2 111/2/2 112/2/2
f 108/2/2 110/2/2 112/2/2
f 112/2/2 111/2/2 113/2/2
f 113/2/2 111/2/2 114/2/2
f 112/4/2 113/4/2 116/4/2
f 114/2/2 115/2/2 116/2/2
f 113/2/2 114/2/2 116/2/2
f 116/2/2 115/2/2 117/2/2
f 117/2/2 115/2/2 118/2/2
f 116/4/2 117/4/2 120/4/2
f 118/2/2 119/2/2 120/2/2
f 117/2/2 118/2/2 120/2/2
f 120/2/2 119/2/2 121/2/2
f 121/2/2 119/2/2 122/2/2
f 120/4/2 121/4/2 124/4/2
f 122/2/2 123/2/2 124/2/2
f 121/2/2 122/2/2 124/2/2
f 124/2/2 123/2/2 125/2/2
f 125/2/2 123/2/2 126/2/2
f 124/4/2 125/4/2 128/4/2
f 126/2/2 127/2/2 128/2/2
f 125/2/2 126/2/2 128/2/2
f 128/2/2 127/2/2 129/2/2
f 107/4/2 112/4/2 130/4/2
f 112/4/2 116/4/2 130/4/2
f 128/4/2 129/4/2 130/4/2
f 124/4/2 128/4/2 130/4/2
f 120/4/2 124/4/2 130/4/2
f 116/4/2 120/4/2 130/4/2
f 130/4/2 129/4/2 131/4/2
f 130/2/2 131/2/2 132/2/2
f 132/2/2 131/2/2 133/2/2
f 132/3/2 133/3/2 134/3/2
f 134/3/2 133/3/2 135/3/2
f 138/3/3 137/3/3 136/3/3
f 139/3/3 137/3/3 138/3/3
f 140/4/3 139/4/3 138/4/3
f 141/3/3 137/3/3 139/3/3
f 141/4/3 139/4/3 140/4/3
f 142/5/3 141/5/3 140/5/3
f 143/3/3 137/3/3 141/3/3
f 143/5/3 141/5/3 142/5/3
f 144/4/3 143/4/3 142/4/3
f 145/3/3 137/3/3 143/3/3
f 145/4/3 143/4/3 144/4/3
f 146/1/3 145/1/3 144/1/3
f 147/3/3 137/3/3 145/3/3
f 147/1/3 145/1/3 146/1/3
f 148/4/3 147/4/3 146/4/3
f 149/3/3 137/3/3 147/3/3
f 149/4/3 147/4/3 148/4/3
f 150/5/3 149/5/3 148/5/3
f 151/3/3 137/3/3 149/3/3
f 151/5/3 149/5/3 150/5/3
f 154/4/3 151/4/3 150/4/3
f 155/3/3 137/3/3 151/3/3
f 155/4/3 151/4/3 154/4/3
f 156/4/3 153/4/3 152/4/3
f 157/2/3 154/2/3 153/2/3
f 157/4/3 153/4/3 156/4/3
f 158/3/3 155/3/3 154/3/3
f 158/2/3 154/2/3 157/2/3
f 159/3/3 137/3/3 155/3/3
f 159/3/3 155/3/3 158/3/3
f 162/2/3 161/2/3 160/2/3
f 163/2/3 161/2/3 162/2/3
f 166/2/3 165/2/3 164/2/3
f 167/2/3 165/2/3 166/2/3
f 170/2/3 169/2/3 168/2/3
f 171/2/3 169/2/3 170/2/3
f 174/2/3 173/2/3 172/2/3
f 175/2/3 173/2/3 174/2/3
f 178/2/3 177/2/3 176/2/3
f 179/2/3 177/2/3 178/2/3
f 180/2/4 181/2/4 182/2/4
f 182/2/4 181/2/4 183/2/4
f 183/2/4 181/2/4 184/2/4
f 184/2/4 181/2/4 185/2/4
f 185/2/4 181/2/4 186/2/4
f 186/2/4 181/2/4 187/2/4
f 187/2/4 181/2/4 188/2/4
f 188/2/4 181/2/4 189/2/4
f 189/2/4 181/2/4 190/2/4
f 190/2/4 181/2/4 191/2/4
f 191/2/4 181/2/4 192/2/4
f 192/2/4 181/2/4 193/2/4
f 193/2/4 181/2/4 194/2/4
f 194/2/4 181/2/4 195/2/4
f 195/2/4 181/2/4 196/2/4
f 196/2/4 181/2/4 197/2/4
f 197/2/4 181/2/4 198/2/4
f 198/2/4 181/2/4 199/2/4
f 199/2/4 181/2/4 200/2/4
f 200/2/4 181/2/4 201/2/4
f 201/2/4 181/2/4 202/2/4
f 203/2/4 204/2/4 205/2/4
f 205/2/4 204/2/4 206/2/4
f 207/2/4 208/2/4 209/2/4
f 209/2/4 208/2/4 210/2/4
f 211/2/4 212/2/4 213/2/4
f 213/2/4 212/2/4 214/2/4
f 215/2/4 216/2/4 217/2/4
f 217/2/4 216/2/4 218/2/4
f 219/2/4 220/2/4 221/2/4
f 221/2/4 220/2/4 222/2/4
f 223/2/4 224/2/4 225/2/4
f 225/2/4 224/2/4 226/2/4
f 227/2/4 228/2/4 229/2/4
f 229/2/4 228/2/4 230/2/4
f 231/2/4 232/2/4 233/2/4
f 233/2/4 232/2/4 234/2/4
f 235/2/4 236/2/4 237/2/4
f 237/2/4 236/2/4 238/2/4
f 239/3/4 240/3/4 241/3/4
f 241/3/4 240/3/4 242/3/4
f 241/4/4 242/4/4 243/4/4
f 242/3/4 240/3/4 244/3/4
f 243/4/4 242/4/4 244/4/4
f 243/5/4 244/5/4 245/5/4
f 244/3/4 240/3/4 246/3/4
f 245/5/4 244/5/4 246/5/4
f 245/4/4 246/4/4 247/4/4
f 246/3/4 240/3/4 248/3/4
f 247/4/4 246/4/4 248/4/4
f 247/1/4 248/1/4 249/1/4
f 248/3/4 240/3/4 250/3/4
f 249/1/4 248/1/4 250/1/4
f 249/4/4 250/4/4 251/4/4
f 250/3/4 240/3/4 252/3/4
f 251/4/4 250/4/4 252/4/4
f 251/5/4 252/5/4 255/5/4
f 252/3/4 240/3/4 256/3/4
f 255/5/4 252/5/4 256/5/4
f 253/2/4 254/2/4 279/2/4
f 257/3/4 258/3/4 280/3/4
f 258/5/4 259/5/4 280/5/4
f 259/4/4 260/4/4 281/4/4
f 280/5/4 259/5/4 281/5/4
f 260/3/4 261/3/4 282/3/4
f 281/4/4 260/4/4 282/4/4
f 261/5/4 262/5/4 283/5/4
f 282/3/4 261/3/4 283/3/4
f 262/4/4 263/4/4 284/4/4
f 283/5/4 262/5/4 284/5/4
f 263/3/4 264/3/4 285/3/4
f 284/4/4 263/4/4 285/4/4
f 264/5/4 265/5/4 286/5/4
f 285/3/4 264/3/4 286/3/4
f 265/4/4 266/4/4 287/4/4
f 286/5/4 265/5/4 287/5/4
f 266/3/4 267/3/4 288/3/4
f 287/4/4 266/4/4 288/4/4
f 267/5/4 268/5/4 289/5/4
f 288/3/4 267/3/4 289/3/4
f 268/4/4 269/4/4 290/4/4
f 289/5/4 268/5/4 290/5/4
f 269/3/4 270/3/4 291/3/4
f 290/4/4 269/4/4 291/4/4
f 270/5/4 271/5/4 292/5/4
f 291/3/4 270/3/4 292/3/4
f 271/4/4 272/4/4 293/4/4
f 292/5/4 271/5/4 293/5/4
f 272/3/4 273/3/4 294/3/4
f 293/4/4 272/4/4 294/4/4
f 273/5/4 274/5/4 295/5/4
f 294/3/4 273/3/4 295/3/4
f 274/4/4 275/4/4 296/4/4
f 295/5/4 274/5/4 296/5/4
f 275/3/4 276/3/4 297/3/4
f 296/4/4 275/4/4 297/4/4
f 276/5/4 277/5/4 298/5/4
f 297/3/4 276/3/4 298/3/4
f 277/4/4 278/4/4 299/4/4
f 298/5/4 277/5/4 299/5/4
f 278/3/4 279/3/4 300/3/4
f 299/4/4 278/4/4 300/4/4
f 279/2/4 254/2/4 301/2/4
f 255/4/4 256/4/4 303/4/4
f 256/3/4 240/3/4 304/3/4
f 303/4/4 256/4/4 304/4/4
f 297/3/4 298/3/4 305/3/4
f 298/3/4 299/3/4 305/3/4
f 257/3/4 280/3/4 305/3/4
f 280/3/4 281/3/4 305/3/4
f 281/3/4 282/3/4 305/3/4
f 299/3/4 300/3/4 305/3/4
f 282/3/4 283/3/4 305/3/4
f 296/3/4 297/3/4 305/3/4
f 295/3/4 296/3/4 305/3/4
f 294/3/4 295/3/4 305/3/4
f 293/3/4 294/3/4 305/3/4
f 292/3/4 293/3/4 305/3/4
f 291/3/4 292/3/4 305/3/4
f 290/3/4 291/3/4 305/3/4
f 289/3/4 290/3/4 305/3/4
f 288/3/4 289/3/4 305/3/4
f 287/3/4 288/3/4 305/3/4
f 286/3/4 287/3/4 305/3/4
f 285/3/4 286/3/4 305/3/4
f 284/3/4 285/3/4 305/3/4
f 283/3/4 284/3/4 305/3/4
f 300/3/4 279/3/4 306/3/4
f 305/3/4 300/3/4 306/3/4
f 279/2/4 301/2/4 306/2/4
f 306/2/4 301/2/4 307/2/4
f 301/4/4 302/4/4 308/4/4
f 307/2/4 301/2/4 308/2/4
f 302/2/4 303/2/4 309/2/4
f 308/4/4 302/4/4 309/4/4
f 303/3/4 304/3/4 310/3/4
f 309/2/4 303/2/4 310/2/4
f 304/3/4 240/3/4 311/3/4
f 310/3/4 304/3/4 311/3/4
f 315/4/5 313/4/5 312/4/5
f 316/4/5 313/4/5 315/4/5
f 317/2/5 315/2/5 314/2/5
f 317/2/5 316/2/5 315/2/5
f 318/2/5 316/2/5 317/2/5
f 319/2/5 316/2/5 318/2/5
f 320/2/5 316/2/5 319/2/5
f 321/3/5 319/3/5 318/3/5
f 322/3/5 319/3/5 321/3/5
f 327/2/5 324/2/5 323/2/5
f 328/2/5 324/2/5 327/2/5
f 329/2/5 326/2/5 325/2/5
f 330/2/5 326/2/5 329/2/5
f 335/2/5 332/2/5 331/2/5
f 336/2/5 332/2/5 335/2/5
f 337/2/5 334/2/5 333/2/5
f 338/2/5 334/2/5 337/2/5
f 343/2/5 340/2/5 339/2/5
f 344/2/5 340/2/5 343/2/5
f 345/2/5 342/2/5 341/2/5
f 346/2/5 342/2/5 345/2/5
f 351/2/5 348/2/5 347/2/5
f 352/2/5 348/2/5 351/2/5
f 353/2/5 350/2/5 349/2/5
f 354/2/5 350/2/5 353/2/5
f 359/2/5 356/2/5 355/2/5
f 360/2/5 356/2/5 359/2/5
f 361/2/5 358/2/5 357/2/5
f 362/2/5 358/2/5 361/2/5
f 372/3/5 364/3/5 363/3/5
f 373/4/5 365/4/5 364/4/5
f 373/3/5 364/3/5 372/3/5
f 374/5/5 366/5/5 365/5/5
f 374/4/5 365/4/5 373/4/5
f 375/4/5 367/4/5 366/4/5
f 375/5/5 366/5/5 374/5/5
f 376/1/5 368/1/5 367/1/5
f 376/4/5 367/4/5 375/4/5
f 377/4/5 369/4/5 368/4/5
f 377/1/5 368/1/5 376/1/5
f 378/5/5 370/5/5 369/5/5
f 378/4/5 369/4/5 377/4/5
f 379/4/5 371/4/5 370/4/5
f 379/5/5 370/5/5 378/5/5
f 380/4/5 371/4/5 379/4/5
f 381/2/6 382/2/6 383/2/6
f 383/2/6 382/2/6 384/2/6
f 385/2/6 386/2/6 387/2/6
f 387/2/6 386/2/6 388/2/6
f 389/2/6 390/2/6 391/2/6
f 391/2/6 390/2/6 392/2/6
f 393/2/6 394/2/6 395/2/6
f 395/2/6 394/2/6 396/2/6
f 397/2/6 398/2/6 399/2/6
f 399/2/6 398/2/6 400/2/6
f 401/3/6 402/3/6 403/3/6
f 403/3/6 402/3/6 404/3/6
