# MagicaVoxel @ Ephtracy

# group
o 

# material
mtllib mesh_hanger_floor_corner_one_wall-0-0.mtl
usemtl palette

# normals
vn -1 0 0
vn 1 0 0
vn 0 0 1
vn 0 0 -1
vn 0 -1 0
vn 0 1 0

# texcoords
vt 0.982422 0.5
vt 0.986328 0.5
vt 0.990234 0.5
vt 0.994141 0.5

# verts
v -2.2 -2.2 2.2
v -2.2 -2.2 -1
v -2.2 -2.2 -1.6
v -2.2 -2.2 -1.8
v -2.2 -2.2 -2
v -2.2 -2.2 -2.2
v -2.2 -2.1 -1
v -2.2 -2.1 -1.2
v -2.2 -2 2.2
v -2.2 -2 -1
v -2.2 -2 -1.2
v -2.2 -2 -1.6
v -2.2 -2 -1.8
v -2.2 -2 -2
v -2.2 -1.8 -2
v -2.2 -1.8 -2.2
v -2.2 2.2 -2
v -2.2 2.2 -2.2
v 2.2 -2.2 2.2
v 2.2 -2.2 0.7
v 2.2 -2.2 -1
v 2.2 -2.2 -1.6
v 2.2 -2.2 -1.8
v 2.2 -2.2 -2
v 2.2 -2.2 -2.2
v 2.2 -2.1 0.7
v 2.2 -2.1 -1
v 2.2 -2.1 -1.6
v 2.2 -2.1 -1.8
v 2.2 -2.1 -2
v 2.2 -2 2.2
v 2.2 -2 -2
v 2.2 -1.8 -2
v 2.2 -1.8 -2.2
v 2.2 2.2 -2
v 2.2 2.2 -2.2
v -2.2 -2.2 2.2
v -2.2 -2 2.2
v 1 -2.2 2.2
v 1 -2 2.2
v 1.2 -2.2 2.2
v 1.2 -2 2.2
v 1.6 -2.1 2.2
v 1.6 -2 2.2
v 1.8 -2.2 2.2
v 1.8 -2.1 2.2
v 1.8 -2 2.2
v 2 -2.2 2.2
v 2 -2 2.2
v 2.2 -2.2 2.2
v 2.2 -2 2.2
v -2.2 -2 -2
v -2.2 -1.8 -2
v -2.2 2.2 -2
v -2 -1.6 -2
v -2 2 -2
v -1.8 -1.4 -2
v -1.8 1.8 -2
v -1.7 -1.3 -2
v -1.7 1.7 -2
v -1.7 1.8 -2
v 1.7 -1.3 -2
v 1.7 1.7 -2
v 1.8 -1.4 -2
v 1.8 -1.3 -2
v 1.8 1.8 -2
v 2 -2 -2
v 2 -1.6 -2
v 2 2 -2
v 2.2 -2 -2
v 2.2 -1.8 -2
v 2.2 2.2 -2
v -2.2 -2.2 -2.2
v -2.2 -1.8 -2.2
v -2.2 2.2 -2.2
v 1.3 -2.2 -2.2
v 1.3 -2.1 -2.2
v 1.9 -2.2 -2.2
v 1.9 -2.1 -2.2
v 2.2 -2.2 -2.2
v 2.2 -1.8 -2.2
v 2.2 2.2 -2.2
v -2.2 -2.2 2.2
v 1 -2.2 2.2
v 1.2 -2.2 2.2
v 1.8 -2.2 2.2
v 2 -2.2 2.2
v 2.2 -2.2 2.2
v 1 -2.2 2
v 1.2 -2.2 2
v 1 -2.2 1.8
v 1.2 -2.2 1.8
v 2 -2.2 0.7
v 2.2 -2.2 0.7
v -2.2 -2.2 -1
v 1 -2.2 -1
v 1.9 -2.2 -1
v 2.2 -2.2 -1
v -2.2 -2.2 -1.6
v -2 -2.2 -1.6
v -1.8 -2.2 -1.6
v 1 -2.2 -1.6
v 1.9 -2.2 -1.6
v 2 -2.2 -1.6
v 2.2 -2.2 -1.6
v 1.2 -2.2 -1.7
v 1.3 -2.2 -1.7
v 1.8 -2.2 -1.7
v 1.9 -2.2 -1.7
v -2.2 -2.2 -1.8
v -2 -2.2 -1.8
v -1.8 -2.2 -1.8
v 1.3 -2.2 -1.8
v 2 -2.2 -1.8
v 2.2 -2.2 -1.8
v -2.2 -2.2 -2
v 1.3 -2.2 -2
v 1.9 -2.2 -2
v 2.2 -2.2 -2
v -2.2 -2.2 -2.2
v 1.3 -2.2 -2.2
v 1.9 -2.2 -2.2
v 2.2 -2.2 -2.2
v -2.2 -2 2.2
v 1 -2 2.2
v 1.2 -2 2.2
v 1.6 -2 2.2
v 1.8 -2 2.2
v 2 -2 2.2
v 2.2 -2 2.2
v -2.2 -2 -1
v 1 -2 -1
v -2.2 -2 -1.2
v 1.2 -2 -1.2
v -2.2 -2 -1.6
v 1.6 -2 -1.6
v -2.2 -2 -1.8
v 1.8 -2 -1.8
v -2.2 -2 -2
v 2 -2 -2
v 2.2 -2 -2
v -2.2 2.2 -2
v 2.2 2.2 -2
v -2.2 2.2 -2.2
v 2.2 2.2 -2.2

# faces
f 7/3/1 2/3/1 1/3/1
f 7/2/1 3/2/1 2/2/1
f 8/2/1 3/2/1 7/2/1
f 9/3/1 7/3/1 1/3/1
f 10/4/1 8/4/1 7/4/1
f 10/3/1 7/3/1 9/3/1
f 11/2/1 3/2/1 8/2/1
f 11/4/1 8/4/1 10/4/1
f 12/4/1 4/4/1 3/4/1
f 12/2/1 3/2/1 11/2/1
f 13/3/1 5/3/1 4/3/1
f 13/4/1 4/4/1 12/4/1
f 14/4/1 6/4/1 5/4/1
f 14/3/1 5/3/1 13/3/1
f 15/4/1 6/4/1 14/4/1
f 16/4/1 6/4/1 15/4/1
f 17/3/1 16/3/1 15/3/1
f 18/3/1 16/3/1 17/3/1
f 19/4/2 20/4/2 26/4/2
f 20/3/2 21/3/2 26/3/2
f 21/2/2 22/2/2 27/2/2
f 26/3/2 21/3/2 27/3/2
f 22/4/2 23/4/2 28/4/2
f 27/2/2 22/2/2 28/2/2
f 23/3/2 24/3/2 29/3/2
f 28/4/2 23/4/2 29/4/2
f 24/4/2 25/4/2 30/4/2
f 29/3/2 24/3/2 30/3/2
f 28/4/2 29/4/2 31/4/2
f 27/4/2 28/4/2 31/4/2
f 29/4/2 30/4/2 31/4/2
f 26/4/2 27/4/2 31/4/2
f 19/4/2 26/4/2 31/4/2
f 30/4/2 25/4/2 32/4/2
f 31/4/2 30/4/2 32/4/2
f 32/4/2 25/4/2 33/4/2
f 33/4/2 25/4/2 34/4/2
f 33/3/2 34/3/2 35/3/2
f 35/3/2 34/3/2 36/3/2
f 39/3/3 38/3/3 37/3/3
f 40/3/3 38/3/3 39/3/3
f 41/4/3 40/4/3 39/4/3
f 42/4/3 40/4/3 41/4/3
f 43/2/3 42/2/3 41/2/3
f 44/2/3 42/2/3 43/2/3
f 45/2/3 43/2/3 41/2/3
f 46/4/3 44/4/3 43/4/3
f 46/2/3 43/2/3 45/2/3
f 47/4/3 44/4/3 46/4/3
f 48/3/3 46/3/3 45/3/3
f 48/3/3 47/3/3 46/3/3
f 49/3/3 47/3/3 48/3/3
f 50/4/3 49/4/3 48/4/3
f 51/4/3 49/4/3 50/4/3
f 55/3/3 54/3/3 53/3/3
f 56/3/3 54/3/3 55/3/3
f 57/4/3 56/4/3 55/4/3
f 58/4/3 56/4/3 57/4/3
f 59/3/3 58/3/3 57/3/3
f 60/3/3 58/3/3 59/3/3
f 61/4/3 56/4/3 58/4/3
f 61/3/3 58/3/3 60/3/3
f 62/2/3 60/2/3 59/2/3
f 62/3/3 59/3/3 57/3/3
f 63/1/3 61/1/3 60/1/3
f 63/2/3 60/2/3 62/2/3
f 64/4/3 57/4/3 55/4/3
f 64/3/3 62/3/3 57/3/3
f 65/1/3 63/1/3 62/1/3
f 65/3/3 62/3/3 64/3/3
f 66/1/3 61/1/3 63/1/3
f 66/1/3 63/1/3 65/1/3
f 66/4/3 56/4/3 61/4/3
f 67/4/3 53/4/3 52/4/3
f 68/3/3 55/3/3 53/3/3
f 68/4/3 65/4/3 64/4/3
f 68/4/3 64/4/3 55/4/3
f 68/4/3 66/4/3 65/4/3
f 69/4/3 56/4/3 66/4/3
f 69/4/3 66/4/3 68/4/3
f 69/3/3 54/3/3 56/3/3
f 70/4/3 53/4/3 67/4/3
f 71/3/3 68/3/3 53/3/3
f 71/4/3 53/4/3 70/4/3
f 71/3/3 69/3/3 68/3/3
f 72/3/3 54/3/3 69/3/3
f 72/3/3 69/3/3 71/3/3
f 73/4/4 74/4/4 76/4/4
f 76/4/4 74/4/4 77/4/4
f 76/2/4 77/2/4 78/2/4
f 77/4/4 74/4/4 79/4/4
f 78/2/4 77/2/4 79/2/4
f 78/4/4 79/4/4 80/4/4
f 74/3/4 75/3/4 81/3/4
f 80/4/4 79/4/4 81/4/4
f 79/4/4 74/4/4 81/4/4
f 81/3/4 75/3/4 82/3/4
f 89/3/5 84/3/5 83/3/5
f 89/4/5 85/4/5 84/4/5
f 90/2/5 86/2/5 85/2/5
f 90/4/5 85/4/5 89/4/5
f 91/3/5 89/3/5 83/3/5
f 91/3/5 90/3/5 89/3/5
f 92/2/5 86/2/5 90/2/5
f 92/3/5 90/3/5 91/3/5
f 93/4/5 88/4/5 87/4/5
f 93/3/5 87/3/5 86/3/5
f 94/4/5 88/4/5 93/4/5
f 95/3/5 91/3/5 83/3/5
f 96/4/5 92/4/5 91/4/5
f 96/3/5 91/3/5 95/3/5
f 97/3/5 93/3/5 86/3/5
f 97/3/5 94/3/5 93/3/5
f 98/3/5 94/3/5 97/3/5
f 99/2/5 96/2/5 95/2/5
f 100/2/5 96/2/5 99/2/5
f 101/2/5 96/2/5 100/2/5
f 102/4/5 92/4/5 96/4/5
f 102/2/5 96/2/5 101/2/5
f 103/3/5 97/3/5 86/3/5
f 103/2/5 98/2/5 97/2/5
f 104/2/5 98/2/5 103/2/5
f 105/2/5 98/2/5 104/2/5
f 106/2/5 86/2/5 92/2/5
f 106/4/5 92/4/5 102/4/5
f 106/4/5 102/4/5 101/4/5
f 107/2/5 86/2/5 106/2/5
f 108/3/5 104/3/5 103/3/5
f 108/2/5 86/2/5 107/2/5
f 108/3/5 103/3/5 86/3/5
f 109/3/5 104/3/5 108/3/5
f 110/4/5 100/4/5 99/4/5
f 111/3/5 101/3/5 100/3/5
f 111/4/5 100/4/5 110/4/5
f 112/4/5 107/4/5 106/4/5
f 112/3/5 101/3/5 111/3/5
f 112/4/5 106/4/5 101/4/5
f 113/2/5 109/2/5 108/2/5
f 113/4/5 107/4/5 112/4/5
f 113/2/5 108/2/5 107/2/5
f 114/4/5 105/4/5 104/4/5
f 114/3/5 104/3/5 109/3/5
f 115/4/5 105/4/5 114/4/5
f 116/3/5 111/3/5 110/3/5
f 116/3/5 113/3/5 112/3/5
f 116/3/5 112/3/5 111/3/5
f 117/2/5 109/2/5 113/2/5
f 117/3/5 113/3/5 116/3/5
f 118/3/5 115/3/5 114/3/5
f 118/2/5 109/2/5 117/2/5
f 118/3/5 114/3/5 109/3/5
f 119/3/5 115/3/5 118/3/5
f 120/4/5 117/4/5 116/4/5
f 121/2/5 118/2/5 117/2/5
f 121/4/5 117/4/5 120/4/5
f 122/4/5 119/4/5 118/4/5
f 122/2/5 118/2/5 121/2/5
f 123/4/5 119/4/5 122/4/5
f 124/3/6 125/3/6 131/3/6
f 125/4/6 126/4/6 132/4/6
f 131/3/6 125/3/6 132/3/6
f 131/4/6 132/4/6 133/4/6
f 126/2/6 127/2/6 134/2/6
f 133/4/6 132/4/6 134/4/6
f 132/4/6 126/4/6 134/4/6
f 133/2/6 134/2/6 135/2/6
f 127/4/6 128/4/6 136/4/6
f 135/2/6 134/2/6 136/2/6
f 134/2/6 127/2/6 136/2/6
f 135/4/6 136/4/6 137/4/6
f 128/3/6 129/3/6 138/3/6
f 137/4/6 136/4/6 138/4/6
f 136/4/6 128/4/6 138/4/6
f 137/3/6 138/3/6 139/3/6
f 129/4/6 130/4/6 140/4/6
f 139/3/6 138/3/6 140/3/6
f 138/3/6 129/3/6 140/3/6
f 140/4/6 130/4/6 141/4/6
f 142/3/6 143/3/6 144/3/6
f 144/3/6 143/3/6 145/3/6
