# MagicaVoxel @ Ephtracy

# group
o 

# material
mtllib mesh_hanger_ship_door_bottom_left.mtl
usemtl palette

# normals
vn -1 0 0
vn 1 0 0
vn 0 0 1
vn 0 0 -1
vn 0 -1 0
vn 0 1 0

# texcoords
vt 0.373047 0.5
vt 0.837891 0.5
vt 0.986328 0.5
vt 0.990234 0.5
vt 0.994141 0.5

# verts
v -2.2 -2.2 2.2
v -2.2 -2.2 -2.2
v -2.2 -2 2.2
v -2.2 -2 -2.2
v 1.8 -1.6 2.2
v 1.8 -1.6 -0.4
v 1.8 -1.5 2.2
v 1.8 -1.5 -0.2
v 1.8 -1.5 -0.4
v 1.8 -1.5 -0.8
v 1.8 -1.4 -0.2
v 1.8 -1.4 -0.6
v 1.8 -1.4 -0.8
v 1.8 -1.4 -1.2
v 1.8 -1.3 -0.6
v 1.8 -1.3 -1
v 1.8 -1.3 -1.2
v 1.8 -1.3 -1.6
v 1.8 -1.2 -1
v 1.8 -1.2 -1.4
v 1.8 -1.2 -1.6
v 1.8 -1.2 -2
v 1.8 -1.1 -1.4
v 1.8 -1.1 -1.8
v 1.8 2.2 -1.8
v 1.8 2.2 -2
v 1.9 -1.5 2.2
v 1.9 -1.5 -0.2
v 1.9 -1.4 -0.2
v 1.9 -1.4 -0.6
v 1.9 -1.3 2.2
v 1.9 -1.3 -0.6
v 1.9 -1.3 -1
v 1.9 -1.2 2.2
v 1.9 -1.2 -1
v 1.9 -1.2 -1.4
v 1.9 -1.1 2.2
v 1.9 -1.1 -1.4
v 1.9 -1.1 -1.8
v 1.9 -0.9 2.2
v 1.9 -0.9 -1.8
v 1.9 -0.7 2.2
v 1.9 -0.7 -1.8
v 1.9 -0.6 2.2
v 1.9 -0.6 -1.8
v 1.9 -0.4 2.2
v 1.9 -0.4 -1.8
v 1.9 -0.2 2.2
v 1.9 -0.2 -1.8
v 1.9 -0.0999999 2.2
v 1.9 -0.0999999 -1.8
v 1.9 0.1 2.2
v 1.9 0.1 -1.8
v 1.9 0.3 2.2
v 1.9 0.3 -1.8
v 1.9 0.4 2.2
v 1.9 0.4 -1.8
v 1.9 0.6 2.2
v 1.9 0.6 -1.8
v 1.9 0.8 2.2
v 1.9 0.8 -1.8
v 1.9 0.9 2.2
v 1.9 0.9 -1.8
v 1.9 1.1 2.2
v 1.9 1.1 -1.8
v 1.9 1.3 2.2
v 1.9 1.3 -1.8
v 1.9 1.4 2.2
v 1.9 1.4 -1.8
v 1.9 1.6 2.2
v 1.9 1.6 -1.8
v 1.9 1.8 2.2
v 1.9 1.8 -1.8
v 1.9 1.9 2.2
v 1.9 1.9 -1.8
v 1.9 2.1 2.2
v 1.9 2.1 -1.8
v 1.9 2.2 2.2
v 1.9 2.2 -1.8
v 2 -2 2.2
v 2 -2 -2.2
v 2 -1.8 2.2
v 2 -1.8 -2.2
v 2 -1.6 2.2
v 2 -1.6 -0.2
v 2 -1.6 -0.4
v 2 -1.5 -0.4
v 2 -1.5 -0.8
v 2 -1.4 -0.8
v 2 -1.4 -1.2
v 2 -1.3 -1.2
v 2 -1.3 -1.6
v 2 -1.2 -1.6
v 2 -1.2 -2
v 2 2.2 -2
v 2 2.2 -2.2
v 2.1 -1.5 2.2
v 2.1 -1.5 -0.2
v 2.1 -1.4 -0.2
v 2.1 -1.4 -0.6
v 2.1 -1.3 2.2
v 2.1 -1.3 -0.2
v 2.1 -1.3 -0.6
v 2.1 -1.3 -1
v 2.1 -1.2 -1
v 2.1 -1.2 -1.4
v 2.1 -1.1 -1.4
v 2.1 -1.1 -1.8
v 2.1 2.2 2.2
v 2.1 2.2 -1.8
v 2.2 -2.2 2.2
v 2.2 -2.2 -2.2
v 2.2 -2 2.2
v 2.2 -2 -2.2
v 2.2 -1.8 2.2
v 2.2 -1.8 -2.2
v 2.2 -1.6 -0.2
v 2.2 -1.6 -0.4
v 2.2 -1.5 2.2
v 2.2 -1.5 -0.2
v 2.2 -1.5 -0.4
v 2.2 -1.5 -0.8
v 2.2 -1.4 -0.2
v 2.2 -1.4 -0.6
v 2.2 -1.4 -0.8
v 2.2 -1.4 -1.2
v 2.2 -1.3 -0.6
v 2.2 -1.3 -1
v 2.2 -1.3 -1.2
v 2.2 -1.3 -1.6
v 2.2 -1.2 -1
v 2.2 -1.2 -1.4
v 2.2 -1.2 -1.6
v 2.2 -1.2 -2
v 2.2 -1.1 -1.4
v 2.2 -1.1 -1.8
v 2.2 2.2 -1.8
v 2.2 2.2 -2
v 2.2 2.2 -2.2
v -2.2 -2.2 2.2
v -2.2 -2 2.2
v 1 -2.1 2.2
v 1 -2 2.2
v 1.1 -2.1 2.2
v 1.1 -2 2.2
v 1.3 -2.1 2.2
v 1.3 -2 2.2
v 1.4 -2.1 2.2
v 1.4 -2 2.2
v 1.5 -2.1 2.2
v 1.5 -2 2.2
v 1.6 -2.1 2.2
v 1.6 -2 2.2
v 1.8 -2.1 2.2
v 1.8 -2 2.2
v 1.8 -1.6 2.2
v 1.8 -1.5 2.2
v 1.9 -1.6 2.2
v 1.9 -1.5 2.2
v 1.9 -1.3 2.2
v 1.9 -1.2 2.2
v 1.9 -1.1 2.2
v 1.9 -0.9 2.2
v 1.9 -0.7 2.2
v 1.9 -0.6 2.2
v 1.9 -0.4 2.2
v 1.9 -0.2 2.2
v 1.9 -0.0999999 2.2
v 1.9 0.1 2.2
v 1.9 0.3 2.2
v 1.9 0.4 2.2
v 1.9 0.6 2.2
v 1.9 0.8 2.2
v 1.9 0.9 2.2
v 1.9 1.1 2.2
v 1.9 1.3 2.2
v 1.9 1.4 2.2
v 1.9 1.6 2.2
v 1.9 1.8 2.2
v 1.9 1.9 2.2
v 1.9 2.1 2.2
v 1.9 2.2 2.2
v 2 -2.1 2.2
v 2 -2 2.2
v 2 -1.8 2.2
v 2 -1.6 2.2
v 2 -1.2 2.2
v 2 -1.1 2.2
v 2 -0.9 2.2
v 2 -0.7 2.2
v 2 -0.6 2.2
v 2 -0.4 2.2
v 2 -0.2 2.2
v 2 -0.0999999 2.2
v 2 0.1 2.2
v 2 0.3 2.2
v 2 0.4 2.2
v 2 0.6 2.2
v 2 0.8 2.2
v 2 0.9 2.2
v 2 1.1 2.2
v 2 1.3 2.2
v 2 1.4 2.2
v 2 1.6 2.2
v 2 1.8 2.2
v 2 1.9 2.2
v 2 2.1 2.2
v 2.1 -1.5 2.2
v 2.1 -1.3 2.2
v 2.1 2.2 2.2
v 2.2 -2.2 2.2
v 2.2 -2 2.2
v 2.2 -1.8 2.2
v 2.2 -1.5 2.2
v 1.8 -1.5 -0.2
v 1.8 -1.4 -0.2
v 1.9 -1.5 -0.2
v 1.9 -1.4 -0.2
v 2.1 -1.5 -0.2
v 2.1 -1.4 -0.2
v 2.2 -1.5 -0.2
v 2.2 -1.4 -0.2
v 1.8 -1.4 -0.6
v 1.8 -1.3 -0.6
v 1.9 -1.4 -0.6
v 1.9 -1.3 -0.6
v 2.1 -1.4 -0.6
v 2.1 -1.3 -0.6
v 2.2 -1.4 -0.6
v 2.2 -1.3 -0.6
v 1.8 -1.3 -1
v 1.8 -1.2 -1
v 1.9 -1.3 -1
v 1.9 -1.2 -1
v 2.1 -1.3 -1
v 2.1 -1.2 -1
v 2.2 -1.3 -1
v 2.2 -1.2 -1
v 1.8 -1.2 -1.4
v 1.8 -1.1 -1.4
v 1.9 -1.2 -1.4
v 1.9 -1.1 -1.4
v 2.1 -1.2 -1.4
v 2.1 -1.1 -1.4
v 2.2 -1.2 -1.4
v 2.2 -1.1 -1.4
v 1.8 -1.1 -1.8
v 1.8 2.2 -1.8
v 1.9 -1.1 -1.8
v 1.9 -0.9 -1.8
v 1.9 -0.7 -1.8
v 1.9 -0.6 -1.8
v 1.9 -0.4 -1.8
v 1.9 -0.2 -1.8
v 1.9 -0.0999999 -1.8
v 1.9 0.1 -1.8
v 1.9 0.3 -1.8
v 1.9 0.4 -1.8
v 1.9 0.6 -1.8
v 1.9 0.8 -1.8
v 1.9 0.9 -1.8
v 1.9 1.1 -1.8
v 1.9 1.3 -1.8
v 1.9 1.4 -1.8
v 1.9 1.6 -1.8
v 1.9 1.8 -1.8
v 1.9 1.9 -1.8
v 1.9 2.1 -1.8
v 1.9 2.2 -1.8
v 2.1 -1.1 -1.8
v 2.1 2.2 -1.8
v 2.2 -1.1 -1.8
v 2.2 2.2 -1.8
v 1.8 -1.6 -0.4
v 1.8 -1.5 -0.4
v 2 -1.6 -0.4
v 2 -1.5 -0.4
v 1.8 -1.5 -0.8
v 1.8 -1.4 -0.8
v 2 -1.5 -0.8
v 2 -1.4 -0.8
v 1.8 -1.4 -1.2
v 1.8 -1.3 -1.2
v 2 -1.4 -1.2
v 2 -1.3 -1.2
v 1.8 -1.3 -1.6
v 1.8 -1.2 -1.6
v 2 -1.3 -1.6
v 2 -1.2 -1.6
v 1.8 -1.2 -2
v 1.8 2.2 -2
v 2 -1.2 -2
v 2 2.2 -2
v -2.2 -2.2 -2.2
v -2.2 -2 -2.2
v 1 -2.1 -2.2
v 1 -2 -2.2
v 1.1 -2.1 -2.2
v 1.1 -2 -2.2
v 1.3 -2.1 -2.2
v 1.3 -2 -2.2
v 1.4 -2.1 -2.2
v 1.4 -2 -2.2
v 1.5 -2.1 -2.2
v 1.5 -2 -2.2
v 1.6 -2.1 -2.2
v 1.6 -2 -2.2
v 1.8 -2.1 -2.2
v 1.8 -2 -2.2
v 2 -2.1 -2.2
v 2 -2 -2.2
v 2 -1.8 -2.2
v 2 2.2 -2.2
v 2.2 -2.2 -2.2
v 2.2 -2 -2.2
v 2.2 -1.8 -2.2
v 2.2 2.2 -2.2
v -2.2 -2.2 2.2
v 2.2 -2.2 2.2
v -2.2 -2.2 -2.2
v 2.2 -2.2 -2.2
v 1.8 -1.6 2.2
v 1.9 -1.6 2.2
v 2 -1.6 2.2
v 1.9 -1.6 -0.2
v 2 -1.6 -0.2
v 1.8 -1.6 -0.4
v 2 -1.6 -0.4
v 1.8 -1.5 -0.4
v 2 -1.5 -0.4
v 1.8 -1.5 -0.8
v 2 -1.5 -0.8
v 1.8 -1.4 -0.8
v 2 -1.4 -0.8
v 1.8 -1.4 -1.2
v 2 -1.4 -1.2
v 1.8 -1.3 -1.2
v 2 -1.3 -1.2
v 1.8 -1.3 -1.6
v 2 -1.3 -1.6
v 1.8 -1.2 -1.6
v 2 -1.2 -1.6
v 1.8 -1.2 -2
v 2 -1.2 -2
v -2.2 -2 2.2
v 1 -2 2.2
v 1.1 -2 2.2
v 1.3 -2 2.2
v 1.4 -2 2.2
v 1.5 -2 2.2
v 1.6 -2 2.2
v 1.8 -2 2.2
v 2 -2 2.2
v -2.2 -2 -2.2
v 1 -2 -2.2
v 1.1 -2 -2.2
v 1.3 -2 -2.2
v 1.4 -2 -2.2
v 1.5 -2 -2.2
v 1.6 -2 -2.2
v 1.8 -2 -2.2
v 2 -2 -2.2
v 1.8 -1.5 2.2
v 1.9 -1.5 2.2
v 2.1 -1.5 2.2
v 2.2 -1.5 2.2
v 1.8 -1.5 -0.2
v 1.9 -1.5 -0.2
v 2.1 -1.5 -0.2
v 2.2 -1.5 -0.2
v 1.8 -1.4 -0.2
v 1.9 -1.4 -0.2
v 2.1 -1.4 -0.2
v 2.2 -1.4 -0.2
v 1.8 -1.4 -0.6
v 1.9 -1.4 -0.6
v 2.1 -1.4 -0.6
v 2.2 -1.4 -0.6
v 1.8 -1.3 -0.6
v 1.9 -1.3 -0.6
v 2.1 -1.3 -0.6
v 2.2 -1.3 -0.6
v 1.8 -1.3 -1
v 1.9 -1.3 -1
v 2.1 -1.3 -1
v 2.2 -1.3 -1
v 1.8 -1.2 -1
v 1.9 -1.2 -1
v 2.1 -1.2 -1
v 2.2 -1.2 -1
v 1.8 -1.2 -1.4
v 1.9 -1.2 -1.4
v 2.1 -1.2 -1.4
v 2.2 -1.2 -1.4
v 1.8 -1.1 -1.4
v 1.9 -1.1 -1.4
v 2.1 -1.1 -1.4
v 2.2 -1.1 -1.4
v 1.8 -1.1 -1.8
v 1.9 -1.1 -1.8
v 2.1 -1.1 -1.8
v 2.2 -1.1 -1.8
v 1.9 2.2 2.2
v 2.1 2.2 2.2
v 1.8 2.2 -1.8
v 1.9 2.2 -1.8
v 2.1 2.2 -1.8
v 2.2 2.2 -1.8
v 1.8 2.2 -2
v 2 2.2 -2
v 2.2 2.2 -2
v 2 2.2 -2.2
v 2.2 2.2 -2.2

# faces
f 3/3/1 2/3/1 1/3/1
f 4/3/1 2/3/1 3/3/1
f 7/2/1 6/2/1 5/2/1
f 8/2/1 6/2/1 7/2/1
f 9/2/1 6/2/1 8/2/1
f 11/2/1 10/2/1 9/2/1
f 11/2/1 9/2/1 8/2/1
f 12/2/1 10/2/1 11/2/1
f 13/2/1 10/2/1 12/2/1
f 15/2/1 14/2/1 13/2/1
f 15/2/1 13/2/1 12/2/1
f 16/2/1 14/2/1 15/2/1
f 17/2/1 14/2/1 16/2/1
f 19/2/1 18/2/1 17/2/1
f 19/2/1 17/2/1 16/2/1
f 20/2/1 18/2/1 19/2/1
f 21/2/1 18/2/1 20/2/1
f 23/2/1 22/2/1 21/2/1
f 23/2/1 21/2/1 20/2/1
f 24/2/1 22/2/1 23/2/1
f 25/2/1 22/2/1 24/2/1
f 26/2/1 22/2/1 25/2/1
f 29/4/1 28/4/1 27/4/1
f 31/4/1 29/4/1 27/4/1
f 31/4/1 30/4/1 29/4/1
f 32/4/1 30/4/1 31/4/1
f 34/3/1 32/3/1 31/3/1
f 34/3/1 33/3/1 32/3/1
f 35/3/1 33/3/1 34/3/1
f 37/5/1 35/5/1 34/5/1
f 37/5/1 36/5/1 35/5/1
f 38/5/1 36/5/1 37/5/1
f 40/4/1 38/4/1 37/4/1
f 40/4/1 39/4/1 38/4/1
f 41/4/1 39/4/1 40/4/1
f 42/3/1 41/3/1 40/3/1
f 43/3/1 41/3/1 42/3/1
f 44/5/1 43/5/1 42/5/1
f 45/5/1 43/5/1 44/5/1
f 46/4/1 45/4/1 44/4/1
f 47/4/1 45/4/1 46/4/1
f 48/3/1 47/3/1 46/3/1
f 49/3/1 47/3/1 48/3/1
f 50/5/1 49/5/1 48/5/1
f 51/5/1 49/5/1 50/5/1
f 52/4/1 51/4/1 50/4/1
f 53/4/1 51/4/1 52/4/1
f 54/3/1 53/3/1 52/3/1
f 55/3/1 53/3/1 54/3/1
f 56/5/1 55/5/1 54/5/1
f 57/5/1 55/5/1 56/5/1
f 58/4/1 57/4/1 56/4/1
f 59/4/1 57/4/1 58/4/1
f 60/3/1 59/3/1 58/3/1
f 61/3/1 59/3/1 60/3/1
f 62/5/1 61/5/1 60/5/1
f 63/5/1 61/5/1 62/5/1
f 64/4/1 63/4/1 62/4/1
f 65/4/1 63/4/1 64/4/1
f 66/3/1 65/3/1 64/3/1
f 67/3/1 65/3/1 66/3/1
f 68/5/1 67/5/1 66/5/1
f 69/5/1 67/5/1 68/5/1
f 70/4/1 69/4/1 68/4/1
f 71/4/1 69/4/1 70/4/1
f 72/3/1 71/3/1 70/3/1
f 73/3/1 71/3/1 72/3/1
f 74/5/1 73/5/1 72/5/1
f 75/5/1 73/5/1 74/5/1
f 76/4/1 75/4/1 74/4/1
f 77/4/1 75/4/1 76/4/1
f 78/3/1 77/3/1 76/3/1
f 79/3/1 77/3/1 78/3/1
f 82/2/1 81/2/1 80/2/1
f 83/2/1 81/2/1 82/2/1
f 84/4/1 83/4/1 82/4/1
f 85/4/1 83/4/1 84/4/1
f 86/4/1 83/4/1 85/4/1
f 87/4/1 83/4/1 86/4/1
f 88/4/1 83/4/1 87/4/1
f 89/4/1 83/4/1 88/4/1
f 90/4/1 83/4/1 89/4/1
f 91/4/1 83/4/1 90/4/1
f 92/4/1 83/4/1 91/4/1
f 93/4/1 83/4/1 92/4/1
f 94/4/1 83/4/1 93/4/1
f 95/4/1 83/4/1 94/4/1
f 96/4/1 83/4/1 95/4/1
f 97/4/2 98/4/2 99/4/2
f 97/4/2 99/4/2 101/4/2
f 99/3/2 100/3/2 102/3/2
f 101/4/2 99/4/2 102/4/2
f 102/3/2 100/3/2 103/3/2
f 101/3/2 102/3/2 105/3/2
f 103/3/2 104/3/2 105/3/2
f 102/3/2 103/3/2 105/3/2
f 105/3/2 106/3/2 107/3/2
f 101/3/2 105/3/2 109/3/2
f 107/3/2 108/3/2 109/3/2
f 105/3/2 107/3/2 109/3/2
f 109/3/2 108/3/2 110/3/2
f 111/3/2 112/3/2 113/3/2
f 113/3/2 112/3/2 114/3/2
f 113/2/2 114/2/2 115/2/2
f 115/2/2 114/2/2 116/2/2
f 115/4/2 116/4/2 117/4/2
f 117/4/2 116/4/2 118/4/2
f 115/4/2 117/4/2 119/4/2
f 117/2/2 118/2/2 120/2/2
f 119/4/2 117/4/2 120/4/2
f 118/4/2 116/4/2 121/4/2
f 120/2/2 118/2/2 121/2/2
f 121/4/2 116/4/2 122/4/2
f 120/2/2 121/2/2 123/2/2
f 121/2/2 122/2/2 123/2/2
f 123/2/2 122/2/2 124/2/2
f 122/4/2 116/4/2 125/4/2
f 124/2/2 122/2/2 125/2/2
f 125/4/2 116/4/2 126/4/2
f 124/2/2 125/2/2 127/2/2
f 125/2/2 126/2/2 127/2/2
f 127/2/2 126/2/2 128/2/2
f 126/4/2 116/4/2 129/4/2
f 128/2/2 126/2/2 129/2/2
f 129/4/2 116/4/2 130/4/2
f 128/2/2 129/2/2 131/2/2
f 129/2/2 130/2/2 131/2/2
f 131/2/2 130/2/2 132/2/2
f 130/4/2 116/4/2 133/4/2
f 132/2/2 130/2/2 133/2/2
f 133/4/2 116/4/2 134/4/2
f 132/2/2 133/2/2 135/2/2
f 133/2/2 134/2/2 135/2/2
f 135/2/2 134/2/2 136/2/2
f 136/2/2 134/2/2 137/2/2
f 134/4/2 116/4/2 138/4/2
f 137/2/2 134/2/2 138/2/2
f 138/4/2 116/4/2 139/4/2
f 142/3/3 141/3/3 140/3/3
f 143/3/3 141/3/3 142/3/3
f 144/3/3 142/3/3 140/3/3
f 144/4/3 143/4/3 142/4/3
f 145/4/3 143/4/3 144/4/3
f 146/3/3 144/3/3 140/3/3
f 146/5/3 145/5/3 144/5/3
f 147/5/3 145/5/3 146/5/3
f 148/3/3 146/3/3 140/3/3
f 148/4/3 147/4/3 146/4/3
f 149/4/3 147/4/3 148/4/3
f 150/3/3 148/3/3 140/3/3
f 150/1/3 149/1/3 148/1/3
f 151/1/3 149/1/3 150/1/3
f 152/3/3 150/3/3 140/3/3
f 152/4/3 151/4/3 150/4/3
f 153/4/3 151/4/3 152/4/3
f 154/3/3 152/3/3 140/3/3
f 154/5/3 153/5/3 152/5/3
f 155/5/3 153/5/3 154/5/3
f 158/2/3 157/2/3 156/2/3
f 159/2/3 157/2/3 158/2/3
f 183/4/3 155/4/3 154/4/3
f 183/3/3 154/3/3 140/3/3
f 184/4/3 155/4/3 183/4/3
f 186/4/3 159/4/3 158/4/3
f 186/4/3 160/4/3 159/4/3
f 187/3/3 161/3/3 160/3/3
f 187/5/3 162/5/3 161/5/3
f 188/4/3 163/4/3 162/4/3
f 188/5/3 162/5/3 187/5/3
f 189/3/3 164/3/3 163/3/3
f 189/4/3 163/4/3 188/4/3
f 190/5/3 165/5/3 164/5/3
f 190/3/3 164/3/3 189/3/3
f 191/4/3 166/4/3 165/4/3
f 191/5/3 165/5/3 190/5/3
f 192/3/3 167/3/3 166/3/3
f 192/4/3 166/4/3 191/4/3
f 193/5/3 168/5/3 167/5/3
f 193/3/3 167/3/3 192/3/3
f 194/4/3 169/4/3 168/4/3
f 194/5/3 168/5/3 193/5/3
f 195/3/3 170/3/3 169/3/3
f 195/4/3 169/4/3 194/4/3
f 196/5/3 171/5/3 170/5/3
f 196/3/3 170/3/3 195/3/3
f 197/4/3 172/4/3 171/4/3
f 197/5/3 171/5/3 196/5/3
f 198/3/3 173/3/3 172/3/3
f 198/4/3 172/4/3 197/4/3
f 199/5/3 174/5/3 173/5/3
f 199/3/3 173/3/3 198/3/3
f 200/4/3 175/4/3 174/4/3
f 200/5/3 174/5/3 199/5/3
f 201/3/3 176/3/3 175/3/3
f 201/4/3 175/4/3 200/4/3
f 202/5/3 177/5/3 176/5/3
f 202/3/3 176/3/3 201/3/3
f 203/4/3 178/4/3 177/4/3
f 203/5/3 177/5/3 202/5/3
f 204/3/3 179/3/3 178/3/3
f 204/4/3 178/4/3 203/4/3
f 205/5/3 180/5/3 179/5/3
f 205/3/3 179/3/3 204/3/3
f 206/4/3 181/4/3 180/4/3
f 206/5/3 180/5/3 205/5/3
f 207/3/3 182/3/3 181/3/3
f 207/4/3 181/4/3 206/4/3
f 208/4/3 186/4/3 185/4/3
f 208/4/3 160/4/3 186/4/3
f 209/3/3 206/3/3 205/3/3
f 209/4/3 160/4/3 208/4/3
f 209/3/3 205/3/3 204/3/3
f 209/3/3 207/3/3 206/3/3
f 209/3/3 187/3/3 160/3/3
f 209/3/3 204/3/3 203/3/3
f 209/3/3 203/3/3 202/3/3
f 209/3/3 202/3/3 201/3/3
f 209/3/3 201/3/3 200/3/3
f 209/3/3 200/3/3 199/3/3
f 209/3/3 199/3/3 198/3/3
f 209/3/3 198/3/3 197/3/3
f 209/3/3 197/3/3 196/3/3
f 209/3/3 196/3/3 195/3/3
f 209/3/3 195/3/3 194/3/3
f 209/3/3 194/3/3 193/3/3
f 209/3/3 193/3/3 192/3/3
f 209/3/3 192/3/3 191/3/3
f 209/3/3 191/3/3 190/3/3
f 209/3/3 190/3/3 189/3/3
f 209/3/3 189/3/3 188/3/3
f 209/3/3 188/3/3 187/3/3
f 210/3/3 182/3/3 207/3/3
f 210/3/3 207/3/3 209/3/3
f 211/3/3 184/3/3 183/3/3
f 211/3/3 183/3/3 140/3/3
f 212/2/3 185/2/3 184/2/3
f 212/3/3 184/3/3 211/3/3
f 213/4/3 208/4/3 185/4/3
f 213/2/3 185/2/3 212/2/3
f 214/4/3 208/4/3 213/4/3
f 217/2/3 216/2/3 215/2/3
f 218/2/3 216/2/3 217/2/3
f 221/2/3 220/2/3 219/2/3
f 222/2/3 220/2/3 221/2/3
f 225/2/3 224/2/3 223/2/3
f 226/2/3 224/2/3 225/2/3
f 229/2/3 228/2/3 227/2/3
f 230/2/3 228/2/3 229/2/3
f 233/2/3 232/2/3 231/2/3
f 234/2/3 232/2/3 233/2/3
f 237/2/3 236/2/3 235/2/3
f 238/2/3 236/2/3 237/2/3
f 241/2/3 240/2/3 239/2/3
f 242/2/3 240/2/3 241/2/3
f 245/2/3 244/2/3 243/2/3
f 246/2/3 244/2/3 245/2/3
f 249/2/3 248/2/3 247/2/3
f 250/2/3 248/2/3 249/2/3
f 251/2/3 248/2/3 250/2/3
f 252/2/3 248/2/3 251/2/3
f 253/2/3 248/2/3 252/2/3
f 254/2/3 248/2/3 253/2/3
f 255/2/3 248/2/3 254/2/3
f 256/2/3 248/2/3 255/2/3
f 257/2/3 248/2/3 256/2/3
f 258/2/3 248/2/3 257/2/3
f 259/2/3 248/2/3 258/2/3
f 260/2/3 248/2/3 259/2/3
f 261/2/3 248/2/3 260/2/3
f 262/2/3 248/2/3 261/2/3
f 263/2/3 248/2/3 262/2/3
f 264/2/3 248/2/3 263/2/3
f 265/2/3 248/2/3 264/2/3
f 266/2/3 248/2/3 265/2/3
f 267/2/3 248/2/3 266/2/3
f 268/2/3 248/2/3 267/2/3
f 269/2/3 248/2/3 268/2/3
f 272/2/3 271/2/3 270/2/3
f 273/2/3 271/2/3 272/2/3
f 274/2/4 275/2/4 276/2/4
f 276/2/4 275/2/4 277/2/4
f 278/2/4 279/2/4 280/2/4
f 280/2/4 279/2/4 281/2/4
f 282/2/4 283/2/4 284/2/4
f 284/2/4 283/2/4 285/2/4
f 286/2/4 287/2/4 288/2/4
f 288/2/4 287/2/4 289/2/4
f 290/2/4 291/2/4 292/2/4
f 292/2/4 291/2/4 293/2/4
f 294/3/4 295/3/4 296/3/4
f 296/3/4 295/3/4 297/3/4
f 294/3/4 296/3/4 298/3/4
f 296/4/4 297/4/4 298/4/4
f 298/4/4 297/4/4 299/4/4
f 294/3/4 298/3/4 300/3/4
f 298/5/4 299/5/4 300/5/4
f 300/5/4 299/5/4 301/5/4
f 294/3/4 300/3/4 302/3/4
f 300/4/4 301/4/4 302/4/4
f 302/4/4 301/4/4 303/4/4
f 294/3/4 302/3/4 304/3/4
f 302/1/4 303/1/4 304/1/4
f 304/1/4 303/1/4 305/1/4
f 294/3/4 304/3/4 306/3/4
f 304/4/4 305/4/4 306/4/4
f 306/4/4 305/4/4 307/4/4
f 294/3/4 306/3/4 308/3/4
f 306/5/4 307/5/4 308/5/4
f 308/5/4 307/5/4 309/5/4
f 294/3/4 308/3/4 310/3/4
f 308/4/4 309/4/4 310/4/4
f 310/4/4 309/4/4 311/4/4
f 310/3/4 311/3/4 314/3/4
f 294/3/4 310/3/4 314/3/4
f 311/2/4 312/2/4 315/2/4
f 314/3/4 311/3/4 315/3/4
f 312/4/4 313/4/4 316/4/4
f 315/2/4 312/2/4 316/2/4
f 316/4/4 313/4/4 317/4/4
f 320/3/5 319/3/5 318/3/5
f 321/3/5 319/3/5 320/3/5
f 325/2/5 323/2/5 322/2/5
f 325/4/5 324/4/5 323/4/5
f 326/4/5 324/4/5 325/4/5
f 327/2/5 325/2/5 322/2/5
f 327/2/5 326/2/5 325/2/5
f 328/2/5 326/2/5 327/2/5
f 331/2/5 330/2/5 329/2/5
f 332/2/5 330/2/5 331/2/5
f 335/2/5 334/2/5 333/2/5
f 336/2/5 334/2/5 335/2/5
f 339/2/5 338/2/5 337/2/5
f 340/2/5 338/2/5 339/2/5
f 343/2/5 342/2/5 341/2/5
f 344/2/5 342/2/5 343/2/5
f 345/3/6 346/3/6 354/3/6
f 346/4/6 347/4/6 355/4/6
f 354/3/6 346/3/6 355/3/6
f 347/5/6 348/5/6 356/5/6
f 355/4/6 347/4/6 356/4/6
f 348/4/6 349/4/6 357/4/6
f 356/5/6 348/5/6 357/5/6
f 349/1/6 350/1/6 358/1/6
f 357/4/6 349/4/6 358/4/6
f 350/4/6 351/4/6 359/4/6
f 358/1/6 350/1/6 359/1/6
f 351/5/6 352/5/6 360/5/6
f 359/4/6 351/4/6 360/4/6
f 352/4/6 353/4/6 361/4/6
f 360/5/6 352/5/6 361/5/6
f 361/4/6 353/4/6 362/4/6
f 363/2/6 364/2/6 367/2/6
f 367/2/6 364/2/6 368/2/6
f 365/4/6 366/4/6 369/4/6
f 369/4/6 366/4/6 370/4/6
f 371/2/6 372/2/6 375/2/6
f 375/2/6 372/2/6 376/2/6
f 373/2/6 374/2/6 377/2/6
f 377/2/6 374/2/6 378/2/6
f 379/2/6 380/2/6 383/2/6
f 383/2/6 380/2/6 384/2/6
f 381/2/6 382/2/6 385/2/6
f 385/2/6 382/2/6 386/2/6
f 387/2/6 388/2/6 391/2/6
f 391/2/6 388/2/6 392/2/6
f 389/2/6 390/2/6 393/2/6
f 393/2/6 390/2/6 394/2/6
f 395/2/6 396/2/6 399/2/6
f 399/2/6 396/2/6 400/2/6
f 397/2/6 398/2/6 401/2/6
f 401/2/6 398/2/6 402/2/6
f 403/3/6 404/3/6 406/3/6
f 406/3/6 404/3/6 407/3/6
f 405/2/6 406/2/6 409/2/6
f 407/2/6 408/2/6 409/2/6
f 406/2/6 407/2/6 409/2/6
f 409/2/6 408/2/6 410/2/6
f 410/2/6 408/2/6 411/2/6
f 410/4/6 411/4/6 412/4/6
f 412/4/6 411/4/6 413/4/6
