# MagicaVoxel @ Ephtracy

# group
o 

# material
mtllib mesh_hanger_wall_grid_straight.mtl
usemtl palette

# normals
vn -1 0 0
vn 1 0 0
vn 0 0 1
vn 0 0 -1
vn 0 -1 0
vn 0 1 0

# texcoords
vt 0.373047 0.5
vt 0.837891 0.5
vt 0.841797 0.5
vt 0.986328 0.5
vt 0.990234 0.5
vt 0.994141 0.5

# verts
v -2.2 -2.2 2.2
v -2.2 -2.2 -2.2
v -2.2 -2.1 2
v -2.2 -2.1 1.8
v -2.2 -2.1 1.6
v -2.2 -2.1 1.5
v -2.2 -2.1 1.4
v -2.2 -2.1 1.3
v -2.2 -2.1 1.1
v -2.2 -2.1 1
v -2.2 -2 2.2
v -2.2 -2 2
v -2.2 -2 1.8
v -2.2 -2 1.6
v -2.2 -2 1.5
v -2.2 -2 1.4
v -2.2 -2 1.3
v -2.2 -2 1.1
v -2.2 -2 1
v -2.2 -2 -2.2
v -2.2 -1.8 2.2
v -2.2 -1.8 2
v -2.2 2.2 2.2
v -2.2 2.2 2
v 2.2 -2.2 2.2
v 2.2 -2.2 -2.2
v 2.2 -2.1 2
v 2.2 -2.1 1.8
v 2.2 -2.1 1.6
v 2.2 -2.1 1.5
v 2.2 -2.1 1.4
v 2.2 -2.1 1.3
v 2.2 -2.1 1.1
v 2.2 -2.1 1
v 2.2 -2 2.1
v 2.2 -2 2
v 2.2 -2 1.8
v 2.2 -2 1.6
v 2.2 -2 1.5
v 2.2 -2 1.4
v 2.2 -2 1.3
v 2.2 -2 1.1
v 2.2 -2 1
v 2.2 -2 -2.2
v 2.2 2.2 2.2
v 2.2 2.2 2.1
v 2.2 2.2 2
v -2.2 -2.2 2.2
v -2.2 -2 2.2
v -2.2 -1.8 2.2
v -2.2 2.2 2.2
v -2 -2 2.2
v -2 -1.8 2.2
v 2.2 -2.2 2.2
v 2.2 2.2 2.2
v -2.2 -2 2
v -2.2 -1.8 2
v -2.2 2.2 2
v -2.1 -1.7 2
v -2.1 2.2 2
v -2 -1.6 2
v -2 2.2 2
v -1.9 -1.5 2
v -1.9 2.2 2
v -0.7 -1.5 2
v -0.7 2.2 2
v -0.6 -1.6 2
v -0.6 2.2 2
v -0.5 -1.7 2
v -0.5 2.2 2
v -0.4 -1.8 2
v -0.4 2.2 2
v -0.2 -1.8 2
v -0.2 2.2 2
v -0.0999999 -1.8 2
v -0.0999999 2.2 2
v 0.2 -1.8 2
v 0.2 2.2 2
v 0.4 -1.8 2
v 0.4 2.2 2
v 0.5 -1.8 2
v 0.5 2.2 2
v 0.8 -1.8 2
v 0.8 2.2 2
v 1 -1.8 2
v 1 2.2 2
v 1.1 -1.8 2
v 1.1 2.2 2
v 1.4 -1.8 2
v 1.4 2.2 2
v 1.6 -1.8 2
v 1.6 2.2 2
v 1.7 -1.8 2
v 1.7 2.2 2
v 2 -1.8 2
v 2 2.2 2
v 2.2 -2 2
v 2.2 2.2 2
v -2.2 -2.2 -2.2
v -2.2 -2 -2.2
v 2.2 -2.2 -2.2
v 2.2 -2 -2.2
v -2.2 -2.2 2.2
v 2.2 -2.2 2.2
v -2.2 -2.2 -2.2
v 2.2 -2.2 -2.2
v -2.2 -2 2
v 2.2 -2 2
v -2.2 -2 1.8
v 2.2 -2 1.8
v -2.2 -2 1.6
v 2.2 -2 1.6
v -2.2 -2 1.5
v 2.2 -2 1.5
v -2.2 -2 1.4
v 2.2 -2 1.4
v -2.2 -2 1.3
v 2.2 -2 1.3
v -2.2 -2 1.1
v 2.2 -2 1.1
v -2.2 -2 1
v 2.2 -2 1
v -2.2 -2 -2.2
v 2.2 -2 -2.2
v -2.2 2.2 2.2
v 2.2 2.2 2.2
v -2.1 2.2 2.1
v -2 2.2 2.1
v -1.9 2.2 2.1
v -0.7 2.2 2.1
v -0.6 2.2 2.1
v -0.5 2.2 2.1
v -0.4 2.2 2.1
v -0.2 2.2 2.1
v -0.0999999 2.2 2.1
v 0.2 2.2 2.1
v 0.4 2.2 2.1
v 0.5 2.2 2.1
v 0.8 2.2 2.1
v 1 2.2 2.1
v 1.1 2.2 2.1
v 1.4 2.2 2.1
v 1.6 2.2 2.1
v 1.7 2.2 2.1
v 2 2.2 2.1
v 2.2 2.2 2.1
v -2.2 2.2 2
v -2.1 2.2 2
v -2 2.2 2
v -1.9 2.2 2
v -0.7 2.2 2
v -0.6 2.2 2
v -0.5 2.2 2
v -0.4 2.2 2
v -0.2 2.2 2
v -0.0999999 2.2 2
v 0.2 2.2 2
v 0.4 2.2 2
v 0.5 2.2 2
v 0.8 2.2 2
v 1 2.2 2
v 1.1 2.2 2
v 1.4 2.2 2
v 1.6 2.2 2
v 1.7 2.2 2
v 2 2.2 2
v 2.2 2.2 2

# faces
f 3/4/1 2/4/1 1/4/1
f 4/4/1 2/4/1 3/4/1
f 5/4/1 2/4/1 4/4/1
f 6/4/1 2/4/1 5/4/1
f 7/4/1 2/4/1 6/4/1
f 8/4/1 2/4/1 7/4/1
f 9/4/1 2/4/1 8/4/1
f 10/4/1 2/4/1 9/4/1
f 11/4/1 3/4/1 1/4/1
f 12/5/1 4/5/1 3/5/1
f 12/4/1 3/4/1 11/4/1
f 13/6/1 5/6/1 4/6/1
f 13/5/1 4/5/1 12/5/1
f 14/5/1 6/5/1 5/5/1
f 14/6/1 5/6/1 13/6/1
f 15/1/1 7/1/1 6/1/1
f 15/5/1 6/5/1 14/5/1
f 16/5/1 8/5/1 7/5/1
f 16/1/1 7/1/1 15/1/1
f 17/6/1 9/6/1 8/6/1
f 17/5/1 8/5/1 16/5/1
f 18/5/1 10/5/1 9/5/1
f 18/6/1 9/6/1 17/6/1
f 19/4/1 2/4/1 10/4/1
f 19/5/1 10/5/1 18/5/1
f 20/4/1 2/4/1 19/4/1
f 21/6/1 12/6/1 11/6/1
f 22/6/1 12/6/1 21/6/1
f 23/4/1 22/4/1 21/4/1
f 24/4/1 22/4/1 23/4/1
f 25/4/2 26/4/2 27/4/2
f 27/4/2 26/4/2 28/4/2
f 28/4/2 26/4/2 29/4/2
f 29/4/2 26/4/2 30/4/2
f 30/4/2 26/4/2 31/4/2
f 31/4/2 26/4/2 32/4/2
f 32/4/2 26/4/2 33/4/2
f 33/4/2 26/4/2 34/4/2
f 25/4/2 27/4/2 35/4/2
f 27/5/2 28/5/2 36/5/2
f 35/4/2 27/4/2 36/4/2
f 28/6/2 29/6/2 37/6/2
f 36/5/2 28/5/2 37/5/2
f 29/5/2 30/5/2 38/5/2
f 37/6/2 29/6/2 38/6/2
f 30/1/2 31/1/2 39/1/2
f 38/5/2 30/5/2 39/5/2
f 31/5/2 32/5/2 40/5/2
f 39/1/2 31/1/2 40/1/2
f 32/6/2 33/6/2 41/6/2
f 40/5/2 32/5/2 41/5/2
f 33/5/2 34/5/2 42/5/2
f 41/6/2 33/6/2 42/6/2
f 34/4/2 26/4/2 43/4/2
f 42/5/2 34/5/2 43/5/2
f 43/4/2 26/4/2 44/4/2
f 25/4/2 35/4/2 45/4/2
f 35/6/2 36/6/2 46/6/2
f 45/4/2 35/4/2 46/4/2
f 46/6/2 36/6/2 47/6/2
f 52/4/3 49/4/3 48/4/3
f 52/6/3 50/6/3 49/6/3
f 53/4/3 51/4/3 50/4/3
f 53/6/3 50/6/3 52/6/3
f 54/4/3 52/4/3 48/4/3
f 54/4/3 53/4/3 52/4/3
f 55/4/3 51/4/3 53/4/3
f 55/4/3 53/4/3 54/4/3
f 57/4/4 58/4/4 59/4/4
f 59/4/4 58/4/4 60/4/4
f 59/5/4 60/5/4 61/5/4
f 61/5/4 60/5/4 62/5/4
f 61/6/4 62/6/4 63/6/4
f 63/6/4 62/6/4 64/6/4
f 61/6/4 63/6/4 65/6/4
f 63/4/4 64/4/4 65/4/4
f 65/4/4 64/4/4 66/4/4
f 59/5/4 61/5/4 67/5/4
f 61/6/4 65/6/4 67/6/4
f 65/6/4 66/6/4 67/6/4
f 67/6/4 66/6/4 68/6/4
f 57/4/4 59/4/4 69/4/4
f 59/5/4 67/5/4 69/5/4
f 67/5/4 68/5/4 69/5/4
f 69/5/4 68/5/4 70/5/4
f 56/6/4 57/6/4 71/6/4
f 57/4/4 69/4/4 71/4/4
f 69/4/4 70/4/4 71/4/4
f 71/4/4 70/4/4 72/4/4
f 56/6/4 71/6/4 73/6/4
f 71/2/4 72/2/4 73/2/4
f 73/2/4 72/2/4 74/2/4
f 56/6/4 73/6/4 75/6/4
f 73/3/4 74/3/4 75/3/4
f 75/3/4 74/3/4 76/3/4
f 56/6/4 75/6/4 77/6/4
f 75/4/4 76/4/4 77/4/4
f 77/4/4 76/4/4 78/4/4
f 56/6/4 77/6/4 79/6/4
f 77/2/4 78/2/4 79/2/4
f 79/2/4 78/2/4 80/2/4
f 56/6/4 79/6/4 81/6/4
f 79/3/4 80/3/4 81/3/4
f 81/3/4 80/3/4 82/3/4
f 56/6/4 81/6/4 83/6/4
f 81/4/4 82/4/4 83/4/4
f 83/4/4 82/4/4 84/4/4
f 56/6/4 83/6/4 85/6/4
f 83/2/4 84/2/4 85/2/4
f 85/2/4 84/2/4 86/2/4
f 56/6/4 85/6/4 87/6/4
f 85/3/4 86/3/4 87/3/4
f 87/3/4 86/3/4 88/3/4
f 56/6/4 87/6/4 89/6/4
f 87/4/4 88/4/4 89/4/4
f 89/4/4 88/4/4 90/4/4
f 56/6/4 89/6/4 91/6/4
f 89/2/4 90/2/4 91/2/4
f 91/2/4 90/2/4 92/2/4
f 56/6/4 91/6/4 93/6/4
f 91/3/4 92/3/4 93/3/4
f 93/3/4 92/3/4 94/3/4
f 56/6/4 93/6/4 95/6/4
f 93/4/4 94/4/4 95/4/4
f 95/4/4 94/4/4 96/4/4
f 56/6/4 95/6/4 97/6/4
f 95/6/4 96/6/4 97/6/4
f 97/6/4 96/6/4 98/6/4
f 99/4/4 100/4/4 101/4/4
f 101/4/4 100/4/4 102/4/4
f 105/4/5 104/4/5 103/4/5
f 106/4/5 104/4/5 105/4/5
f 107/5/6 108/5/6 109/5/6
f 109/5/6 108/5/6 110/5/6
f 109/6/6 110/6/6 111/6/6
f 111/6/6 110/6/6 112/6/6
f 111/5/6 112/5/6 113/5/6
f 113/5/6 112/5/6 114/5/6
f 113/1/6 114/1/6 115/1/6
f 115/1/6 114/1/6 116/1/6
f 115/5/6 116/5/6 117/5/6
f 117/5/6 116/5/6 118/5/6
f 117/6/6 118/6/6 119/6/6
f 119/6/6 118/6/6 120/6/6
f 119/5/6 120/5/6 121/5/6
f 121/5/6 120/5/6 122/5/6
f 121/4/6 122/4/6 123/4/6
f 123/4/6 122/4/6 124/4/6
f 125/4/6 126/4/6 127/4/6
f 127/4/6 126/4/6 128/4/6
f 128/4/6 126/4/6 129/4/6
f 129/4/6 126/4/6 130/4/6
f 130/4/6 126/4/6 131/4/6
f 131/4/6 126/4/6 132/4/6
f 132/4/6 126/4/6 133/4/6
f 133/4/6 126/4/6 134/4/6
f 134/4/6 126/4/6 135/4/6
f 135/4/6 126/4/6 136/4/6
f 136/4/6 126/4/6 137/4/6
f 137/4/6 126/4/6 138/4/6
f 138/4/6 126/4/6 139/4/6
f 139/4/6 126/4/6 140/4/6
f 140/4/6 126/4/6 141/4/6
f 141/4/6 126/4/6 142/4/6
f 142/4/6 126/4/6 143/4/6
f 143/4/6 126/4/6 144/4/6
f 144/4/6 126/4/6 145/4/6
f 145/4/6 126/4/6 146/4/6
f 125/4/6 127/4/6 147/4/6
f 127/5/6 128/5/6 148/5/6
f 147/4/6 127/4/6 148/4/6
f 128/6/6 129/6/6 149/6/6
f 148/5/6 128/5/6 149/5/6
f 129/4/6 130/4/6 150/4/6
f 149/6/6 129/6/6 150/6/6
f 130/6/6 131/6/6 151/6/6
f 150/4/6 130/4/6 151/4/6
f 131/5/6 132/5/6 152/5/6
f 151/6/6 131/6/6 152/6/6
f 132/4/6 133/4/6 153/4/6
f 152/5/6 132/5/6 153/5/6
f 133/2/6 134/2/6 154/2/6
f 153/4/6 133/4/6 154/4/6
f 134/3/6 135/3/6 155/3/6
f 154/2/6 134/2/6 155/2/6
f 135/4/6 136/4/6 156/4/6
f 155/3/6 135/3/6 156/3/6
f 136/2/6 137/2/6 157/2/6
f 156/4/6 136/4/6 157/4/6
f 137/3/6 138/3/6 158/3/6
f 157/2/6 137/2/6 158/2/6
f 138/4/6 139/4/6 159/4/6
f 158/3/6 138/3/6 159/3/6
f 139/2/6 140/2/6 160/2/6
f 159/4/6 139/4/6 160/4/6
f 140/3/6 141/3/6 161/3/6
f 160/2/6 140/2/6 161/2/6
f 141/4/6 142/4/6 162/4/6
f 161/3/6 141/3/6 162/3/6
f 142/2/6 143/2/6 163/2/6
f 162/4/6 142/4/6 163/4/6
f 143/3/6 144/3/6 164/3/6
f 163/2/6 143/2/6 164/2/6
f 144/4/6 145/4/6 165/4/6
f 164/3/6 144/3/6 165/3/6
f 145/6/6 146/6/6 166/6/6
f 165/4/6 145/4/6 166/4/6
f 166/6/6 146/6/6 167/6/6
