# MagicaVoxel @ Ephtracy

# group
o 

# material
mtllib mesh_hanger_ship_door_middle_right.mtl
usemtl palette

# normals
vn -1 0 0
vn 1 0 0
vn 0 0 1
vn 0 0 -1
vn 0 -1 0
vn 0 1 0

# texcoords
vt 0.837891 0.5
vt 0.986328 0.5
vt 0.990234 0.5
vt 0.994141 0.5

# verts
v 1.8 -2.2 2
v 1.8 -2.2 1.8
v 1.8 2.2 2
v 1.8 2.2 1.8
v 1.9 -2.2 1.8
v 1.9 -2.2 -2.2
v 1.9 -2.1 1.8
v 1.9 -2.1 -2.2
v 1.9 -2 1.8
v 1.9 -2 -2.2
v 1.9 -1.8 1.8
v 1.9 -1.8 -2.2
v 1.9 -1.6 1.8
v 1.9 -1.6 -2.2
v 1.9 -1.5 1.8
v 1.9 -1.5 -2.2
v 1.9 -1.3 1.8
v 1.9 -1.3 -2.2
v 1.9 -1.1 1.8
v 1.9 -1.1 -2.2
v 1.9 -1 1.8
v 1.9 -1 -2.2
v 1.9 -0.8 1.8
v 1.9 -0.8 -2.2
v 1.9 -0.6 1.8
v 1.9 -0.6 -2.2
v 1.9 -0.5 1.8
v 1.9 -0.5 -2.2
v 1.9 -0.3 1.8
v 1.9 -0.3 -2.2
v 1.9 -0.0999999 1.8
v 1.9 -0.0999999 -2.2
v 1.9 0 1.8
v 1.9 0 -2.2
v 1.9 0.2 1.8
v 1.9 0.2 -2.2
v 1.9 0.4 1.8
v 1.9 0.4 -2.2
v 1.9 0.5 1.8
v 1.9 0.5 -2.2
v 1.9 0.7 1.8
v 1.9 0.7 -2.2
v 1.9 0.9 1.8
v 1.9 0.9 -2.2
v 1.9 1 1.8
v 1.9 1 -2.2
v 1.9 1.2 1.8
v 1.9 1.2 -2.2
v 1.9 1.4 1.8
v 1.9 1.4 -2.2
v 1.9 1.5 1.8
v 1.9 1.5 -2.2
v 1.9 1.7 1.8
v 1.9 1.7 -2.2
v 1.9 1.9 1.8
v 1.9 1.9 -2.2
v 1.9 2 1.8
v 1.9 2 -2.2
v 1.9 2.2 1.8
v 1.9 2.2 -2.2
v 2 -2.2 2.2
v 2 -2.2 2
v 2 2.2 2.2
v 2 2.2 2
v 2.1 -2.2 1.8
v 2.1 -2.2 -2.2
v 2.1 2.2 1.8
v 2.1 2.2 -2.2
v 2.2 -2.2 2.2
v 2.2 -2.2 2
v 2.2 -2.2 1.8
v 2.2 2.2 2.2
v 2.2 2.2 2
v 2.2 2.2 1.8
v 2 -2.2 2.2
v 2 2.2 2.2
v 2.2 -2.2 2.2
v 2.2 2.2 2.2
v 1.8 -2.2 2
v 1.8 2.2 2
v 2 -2.2 2
v 2 2.2 2
v 1.8 -2.2 1.8
v 1.8 2.2 1.8
v 1.9 -2.2 1.8
v 1.9 -2.1 1.8
v 1.9 -2 1.8
v 1.9 -1.8 1.8
v 1.9 -1.6 1.8
v 1.9 -1.5 1.8
v 1.9 -1.3 1.8
v 1.9 -1.1 1.8
v 1.9 -1 1.8
v 1.9 -0.8 1.8
v 1.9 -0.6 1.8
v 1.9 -0.5 1.8
v 1.9 -0.3 1.8
v 1.9 -0.0999999 1.8
v 1.9 0 1.8
v 1.9 0.2 1.8
v 1.9 0.4 1.8
v 1.9 0.5 1.8
v 1.9 0.7 1.8
v 1.9 0.9 1.8
v 1.9 1 1.8
v 1.9 1.2 1.8
v 1.9 1.4 1.8
v 1.9 1.5 1.8
v 1.9 1.7 1.8
v 1.9 1.9 1.8
v 1.9 2 1.8
v 1.9 2.2 1.8
v 2.1 -2.2 1.8
v 2.1 2.2 1.8
v 2.2 -2.2 1.8
v 2.2 2.2 1.8
v 1.9 -2.2 -2.2
v 1.9 -2.1 -2.2
v 1.9 -2 -2.2
v 1.9 -1.8 -2.2
v 1.9 -1.6 -2.2
v 1.9 -1.5 -2.2
v 1.9 -1.3 -2.2
v 1.9 -1.1 -2.2
v 1.9 -1 -2.2
v 1.9 -0.8 -2.2
v 1.9 -0.6 -2.2
v 1.9 -0.5 -2.2
v 1.9 -0.3 -2.2
v 1.9 -0.0999999 -2.2
v 1.9 0 -2.2
v 1.9 0.2 -2.2
v 1.9 0.4 -2.2
v 1.9 0.5 -2.2
v 1.9 0.7 -2.2
v 1.9 0.9 -2.2
v 1.9 1 -2.2
v 1.9 1.2 -2.2
v 1.9 1.4 -2.2
v 1.9 1.5 -2.2
v 1.9 1.7 -2.2
v 1.9 1.9 -2.2
v 1.9 2 -2.2
v 1.9 2.2 -2.2
v 2 -2.1 -2.2
v 2 -2 -2.2
v 2 -1.8 -2.2
v 2 -1.6 -2.2
v 2 -1.5 -2.2
v 2 -1.3 -2.2
v 2 -1.1 -2.2
v 2 -1 -2.2
v 2 -0.8 -2.2
v 2 -0.6 -2.2
v 2 -0.5 -2.2
v 2 -0.3 -2.2
v 2 -0.0999999 -2.2
v 2 0 -2.2
v 2 0.2 -2.2
v 2 0.4 -2.2
v 2 0.5 -2.2
v 2 0.7 -2.2
v 2 0.9 -2.2
v 2 1 -2.2
v 2 1.2 -2.2
v 2 1.4 -2.2
v 2 1.5 -2.2
v 2 1.7 -2.2
v 2 1.9 -2.2
v 2 2 -2.2
v 2 2.2 -2.2
v 2.1 -2.2 -2.2
v 2.1 2.2 -2.2
v 2 -2.2 2.2
v 2.2 -2.2 2.2
v 1.8 -2.2 2
v 2 -2.2 2
v 2.2 -2.2 2
v 1.8 -2.2 1.8
v 1.9 -2.2 1.8
v 2.1 -2.2 1.8
v 2.2 -2.2 1.8
v 1.9 -2.2 -2.2
v 2.1 -2.2 -2.2
v 2 2.2 2.2
v 2.2 2.2 2.2
v 1.8 2.2 2
v 2 2.2 2
v 2.2 2.2 2
v 1.8 2.2 1.8
v 1.9 2.2 1.8
v 2 2.2 1.8
v 2.1 2.2 1.8
v 2.2 2.2 1.8
v 1.9 2.2 -2.2
v 2 2.2 -2.2
v 2.1 2.2 -2.2

# faces
f 3/1/1 2/1/1 1/1/1
f 4/1/1 2/1/1 3/1/1
f 7/2/1 6/2/1 5/2/1
f 8/2/1 6/2/1 7/2/1
f 9/4/1 8/4/1 7/4/1
f 10/4/1 8/4/1 9/4/1
f 11/3/1 10/3/1 9/3/1
f 12/3/1 10/3/1 11/3/1
f 13/2/1 12/2/1 11/2/1
f 14/2/1 12/2/1 13/2/1
f 15/4/1 14/4/1 13/4/1
f 16/4/1 14/4/1 15/4/1
f 17/3/1 16/3/1 15/3/1
f 18/3/1 16/3/1 17/3/1
f 19/2/1 18/2/1 17/2/1
f 20/2/1 18/2/1 19/2/1
f 21/4/1 20/4/1 19/4/1
f 22/4/1 20/4/1 21/4/1
f 23/3/1 22/3/1 21/3/1
f 24/3/1 22/3/1 23/3/1
f 25/2/1 24/2/1 23/2/1
f 26/2/1 24/2/1 25/2/1
f 27/4/1 26/4/1 25/4/1
f 28/4/1 26/4/1 27/4/1
f 29/3/1 28/3/1 27/3/1
f 30/3/1 28/3/1 29/3/1
f 31/2/1 30/2/1 29/2/1
f 32/2/1 30/2/1 31/2/1
f 33/4/1 32/4/1 31/4/1
f 34/4/1 32/4/1 33/4/1
f 35/3/1 34/3/1 33/3/1
f 36/3/1 34/3/1 35/3/1
f 37/2/1 36/2/1 35/2/1
f 38/2/1 36/2/1 37/2/1
f 39/4/1 38/4/1 37/4/1
f 40/4/1 38/4/1 39/4/1
f 41/3/1 40/3/1 39/3/1
f 42/3/1 40/3/1 41/3/1
f 43/2/1 42/2/1 41/2/1
f 44/2/1 42/2/1 43/2/1
f 45/4/1 44/4/1 43/4/1
f 46/4/1 44/4/1 45/4/1
f 47/3/1 46/3/1 45/3/1
f 48/3/1 46/3/1 47/3/1
f 49/2/1 48/2/1 47/2/1
f 50/2/1 48/2/1 49/2/1
f 51/4/1 50/4/1 49/4/1
f 52/4/1 50/4/1 51/4/1
f 53/3/1 52/3/1 51/3/1
f 54/3/1 52/3/1 53/3/1
f 55/2/1 54/2/1 53/2/1
f 56/2/1 54/2/1 55/2/1
f 57/4/1 56/4/1 55/4/1
f 58/4/1 56/4/1 57/4/1
f 59/3/1 58/3/1 57/3/1
f 60/3/1 58/3/1 59/3/1
f 63/3/1 62/3/1 61/3/1
f 64/3/1 62/3/1 63/3/1
f 65/2/2 66/2/2 67/2/2
f 67/2/2 66/2/2 68/2/2
f 69/3/2 70/3/2 72/3/2
f 70/1/2 71/1/2 73/1/2
f 72/3/2 70/3/2 73/3/2
f 73/1/2 71/1/2 74/1/2
f 77/3/3 76/3/3 75/3/3
f 78/3/3 76/3/3 77/3/3
f 81/1/3 80/1/3 79/1/3
f 82/1/3 80/1/3 81/1/3
f 83/1/4 84/1/4 85/1/4
f 85/1/4 84/1/4 86/1/4
f 86/1/4 84/1/4 87/1/4
f 87/1/4 84/1/4 88/1/4
f 88/1/4 84/1/4 89/1/4
f 89/1/4 84/1/4 90/1/4
f 90/1/4 84/1/4 91/1/4
f 91/1/4 84/1/4 92/1/4
f 92/1/4 84/1/4 93/1/4
f 93/1/4 84/1/4 94/1/4
f 94/1/4 84/1/4 95/1/4
f 95/1/4 84/1/4 96/1/4
f 96/1/4 84/1/4 97/1/4
f 97/1/4 84/1/4 98/1/4
f 98/1/4 84/1/4 99/1/4
f 99/1/4 84/1/4 100/1/4
f 100/1/4 84/1/4 101/1/4
f 101/1/4 84/1/4 102/1/4
f 102/1/4 84/1/4 103/1/4
f 103/1/4 84/1/4 104/1/4
f 104/1/4 84/1/4 105/1/4
f 105/1/4 84/1/4 106/1/4
f 106/1/4 84/1/4 107/1/4
f 107/1/4 84/1/4 108/1/4
f 108/1/4 84/1/4 109/1/4
f 109/1/4 84/1/4 110/1/4
f 110/1/4 84/1/4 111/1/4
f 111/1/4 84/1/4 112/1/4
f 113/1/4 114/1/4 115/1/4
f 115/1/4 114/1/4 116/1/4
f 117/2/4 118/2/4 145/2/4
f 118/4/4 119/4/4 145/4/4
f 119/3/4 120/3/4 146/3/4
f 145/4/4 119/4/4 146/4/4
f 120/2/4 121/2/4 147/2/4
f 146/3/4 120/3/4 147/3/4
f 121/4/4 122/4/4 148/4/4
f 147/2/4 121/2/4 148/2/4
f 122/3/4 123/3/4 149/3/4
f 148/4/4 122/4/4 149/4/4
f 123/2/4 124/2/4 150/2/4
f 149/3/4 123/3/4 150/3/4
f 124/4/4 125/4/4 151/4/4
f 150/2/4 124/2/4 151/2/4
f 125/3/4 126/3/4 152/3/4
f 151/4/4 125/4/4 152/4/4
f 126/2/4 127/2/4 153/2/4
f 152/3/4 126/3/4 153/3/4
f 127/4/4 128/4/4 154/4/4
f 153/2/4 127/2/4 154/2/4
f 128/3/4 129/3/4 155/3/4
f 154/4/4 128/4/4 155/4/4
f 129/2/4 130/2/4 156/2/4
f 155/3/4 129/3/4 156/3/4
f 130/4/4 131/4/4 157/4/4
f 156/2/4 130/2/4 157/2/4
f 131/3/4 132/3/4 158/3/4
f 157/4/4 131/4/4 158/4/4
f 132/2/4 133/2/4 159/2/4
f 158/3/4 132/3/4 159/3/4
f 133/4/4 134/4/4 160/4/4
f 159/2/4 133/2/4 160/2/4
f 134/3/4 135/3/4 161/3/4
f 160/4/4 134/4/4 161/4/4
f 135/2/4 136/2/4 162/2/4
f 161/3/4 135/3/4 162/3/4
f 136/4/4 137/4/4 163/4/4
f 162/2/4 136/2/4 163/2/4
f 137/3/4 138/3/4 164/3/4
f 163/4/4 137/4/4 164/4/4
f 138/2/4 139/2/4 165/2/4
f 164/3/4 138/3/4 165/3/4
f 139/4/4 140/4/4 166/4/4
f 165/2/4 139/2/4 166/2/4
f 140/3/4 141/3/4 167/3/4
f 166/4/4 140/4/4 167/4/4
f 141/2/4 142/2/4 168/2/4
f 167/3/4 141/3/4 168/3/4
f 142/4/4 143/4/4 169/4/4
f 168/2/4 142/2/4 169/2/4
f 143/3/4 144/3/4 170/3/4
f 169/4/4 143/4/4 170/4/4
f 170/3/4 144/3/4 171/3/4
f 168/2/4 169/2/4 172/2/4
f 167/2/4 168/2/4 172/2/4
f 170/2/4 171/2/4 172/2/4
f 169/2/4 170/2/4 172/2/4
f 166/2/4 167/2/4 172/2/4
f 165/2/4 166/2/4 172/2/4
f 164/2/4 165/2/4 172/2/4
f 163/2/4 164/2/4 172/2/4
f 162/2/4 163/2/4 172/2/4
f 161/2/4 162/2/4 172/2/4
f 160/2/4 161/2/4 172/2/4
f 159/2/4 160/2/4 172/2/4
f 158/2/4 159/2/4 172/2/4
f 157/2/4 158/2/4 172/2/4
f 156/2/4 157/2/4 172/2/4
f 155/2/4 156/2/4 172/2/4
f 154/2/4 155/2/4 172/2/4
f 153/2/4 154/2/4 172/2/4
f 152/2/4 153/2/4 172/2/4
f 151/2/4 152/2/4 172/2/4
f 150/2/4 151/2/4 172/2/4
f 149/2/4 150/2/4 172/2/4
f 148/2/4 149/2/4 172/2/4
f 147/2/4 148/2/4 172/2/4
f 146/2/4 147/2/4 172/2/4
f 145/2/4 146/2/4 172/2/4
f 117/2/4 145/2/4 172/2/4
f 172/2/4 171/2/4 173/2/4
f 177/3/5 175/3/5 174/3/5
f 178/3/5 175/3/5 177/3/5
f 179/1/5 177/1/5 176/1/5
f 179/1/5 178/1/5 177/1/5
f 180/1/5 178/1/5 179/1/5
f 181/1/5 178/1/5 180/1/5
f 182/1/5 178/1/5 181/1/5
f 183/2/5 181/2/5 180/2/5
f 184/2/5 181/2/5 183/2/5
f 185/3/6 186/3/6 188/3/6
f 188/3/6 186/3/6 189/3/6
f 187/1/6 188/1/6 190/1/6
f 188/1/6 189/1/6 190/1/6
f 190/1/6 189/1/6 191/1/6
f 191/1/6 189/1/6 192/1/6
f 192/1/6 189/1/6 193/1/6
f 193/1/6 189/1/6 194/1/6
f 191/3/6 192/3/6 195/3/6
f 192/2/6 193/2/6 196/2/6
f 195/3/6 192/3/6 196/3/6
f 196/2/6 193/2/6 197/2/6
