# MagicaVoxel @ Ephtracy

# group
o 

# material
mtllib mesh_hanger_ship_door_bottom_middle.mtl
usemtl palette

# normals
vn -1 0 0
vn 1 0 0
vn 0 0 1
vn 0 0 -1
vn 0 -1 0
vn 0 1 0

# texcoords
vt 0.373047 0.5
vt 0.837891 0.5
vt 0.986328 0.5
vt 0.990234 0.5
vt 0.994141 0.5

# verts
v -2.2 -2.2 2.2
v -2.2 -2.2 -2.2
v -2.2 -2 2.2
v -2.2 -2 -2.2
v 1.8 -1.6 2.2
v 1.8 -1.6 -2.2
v 1.8 -1.5 2.2
v 1.8 -1.5 -2.2
v 1.9 -1.5 2.2
v 1.9 -1.5 -2.2
v 1.9 -1.3 2.2
v 1.9 -1.3 -2.2
v 1.9 -1.2 2.2
v 1.9 -1.2 -2.2
v 1.9 -1.1 2.2
v 1.9 -1.1 -2.2
v 1.9 -0.9 2.2
v 1.9 -0.9 -2.2
v 1.9 -0.7 2.2
v 1.9 -0.7 -2.2
v 1.9 -0.6 2.2
v 1.9 -0.6 -2.2
v 1.9 -0.4 2.2
v 1.9 -0.4 -2.2
v 1.9 -0.2 2.2
v 1.9 -0.2 -2.2
v 1.9 -0.0999999 2.2
v 1.9 -0.0999999 -2.2
v 1.9 0.1 2.2
v 1.9 0.1 -2.2
v 1.9 0.3 2.2
v 1.9 0.3 -2.2
v 1.9 0.4 2.2
v 1.9 0.4 -2.2
v 1.9 0.6 2.2
v 1.9 0.6 -2.2
v 1.9 0.8 2.2
v 1.9 0.8 -2.2
v 1.9 0.9 2.2
v 1.9 0.9 -2.2
v 1.9 1.1 2.2
v 1.9 1.1 -2.2
v 1.9 1.3 2.2
v 1.9 1.3 -2.2
v 1.9 1.4 2.2
v 1.9 1.4 -2.2
v 1.9 1.6 2.2
v 1.9 1.6 -2.2
v 1.9 1.8 2.2
v 1.9 1.8 -2.2
v 1.9 1.9 2.2
v 1.9 1.9 -2.2
v 1.9 2.1 2.2
v 1.9 2.1 -2.2
v 1.9 2.2 2.2
v 1.9 2.2 -2.2
v 2 -2 2.2
v 2 -2 -2.2
v 2 -1.8 2.2
v 2 -1.8 -2.2
v 2 -1.6 2.2
v 2 -1.6 -2.2
v 2.1 -1.5 2.2
v 2.1 -1.5 -2.2
v 2.1 2.2 2.2
v 2.1 2.2 -2.2
v 2.2 -2.2 2.2
v 2.2 -2.2 -2.2
v 2.2 -2 2.2
v 2.2 -2 -2.2
v 2.2 -1.8 2.2
v 2.2 -1.8 -2.2
v 2.2 -1.6 2.2
v 2.2 -1.6 -2.2
v 2.2 -1.5 2.2
v 2.2 -1.5 -2.2
v -2.2 -2.2 2.2
v -2.2 -2 2.2
v 1 -2.1 2.2
v 1 -2 2.2
v 1.1 -2.1 2.2
v 1.1 -2 2.2
v 1.3 -2.1 2.2
v 1.3 -2 2.2
v 1.4 -2.1 2.2
v 1.4 -2 2.2
v 1.5 -2.1 2.2
v 1.5 -2 2.2
v 1.6 -2.1 2.2
v 1.6 -2 2.2
v 1.8 -2.1 2.2
v 1.8 -2 2.2
v 1.8 -1.6 2.2
v 1.8 -1.5 2.2
v 1.9 -1.5 2.2
v 1.9 -1.3 2.2
v 1.9 -1.2 2.2
v 1.9 -1.1 2.2
v 1.9 -0.9 2.2
v 1.9 -0.7 2.2
v 1.9 -0.6 2.2
v 1.9 -0.4 2.2
v 1.9 -0.2 2.2
v 1.9 -0.0999999 2.2
v 1.9 0.1 2.2
v 1.9 0.3 2.2
v 1.9 0.4 2.2
v 1.9 0.6 2.2
v 1.9 0.8 2.2
v 1.9 0.9 2.2
v 1.9 1.1 2.2
v 1.9 1.3 2.2
v 1.9 1.4 2.2
v 1.9 1.6 2.2
v 1.9 1.8 2.2
v 1.9 1.9 2.2
v 1.9 2.1 2.2
v 1.9 2.2 2.2
v 2 -2.1 2.2
v 2 -2 2.2
v 2 -1.8 2.2
v 2 -1.6 2.2
v 2 -1.5 2.2
v 2 -1.3 2.2
v 2 -1.2 2.2
v 2 -1.1 2.2
v 2 -0.9 2.2
v 2 -0.7 2.2
v 2 -0.6 2.2
v 2 -0.4 2.2
v 2 -0.2 2.2
v 2 -0.0999999 2.2
v 2 0.1 2.2
v 2 0.3 2.2
v 2 0.4 2.2
v 2 0.6 2.2
v 2 0.8 2.2
v 2 0.9 2.2
v 2 1.1 2.2
v 2 1.3 2.2
v 2 1.4 2.2
v 2 1.6 2.2
v 2 1.8 2.2
v 2 1.9 2.2
v 2 2.1 2.2
v 2.1 -1.5 2.2
v 2.1 2.2 2.2
v 2.2 -2.2 2.2
v 2.2 -2 2.2
v 2.2 -1.8 2.2
v 2.2 -1.6 2.2
v 2.2 -1.5 2.2
v -2.2 -2.2 -2.2
v -2.2 -2 -2.2
v 1 -2.1 -2.2
v 1 -2 -2.2
v 1.1 -2.1 -2.2
v 1.1 -2 -2.2
v 1.3 -2.1 -2.2
v 1.3 -2 -2.2
v 1.4 -2.1 -2.2
v 1.4 -2 -2.2
v 1.5 -2.1 -2.2
v 1.5 -2 -2.2
v 1.6 -2.1 -2.2
v 1.6 -2 -2.2
v 1.8 -2.1 -2.2
v 1.8 -2 -2.2
v 1.8 -1.6 -2.2
v 1.8 -1.5 -2.2
v 1.9 -1.5 -2.2
v 1.9 -1.3 -2.2
v 1.9 -1.2 -2.2
v 1.9 -1.1 -2.2
v 1.9 -0.9 -2.2
v 1.9 -0.7 -2.2
v 1.9 -0.6 -2.2
v 1.9 -0.4 -2.2
v 1.9 -0.2 -2.2
v 1.9 -0.0999999 -2.2
v 1.9 0.1 -2.2
v 1.9 0.3 -2.2
v 1.9 0.4 -2.2
v 1.9 0.6 -2.2
v 1.9 0.8 -2.2
v 1.9 0.9 -2.2
v 1.9 1.1 -2.2
v 1.9 1.3 -2.2
v 1.9 1.4 -2.2
v 1.9 1.6 -2.2
v 1.9 1.8 -2.2
v 1.9 1.9 -2.2
v 1.9 2.1 -2.2
v 1.9 2.2 -2.2
v 2 -2.1 -2.2
v 2 -2 -2.2
v 2 -1.8 -2.2
v 2 -1.6 -2.2
v 2 -1.5 -2.2
v 2 -1.3 -2.2
v 2 -1.2 -2.2
v 2 -1.1 -2.2
v 2 -0.9 -2.2
v 2 -0.7 -2.2
v 2 -0.6 -2.2
v 2 -0.4 -2.2
v 2 -0.2 -2.2
v 2 -0.0999999 -2.2
v 2 0.1 -2.2
v 2 0.3 -2.2
v 2 0.4 -2.2
v 2 0.6 -2.2
v 2 0.8 -2.2
v 2 0.9 -2.2
v 2 1.1 -2.2
v 2 1.3 -2.2
v 2 1.4 -2.2
v 2 1.6 -2.2
v 2 1.8 -2.2
v 2 1.9 -2.2
v 2 2.1 -2.2
v 2.1 -1.5 -2.2
v 2.1 2.2 -2.2
v 2.2 -2.2 -2.2
v 2.2 -2 -2.2
v 2.2 -1.8 -2.2
v 2.2 -1.6 -2.2
v 2.2 -1.5 -2.2
v -2.2 -2.2 2.2
v 2.2 -2.2 2.2
v -2.2 -2.2 -2.2
v 2.2 -2.2 -2.2
v 1.8 -1.6 2.2
v 2 -1.6 2.2
v 1.8 -1.6 -2.2
v 2 -1.6 -2.2
v -2.2 -2 2.2
v 1 -2 2.2
v 1.1 -2 2.2
v 1.3 -2 2.2
v 1.4 -2 2.2
v 1.5 -2 2.2
v 1.6 -2 2.2
v 1.8 -2 2.2
v 2 -2 2.2
v -2.2 -2 -2.2
v 1 -2 -2.2
v 1.1 -2 -2.2
v 1.3 -2 -2.2
v 1.4 -2 -2.2
v 1.5 -2 -2.2
v 1.6 -2 -2.2
v 1.8 -2 -2.2
v 2 -2 -2.2
v 1.8 -1.5 2.2
v 1.9 -1.5 2.2
v 2.1 -1.5 2.2
v 2.2 -1.5 2.2
v 1.8 -1.5 -2.2
v 1.9 -1.5 -2.2
v 2.1 -1.5 -2.2
v 2.2 -1.5 -2.2
v 1.9 2.2 2.2
v 2.1 2.2 2.2
v 1.9 2.2 -2.2
v 2.1 2.2 -2.2

# faces
f 3/3/1 2/3/1 1/3/1
f 4/3/1 2/3/1 3/3/1
f 7/2/1 6/2/1 5/2/1
f 8/2/1 6/2/1 7/2/1
f 11/4/1 10/4/1 9/4/1
f 12/4/1 10/4/1 11/4/1
f 13/3/1 12/3/1 11/3/1
f 14/3/1 12/3/1 13/3/1
f 15/5/1 14/5/1 13/5/1
f 16/5/1 14/5/1 15/5/1
f 17/4/1 16/4/1 15/4/1
f 18/4/1 16/4/1 17/4/1
f 19/3/1 18/3/1 17/3/1
f 20/3/1 18/3/1 19/3/1
f 21/5/1 20/5/1 19/5/1
f 22/5/1 20/5/1 21/5/1
f 23/4/1 22/4/1 21/4/1
f 24/4/1 22/4/1 23/4/1
f 25/3/1 24/3/1 23/3/1
f 26/3/1 24/3/1 25/3/1
f 27/5/1 26/5/1 25/5/1
f 28/5/1 26/5/1 27/5/1
f 29/4/1 28/4/1 27/4/1
f 30/4/1 28/4/1 29/4/1
f 31/3/1 30/3/1 29/3/1
f 32/3/1 30/3/1 31/3/1
f 33/5/1 32/5/1 31/5/1
f 34/5/1 32/5/1 33/5/1
f 35/4/1 34/4/1 33/4/1
f 36/4/1 34/4/1 35/4/1
f 37/3/1 36/3/1 35/3/1
f 38/3/1 36/3/1 37/3/1
f 39/5/1 38/5/1 37/5/1
f 40/5/1 38/5/1 39/5/1
f 41/4/1 40/4/1 39/4/1
f 42/4/1 40/4/1 41/4/1
f 43/3/1 42/3/1 41/3/1
f 44/3/1 42/3/1 43/3/1
f 45/5/1 44/5/1 43/5/1
f 46/5/1 44/5/1 45/5/1
f 47/4/1 46/4/1 45/4/1
f 48/4/1 46/4/1 47/4/1
f 49/3/1 48/3/1 47/3/1
f 50/3/1 48/3/1 49/3/1
f 51/5/1 50/5/1 49/5/1
f 52/5/1 50/5/1 51/5/1
f 53/4/1 52/4/1 51/4/1
f 54/4/1 52/4/1 53/4/1
f 55/3/1 54/3/1 53/3/1
f 56/3/1 54/3/1 55/3/1
f 59/2/1 58/2/1 57/2/1
f 60/2/1 58/2/1 59/2/1
f 61/4/1 60/4/1 59/4/1
f 62/4/1 60/4/1 61/4/1
f 63/3/2 64/3/2 65/3/2
f 65/3/2 64/3/2 66/3/2
f 67/3/2 68/3/2 69/3/2
f 69/3/2 68/3/2 70/3/2
f 69/2/2 70/2/2 71/2/2
f 71/2/2 70/2/2 72/2/2
f 71/4/2 72/4/2 73/4/2
f 73/4/2 72/4/2 74/4/2
f 73/2/2 74/2/2 75/2/2
f 75/2/2 74/2/2 76/2/2
f 79/3/3 78/3/3 77/3/3
f 80/3/3 78/3/3 79/3/3
f 81/3/3 79/3/3 77/3/3
f 81/4/3 80/4/3 79/4/3
f 82/4/3 80/4/3 81/4/3
f 83/3/3 81/3/3 77/3/3
f 83/5/3 82/5/3 81/5/3
f 84/5/3 82/5/3 83/5/3
f 85/3/3 83/3/3 77/3/3
f 85/4/3 84/4/3 83/4/3
f 86/4/3 84/4/3 85/4/3
f 87/3/3 85/3/3 77/3/3
f 87/1/3 86/1/3 85/1/3
f 88/1/3 86/1/3 87/1/3
f 89/3/3 87/3/3 77/3/3
f 89/4/3 88/4/3 87/4/3
f 90/4/3 88/4/3 89/4/3
f 91/3/3 89/3/3 77/3/3
f 91/5/3 90/5/3 89/5/3
f 92/5/3 90/5/3 91/5/3
f 95/2/3 94/2/3 93/2/3
f 119/4/3 92/4/3 91/4/3
f 119/3/3 91/3/3 77/3/3
f 120/4/3 92/4/3 119/4/3
f 122/2/3 95/2/3 93/2/3
f 123/4/3 96/4/3 95/4/3
f 123/2/3 95/2/3 122/2/3
f 124/3/3 97/3/3 96/3/3
f 124/4/3 96/4/3 123/4/3
f 125/5/3 98/5/3 97/5/3
f 125/3/3 97/3/3 124/3/3
f 126/4/3 99/4/3 98/4/3
f 126/5/3 98/5/3 125/5/3
f 127/3/3 100/3/3 99/3/3
f 127/4/3 99/4/3 126/4/3
f 128/5/3 101/5/3 100/5/3
f 128/3/3 100/3/3 127/3/3
f 129/4/3 102/4/3 101/4/3
f 129/5/3 101/5/3 128/5/3
f 130/3/3 103/3/3 102/3/3
f 130/4/3 102/4/3 129/4/3
f 131/5/3 104/5/3 103/5/3
f 131/3/3 103/3/3 130/3/3
f 132/4/3 105/4/3 104/4/3
f 132/5/3 104/5/3 131/5/3
f 133/3/3 106/3/3 105/3/3
f 133/4/3 105/4/3 132/4/3
f 134/5/3 107/5/3 106/5/3
f 134/3/3 106/3/3 133/3/3
f 135/4/3 108/4/3 107/4/3
f 135/5/3 107/5/3 134/5/3
f 136/3/3 109/3/3 108/3/3
f 136/4/3 108/4/3 135/4/3
f 137/5/3 110/5/3 109/5/3
f 137/3/3 109/3/3 136/3/3
f 138/4/3 111/4/3 110/4/3
f 138/5/3 110/5/3 137/5/3
f 139/3/3 112/3/3 111/3/3
f 139/4/3 111/4/3 138/4/3
f 140/5/3 113/5/3 112/5/3
f 140/3/3 112/3/3 139/3/3
f 141/4/3 114/4/3 113/4/3
f 141/5/3 113/5/3 140/5/3
f 142/3/3 115/3/3 114/3/3
f 142/4/3 114/4/3 141/4/3
f 143/5/3 116/5/3 115/5/3
f 143/3/3 115/3/3 142/3/3
f 144/4/3 117/4/3 116/4/3
f 144/5/3 116/5/3 143/5/3
f 145/3/3 118/3/3 117/3/3
f 145/4/3 117/4/3 144/4/3
f 146/3/3 144/3/3 143/3/3
f 146/3/3 143/3/3 142/3/3
f 146/3/3 145/3/3 144/3/3
f 146/2/3 123/2/3 122/2/3
f 146/3/3 124/3/3 123/3/3
f 146/3/3 125/3/3 124/3/3
f 146/3/3 142/3/3 141/3/3
f 146/3/3 141/3/3 140/3/3
f 146/3/3 140/3/3 139/3/3
f 146/3/3 139/3/3 138/3/3
f 146/3/3 138/3/3 137/3/3
f 146/3/3 137/3/3 136/3/3
f 146/3/3 136/3/3 135/3/3
f 146/3/3 135/3/3 134/3/3
f 146/3/3 134/3/3 133/3/3
f 146/3/3 133/3/3 132/3/3
f 146/3/3 132/3/3 131/3/3
f 146/3/3 131/3/3 130/3/3
f 146/3/3 130/3/3 129/3/3
f 146/3/3 129/3/3 128/3/3
f 146/3/3 128/3/3 127/3/3
f 146/3/3 127/3/3 126/3/3
f 146/3/3 126/3/3 125/3/3
f 147/3/3 118/3/3 145/3/3
f 147/3/3 145/3/3 146/3/3
f 148/3/3 120/3/3 119/3/3
f 148/3/3 119/3/3 77/3/3
f 149/2/3 121/2/3 120/2/3
f 149/3/3 120/3/3 148/3/3
f 150/4/3 122/4/3 121/4/3
f 150/2/3 121/2/3 149/2/3
f 151/2/3 146/2/3 122/2/3
f 151/4/3 122/4/3 150/4/3
f 152/2/3 146/2/3 151/2/3
f 153/3/4 154/3/4 155/3/4
f 155/3/4 154/3/4 156/3/4
f 153/3/4 155/3/4 157/3/4
f 155/4/4 156/4/4 157/4/4
f 157/4/4 156/4/4 158/4/4
f 153/3/4 157/3/4 159/3/4
f 157/5/4 158/5/4 159/5/4
f 159/5/4 158/5/4 160/5/4
f 153/3/4 159/3/4 161/3/4
f 159/4/4 160/4/4 161/4/4
f 161/4/4 160/4/4 162/4/4
f 153/3/4 161/3/4 163/3/4
f 161/1/4 162/1/4 163/1/4
f 163/1/4 162/1/4 164/1/4
f 153/3/4 163/3/4 165/3/4
f 163/4/4 164/4/4 165/4/4
f 165/4/4 164/4/4 166/4/4
f 153/3/4 165/3/4 167/3/4
f 165/5/4 166/5/4 167/5/4
f 167/5/4 166/5/4 168/5/4
f 169/2/4 170/2/4 171/2/4
f 167/4/4 168/4/4 195/4/4
f 153/3/4 167/3/4 195/3/4
f 195/4/4 168/4/4 196/4/4
f 169/2/4 171/2/4 198/2/4
f 171/4/4 172/4/4 199/4/4
f 198/2/4 171/2/4 199/2/4
f 172/3/4 173/3/4 200/3/4
f 199/4/4 172/4/4 200/4/4
f 173/5/4 174/5/4 201/5/4
f 200/3/4 173/3/4 201/3/4
f 174/4/4 175/4/4 202/4/4
f 201/5/4 174/5/4 202/5/4
f 175/3/4 176/3/4 203/3/4
f 202/4/4 175/4/4 203/4/4
f 176/5/4 177/5/4 204/5/4
f 203/3/4 176/3/4 204/3/4
f 177/4/4 178/4/4 205/4/4
f 204/5/4 177/5/4 205/5/4
f 178/3/4 179/3/4 206/3/4
f 205/4/4 178/4/4 206/4/4
f 179/5/4 180/5/4 207/5/4
f 206/3/4 179/3/4 207/3/4
f 180/4/4 181/4/4 208/4/4
f 207/5/4 180/5/4 208/5/4
f 181/3/4 182/3/4 209/3/4
f 208/4/4 181/4/4 209/4/4
f 182/5/4 183/5/4 210/5/4
f 209/3/4 182/3/4 210/3/4
f 183/4/4 184/4/4 211/4/4
f 210/5/4 183/5/4 211/5/4
f 184/3/4 185/3/4 212/3/4
f 211/4/4 184/4/4 212/4/4
f 185/5/4 186/5/4 213/5/4
f 212/3/4 185/3/4 213/3/4
f 186/4/4 187/4/4 214/4/4
f 213/5/4 186/5/4 214/5/4
f 187/3/4 188/3/4 215/3/4
f 214/4/4 187/4/4 215/4/4
f 188/5/4 189/5/4 216/5/4
f 215/3/4 188/3/4 216/3/4
f 189/4/4 190/4/4 217/4/4
f 216/5/4 189/5/4 217/5/4
f 190/3/4 191/3/4 218/3/4
f 217/4/4 190/4/4 218/4/4
f 191/5/4 192/5/4 219/5/4
f 218/3/4 191/3/4 219/3/4
f 192/4/4 193/4/4 220/4/4
f 219/5/4 192/5/4 220/5/4
f 193/3/4 194/3/4 221/3/4
f 220/4/4 193/4/4 221/4/4
f 219/3/4 220/3/4 222/3/4
f 218/3/4 219/3/4 222/3/4
f 220/3/4 221/3/4 222/3/4
f 198/2/4 199/2/4 222/2/4
f 199/3/4 200/3/4 222/3/4
f 200/3/4 201/3/4 222/3/4
f 217/3/4 218/3/4 222/3/4
f 216/3/4 217/3/4 222/3/4
f 215/3/4 216/3/4 222/3/4
f 214/3/4 215/3/4 222/3/4
f 213/3/4 214/3/4 222/3/4
f 212/3/4 213/3/4 222/3/4
f 211/3/4 212/3/4 222/3/4
f 210/3/4 211/3/4 222/3/4
f 209/3/4 210/3/4 222/3/4
f 208/3/4 209/3/4 222/3/4
f 207/3/4 208/3/4 222/3/4
f 206/3/4 207/3/4 222/3/4
f 205/3/4 206/3/4 222/3/4
f 204/3/4 205/3/4 222/3/4
f 203/3/4 204/3/4 222/3/4
f 202/3/4 203/3/4 222/3/4
f 201/3/4 202/3/4 222/3/4
f 221/3/4 194/3/4 223/3/4
f 222/3/4 221/3/4 223/3/4
f 195/3/4 196/3/4 224/3/4
f 153/3/4 195/3/4 224/3/4
f 196/2/4 197/2/4 225/2/4
f 224/3/4 196/3/4 225/3/4
f 197/4/4 198/4/4 226/4/4
f 225/2/4 197/2/4 226/2/4
f 198/2/4 222/2/4 227/2/4
f 226/4/4 198/4/4 227/4/4
f 227/2/4 222/2/4 228/2/4
f 231/3/5 230/3/5 229/3/5
f 232/3/5 230/3/5 231/3/5
f 235/2/5 234/2/5 233/2/5
f 236/2/5 234/2/5 235/2/5
f 237/3/6 238/3/6 246/3/6
f 238/4/6 239/4/6 247/4/6
f 246/3/6 238/3/6 247/3/6
f 239/5/6 240/5/6 248/5/6
f 247/4/6 239/4/6 248/4/6
f 240/4/6 241/4/6 249/4/6
f 248/5/6 240/5/6 249/5/6
f 241/1/6 242/1/6 250/1/6
f 249/4/6 241/4/6 250/4/6
f 242/4/6 243/4/6 251/4/6
f 250/1/6 242/1/6 251/1/6
f 243/5/6 244/5/6 252/5/6
f 251/4/6 243/4/6 252/4/6
f 244/4/6 245/4/6 253/4/6
f 252/5/6 244/5/6 253/5/6
f 253/4/6 245/4/6 254/4/6
f 255/2/6 256/2/6 259/2/6
f 259/2/6 256/2/6 260/2/6
f 257/2/6 258/2/6 261/2/6
f 261/2/6 258/2/6 262/2/6
f 263/3/6 264/3/6 265/3/6
f 265/3/6 264/3/6 266/3/6
