# MagicaVoxel @ Ephtracy

# group
o 

# material
mtllib mesh_hanger_wall_grid_straight_mid.mtl
usemtl palette

# normals
vn -1 0 0
vn 1 0 0
vn 0 0 1
vn 0 0 -1
vn 0 -1 0
vn 0 1 0

# texcoords
vt 0.837891 0.5
vt 0.841797 0.5
vt 0.986328 0.5
vt 0.990234 0.5
vt 0.994141 0.5

# verts
v -2.2 -2.2 2.2
v -2.2 -2.2 2
v -2.2 2.2 2.2
v -2.2 2.2 2
v 2.2 -2.2 2.2
v 2.2 -2.2 2.1
v 2.2 -2.2 2
v 2.2 2.2 2.2
v 2.2 2.2 2.1
v 2.2 2.2 2
v -2.2 -2.2 2.2
v -2.2 2.2 2.2
v 2.2 -2.2 2.2
v 2.2 2.2 2.2
v -2.2 -2.2 2
v -2.2 2.2 2
v -2.1 -2.2 2
v -2.1 2.2 2
v -2 -2.2 2
v -2 2.2 2
v -1.9 -2.2 2
v -1.9 2.2 2
v -0.7 -2.2 2
v -0.7 2.2 2
v -0.6 -2.2 2
v -0.6 2.2 2
v -0.5 -2.2 2
v -0.5 2.2 2
v -0.4 -2.2 2
v -0.4 2.2 2
v -0.2 -2.2 2
v -0.2 2.2 2
v -0.0999999 -2.2 2
v -0.0999999 2.2 2
v 0.2 -2.2 2
v 0.2 2.2 2
v 0.4 -2.2 2
v 0.4 2.2 2
v 0.5 -2.2 2
v 0.5 2.2 2
v 0.8 -2.2 2
v 0.8 2.2 2
v 1 -2.2 2
v 1 2.2 2
v 1.1 -2.2 2
v 1.1 2.2 2
v 1.4 -2.2 2
v 1.4 2.2 2
v 1.6 -2.2 2
v 1.6 2.2 2
v 1.7 -2.2 2
v 1.7 2.2 2
v 2 -2.2 2
v 2 2.2 2
v 2.2 -2.2 2
v 2.2 2.2 2
v -2.2 -2.2 2.2
v 2.2 -2.2 2.2
v -2.1 -2.2 2.1
v -2 -2.2 2.1
v -1.9 -2.2 2.1
v -0.7 -2.2 2.1
v -0.6 -2.2 2.1
v -0.5 -2.2 2.1
v -0.4 -2.2 2.1
v -0.2 -2.2 2.1
v -0.0999999 -2.2 2.1
v 0.2 -2.2 2.1
v 0.4 -2.2 2.1
v 0.5 -2.2 2.1
v 0.8 -2.2 2.1
v 1 -2.2 2.1
v 1.1 -2.2 2.1
v 1.4 -2.2 2.1
v 1.6 -2.2 2.1
v 1.7 -2.2 2.1
v 2 -2.2 2.1
v 2.2 -2.2 2.1
v -2.2 -2.2 2
v -2.1 -2.2 2
v -2 -2.2 2
v -1.9 -2.2 2
v -0.7 -2.2 2
v -0.6 -2.2 2
v -0.5 -2.2 2
v -0.4 -2.2 2
v -0.2 -2.2 2
v -0.0999999 -2.2 2
v 0.2 -2.2 2
v 0.4 -2.2 2
v 0.5 -2.2 2
v 0.8 -2.2 2
v 1 -2.2 2
v 1.1 -2.2 2
v 1.4 -2.2 2
v 1.6 -2.2 2
v 1.7 -2.2 2
v 2 -2.2 2
v 2.2 -2.2 2
v -2.2 2.2 2.2
v 2.2 2.2 2.2
v -2.1 2.2 2.1
v -2 2.2 2.1
v -1.9 2.2 2.1
v -0.7 2.2 2.1
v -0.6 2.2 2.1
v -0.5 2.2 2.1
v -0.4 2.2 2.1
v -0.2 2.2 2.1
v -0.0999999 2.2 2.1
v 0.2 2.2 2.1
v 0.4 2.2 2.1
v 0.5 2.2 2.1
v 0.8 2.2 2.1
v 1 2.2 2.1
v 1.1 2.2 2.1
v 1.4 2.2 2.1
v 1.6 2.2 2.1
v 1.7 2.2 2.1
v 2 2.2 2.1
v 2.2 2.2 2.1
v -2.2 2.2 2
v -2.1 2.2 2
v -2 2.2 2
v -1.9 2.2 2
v -0.7 2.2 2
v -0.6 2.2 2
v -0.5 2.2 2
v -0.4 2.2 2
v -0.2 2.2 2
v -0.0999999 2.2 2
v 0.2 2.2 2
v 0.4 2.2 2
v 0.5 2.2 2
v 0.8 2.2 2
v 1 2.2 2
v 1.1 2.2 2
v 1.4 2.2 2
v 1.6 2.2 2
v 1.7 2.2 2
v 2 2.2 2
v 2.2 2.2 2

# faces
f 3/3/1 2/3/1 1/3/1
f 4/3/1 2/3/1 3/3/1
f 5/3/2 6/3/2 8/3/2
f 6/5/2 7/5/2 9/5/2
f 8/3/2 6/3/2 9/3/2
f 9/5/2 7/5/2 10/5/2
f 13/3/3 12/3/3 11/3/3
f 14/3/3 12/3/3 13/3/3
f 15/3/4 16/3/4 17/3/4
f 17/3/4 16/3/4 18/3/4
f 17/4/4 18/4/4 19/4/4
f 19/4/4 18/4/4 20/4/4
f 19/5/4 20/5/4 21/5/4
f 21/5/4 20/5/4 22/5/4
f 21/3/4 22/3/4 23/3/4
f 23/3/4 22/3/4 24/3/4
f 23/5/4 24/5/4 25/5/4
f 25/5/4 24/5/4 26/5/4
f 25/4/4 26/4/4 27/4/4
f 27/4/4 26/4/4 28/4/4
f 27/3/4 28/3/4 29/3/4
f 29/3/4 28/3/4 30/3/4
f 29/1/4 30/1/4 31/1/4
f 31/1/4 30/1/4 32/1/4
f 31/2/4 32/2/4 33/2/4
f 33/2/4 32/2/4 34/2/4
f 33/3/4 34/3/4 35/3/4
f 35/3/4 34/3/4 36/3/4
f 35/1/4 36/1/4 37/1/4
f 37/1/4 36/1/4 38/1/4
f 37/2/4 38/2/4 39/2/4
f 39/2/4 38/2/4 40/2/4
f 39/3/4 40/3/4 41/3/4
f 41/3/4 40/3/4 42/3/4
f 41/1/4 42/1/4 43/1/4
f 43/1/4 42/1/4 44/1/4
f 43/2/4 44/2/4 45/2/4
f 45/2/4 44/2/4 46/2/4
f 45/3/4 46/3/4 47/3/4
f 47/3/4 46/3/4 48/3/4
f 47/1/4 48/1/4 49/1/4
f 49/1/4 48/1/4 50/1/4
f 49/2/4 50/2/4 51/2/4
f 51/2/4 50/2/4 52/2/4
f 51/3/4 52/3/4 53/3/4
f 53/3/4 52/3/4 54/3/4
f 53/5/4 54/5/4 55/5/4
f 55/5/4 54/5/4 56/5/4
f 59/3/5 58/3/5 57/3/5
f 60/3/5 58/3/5 59/3/5
f 61/3/5 58/3/5 60/3/5
f 62/3/5 58/3/5 61/3/5
f 63/3/5 58/3/5 62/3/5
f 64/3/5 58/3/5 63/3/5
f 65/3/5 58/3/5 64/3/5
f 66/3/5 58/3/5 65/3/5
f 67/3/5 58/3/5 66/3/5
f 68/3/5 58/3/5 67/3/5
f 69/3/5 58/3/5 68/3/5
f 70/3/5 58/3/5 69/3/5
f 71/3/5 58/3/5 70/3/5
f 72/3/5 58/3/5 71/3/5
f 73/3/5 58/3/5 72/3/5
f 74/3/5 58/3/5 73/3/5
f 75/3/5 58/3/5 74/3/5
f 76/3/5 58/3/5 75/3/5
f 77/3/5 58/3/5 76/3/5
f 78/3/5 58/3/5 77/3/5
f 79/3/5 59/3/5 57/3/5
f 80/4/5 60/4/5 59/4/5
f 80/3/5 59/3/5 79/3/5
f 81/5/5 61/5/5 60/5/5
f 81/4/5 60/4/5 80/4/5
f 82/3/5 62/3/5 61/3/5
f 82/5/5 61/5/5 81/5/5
f 83/5/5 63/5/5 62/5/5
f 83/3/5 62/3/5 82/3/5
f 84/4/5 64/4/5 63/4/5
f 84/5/5 63/5/5 83/5/5
f 85/3/5 65/3/5 64/3/5
f 85/4/5 64/4/5 84/4/5
f 86/1/5 66/1/5 65/1/5
f 86/3/5 65/3/5 85/3/5
f 87/2/5 67/2/5 66/2/5
f 87/1/5 66/1/5 86/1/5
f 88/3/5 68/3/5 67/3/5
f 88/2/5 67/2/5 87/2/5
f 89/1/5 69/1/5 68/1/5
f 89/3/5 68/3/5 88/3/5
f 90/2/5 70/2/5 69/2/5
f 90/1/5 69/1/5 89/1/5
f 91/3/5 71/3/5 70/3/5
f 91/2/5 70/2/5 90/2/5
f 92/1/5 72/1/5 71/1/5
f 92/3/5 71/3/5 91/3/5
f 93/2/5 73/2/5 72/2/5
f 93/1/5 72/1/5 92/1/5
f 94/3/5 74/3/5 73/3/5
f 94/2/5 73/2/5 93/2/5
f 95/1/5 75/1/5 74/1/5
f 95/3/5 74/3/5 94/3/5
f 96/2/5 76/2/5 75/2/5
f 96/1/5 75/1/5 95/1/5
f 97/3/5 77/3/5 76/3/5
f 97/2/5 76/2/5 96/2/5
f 98/5/5 78/5/5 77/5/5
f 98/3/5 77/3/5 97/3/5
f 99/5/5 78/5/5 98/5/5
f 100/3/6 101/3/6 102/3/6
f 102/3/6 101/3/6 103/3/6
f 103/3/6 101/3/6 104/3/6
f 104/3/6 101/3/6 105/3/6
f 105/3/6 101/3/6 106/3/6
f 106/3/6 101/3/6 107/3/6
f 107/3/6 101/3/6 108/3/6
f 108/3/6 101/3/6 109/3/6
f 109/3/6 101/3/6 110/3/6
f 110/3/6 101/3/6 111/3/6
f 111/3/6 101/3/6 112/3/6
f 112/3/6 101/3/6 113/3/6
f 113/3/6 101/3/6 114/3/6
f 114/3/6 101/3/6 115/3/6
f 115/3/6 101/3/6 116/3/6
f 116/3/6 101/3/6 117/3/6
f 117/3/6 101/3/6 118/3/6
f 118/3/6 101/3/6 119/3/6
f 119/3/6 101/3/6 120/3/6
f 120/3/6 101/3/6 121/3/6
f 100/3/6 102/3/6 122/3/6
f 102/4/6 103/4/6 123/4/6
f 122/3/6 102/3/6 123/3/6
f 103/5/6 104/5/6 124/5/6
f 123/4/6 103/4/6 124/4/6
f 104/3/6 105/3/6 125/3/6
f 124/5/6 104/5/6 125/5/6
f 105/5/6 106/5/6 126/5/6
f 125/3/6 105/3/6 126/3/6
f 106/4/6 107/4/6 127/4/6
f 126/5/6 106/5/6 127/5/6
f 107/3/6 108/3/6 128/3/6
f 127/4/6 107/4/6 128/4/6
f 108/1/6 109/1/6 129/1/6
f 128/3/6 108/3/6 129/3/6
f 109/2/6 110/2/6 130/2/6
f 129/1/6 109/1/6 130/1/6
f 110/3/6 111/3/6 131/3/6
f 130/2/6 110/2/6 131/2/6
f 111/1/6 112/1/6 132/1/6
f 131/3/6 111/3/6 132/3/6
f 112/2/6 113/2/6 133/2/6
f 132/1/6 112/1/6 133/1/6
f 113/3/6 114/3/6 134/3/6
f 133/2/6 113/2/6 134/2/6
f 114/1/6 115/1/6 135/1/6
f 134/3/6 114/3/6 135/3/6
f 115/2/6 116/2/6 136/2/6
f 135/1/6 115/1/6 136/1/6
f 116/3/6 117/3/6 137/3/6
f 136/2/6 116/2/6 137/2/6
f 117/1/6 118/1/6 138/1/6
f 137/3/6 117/3/6 138/3/6
f 118/2/6 119/2/6 139/2/6
f 138/1/6 118/1/6 139/1/6
f 119/3/6 120/3/6 140/3/6
f 139/2/6 119/2/6 140/2/6
f 120/5/6 121/5/6 141/5/6
f 140/3/6 120/3/6 141/3/6
f 141/5/6 121/5/6 142/5/6
