# MagicaVoxel @ Ephtracy

# group
o 

# material
mtllib mesh_hanger_wall_pillar_top.mtl
usemtl palette

# normals
vn -1 0 0
vn 1 0 0
vn 0 0 1
vn 0 0 -1
vn 0 -1 0
vn 0 1 0

# texcoords
vt 0.373047 0.5
vt 0.986328 0.5
vt 0.990234 0.5
vt 0.994141 0.5

# verts
v -2.2 2 2.2
v -2.2 2 -0.4
v -2.2 2 -0.5
v -2.2 2 -0.7
v -2.2 2 -0.8
v -2.2 2 -0.9
v -2.2 2 -1
v -2.2 2 -1.2
v -2.2 2 -2.2
v -2.2 2.2 2.2
v -2.2 2.2 -0.4
v -2.2 2.2 -0.5
v -2.2 2.2 -0.7
v -2.2 2.2 -0.8
v -2.2 2.2 -0.9
v -2.2 2.2 -1
v -2.2 2.2 -1.2
v -2.2 2.2 -2.2
v 2 -2.2 2.2
v 2 -2.2 2
v 2 2 2.2
v 2 2 2
v 2.2 -2.2 2.2
v 2.2 -2.2 2
v 2.2 2 2.2
v 2.2 2 2
v 2.2 2 1.8
v 2.2 2 1.6
v 2.2 2 1.5
v 2.2 2 1.4
v 2.2 2 1.3
v 2.2 2 1.1
v 2.2 2 1
v 2.2 2 -2.2
v 2.2 2.2 2.2
v 2.2 2.2 2
v 2.2 2.2 1.8
v 2.2 2.2 1.6
v 2.2 2.2 1.5
v 2.2 2.2 1.4
v 2.2 2.2 1.3
v 2.2 2.2 1.1
v 2.2 2.2 1
v 2.2 2.2 -2.2
v -2.2 2 2.2
v -2.2 2.2 2.2
v 1 2 2.2
v 1 2.2 2.2
v 1.1 2 2.2
v 1.1 2.2 2.2
v 1.3 2 2.2
v 1.3 2.2 2.2
v 1.4 2 2.2
v 1.4 2.2 2.2
v 1.5 2 2.2
v 1.5 2.2 2.2
v 1.6 2 2.2
v 1.6 2.2 2.2
v 1.8 2 2.2
v 1.8 2.2 2.2
v 2 -2.2 2.2
v 2 2 2.2
v 2 2.2 2.2
v 2.2 -2.2 2.2
v 2.2 2 2.2
v 2.2 2.2 2.2
v 2 -2.2 2
v 2 2 2
v 2.2 -2.2 2
v 2.2 2 2
v -2.2 2 -2.2
v -2.2 2.2 -2.2
v -1.2 2 -2.2
v -1.2 2.2 -2.2
v -1 2 -2.2
v -1 2.2 -2.2
v -0.9 2 -2.2
v -0.9 2.2 -2.2
v -0.8 2 -2.2
v -0.8 2.2 -2.2
v -0.7 2 -2.2
v -0.7 2.2 -2.2
v -0.5 2 -2.2
v -0.5 2.2 -2.2
v -0.4 2 -2.2
v -0.4 2.2 -2.2
v 2.2 2 -2.2
v 2.2 2.2 -2.2
v 2 -2.2 2.2
v 2.2 -2.2 2.2
v 2 -2.2 2
v 2.2 -2.2 2
v -2.2 2 2.2
v 1 2 2.2
v 1.1 2 2.2
v 1.3 2 2.2
v 1.4 2 2.2
v 1.5 2 2.2
v 1.6 2 2.2
v 1.8 2 2.2
v 2 2 2.2
v 2 2 2
v 2.2 2 2
v 1.8 2 1.8
v 2.2 2 1.8
v 1.6 2 1.6
v 2.2 2 1.6
v 1.5 2 1.5
v 2.2 2 1.5
v 1.4 2 1.4
v 2.2 2 1.4
v 1.3 2 1.3
v 2.2 2 1.3
v 1.1 2 1.1
v 2.2 2 1.1
v 1 2 1
v 2.2 2 1
v -2.2 2 -0.4
v -0.4 2 -0.4
v -2.2 2 -0.5
v -0.5 2 -0.5
v -2.2 2 -0.7
v -0.7 2 -0.7
v -2.2 2 -0.8
v -0.8 2 -0.8
v -2.2 2 -0.9
v -0.9 2 -0.9
v -2.2 2 -1
v -1 2 -1
v -2.2 2 -1.2
v -1.2 2 -1.2
v -2.2 2 -2.2
v -1.2 2 -2.2
v -1 2 -2.2
v -0.9 2 -2.2
v -0.8 2 -2.2
v -0.7 2 -2.2
v -0.5 2 -2.2
v -0.4 2 -2.2
v 2.2 2 -2.2
v -2.2 2.2 2.2
v 1 2.2 2.2
v 1.1 2.2 2.2
v 1.3 2.2 2.2
v 1.4 2.2 2.2
v 1.5 2.2 2.2
v 1.6 2.2 2.2
v 1.8 2.2 2.2
v 2 2.2 2.2
v 2.2 2.2 2.2
v 2 2.2 2
v 2.2 2.2 2
v 1.8 2.2 1.8
v 2.2 2.2 1.8
v 1.6 2.2 1.6
v 2.2 2.2 1.6
v 1.5 2.2 1.5
v 2.2 2.2 1.5
v 1.4 2.2 1.4
v 2.2 2.2 1.4
v 1.3 2.2 1.3
v 2.2 2.2 1.3
v 1.1 2.2 1.1
v 2.2 2.2 1.1
v 1 2.2 1
v 2.2 2.2 1
v -2.2 2.2 -0.4
v -0.4 2.2 -0.4
v -2.2 2.2 -0.5
v -0.5 2.2 -0.5
v -2.2 2.2 -0.7
v -0.7 2.2 -0.7
v -2.2 2.2 -0.8
v -0.8 2.2 -0.8
v -2.2 2.2 -0.9
v -0.9 2.2 -0.9
v -2.2 2.2 -1
v -1 2.2 -1
v -2.2 2.2 -1.2
v -1.2 2.2 -1.2
v -2.2 2.2 -2.2
v -1.2 2.2 -2.2
v -1 2.2 -2.2
v -0.9 2.2 -2.2
v -0.8 2.2 -2.2
v -0.7 2.2 -2.2
v -0.5 2.2 -2.2
v -0.4 2.2 -2.2
v 2.2 2.2 -2.2

# faces
f 10/2/1 2/2/1 1/2/1
f 11/3/1 3/3/1 2/3/1
f 11/2/1 2/2/1 10/2/1
f 12/4/1 4/4/1 3/4/1
f 12/3/1 3/3/1 11/3/1
f 13/3/1 5/3/1 4/3/1
f 13/4/1 4/4/1 12/4/1
f 14/1/1 6/1/1 5/1/1
f 14/3/1 5/3/1 13/3/1
f 15/3/1 7/3/1 6/3/1
f 15/1/1 6/1/1 14/1/1
f 16/4/1 8/4/1 7/4/1
f 16/3/1 7/3/1 15/3/1
f 17/3/1 9/3/1 8/3/1
f 17/4/1 8/4/1 16/4/1
f 18/3/1 9/3/1 17/3/1
f 21/4/1 20/4/1 19/4/1
f 22/4/1 20/4/1 21/4/1
f 23/4/2 24/4/2 25/4/2
f 25/4/2 24/4/2 26/4/2
f 25/2/2 26/2/2 35/2/2
f 26/3/2 27/3/2 36/3/2
f 35/2/2 26/2/2 36/2/2
f 27/4/2 28/4/2 37/4/2
f 36/3/2 27/3/2 37/3/2
f 28/3/2 29/3/2 38/3/2
f 37/4/2 28/4/2 38/4/2
f 29/1/2 30/1/2 39/1/2
f 38/3/2 29/3/2 39/3/2
f 30/3/2 31/3/2 40/3/2
f 39/1/2 30/1/2 40/1/2
f 31/4/2 32/4/2 41/4/2
f 40/3/2 31/3/2 41/3/2
f 32/3/2 33/3/2 42/3/2
f 41/4/2 32/4/2 42/4/2
f 33/2/2 34/2/2 43/2/2
f 42/3/2 33/3/2 43/3/2
f 43/2/2 34/2/2 44/2/2
f 47/2/3 46/2/3 45/2/3
f 48/2/3 46/2/3 47/2/3
f 49/3/3 48/3/3 47/3/3
f 50/3/3 48/3/3 49/3/3
f 51/4/3 50/4/3 49/4/3
f 52/4/3 50/4/3 51/4/3
f 53/3/3 52/3/3 51/3/3
f 54/3/3 52/3/3 53/3/3
f 55/1/3 54/1/3 53/1/3
f 56/1/3 54/1/3 55/1/3
f 57/3/3 56/3/3 55/3/3
f 58/3/3 56/3/3 57/3/3
f 59/4/3 58/4/3 57/4/3
f 60/4/3 58/4/3 59/4/3
f 62/3/3 60/3/3 59/3/3
f 63/3/3 60/3/3 62/3/3
f 64/4/3 62/4/3 61/4/3
f 65/2/3 63/2/3 62/2/3
f 65/4/3 62/4/3 64/4/3
f 66/2/3 63/2/3 65/2/3
f 67/4/4 68/4/4 69/4/4
f 69/4/4 68/4/4 70/4/4
f 71/3/4 72/3/4 73/3/4
f 73/3/4 72/3/4 74/3/4
f 73/4/4 74/4/4 75/4/4
f 75/4/4 74/4/4 76/4/4
f 75/3/4 76/3/4 77/3/4
f 77/3/4 76/3/4 78/3/4
f 77/1/4 78/1/4 79/1/4
f 79/1/4 78/1/4 80/1/4
f 79/3/4 80/3/4 81/3/4
f 81/3/4 80/3/4 82/3/4
f 81/4/4 82/4/4 83/4/4
f 83/4/4 82/4/4 84/4/4
f 83/3/4 84/3/4 85/3/4
f 85/3/4 84/3/4 86/3/4
f 85/2/4 86/2/4 87/2/4
f 87/2/4 86/2/4 88/2/4
f 91/4/5 90/4/5 89/4/5
f 92/4/5 90/4/5 91/4/5
f 102/3/5 101/3/5 100/3/5
f 104/4/5 100/4/5 99/4/5
f 104/3/5 103/3/5 102/3/5
f 104/3/5 102/3/5 100/3/5
f 105/3/5 103/3/5 104/3/5
f 106/3/5 99/3/5 98/3/5
f 106/4/5 104/4/5 99/4/5
f 106/4/5 105/4/5 104/4/5
f 107/4/5 105/4/5 106/4/5
f 108/1/5 98/1/5 97/1/5
f 108/3/5 106/3/5 98/3/5
f 108/3/5 107/3/5 106/3/5
f 109/3/5 107/3/5 108/3/5
f 110/3/5 97/3/5 96/3/5
f 110/1/5 108/1/5 97/1/5
f 110/1/5 109/1/5 108/1/5
f 111/1/5 109/1/5 110/1/5
f 112/4/5 96/4/5 95/4/5
f 112/3/5 110/3/5 96/3/5
f 112/3/5 111/3/5 110/3/5
f 113/3/5 111/3/5 112/3/5
f 114/3/5 95/3/5 94/3/5
f 114/4/5 112/4/5 95/4/5
f 114/4/5 113/4/5 112/4/5
f 115/4/5 113/4/5 114/4/5
f 116/2/5 94/2/5 93/2/5
f 116/3/5 114/3/5 94/3/5
f 116/3/5 115/3/5 114/3/5
f 117/3/5 115/3/5 116/3/5
f 118/2/5 116/2/5 93/2/5
f 118/2/5 117/2/5 116/2/5
f 119/2/5 117/2/5 118/2/5
f 120/3/5 119/3/5 118/3/5
f 121/3/5 119/3/5 120/3/5
f 122/4/5 121/4/5 120/4/5
f 123/4/5 121/4/5 122/4/5
f 124/3/5 123/3/5 122/3/5
f 125/3/5 123/3/5 124/3/5
f 126/1/5 125/1/5 124/1/5
f 127/1/5 125/1/5 126/1/5
f 128/3/5 127/3/5 126/3/5
f 129/3/5 127/3/5 128/3/5
f 130/4/5 129/4/5 128/4/5
f 131/4/5 129/4/5 130/4/5
f 132/3/5 131/3/5 130/3/5
f 133/4/5 129/4/5 131/4/5
f 133/3/5 131/3/5 132/3/5
f 134/3/5 127/3/5 129/3/5
f 134/4/5 129/4/5 133/4/5
f 135/1/5 125/1/5 127/1/5
f 135/3/5 127/3/5 134/3/5
f 136/3/5 123/3/5 125/3/5
f 136/1/5 125/1/5 135/1/5
f 137/4/5 121/4/5 123/4/5
f 137/3/5 123/3/5 136/3/5
f 138/3/5 119/3/5 121/3/5
f 138/4/5 121/4/5 137/4/5
f 139/2/5 117/2/5 119/2/5
f 139/3/5 119/3/5 138/3/5
f 140/2/5 117/2/5 139/2/5
f 148/3/6 149/3/6 151/3/6
f 149/2/6 150/2/6 151/2/6
f 151/2/6 150/2/6 152/2/6
f 147/4/6 148/4/6 153/4/6
f 148/3/6 151/3/6 153/3/6
f 151/3/6 152/3/6 153/3/6
f 153/3/6 152/3/6 154/3/6
f 146/3/6 147/3/6 155/3/6
f 147/4/6 153/4/6 155/4/6
f 153/4/6 154/4/6 155/4/6
f 155/4/6 154/4/6 156/4/6
f 145/1/6 146/1/6 157/1/6
f 146/3/6 155/3/6 157/3/6
f 155/3/6 156/3/6 157/3/6
f 157/3/6 156/3/6 158/3/6
f 144/3/6 145/3/6 159/3/6
f 145/1/6 157/1/6 159/1/6
f 157/1/6 158/1/6 159/1/6
f 159/1/6 158/1/6 160/1/6
f 143/4/6 144/4/6 161/4/6
f 144/3/6 159/3/6 161/3/6
f 159/3/6 160/3/6 161/3/6
f 161/3/6 160/3/6 162/3/6
f 142/3/6 143/3/6 163/3/6
f 143/4/6 161/4/6 163/4/6
f 161/4/6 162/4/6 163/4/6
f 163/4/6 162/4/6 164/4/6
f 141/2/6 142/2/6 165/2/6
f 142/3/6 163/3/6 165/3/6
f 163/3/6 164/3/6 165/3/6
f 165/3/6 164/3/6 166/3/6
f 141/2/6 165/2/6 167/2/6
f 165/2/6 166/2/6 167/2/6
f 167/2/6 166/2/6 168/2/6
f 167/3/6 168/3/6 169/3/6
f 169/3/6 168/3/6 170/3/6
f 169/4/6 170/4/6 171/4/6
f 171/4/6 170/4/6 172/4/6
f 171/3/6 172/3/6 173/3/6
f 173/3/6 172/3/6 174/3/6
f 173/1/6 174/1/6 175/1/6
f 175/1/6 174/1/6 176/1/6
f 175/3/6 176/3/6 177/3/6
f 177/3/6 176/3/6 178/3/6
f 177/4/6 178/4/6 179/4/6
f 179/4/6 178/4/6 180/4/6
f 179/3/6 180/3/6 181/3/6
f 180/4/6 178/4/6 182/4/6
f 181/3/6 180/3/6 182/3/6
f 178/3/6 176/3/6 183/3/6
f 182/4/6 178/4/6 183/4/6
f 176/1/6 174/1/6 184/1/6
f 183/3/6 176/3/6 184/3/6
f 174/3/6 172/3/6 185/3/6
f 184/1/6 174/1/6 185/1/6
f 172/4/6 170/4/6 186/4/6
f 185/3/6 172/3/6 186/3/6
f 170/3/6 168/3/6 187/3/6
f 186/4/6 170/4/6 187/4/6
f 168/2/6 166/2/6 188/2/6
f 187/3/6 168/3/6 188/3/6
f 188/2/6 166/2/6 189/2/6
