# MagicaVoxel @ Ephtracy

# group
o 

# material
mtllib mesh_hanger_floor_straight.mtl
usemtl palette

# normals
vn -1 0 0
vn 1 0 0
vn 0 0 1
vn 0 0 -1
vn 0 -1 0
vn 0 1 0

# texcoords
vt 0.986328 0.5
vt 0.990234 0.5
vt 0.994141 0.5

# verts
v -2.2 -2.2 2.2
v -2.2 -2.2 -1
v -2.2 -2.2 -1.6
v -2.2 -2.2 -1.8
v -2.2 -2.2 -2
v -2.2 -2.2 -2.2
v -2.2 -2.1 -1
v -2.2 -2.1 -1.2
v -2.2 -2 2.2
v -2.2 -2 -1
v -2.2 -2 -1.2
v -2.2 -2 -1.6
v -2.2 -2 -1.8
v -2.2 -2 -2
v -2.2 -2 -2.2
v 2.2 -2.2 2.2
v 2.2 -2.2 -1
v 2.2 -2.2 -1.6
v 2.2 -2.2 -1.8
v 2.2 -2.2 -2
v 2.2 -2.2 -2.2
v 2.2 -2.1 -1
v 2.2 -2.1 -1.2
v 2.2 -2 2.2
v 2.2 -2 -1
v 2.2 -2 -1.2
v 2.2 -2 -1.6
v 2.2 -2 -1.8
v 2.2 -2 -2
v 2.2 -2 -2.2
v -2.2 -2.2 2.2
v -2.2 -2 2.2
v 2.2 -2.2 2.2
v 2.2 -2 2.2
v -2.2 -2.2 -2.2
v -2.2 -2 -2.2
v 2.2 -2.2 -2.2
v 2.2 -2 -2.2
v -2.2 -2.2 2.2
v 2.2 -2.2 2.2
v -2.2 -2.2 -1
v 2.2 -2.2 -1
v -2.2 -2.2 -1.6
v -2 -2.2 -1.6
v -1.8 -2.2 -1.6
v 1.8 -2.2 -1.6
v 2 -2.2 -1.6
v 2.2 -2.2 -1.6
v -2.2 -2.2 -1.8
v -2 -2.2 -1.8
v -1.8 -2.2 -1.8
v 1.8 -2.2 -1.8
v 2 -2.2 -1.8
v 2.2 -2.2 -1.8
v -2.2 -2.2 -2
v 2.2 -2.2 -2
v -2.2 -2.2 -2.2
v 2.2 -2.2 -2.2
v -2.2 -2 2.2
v 2.2 -2 2.2
v -2.2 -2 -1
v 2.2 -2 -1
v -2.2 -2 -1.2
v 2.2 -2 -1.2
v -2.2 -2 -1.6
v 2.2 -2 -1.6
v -2.2 -2 -1.8
v 2.2 -2 -1.8
v -2.2 -2 -2
v 2.2 -2 -2
v -2.2 -2 -2.2
v 2.2 -2 -2.2

# faces
f 7/2/1 2/2/1 1/2/1
f 7/1/1 3/1/1 2/1/1
f 8/1/1 3/1/1 7/1/1
f 9/2/1 7/2/1 1/2/1
f 10/3/1 8/3/1 7/3/1
f 10/2/1 7/2/1 9/2/1
f 11/1/1 3/1/1 8/1/1
f 11/3/1 8/3/1 10/3/1
f 12/3/1 4/3/1 3/3/1
f 12/1/1 3/1/1 11/1/1
f 13/2/1 5/2/1 4/2/1
f 13/3/1 4/3/1 12/3/1
f 14/3/1 6/3/1 5/3/1
f 14/2/1 5/2/1 13/2/1
f 15/3/1 6/3/1 14/3/1
f 16/2/2 17/2/2 22/2/2
f 17/1/2 18/1/2 22/1/2
f 22/1/2 18/1/2 23/1/2
f 16/2/2 22/2/2 24/2/2
f 22/3/2 23/3/2 25/3/2
f 24/2/2 22/2/2 25/2/2
f 23/1/2 18/1/2 26/1/2
f 25/3/2 23/3/2 26/3/2
f 18/3/2 19/3/2 27/3/2
f 26/1/2 18/1/2 27/1/2
f 19/2/2 20/2/2 28/2/2
f 27/3/2 19/3/2 28/3/2
f 20/3/2 21/3/2 29/3/2
f 28/2/2 20/2/2 29/2/2
f 29/3/2 21/3/2 30/3/2
f 33/2/3 32/2/3 31/2/3
f 34/2/3 32/2/3 33/2/3
f 35/3/4 36/3/4 37/3/4
f 37/3/4 36/3/4 38/3/4
f 41/2/5 40/2/5 39/2/5
f 42/2/5 40/2/5 41/2/5
f 43/1/5 42/1/5 41/1/5
f 44/1/5 42/1/5 43/1/5
f 45/1/5 42/1/5 44/1/5
f 46/1/5 42/1/5 45/1/5
f 47/1/5 42/1/5 46/1/5
f 48/1/5 42/1/5 47/1/5
f 49/3/5 44/3/5 43/3/5
f 50/2/5 45/2/5 44/2/5
f 50/3/5 44/3/5 49/3/5
f 51/3/5 46/3/5 45/3/5
f 51/2/5 45/2/5 50/2/5
f 52/2/5 47/2/5 46/2/5
f 52/3/5 46/3/5 51/3/5
f 53/3/5 48/3/5 47/3/5
f 53/2/5 47/2/5 52/2/5
f 54/3/5 48/3/5 53/3/5
f 55/2/5 50/2/5 49/2/5
f 55/2/5 51/2/5 50/2/5
f 55/2/5 54/2/5 53/2/5
f 55/2/5 53/2/5 52/2/5
f 55/2/5 52/2/5 51/2/5
f 56/2/5 54/2/5 55/2/5
f 57/3/5 56/3/5 55/3/5
f 58/3/5 56/3/5 57/3/5
f 59/2/6 60/2/6 61/2/6
f 61/2/6 60/2/6 62/2/6
f 61/3/6 62/3/6 63/3/6
f 63/3/6 62/3/6 64/3/6
f 63/1/6 64/1/6 65/1/6
f 65/1/6 64/1/6 66/1/6
f 65/3/6 66/3/6 67/3/6
f 67/3/6 66/3/6 68/3/6
f 67/2/6 68/2/6 69/2/6
f 69/2/6 68/2/6 70/2/6
f 69/3/6 70/3/6 71/3/6
f 71/3/6 70/3/6 72/3/6
