# MagicaVoxel @ Ephtracy

# group
o 

# material
mtllib mesh_security_power_panel.mtl
usemtl palette

# normals
vn -1 0 0
vn 1 0 0
vn 0 0 1
vn 0 0 -1
vn 0 -1 0
vn 0 1 0

# texcoords
vt 0.0566406 0.5
vt 0.744141 0.5
vt 0.904297 0.5
vt 0.982422 0.5
vt 0.986328 0.5
vt 0.990234 0.5
vt 0.994141 0.5

# verts
v -0.7 -0.4 -1.9
v -0.7 -0.4 -2
v -0.7 -0.4 -2.2
v -0.7 1 -1.9
v -0.7 1 -2
v -0.7 1 -2.2
v 0.6 -0.4 -1.9
v 0.6 -0.4 -2
v 0.6 -0.4 -2.2
v 0.6 1 -1.9
v 0.6 1 -2
v 0.6 1 -2.2
v -0.7 -0.4 -1.9
v -0.7 1 -1.9
v -0.6 -0.3 -1.9
v -0.6 0.9 -1.9
v -0.5 -0.2 -1.9
v -0.5 0.3 -1.9
v -0.5 0.4 -1.9
v -0.5 0.5 -1.9
v -0.5 0.6 -1.9
v -0.5 0.7 -1.9
v -0.4 -0.2 -1.9
v -0.4 0.3 -1.9
v -0.4 0.4 -1.9
v -0.4 0.5 -1.9
v -0.4 0.6 -1.9
v -0.4 0.7 -1.9
v -0.3 -0.2 -1.9
v -0.3 0.1 -1.9
v -0.3 0.2 -1.9
v -0.3 0.3 -1.9
v -0.3 0.4 -1.9
v -0.3 0.5 -1.9
v -0.3 0.6 -1.9
v -0.3 0.7 -1.9
v 0 0.2 -1.9
v 0 0.3 -1.9
v 0 0.4 -1.9
v 0 0.5 -1.9
v 0 0.6 -1.9
v 0 0.7 -1.9
v 0.1 0.3 -1.9
v 0.1 0.8 -1.9
v 0.4 -0.2 -1.9
v 0.4 0.1 -1.9
v 0.4 0.3 -1.9
v 0.4 0.8 -1.9
v 0.5 -0.3 -1.9
v 0.5 0.9 -1.9
v 0.6 -0.4 -1.9
v 0.6 1 -1.9
v -0.7 -0.4 -2.2
v -0.7 1 -2.2
v 0.6 -0.4 -2.2
v 0.6 1 -2.2
v -0.7 -0.4 -1.9
v 0.6 -0.4 -1.9
v -0.7 -0.4 -2
v 0.6 -0.4 -2
v -0.7 -0.4 -2.2
v 0.6 -0.4 -2.2
v -0.7 1 -1.9
v 0.6 1 -1.9
v -0.7 1 -2
v 0.6 1 -2
v -0.7 1 -2.2
v 0.6 1 -2.2

# faces
f 4/7/1 2/7/1 1/7/1
f 5/3/1 3/3/1 2/3/1
f 5/7/1 2/7/1 4/7/1
f 6/3/1 3/3/1 5/3/1
f 7/7/2 8/7/2 10/7/2
f 8/3/2 9/3/2 11/3/2
f 10/7/2 8/7/2 11/7/2
f 11/3/2 9/3/2 12/3/2
f 15/7/3 14/7/3 13/7/3
f 16/7/3 14/7/3 15/7/3
f 17/5/3 16/5/3 15/5/3
f 18/5/3 16/5/3 17/5/3
f 19/5/3 16/5/3 18/5/3
f 20/5/3 16/5/3 19/5/3
f 21/5/3 16/5/3 20/5/3
f 22/5/3 16/5/3 21/5/3
f 23/5/3 17/5/3 15/5/3
f 23/6/3 18/6/3 17/6/3
f 24/5/3 19/5/3 18/5/3
f 24/6/3 18/6/3 23/6/3
f 25/6/3 20/6/3 19/6/3
f 25/5/3 19/5/3 24/5/3
f 26/1/3 21/1/3 20/1/3
f 26/6/3 20/6/3 25/6/3
f 27/6/3 22/6/3 21/6/3
f 27/1/3 21/1/3 26/1/3
f 28/5/3 16/5/3 22/5/3
f 28/6/3 22/6/3 27/6/3
f 29/5/3 27/5/3 26/5/3
f 29/5/3 26/5/3 25/5/3
f 29/5/3 28/5/3 27/5/3
f 29/5/3 25/5/3 24/5/3
f 29/5/3 24/5/3 23/5/3
f 29/5/3 23/5/3 15/5/3
f 30/5/3 28/5/3 29/5/3
f 31/5/3 28/5/3 30/5/3
f 32/5/3 28/5/3 31/5/3
f 33/5/3 28/5/3 32/5/3
f 34/5/3 28/5/3 33/5/3
f 35/5/3 28/5/3 34/5/3
f 36/5/3 16/5/3 28/5/3
f 36/5/3 28/5/3 35/5/3
f 37/5/3 31/5/3 30/5/3
f 37/4/3 32/4/3 31/4/3
f 38/5/3 33/5/3 32/5/3
f 38/4/3 32/4/3 37/4/3
f 39/4/3 34/4/3 33/4/3
f 39/5/3 33/5/3 38/5/3
f 40/5/3 35/5/3 34/5/3
f 40/4/3 34/4/3 39/4/3
f 41/4/3 36/4/3 35/4/3
f 41/5/3 35/5/3 40/5/3
f 42/5/3 16/5/3 36/5/3
f 42/4/3 36/4/3 41/4/3
f 43/5/3 39/5/3 38/5/3
f 43/5/3 41/5/3 40/5/3
f 43/5/3 42/5/3 41/5/3
f 43/5/3 38/5/3 37/5/3
f 43/5/3 40/5/3 39/5/3
f 44/5/3 16/5/3 42/5/3
f 44/5/3 42/5/3 43/5/3
f 45/5/3 29/5/3 15/5/3
f 45/6/3 30/6/3 29/6/3
f 46/5/3 43/5/3 37/5/3
f 46/6/3 30/6/3 45/6/3
f 46/5/3 37/5/3 30/5/3
f 47/2/3 44/2/3 43/2/3
f 47/5/3 43/5/3 46/5/3
f 48/5/3 16/5/3 44/5/3
f 48/2/3 44/2/3 47/2/3
f 49/7/3 15/7/3 13/7/3
f 49/5/3 45/5/3 15/5/3
f 49/5/3 48/5/3 47/5/3
f 49/5/3 46/5/3 45/5/3
f 49/5/3 47/5/3 46/5/3
f 50/5/3 16/5/3 48/5/3
f 50/5/3 48/5/3 49/5/3
f 50/7/3 14/7/3 16/7/3
f 51/7/3 49/7/3 13/7/3
f 51/7/3 50/7/3 49/7/3
f 52/7/3 14/7/3 50/7/3
f 52/7/3 50/7/3 51/7/3
f 53/3/4 54/3/4 55/3/4
f 55/3/4 54/3/4 56/3/4
f 59/7/5 58/7/5 57/7/5
f 60/7/5 58/7/5 59/7/5
f 61/3/5 60/3/5 59/3/5
f 62/3/5 60/3/5 61/3/5
f 63/7/6 64/7/6 65/7/6
f 65/7/6 64/7/6 66/7/6
f 65/3/6 66/3/6 67/3/6
f 67/3/6 66/3/6 68/3/6
