# MagicaVoxel @ Ephtracy

# group
o 

# material
mtllib mesh_prop_locker_door.mtl
usemtl palette

# normals
vn -1 0 0
vn 1 0 0
vn 0 0 1
vn 0 0 -1
vn 0 -1 0
vn 0 1 0

# texcoords
vt 0.0292969 0.5
vt 0.759766 0.5
vt 0.763672 0.5
vt 0.767578 0.5
vt 0.771484 0.5
vt 0.986328 0.5
vt 0.994141 0.5

# verts
v -0.6 -1.45 0.05
v -0.6 -1.45 -0.05
v -0.6 1.45 0.05
v -0.6 1.45 -0.05
v 0.6 -1.45 0.05
v 0.6 -1.45 -0.05
v 0.6 1.45 0.05
v 0.6 1.45 -0.05
v -0.6 -1.45 0.05
v -0.6 1.45 0.05
v -0.5 -1.35 0.05
v -0.5 -0.55 0.05
v -0.5 -0.45 0.05
v -0.5 0.45 0.05
v -0.5 0.55 0.05
v -0.5 1.35 0.05
v -0.4 -1.35 0.05
v -0.4 -0.65 0.05
v -0.4 -0.55 0.05
v -0.4 -0.45 0.05
v -0.4 0.25 0.05
v -0.4 0.35 0.05
v -0.4 0.45 0.05
v -0.4 0.55 0.05
v -0.4 0.65 0.05
v -0.4 1.35 0.05
v -0.3 -1.25 0.05
v -0.3 -1.15 0.05
v -0.3 -0.75 0.05
v -0.3 -0.0500001 0.05
v -0.3 0.15 0.05
v -0.3 0.75 0.05
v -0.3 1.25 0.05
v -0.2 -1.35 0.05
v -0.2 -1.25 0.05
v -0.2 -1.15 0.05
v -0.2 -1.05 0.05
v -0.2 -0.95 0.05
v -0.2 -0.75 0.05
v -0.2 -0.45 0.05
v -0.2 -0.25 0.05
v -0.2 -0.0500001 0.05
v -0.2 0.15 0.05
v -0.2 0.25 0.05
v -0.2 0.35 0.05
v -0.2 0.75 0.05
v -0.2 0.85 0.05
v -0.2 1.15 0.05
v -0.2 1.25 0.05
v -0.1 -1.35 0.05
v -0.1 -1.25 0.05
v -0.1 -1.05 0.05
v -0.1 -0.95 0.05
v -0.1 -0.85 0.05
v -0.1 -0.45 0.05
v -0.1 -0.25 0.05
v -0.1 0.15 0.05
v -0.1 0.35 0.05
v -0.1 0.75 0.05
v -0.1 0.85 0.05
v -0.1 1.15 0.05
v -0.1 1.25 0.05
v 0 -1.25 0.05
v 0 -0.95 0.05
v 0 -0.85 0.05
v 0 -0.75 0.05
v 0 -0.65 0.05
v 0 -0.25 0.05
v 0 -0.0500001 0.05
v 0 0.15 0.05
v 0 0.25 0.05
v 0 0.65 0.05
v 0 0.75 0.05
v 0 0.85 0.05
v 0 1.15 0.05
v 0 1.25 0.05
v 0.1 -1.25 0.05
v 0.1 -0.95 0.05
v 0.1 -0.85 0.05
v 0.1 -0.65 0.05
v 0.1 -0.55 0.05
v 0.1 -0.25 0.05
v 0.1 -0.0500001 0.05
v 0.1 0.25 0.05
v 0.1 0.35 0.05
v 0.1 0.55 0.05
v 0.1 0.65 0.05
v 0.1 0.85 0.05
v 0.1 0.95 0.05
v 0.1 1.15 0.05
v 0.1 1.25 0.05
v 0.2 -1.25 0.05
v 0.2 -1.15 0.05
v 0.2 -0.95 0.05
v 0.2 -0.55 0.05
v 0.2 -0.45 0.05
v 0.2 -0.35 0.05
v 0.2 0.35 0.05
v 0.2 0.45 0.05
v 0.2 0.55 0.05
v 0.2 0.95 0.05
v 0.2 1.25 0.05
v 0.3 -1.25 0.05
v 0.3 -1.15 0.05
v 0.3 -0.85 0.05
v 0.3 -0.35 0.05
v 0.3 0.35 0.05
v 0.3 0.45 0.05
v 0.3 0.55 0.05
v 0.3 0.75 0.05
v 0.3 0.85 0.05
v 0.3 1.25 0.05
v 0.4 -1.25 0.05
v 0.4 -1.15 0.05
v 0.4 -0.85 0.05
v 0.4 -0.75 0.05
v 0.4 -0.35 0.05
v 0.4 -0.15 0.05
v 0.4 0.35 0.05
v 0.4 0.45 0.05
v 0.4 0.55 0.05
v 0.4 0.85 0.05
v 0.4 1.25 0.05
v 0.4 1.35 0.05
v 0.5 -1.35 0.05
v 0.5 -1.15 0.05
v 0.5 -0.75 0.05
v 0.5 -0.65 0.05
v 0.5 -0.55 0.05
v 0.5 -0.35 0.05
v 0.5 -0.15 0.05
v 0.5 0.55 0.05
v 0.5 0.65 0.05
v 0.5 0.75 0.05
v 0.5 0.85 0.05
v 0.5 1.25 0.05
v 0.5 1.35 0.05
v 0.6 -1.45 0.05
v 0.6 1.45 0.05
v -0.6 -1.45 -0.05
v -0.6 1.45 -0.05
v -0.5 -1.35 -0.05
v -0.5 -0.55 -0.05
v -0.5 -0.45 -0.05
v -0.5 0.45 -0.05
v -0.5 0.55 -0.05
v -0.5 1.35 -0.05
v -0.4 -1.35 -0.05
v -0.4 -0.65 -0.05
v -0.4 -0.55 -0.05
v -0.4 -0.45 -0.05
v -0.4 0.25 -0.05
v -0.4 0.35 -0.05
v -0.4 0.45 -0.05
v -0.4 0.55 -0.05
v -0.4 0.65 -0.05
v -0.4 1.35 -0.05
v -0.3 -1.25 -0.05
v -0.3 -1.15 -0.05
v -0.3 -0.75 -0.05
v -0.3 -0.0500001 -0.05
v -0.3 0.15 -0.05
v -0.3 0.75 -0.05
v -0.3 1.25 -0.05
v -0.2 -1.35 -0.05
v -0.2 -1.25 -0.05
v -0.2 -1.15 -0.05
v -0.2 -1.05 -0.05
v -0.2 -0.95 -0.05
v -0.2 -0.75 -0.05
v -0.2 -0.45 -0.05
v -0.2 -0.25 -0.05
v -0.2 -0.0500001 -0.05
v -0.2 0.15 -0.05
v -0.2 0.25 -0.05
v -0.2 0.35 -0.05
v -0.2 0.75 -0.05
v -0.2 0.85 -0.05
v -0.2 1.15 -0.05
v -0.2 1.25 -0.05
v -0.1 -1.35 -0.05
v -0.1 -1.25 -0.05
v -0.1 -1.05 -0.05
v -0.1 -0.95 -0.05
v -0.1 -0.85 -0.05
v -0.1 -0.45 -0.05
v -0.1 -0.25 -0.05
v -0.1 0.15 -0.05
v -0.1 0.35 -0.05
v -0.1 0.75 -0.05
v -0.1 0.85 -0.05
v -0.1 1.15 -0.05
v -0.1 1.25 -0.05
v 0 -1.25 -0.05
v 0 -0.95 -0.05
v 0 -0.85 -0.05
v 0 -0.75 -0.05
v 0 -0.65 -0.05
v 0 -0.25 -0.05
v 0 -0.0500001 -0.05
v 0 0.15 -0.05
v 0 0.25 -0.05
v 0 0.65 -0.05
v 0 0.75 -0.05
v 0 0.85 -0.05
v 0 1.15 -0.05
v 0 1.25 -0.05
v 0.1 -1.25 -0.05
v 0.1 -0.95 -0.05
v 0.1 -0.85 -0.05
v 0.1 -0.65 -0.05
v 0.1 -0.55 -0.05
v 0.1 -0.25 -0.05
v 0.1 -0.0500001 -0.05
v 0.1 0.25 -0.05
v 0.1 0.35 -0.05
v 0.1 0.55 -0.05
v 0.1 0.65 -0.05
v 0.1 0.85 -0.05
v 0.1 0.95 -0.05
v 0.1 1.15 -0.05
v 0.1 1.25 -0.05
v 0.2 -1.25 -0.05
v 0.2 -1.15 -0.05
v 0.2 -0.95 -0.05
v 0.2 -0.55 -0.05
v 0.2 -0.45 -0.05
v 0.2 -0.35 -0.05
v 0.2 0.35 -0.05
v 0.2 0.45 -0.05
v 0.2 0.55 -0.05
v 0.2 0.95 -0.05
v 0.2 1.25 -0.05
v 0.3 -1.25 -0.05
v 0.3 -1.15 -0.05
v 0.3 -0.85 -0.05
v 0.3 -0.35 -0.05
v 0.3 0.35 -0.05
v 0.3 0.45 -0.05
v 0.3 0.55 -0.05
v 0.3 0.75 -0.05
v 0.3 0.85 -0.05
v 0.3 1.25 -0.05
v 0.4 -1.25 -0.05
v 0.4 -1.15 -0.05
v 0.4 -0.85 -0.05
v 0.4 -0.75 -0.05
v 0.4 -0.35 -0.05
v 0.4 -0.15 -0.05
v 0.4 0.35 -0.05
v 0.4 0.45 -0.05
v 0.4 0.55 -0.05
v 0.4 0.85 -0.05
v 0.4 1.25 -0.05
v 0.4 1.35 -0.05
v 0.5 -1.35 -0.05
v 0.5 -1.15 -0.05
v 0.5 -0.75 -0.05
v 0.5 -0.65 -0.05
v 0.5 -0.55 -0.05
v 0.5 -0.35 -0.05
v 0.5 -0.15 -0.05
v 0.5 0.55 -0.05
v 0.5 0.65 -0.05
v 0.5 0.75 -0.05
v 0.5 0.85 -0.05
v 0.5 1.25 -0.05
v 0.5 1.35 -0.05
v 0.6 -1.45 -0.05
v 0.6 1.45 -0.05
v -0.6 -1.45 0.05
v 0.6 -1.45 0.05
v -0.6 -1.45 -0.05
v 0.6 -1.45 -0.05
v -0.6 1.45 0.05
v 0.6 1.45 0.05
v -0.6 1.45 -0.05
v 0.6 1.45 -0.05

# faces
f 3/1/1 2/1/1 1/1/1
f 4/1/1 2/1/1 3/1/1
f 5/1/2 6/1/2 7/1/2
f 7/1/2 6/1/2 8/1/2
f 11/1/3 10/1/3 9/1/3
f 12/1/3 10/1/3 11/1/3
f 13/1/3 10/1/3 12/1/3
f 14/1/3 10/1/3 13/1/3
f 15/1/3 10/1/3 14/1/3
f 16/1/3 10/1/3 15/1/3
f 17/1/3 11/1/3 9/1/3
f 17/2/3 12/2/3 11/2/3
f 18/2/3 12/2/3 17/2/3
f 19/7/3 13/7/3 12/7/3
f 19/2/3 12/2/3 18/2/3
f 20/2/3 14/2/3 13/2/3
f 20/7/3 13/7/3 19/7/3
f 21/2/3 14/2/3 20/2/3
f 22/2/3 14/2/3 21/2/3
f 23/7/3 15/7/3 14/7/3
f 23/2/3 14/2/3 22/2/3
f 24/2/3 16/2/3 15/2/3
f 24/7/3 15/7/3 23/7/3
f 25/2/3 16/2/3 24/2/3
f 26/1/3 10/1/3 16/1/3
f 26/2/3 16/2/3 25/2/3
f 27/4/3 18/4/3 17/4/3
f 28/4/3 18/4/3 27/4/3
f 29/4/3 18/4/3 28/4/3
f 30/3/3 21/3/3 20/3/3
f 31/3/3 21/3/3 30/3/3
f 32/4/3 26/4/3 25/4/3
f 33/4/3 26/4/3 32/4/3
f 34/1/3 17/1/3 9/1/3
f 34/4/3 27/4/3 17/4/3
f 35/5/3 28/5/3 27/5/3
f 35/4/3 27/4/3 34/4/3
f 36/2/3 29/2/3 28/2/3
f 36/5/3 28/5/3 35/5/3
f 37/2/3 29/2/3 36/2/3
f 38/2/3 29/2/3 37/2/3
f 39/4/3 18/4/3 29/4/3
f 39/2/3 29/2/3 38/2/3
f 40/7/3 20/7/3 19/7/3
f 40/3/3 30/3/3 20/3/3
f 41/3/3 30/3/3 40/3/3
f 42/4/3 31/4/3 30/4/3
f 42/3/3 30/3/3 41/3/3
f 43/3/3 21/3/3 31/3/3
f 43/4/3 31/4/3 42/4/3
f 44/4/3 22/4/3 21/4/3
f 44/3/3 21/3/3 43/3/3
f 45/3/3 23/3/3 22/3/3
f 45/4/3 22/4/3 44/4/3
f 46/2/3 33/2/3 32/2/3
f 46/4/3 32/4/3 25/4/3
f 47/2/3 33/2/3 46/2/3
f 48/2/3 33/2/3 47/2/3
f 49/4/3 26/4/3 33/4/3
f 49/2/3 33/2/3 48/2/3
f 50/1/3 34/1/3 9/1/3
f 50/5/3 35/5/3 34/5/3
f 51/4/3 36/4/3 35/4/3
f 51/5/3 35/5/3 50/5/3
f 51/4/3 37/4/3 36/4/3
f 52/5/3 38/5/3 37/5/3
f 52/4/3 37/4/3 51/4/3
f 53/4/3 39/4/3 38/4/3
f 53/5/3 38/5/3 52/5/3
f 54/4/3 39/4/3 53/4/3
f 55/4/3 41/4/3 40/4/3
f 55/7/3 40/7/3 19/7/3
f 56/3/3 44/3/3 43/3/3
f 56/4/3 41/4/3 55/4/3
f 56/3/3 43/3/3 42/3/3
f 56/3/3 42/3/3 41/3/3
f 56/3/3 45/3/3 44/3/3
f 57/3/3 45/3/3 56/3/3
f 58/3/3 23/3/3 45/3/3
f 58/3/3 45/3/3 57/3/3
f 59/4/3 46/4/3 25/4/3
f 59/5/3 47/5/3 46/5/3
f 60/4/3 48/4/3 47/4/3
f 60/5/3 47/5/3 59/5/3
f 61/5/3 49/5/3 48/5/3
f 61/4/3 48/4/3 60/4/3
f 62/4/3 26/4/3 49/4/3
f 62/5/3 49/5/3 61/5/3
f 63/2/3 53/2/3 52/2/3
f 63/4/3 51/4/3 50/4/3
f 63/2/3 52/2/3 51/2/3
f 63/2/3 54/2/3 53/2/3
f 64/2/3 54/2/3 63/2/3
f 65/4/3 39/4/3 54/4/3
f 65/2/3 54/2/3 64/2/3
f 66/4/3 18/4/3 39/4/3
f 66/4/3 39/4/3 65/4/3
f 67/6/3 19/6/3 18/6/3
f 67/4/3 18/4/3 66/4/3
f 68/3/3 57/3/3 56/3/3
f 68/3/3 56/3/3 55/3/3
f 69/3/3 57/3/3 68/3/3
f 70/4/3 58/4/3 57/4/3
f 70/3/3 57/3/3 69/3/3
f 71/4/3 58/4/3 70/4/3
f 72/6/3 25/6/3 24/6/3
f 72/4/3 59/4/3 25/4/3
f 72/4/3 60/4/3 59/4/3
f 73/4/3 60/4/3 72/4/3
f 74/2/3 62/2/3 61/2/3
f 74/4/3 60/4/3 73/4/3
f 74/2/3 61/2/3 60/2/3
f 75/2/3 62/2/3 74/2/3
f 76/4/3 26/4/3 62/4/3
f 76/2/3 62/2/3 75/2/3
f 77/4/3 64/4/3 63/4/3
f 77/4/3 63/4/3 50/4/3
f 78/5/3 65/5/3 64/5/3
f 78/4/3 64/4/3 77/4/3
f 79/4/3 66/4/3 65/4/3
f 79/5/3 65/5/3 78/5/3
f 80/6/3 19/6/3 67/6/3
f 80/6/3 67/6/3 66/6/3
f 81/7/3 55/7/3 19/7/3
f 81/6/3 19/6/3 80/6/3
f 82/4/3 69/4/3 68/4/3
f 82/3/3 68/3/3 55/3/3
f 83/3/3 71/3/3 70/3/3
f 83/4/3 69/4/3 82/4/3
f 83/3/3 70/3/3 69/3/3
f 84/4/3 58/4/3 71/4/3
f 84/3/3 71/3/3 83/3/3
f 85/3/3 23/3/3 58/3/3
f 85/4/3 58/4/3 84/4/3
f 86/6/3 73/6/3 72/6/3
f 86/7/3 24/7/3 23/7/3
f 86/6/3 72/6/3 24/6/3
f 87/6/3 73/6/3 86/6/3
f 88/5/3 75/5/3 74/5/3
f 88/4/3 74/4/3 73/4/3
f 89/5/3 75/5/3 88/5/3
f 90/4/3 76/4/3 75/4/3
f 90/5/3 75/5/3 89/5/3
f 91/4/3 26/4/3 76/4/3
f 91/4/3 76/4/3 90/4/3
f 92/2/3 78/2/3 77/2/3
f 92/4/3 77/4/3 50/4/3
f 93/2/3 78/2/3 92/2/3
f 94/4/3 79/4/3 78/4/3
f 94/2/3 78/2/3 93/2/3
f 95/7/3 81/7/3 80/7/3
f 95/7/3 55/7/3 81/7/3
f 96/3/3 83/3/3 82/3/3
f 96/7/3 55/7/3 95/7/3
f 96/3/3 82/3/3 55/3/3
f 96/3/3 85/3/3 84/3/3
f 96/3/3 84/3/3 83/3/3
f 97/3/3 85/3/3 96/3/3
f 98/3/3 23/3/3 85/3/3
f 98/3/3 85/3/3 97/3/3
f 99/7/3 86/7/3 23/7/3
f 99/3/3 23/3/3 98/3/3
f 99/7/3 87/7/3 86/7/3
f 100/7/3 87/7/3 99/7/3
f 101/2/3 91/2/3 90/2/3
f 101/2/3 90/2/3 89/2/3
f 101/4/3 89/4/3 88/4/3
f 102/4/3 26/4/3 91/4/3
f 102/2/3 91/2/3 101/2/3
f 103/4/3 92/4/3 50/4/3
f 103/5/3 93/5/3 92/5/3
f 104/4/3 94/4/3 93/4/3
f 104/5/3 93/5/3 103/5/3
f 105/4/3 66/4/3 79/4/3
f 105/4/3 94/4/3 104/4/3
f 105/4/3 79/4/3 94/4/3
f 106/3/3 97/3/3 96/3/3
f 106/2/3 98/2/3 97/2/3
f 106/3/3 96/3/3 95/3/3
f 107/3/3 99/3/3 98/3/3
f 107/2/3 98/2/3 106/2/3
f 107/3/3 100/3/3 99/3/3
f 108/3/3 100/3/3 107/3/3
f 109/7/3 87/7/3 100/7/3
f 109/3/3 100/3/3 108/3/3
f 110/4/3 101/4/3 88/4/3
f 110/6/3 73/6/3 87/6/3
f 110/4/3 88/4/3 73/4/3
f 110/4/3 102/4/3 101/4/3
f 111/4/3 102/4/3 110/4/3
f 112/4/3 26/4/3 102/4/3
f 112/4/3 102/4/3 111/4/3
f 113/2/3 105/2/3 104/2/3
f 113/2/3 104/2/3 103/2/3
f 113/4/3 103/4/3 50/4/3
f 114/2/3 105/2/3 113/2/3
f 115/4/3 66/4/3 105/4/3
f 115/2/3 105/2/3 114/2/3
f 116/6/3 80/6/3 66/6/3
f 116/4/3 66/4/3 115/4/3
f 117/7/3 107/7/3 106/7/3
f 117/3/3 106/3/3 95/3/3
f 118/7/3 107/7/3 117/7/3
f 119/3/3 108/3/3 107/3/3
f 119/7/3 107/7/3 118/7/3
f 120/4/3 109/4/3 108/4/3
f 120/3/3 108/3/3 119/3/3
f 121/7/3 87/7/3 109/7/3
f 121/4/3 109/4/3 120/4/3
f 122/5/3 111/5/3 110/5/3
f 122/2/3 112/2/3 111/2/3
f 123/4/3 26/4/3 112/4/3
f 123/2/3 112/2/3 122/2/3
f 124/1/3 10/1/3 26/1/3
f 124/4/3 26/4/3 123/4/3
f 125/4/3 114/4/3 113/4/3
f 125/1/3 50/1/3 9/1/3
f 125/4/3 113/4/3 50/4/3
f 126/5/3 115/5/3 114/5/3
f 126/4/3 114/4/3 125/4/3
f 126/5/3 116/5/3 115/5/3
f 127/6/3 80/6/3 116/6/3
f 127/5/3 116/5/3 126/5/3
f 128/7/3 95/7/3 80/7/3
f 128/6/3 80/6/3 127/6/3
f 129/3/3 117/3/3 95/3/3
f 129/7/3 95/7/3 128/7/3
f 130/4/3 118/4/3 117/4/3
f 130/3/3 117/3/3 129/3/3
f 131/3/3 120/3/3 119/3/3
f 131/4/3 118/4/3 130/4/3
f 131/3/3 119/3/3 118/3/3
f 131/3/3 121/3/3 120/3/3
f 132/7/3 87/7/3 121/7/3
f 132/3/3 121/3/3 131/3/3
f 133/6/3 110/6/3 87/6/3
f 133/7/3 87/7/3 132/7/3
f 134/5/3 122/5/3 110/5/3
f 134/6/3 110/6/3 133/6/3
f 135/4/3 123/4/3 122/4/3
f 135/5/3 122/5/3 134/5/3
f 136/5/3 124/5/3 123/5/3
f 136/4/3 123/4/3 135/4/3
f 137/1/3 10/1/3 124/1/3
f 137/5/3 124/5/3 136/5/3
f 138/1/3 127/1/3 126/1/3
f 138/1/3 125/1/3 9/1/3
f 138/1/3 137/1/3 136/1/3
f 138/1/3 128/1/3 127/1/3
f 138/1/3 135/1/3 134/1/3
f 138/1/3 133/1/3 132/1/3
f 138/1/3 126/1/3 125/1/3
f 138/1/3 136/1/3 135/1/3
f 138/1/3 129/1/3 128/1/3
f 138/1/3 131/1/3 130/1/3
f 138/1/3 132/1/3 131/1/3
f 138/1/3 130/1/3 129/1/3
f 138/1/3 134/1/3 133/1/3
f 139/1/3 10/1/3 137/1/3
f 139/1/3 137/1/3 138/1/3
f 140/1/4 141/1/4 142/1/4
f 142/1/4 141/1/4 143/1/4
f 143/1/4 141/1/4 144/1/4
f 144/1/4 141/1/4 145/1/4
f 145/1/4 141/1/4 146/1/4
f 146/1/4 141/1/4 147/1/4
f 140/1/4 142/1/4 148/1/4
f 142/2/4 143/2/4 148/2/4
f 148/2/4 143/2/4 149/2/4
f 143/7/4 144/7/4 150/7/4
f 149/2/4 143/2/4 150/2/4
f 144/2/4 145/2/4 151/2/4
f 150/7/4 144/7/4 151/7/4
f 151/2/4 145/2/4 152/2/4
f 152/2/4 145/2/4 153/2/4
f 145/7/4 146/7/4 154/7/4
f 153/2/4 145/2/4 154/2/4
f 146/2/4 147/2/4 155/2/4
f 154/7/4 146/7/4 155/7/4
f 155/2/4 147/2/4 156/2/4
f 147/1/4 141/1/4 157/1/4
f 156/2/4 147/2/4 157/2/4
f 148/4/4 149/4/4 158/4/4
f 158/4/4 149/4/4 159/4/4
f 159/4/4 149/4/4 160/4/4
f 151/3/4 152/3/4 161/3/4
f 161/3/4 152/3/4 162/3/4
f 156/4/4 157/4/4 163/4/4
f 163/4/4 157/4/4 164/4/4
f 140/1/4 148/1/4 165/1/4
f 148/4/4 158/4/4 165/4/4
f 158/5/4 159/5/4 166/5/4
f 165/4/4 158/4/4 166/4/4
f 159/2/4 160/2/4 167/2/4
f 166/5/4 159/5/4 167/5/4
f 167/2/4 160/2/4 168/2/4
f 168/2/4 160/2/4 169/2/4
f 160/4/4 149/4/4 170/4/4
f 169/2/4 160/2/4 170/2/4
f 150/7/4 151/7/4 171/7/4
f 151/3/4 161/3/4 171/3/4
f 171/3/4 161/3/4 172/3/4
f 161/4/4 162/4/4 173/4/4
f 172/3/4 161/3/4 173/3/4
f 162/3/4 152/3/4 174/3/4
f 173/4/4 162/4/4 174/4/4
f 152/4/4 153/4/4 175/4/4
f 174/3/4 152/3/4 175/3/4
f 153/3/4 154/3/4 176/3/4
f 175/4/4 153/4/4 176/4/4
f 163/2/4 164/2/4 177/2/4
f 156/4/4 163/4/4 177/4/4
f 177/2/4 164/2/4 178/2/4
f 178/2/4 164/2/4 179/2/4
f 164/4/4 157/4/4 180/4/4
f 179/2/4 164/2/4 180/2/4
f 140/1/4 165/1/4 181/1/4
f 165/5/4 166/5/4 181/5/4
f 166/4/4 167/4/4 182/4/4
f 181/5/4 166/5/4 182/5/4
f 167/4/4 168/4/4 182/4/4
f 168/5/4 169/5/4 183/5/4
f 182/4/4 168/4/4 183/4/4
f 169/4/4 170/4/4 184/4/4
f 183/5/4 169/5/4 184/5/4
f 184/4/4 170/4/4 185/4/4
f 171/4/4 172/4/4 186/4/4
f 150/7/4 171/7/4 186/7/4
f 174/3/4 175/3/4 187/3/4
f 186/4/4 172/4/4 187/4/4
f 173/3/4 174/3/4 187/3/4
f 172/3/4 173/3/4 187/3/4
f 175/3/4 176/3/4 187/3/4
f 187/3/4 176/3/4 188/3/4
f 176/3/4 154/3/4 189/3/4
f 188/3/4 176/3/4 189/3/4
f 156/4/4 177/4/4 190/4/4
f 177/5/4 178/5/4 190/5/4
f 178/4/4 179/4/4 191/4/4
f 190/5/4 178/5/4 191/5/4
f 179/5/4 180/5/4 192/5/4
f 191/4/4 179/4/4 192/4/4
f 180/4/4 157/4/4 193/4/4
f 192/5/4 180/5/4 193/5/4
f 183/2/4 184/2/4 194/2/4
f 181/4/4 182/4/4 194/4/4
f 182/2/4 183/2/4 194/2/4
f 184/2/4 185/2/4 194/2/4
f 194/2/4 185/2/4 195/2/4
f 185/4/4 170/4/4 196/4/4
f 195/2/4 185/2/4 196/2/4
f 170/4/4 149/4/4 197/4/4
f 196/4/4 170/4/4 197/4/4
f 149/6/4 150/6/4 198/6/4
f 197/4/4 149/4/4 198/4/4
f 187/3/4 188/3/4 199/3/4
f 186/3/4 187/3/4 199/3/4
f 199/3/4 188/3/4 200/3/4
f 188/4/4 189/4/4 201/4/4
f 200/3/4 188/3/4 201/3/4
f 201/4/4 189/4/4 202/4/4
f 155/6/4 156/6/4 203/6/4
f 156/4/4 190/4/4 203/4/4
f 190/4/4 191/4/4 203/4/4
f 203/4/4 191/4/4 204/4/4
f 192/2/4 193/2/4 205/2/4
f 204/4/4 191/4/4 205/4/4
f 191/2/4 192/2/4 205/2/4
f 205/2/4 193/2/4 206/2/4
f 193/4/4 157/4/4 207/4/4
f 206/2/4 193/2/4 207/2/4
f 194/4/4 195/4/4 208/4/4
f 181/4/4 194/4/4 208/4/4
f 195/5/4 196/5/4 209/5/4
f 208/4/4 195/4/4 209/4/4
f 196/4/4 197/4/4 210/4/4
f 209/5/4 196/5/4 210/5/4
f 198/6/4 150/6/4 211/6/4
f 197/6/4 198/6/4 211/6/4
f 150/7/4 186/7/4 212/7/4
f 211/6/4 150/6/4 212/6/4
f 199/4/4 200/4/4 213/4/4
f 186/3/4 199/3/4 213/3/4
f 201/3/4 202/3/4 214/3/4
f 213/4/4 200/4/4 214/4/4
f 200/3/4 201/3/4 214/3/4
f 202/4/4 189/4/4 215/4/4
f 214/3/4 202/3/4 215/3/4
f 189/3/4 154/3/4 216/3/4
f 215/4/4 189/4/4 216/4/4
f 203/6/4 204/6/4 217/6/4
f 154/7/4 155/7/4 217/7/4
f 155/6/4 203/6/4 217/6/4
f 217/6/4 204/6/4 218/6/4
f 205/5/4 206/5/4 219/5/4
f 204/4/4 205/4/4 219/4/4
f 219/5/4 206/5/4 220/5/4
f 206/4/4 207/4/4 221/4/4
f 220/5/4 206/5/4 221/5/4
f 207/4/4 157/4/4 222/4/4
f 221/4/4 207/4/4 222/4/4
f 208/2/4 209/2/4 223/2/4
f 181/4/4 208/4/4 223/4/4
f 223/2/4 209/2/4 224/2/4
f 209/4/4 210/4/4 225/4/4
f 224/2/4 209/2/4 225/2/4
f 211/7/4 212/7/4 226/7/4
f 212/7/4 186/7/4 226/7/4
f 213/3/4 214/3/4 227/3/4
f 226/7/4 186/7/4 227/7/4
f 186/3/4 213/3/4 227/3/4
f 215/3/4 216/3/4 227/3/4
f 214/3/4 215/3/4 227/3/4
f 227/3/4 216/3/4 228/3/4
f 216/3/4 154/3/4 229/3/4
f 228/3/4 216/3/4 229/3/4
f 154/7/4 217/7/4 230/7/4
f 229/3/4 154/3/4 230/3/4
f 217/7/4 218/7/4 230/7/4
f 230/7/4 218/7/4 231/7/4
f 221/2/4 222/2/4 232/2/4
f 220/2/4 221/2/4 232/2/4
f 219/4/4 220/4/4 232/4/4
f 222/4/4 157/4/4 233/4/4
f 232/2/4 222/2/4 233/2/4
f 181/4/4 223/4/4 234/4/4
f 223/5/4 224/5/4 234/5/4
f 224/4/4 225/4/4 235/4/4
f 234/5/4 224/5/4 235/5/4
f 210/4/4 197/4/4 236/4/4
f 235/4/4 225/4/4 236/4/4
f 225/4/4 210/4/4 236/4/4
f 227/3/4 228/3/4 237/3/4
f 228/2/4 229/2/4 237/2/4
f 226/3/4 227/3/4 237/3/4
f 229/3/4 230/3/4 238/3/4
f 237/2/4 229/2/4 238/2/4
f 230/3/4 231/3/4 238/3/4
f 238/3/4 231/3/4 239/3/4
f 231/7/4 218/7/4 240/7/4
f 239/3/4 231/3/4 240/3/4
f 219/4/4 232/4/4 241/4/4
f 218/6/4 204/6/4 241/6/4
f 204/4/4 219/4/4 241/4/4
f 232/4/4 233/4/4 241/4/4
f 241/4/4 233/4/4 242/4/4
f 233/4/4 157/4/4 243/4/4
f 242/4/4 233/4/4 243/4/4
f 235/2/4 236/2/4 244/2/4
f 234/2/4 235/2/4 244/2/4
f 181/4/4 234/4/4 244/4/4
f 244/2/4 236/2/4 245/2/4
f 236/4/4 197/4/4 246/4/4
f 245/2/4 236/2/4 246/2/4
f 197/6/4 211/6/4 247/6/4
f 246/4/4 197/4/4 247/4/4
f 237/7/4 238/7/4 248/7/4
f 226/3/4 237/3/4 248/3/4
f 248/7/4 238/7/4 249/7/4
f 238/3/4 239/3/4 250/3/4
f 249/7/4 238/7/4 250/7/4
f 239/4/4 240/4/4 251/4/4
f 250/3/4 239/3/4 251/3/4
f 240/7/4 218/7/4 252/7/4
f 251/4/4 240/4/4 252/4/4
f 241/5/4 242/5/4 253/5/4
f 242/2/4 243/2/4 253/2/4
f 243/4/4 157/4/4 254/4/4
f 253/2/4 243/2/4 254/2/4
f 157/1/4 141/1/4 255/1/4
f 254/4/4 157/4/4 255/4/4
f 244/4/4 245/4/4 256/4/4
f 140/1/4 181/1/4 256/1/4
f 181/4/4 244/4/4 256/4/4
f 245/5/4 246/5/4 257/5/4
f 256/4/4 245/4/4 257/4/4
f 246/5/4 247/5/4 257/5/4
f 247/6/4 211/6/4 258/6/4
f 257/5/4 247/5/4 258/5/4
f 211/7/4 226/7/4 259/7/4
f 258/6/4 211/6/4 259/6/4
f 226/3/4 248/3/4 260/3/4
f 259/7/4 226/7/4 260/7/4
f 248/4/4 249/4/4 261/4/4
f 260/3/4 248/3/4 261/3/4
f 250/3/4 251/3/4 262/3/4
f 261/4/4 249/4/4 262/4/4
f 249/3/4 250/3/4 262/3/4
f 251/3/4 252/3/4 262/3/4
f 252/7/4 218/7/4 263/7/4
f 262/3/4 252/3/4 263/3/4
f 218/6/4 241/6/4 264/6/4
f 263/7/4 218/7/4 264/7/4
f 241/5/4 253/5/4 265/5/4
f 264/6/4 241/6/4 265/6/4
f 253/4/4 254/4/4 266/4/4
f 265/5/4 253/5/4 266/5/4
f 254/5/4 255/5/4 267/5/4
f 266/4/4 254/4/4 267/4/4
f 255/1/4 141/1/4 268/1/4
f 267/5/4 255/5/4 268/5/4
f 257/1/4 258/1/4 269/1/4
f 140/1/4 256/1/4 269/1/4
f 267/1/4 268/1/4 269/1/4
f 258/1/4 259/1/4 269/1/4
f 265/1/4 266/1/4 269/1/4
f 263/1/4 264/1/4 269/1/4
f 256/1/4 257/1/4 269/1/4
f 266/1/4 267/1/4 269/1/4
f 259/1/4 260/1/4 269/1/4
f 261/1/4 262/1/4 269/1/4
f 262/1/4 263/1/4 269/1/4
f 260/1/4 261/1/4 269/1/4
f 264/1/4 265/1/4 269/1/4
f 268/1/4 141/1/4 270/1/4
f 269/1/4 268/1/4 270/1/4
f 273/1/5 272/1/5 271/1/5
f 274/1/5 272/1/5 273/1/5
f 275/1/6 276/1/6 277/1/6
f 277/1/6 276/1/6 278/1/6
