# MagicaVoxel @ Ephtracy

# group
o 

# material
mtllib mesh_locked_door.mtl
usemtl palette

# normals
vn -1 0 0
vn 1 0 0
vn 0 0 1
vn 0 0 -1
vn 0 -1 0
vn 0 1 0

# texcoords
vt 0.837891 0.5
vt 0.986328 0.5
vt 0.990234 0.5
vt 0.994141 0.5

# verts
v -2.2 -2.2 2.2
v -2.2 -2.2 2
v -2.2 2.2 2.2
v -2.2 2.2 2
v 2.2 -2.2 2.2
v 2.2 -2.2 2
v 2.2 2.2 2.2
v 2.2 2.2 2
v -2.2 -2.2 2.2
v -2.2 2.2 2.2
v -2 -1.6 2.2
v -2 1.8 2.2
v -1.9 -1.5 2.2
v -1.9 1.7 2.2
v -1.8 -1.5 2.2
v -1.8 1.7 2.2
v -0.3 -1.5 2.2
v -0.3 1.7 2.2
v -0.2 -1.5 2.2
v -0.2 1.7 2.2
v -0.0999999 -1.5 2.2
v -0.0999999 1.7 2.2
v 0 -1.5 2.2
v 0 1.7 2.2
v 0.1 -1.5 2.2
v 0.1 1.7 2.2
v 0.2 -1.5 2.2
v 0.2 1.7 2.2
v 0.3 -1.5 2.2
v 0.3 1.7 2.2
v 1.8 -1.5 2.2
v 1.8 1.7 2.2
v 1.9 -1.5 2.2
v 1.9 1.7 2.2
v 2 -1.6 2.2
v 2 1.8 2.2
v 2.2 -2.2 2.2
v 2.2 2.2 2.2
v -2.2 -2.2 2
v -2.2 2.2 2
v -2 -1.6 2
v -2 1.8 2
v -1.9 -1.5 2
v -1.9 1.7 2
v -1.8 -1.5 2
v -1.8 1.7 2
v -0.3 -1.5 2
v -0.3 1.7 2
v -0.2 -1.5 2
v -0.2 1.7 2
v -0.0999999 -1.5 2
v -0.0999999 1.7 2
v 0 -1.5 2
v 0 1.7 2
v 0.1 -1.5 2
v 0.1 1.7 2
v 0.2 -1.5 2
v 0.2 1.7 2
v 0.3 -1.5 2
v 0.3 1.7 2
v 1.8 -1.5 2
v 1.8 1.7 2
v 1.9 -1.5 2
v 1.9 1.7 2
v 2 -1.6 2
v 2 1.8 2
v 2.2 -2.2 2
v 2.2 2.2 2
v -2.2 -2.2 2.2
v 2.2 -2.2 2.2
v -2.2 -2.2 2
v 2.2 -2.2 2
v -2.2 2.2 2.2
v 2.2 2.2 2.2
v -2.2 2.2 2
v 2.2 2.2 2

# faces
f 3/4/1 2/4/1 1/4/1
f 4/4/1 2/4/1 3/4/1
f 5/4/2 6/4/2 7/4/2
f 7/4/2 6/4/2 8/4/2
f 11/4/3 10/4/3 9/4/3
f 12/4/3 10/4/3 11/4/3
f 13/1/3 12/1/3 11/1/3
f 14/1/3 12/1/3 13/1/3
f 15/1/3 13/1/3 11/1/3
f 15/4/3 14/4/3 13/4/3
f 16/1/3 12/1/3 14/1/3
f 16/4/3 14/4/3 15/4/3
f 17/1/3 15/1/3 11/1/3
f 17/3/3 16/3/3 15/3/3
f 18/1/3 12/1/3 16/1/3
f 18/3/3 16/3/3 17/3/3
f 19/1/3 17/1/3 11/1/3
f 19/4/3 18/4/3 17/4/3
f 20/1/3 12/1/3 18/1/3
f 20/4/3 18/4/3 19/4/3
f 21/1/3 19/1/3 11/1/3
f 21/3/3 20/3/3 19/3/3
f 22/1/3 12/1/3 20/1/3
f 22/3/3 20/3/3 21/3/3
f 23/1/3 21/1/3 11/1/3
f 23/2/3 22/2/3 21/2/3
f 24/1/3 12/1/3 22/1/3
f 24/2/3 22/2/3 23/2/3
f 25/1/3 23/1/3 11/1/3
f 25/4/3 24/4/3 23/4/3
f 26/1/3 12/1/3 24/1/3
f 26/4/3 24/4/3 25/4/3
f 27/1/3 25/1/3 11/1/3
f 27/3/3 26/3/3 25/3/3
f 28/1/3 12/1/3 26/1/3
f 28/3/3 26/3/3 27/3/3
f 29/1/3 27/1/3 11/1/3
f 29/4/3 28/4/3 27/4/3
f 30/1/3 12/1/3 28/1/3
f 30/4/3 28/4/3 29/4/3
f 31/1/3 29/1/3 11/1/3
f 31/3/3 30/3/3 29/3/3
f 32/1/3 12/1/3 30/1/3
f 32/3/3 30/3/3 31/3/3
f 33/1/3 31/1/3 11/1/3
f 33/4/3 32/4/3 31/4/3
f 34/1/3 12/1/3 32/1/3
f 34/4/3 32/4/3 33/4/3
f 35/4/3 11/4/3 9/4/3
f 35/1/3 33/1/3 11/1/3
f 35/1/3 34/1/3 33/1/3
f 36/1/3 12/1/3 34/1/3
f 36/1/3 34/1/3 35/1/3
f 36/4/3 10/4/3 12/4/3
f 37/4/3 35/4/3 9/4/3
f 37/4/3 36/4/3 35/4/3
f 38/4/3 10/4/3 36/4/3
f 38/4/3 36/4/3 37/4/3
f 39/4/4 40/4/4 41/4/4
f 41/4/4 40/4/4 42/4/4
f 41/1/4 42/1/4 43/1/4
f 43/1/4 42/1/4 44/1/4
f 41/1/4 43/1/4 45/1/4
f 43/4/4 44/4/4 45/4/4
f 44/1/4 42/1/4 46/1/4
f 45/4/4 44/4/4 46/4/4
f 41/1/4 45/1/4 47/1/4
f 45/3/4 46/3/4 47/3/4
f 46/1/4 42/1/4 48/1/4
f 47/3/4 46/3/4 48/3/4
f 41/1/4 47/1/4 49/1/4
f 47/4/4 48/4/4 49/4/4
f 48/1/4 42/1/4 50/1/4
f 49/4/4 48/4/4 50/4/4
f 41/1/4 49/1/4 51/1/4
f 49/3/4 50/3/4 51/3/4
f 50/1/4 42/1/4 52/1/4
f 51/3/4 50/3/4 52/3/4
f 41/1/4 51/1/4 53/1/4
f 51/4/4 52/4/4 53/4/4
f 52/1/4 42/1/4 54/1/4
f 53/4/4 52/4/4 54/4/4
f 41/1/4 53/1/4 55/1/4
f 53/2/4 54/2/4 55/2/4
f 54/1/4 42/1/4 56/1/4
f 55/2/4 54/2/4 56/2/4
f 41/1/4 55/1/4 57/1/4
f 55/3/4 56/3/4 57/3/4
f 56/1/4 42/1/4 58/1/4
f 57/3/4 56/3/4 58/3/4
f 41/1/4 57/1/4 59/1/4
f 57/4/4 58/4/4 59/4/4
f 58/1/4 42/1/4 60/1/4
f 59/4/4 58/4/4 60/4/4
f 41/1/4 59/1/4 61/1/4
f 59/3/4 60/3/4 61/3/4
f 60/1/4 42/1/4 62/1/4
f 61/3/4 60/3/4 62/3/4
f 41/1/4 61/1/4 63/1/4
f 61/4/4 62/4/4 63/4/4
f 62/1/4 42/1/4 64/1/4
f 63/4/4 62/4/4 64/4/4
f 39/4/4 41/4/4 65/4/4
f 41/1/4 63/1/4 65/1/4
f 63/1/4 64/1/4 65/1/4
f 64/1/4 42/1/4 66/1/4
f 65/1/4 64/1/4 66/1/4
f 42/4/4 40/4/4 66/4/4
f 39/4/4 65/4/4 67/4/4
f 65/4/4 66/4/4 67/4/4
f 66/4/4 40/4/4 68/4/4
f 67/4/4 66/4/4 68/4/4
f 71/4/5 70/4/5 69/4/5
f 72/4/5 70/4/5 71/4/5
f 73/4/6 74/4/6 75/4/6
f 75/4/6 74/4/6 76/4/6
