# MagicaVoxel @ Ephtracy

# group
o 

# material
mtllib mesh_prop_door.mtl
usemtl palette

# normals
vn -1 0 0
vn 1 0 0
vn 0 0 1
vn 0 0 -1
vn 0 -1 0
vn 0 1 0

# texcoords
vt 0.837891 0.5
vt 0.986328 0.5
vt 0.990234 0.5
vt 0.994141 0.5

# verts
v -1 -1.9 0.1
v -1 -1.9 -0.1
v -1 -1.8 0.1
v -1 -1.8 0
v -1 -1.8 -0.1
v -1 1.8 0.1
v -1 1.8 0
v -1 1.8 -0.1
v -1 1.9 0.1
v -1 1.9 -0.1
v 1 -1.9 0.1
v 1 -1.9 -0.1
v 1 1.9 0.1
v 1 1.9 -0.1
v -1 -1.9 0.1
v -1 -1.8 0.1
v -1 1.8 0.1
v -1 1.9 0.1
v -0.9 -1.8 0.1
v -0.9 1.8 0.1
v -0.8 -1.8 0.1
v -0.8 1.8 0.1
v -0.7 -1.8 0.1
v -0.7 1.8 0.1
v 0.8 -1.8 0.1
v 0.8 1.8 0.1
v 0.9 -1.8 0.1
v 0.9 1.8 0.1
v 1 -1.9 0.1
v 1 1.9 0.1
v -1 -1.9 -0.1
v -1 -1.8 -0.1
v -1 1.8 -0.1
v -1 1.9 -0.1
v -0.9 -1.8 -0.1
v -0.9 1.8 -0.1
v -0.8 -1.8 -0.1
v -0.8 1.8 -0.1
v -0.7 -1.8 -0.1
v -0.7 1.8 -0.1
v 0.8 -1.8 -0.1
v 0.8 1.8 -0.1
v 0.9 -1.8 -0.1
v 0.9 1.8 -0.1
v 1 -1.9 -0.1
v 1 1.9 -0.1
v -1 -1.9 0.1
v 1 -1.9 0.1
v -1 -1.9 -0.1
v 1 -1.9 -0.1
v -1 1.9 0.1
v 1 1.9 0.1
v -1 1.9 -0.1
v 1 1.9 -0.1

# faces
f 3/1/1 2/1/1 1/1/1
f 4/1/1 2/1/1 3/1/1
f 5/1/1 2/1/1 4/1/1
f 6/4/1 4/4/1 3/4/1
f 7/2/1 5/2/1 4/2/1
f 7/4/1 4/4/1 6/4/1
f 8/2/1 5/2/1 7/2/1
f 9/1/1 7/1/1 6/1/1
f 9/1/1 8/1/1 7/1/1
f 10/1/1 8/1/1 9/1/1
f 11/1/2 12/1/2 13/1/2
f 13/1/2 12/1/2 14/1/2
f 19/1/3 16/1/3 15/1/3
f 19/4/3 17/4/3 16/4/3
f 20/1/3 18/1/3 17/1/3
f 20/4/3 17/4/3 19/4/3
f 21/1/3 19/1/3 15/1/3
f 21/3/3 20/3/3 19/3/3
f 22/1/3 18/1/3 20/1/3
f 22/3/3 20/3/3 21/3/3
f 23/1/3 21/1/3 15/1/3
f 23/4/3 22/4/3 21/4/3
f 24/1/3 18/1/3 22/1/3
f 24/4/3 22/4/3 23/4/3
f 25/1/3 23/1/3 15/1/3
f 25/3/3 24/3/3 23/3/3
f 26/1/3 18/1/3 24/1/3
f 26/3/3 24/3/3 25/3/3
f 27/1/3 25/1/3 15/1/3
f 27/4/3 26/4/3 25/4/3
f 28/1/3 18/1/3 26/1/3
f 28/4/3 26/4/3 27/4/3
f 29/1/3 27/1/3 15/1/3
f 29/1/3 28/1/3 27/1/3
f 30/1/3 18/1/3 28/1/3
f 30/1/3 28/1/3 29/1/3
f 31/1/4 32/1/4 35/1/4
f 32/2/4 33/2/4 35/2/4
f 33/1/4 34/1/4 36/1/4
f 35/2/4 33/2/4 36/2/4
f 31/1/4 35/1/4 37/1/4
f 35/3/4 36/3/4 37/3/4
f 36/1/4 34/1/4 38/1/4
f 37/3/4 36/3/4 38/3/4
f 31/1/4 37/1/4 39/1/4
f 37/4/4 38/4/4 39/4/4
f 38/1/4 34/1/4 40/1/4
f 39/4/4 38/4/4 40/4/4
f 31/1/4 39/1/4 41/1/4
f 39/3/4 40/3/4 41/3/4
f 40/1/4 34/1/4 42/1/4
f 41/3/4 40/3/4 42/3/4
f 31/1/4 41/1/4 43/1/4
f 41/4/4 42/4/4 43/4/4
f 42/1/4 34/1/4 44/1/4
f 43/4/4 42/4/4 44/4/4
f 31/1/4 43/1/4 45/1/4
f 43/1/4 44/1/4 45/1/4
f 44/1/4 34/1/4 46/1/4
f 45/1/4 44/1/4 46/1/4
f 49/1/5 48/1/5 47/1/5
f 50/1/5 48/1/5 49/1/5
f 51/1/6 52/1/6 53/1/6
f 53/1/6 52/1/6 54/1/6
