# MagicaVoxel @ Ephtracy

# group
o 

# material
mtllib mesh_prop_security_cctv.mtl
usemtl palette

# normals
vn -1 0 0
vn 1 0 0
vn 0 0 1
vn 0 0 -1
vn 0 -1 0
vn 0 1 0

# texcoords
vt 0.716797 0.5
vt 0.720703 0.5
vt 0.939453 0.5
vt 0.943359 0.5
vt 0.951172 0.5
vt 0.990234 0.5
vt 0.994141 0.5

# verts
v -2.2 -2 0.9
v -2.2 -2 -0.6
v -2.2 -1.9 0.9
v -2.2 -1.9 -0.6
v -2.2 -1 0.9
v -2.2 -1 0.8
v -2.2 -0.9 2.2
v -2.2 -0.9 2.1
v -2.2 -0.9 0.9
v -2.2 -0.9 0.8
v -2.2 -0.8 2.2
v -2.2 -0.8 2.1
v -2.2 -0.6 2.2
v -2.2 -0.6 2.1
v -2.2 -0.5 2.2
v -2.2 -0.5 2.1
v -2.2 -0.5 0.4
v -2.2 -0.5 0.3
v -2.2 -0.4 0.4
v -2.2 -0.4 0.3
v -2.2 0.4 0.3
v -2.2 0.4 0.2
v -2.2 0.4 -0.5
v -2.2 0.4 -0.6
v -2.2 0.5 0.3
v -2.2 0.5 0.2
v -2.2 0.5 -0.5
v -2.2 0.5 -0.6
v -2 -0.5 0.8
v -2 -0.5 0.5
v -2 -0.4 0.8
v -2 -0.4 0.5
v -1.9 -0.4 0.7
v -1.9 -0.4 0.6
v -1.9 0.5 0.7
v -1.9 0.5 0.6
v -1.8 -0.5 1.9
v -1.8 -0.5 1.1
v -1.8 -0.4 1.9
v -1.8 -0.4 1.1
v -1.3 0.5 0.5
v -1.3 0.5 0.3
v -1.3 0.5 0.2
v -1.3 0.5 0.0999999
v -1.3 0.7 0.5
v -1.3 0.7 0.0999999
v -1.2 0.7 0.4
v -1.2 0.7 0.2
v -1.2 1.9 0.4
v -1.2 1.9 0.2
v -1 -0.4 0.4
v -1 -0.4 0.3
v -1 0.4 0.3
v -1 0.5 0.4
v -1 0.5 0.3
v 0.2 -0.5 0.8
v 0.2 -0.5 0.5
v 0.2 -0.4 0.8
v 0.2 -0.4 0.5
v 0.3 -0.4 0.7
v 0.3 -0.4 0.6
v 0.3 0.5 0.7
v 0.3 0.5 0.6
v 0.8 -0.4 0.4
v 0.8 -0.4 0.3
v 0.8 0.4 0.3
v 0.8 0.5 0.4
v 0.8 0.5 0.3
v -0.8 -0.4 0.4
v -0.8 -0.4 0.3
v -0.8 0.4 0.3
v -0.8 0.5 0.4
v -0.8 0.5 0.3
v -0.3 -0.4 0.7
v -0.3 -0.4 0.6
v -0.3 0.5 0.7
v -0.3 0.5 0.6
v -0.2 -0.5 0.8
v -0.2 -0.5 0.5
v -0.2 -0.4 0.8
v -0.2 -0.4 0.5
v 1 -0.4 0.4
v 1 -0.4 0.3
v 1 0.4 0.3
v 1 0.5 0.4
v 1 0.5 0.3
v 1.2 0.7 0.4
v 1.2 0.7 0.2
v 1.2 1.9 0.4
v 1.2 1.9 0.2
v 1.3 0.5 0.5
v 1.3 0.5 0.3
v 1.3 0.5 0.2
v 1.3 0.5 0.0999999
v 1.3 0.7 0.5
v 1.3 0.7 0.0999999
v 1.8 -0.5 1.9
v 1.8 -0.5 1.1
v 1.8 -0.4 1.9
v 1.8 -0.4 1.1
v 1.9 -0.4 0.7
v 1.9 -0.4 0.6
v 1.9 0.5 0.7
v 1.9 0.5 0.6
v 2 -0.5 0.8
v 2 -0.5 0.5
v 2 -0.4 0.8
v 2 -0.4 0.5
v 2.2 -2 0.9
v 2.2 -2 -0.6
v 2.2 -1.9 0.9
v 2.2 -1.9 -0.6
v 2.2 -1 0.9
v 2.2 -1 0.8
v 2.2 -0.9 2.2
v 2.2 -0.9 2.1
v 2.2 -0.9 0.9
v 2.2 -0.9 0.8
v 2.2 -0.8 2.2
v 2.2 -0.8 2.1
v 2.2 -0.6 2.2
v 2.2 -0.6 2.1
v 2.2 -0.5 2.2
v 2.2 -0.5 2.1
v 2.2 -0.5 0.4
v 2.2 -0.5 0.3
v 2.2 -0.4 0.4
v 2.2 -0.4 0.3
v 2.2 0.4 0.3
v 2.2 0.4 0.2
v 2.2 0.4 -0.5
v 2.2 0.4 -0.6
v 2.2 0.5 0.3
v 2.2 0.5 0.2
v 2.2 0.5 -0.5
v 2.2 0.5 -0.6
v -2.2 -0.9 2.2
v -2.2 -0.8 2.2
v -2.2 -0.6 2.2
v -2.2 -0.5 2.2
v 2.2 -0.9 2.2
v 2.2 -0.8 2.2
v 2.2 -0.6 2.2
v 2.2 -0.5 2.2
v -1.8 -0.5 1.9
v -1.8 -0.4 1.9
v 1.8 -0.5 1.9
v 1.8 -0.4 1.9
v -2.2 -2 0.9
v -2.2 -1.9 0.9
v -2.2 -1 0.9
v -2.2 -0.9 0.9
v 2.2 -2 0.9
v 2.2 -1.9 0.9
v 2.2 -1 0.9
v 2.2 -0.9 0.9
v -2 -0.5 0.8
v -2 -0.4 0.8
v -0.2 -0.5 0.8
v -0.2 -0.4 0.8
v 0.2 -0.5 0.8
v 0.2 -0.4 0.8
v 2 -0.5 0.8
v 2 -0.4 0.8
v -1.9 -0.4 0.7
v -1.9 0.5 0.7
v -0.3 -0.4 0.7
v -0.3 0.5 0.7
v 0.3 -0.4 0.7
v 0.3 0.5 0.7
v 1.9 -0.4 0.7
v 1.9 0.5 0.7
v -1.3 0.5 0.5
v -1.3 0.7 0.5
v 1.3 0.5 0.5
v 1.3 0.7 0.5
v -2.2 -0.5 0.4
v -2.2 -0.4 0.4
v -1.2 0.7 0.4
v -1.2 1.9 0.4
v -1 -0.4 0.4
v -1 0.5 0.4
v -0.8 -0.4 0.4
v -0.8 0.5 0.4
v 0.8 -0.4 0.4
v 0.8 0.5 0.4
v 1 -0.4 0.4
v 1 0.5 0.4
v 1.2 0.7 0.4
v 1.2 1.9 0.4
v 2.2 -0.5 0.4
v 2.2 -0.4 0.4
v -2.2 -0.4 0.3
v -2.2 0.4 0.3
v -2.2 0.5 0.3
v -1.3 0.5 0.3
v -1 -0.4 0.3
v -1 0.4 0.3
v -1 0.5 0.3
v -0.8 -0.4 0.3
v -0.8 0.4 0.3
v -0.8 0.5 0.3
v 0.8 -0.4 0.3
v 0.8 0.4 0.3
v 0.8 0.5 0.3
v 1 -0.4 0.3
v 1 0.4 0.3
v 1 0.5 0.3
v 1.3 0.5 0.3
v 2.2 -0.4 0.3
v 2.2 0.4 0.3
v 2.2 0.5 0.3
v -1.8 -0.5 1.1
v -1.8 -0.4 1.1
v 1.8 -0.5 1.1
v 1.8 -0.4 1.1
v -1.9 -0.4 0.6
v -1.9 0.5 0.6
v -0.3 -0.4 0.6
v -0.3 0.5 0.6
v 0.3 -0.4 0.6
v 0.3 0.5 0.6
v 1.9 -0.4 0.6
v 1.9 0.5 0.6
v -2 -0.5 0.5
v -2 -0.4 0.5
v -0.2 -0.5 0.5
v -0.2 -0.4 0.5
v 0.2 -0.5 0.5
v 0.2 -0.4 0.5
v 2 -0.5 0.5
v 2 -0.4 0.5
v -1.2 0.7 0.2
v -1.2 1.9 0.2
v 1.2 0.7 0.2
v 1.2 1.9 0.2
v -1.3 0.5 0.0999999
v -1.3 0.7 0.0999999
v 1.3 0.5 0.0999999
v 1.3 0.7 0.0999999
v -2.2 -2 -0.6
v -2.2 -1.9 -0.6
v -2.2 0.4 -0.6
v -2.2 0.5 -0.6
v 2.2 -2 -0.6
v 2.2 -1.9 -0.6
v 2.2 0.4 -0.6
v 2.2 0.5 -0.6
v -2.2 -2 0.9
v 2.2 -2 0.9
v -2.2 -2 -0.6
v 2.2 -2 -0.6
v -2.2 -0.9 2.2
v 2.2 -0.9 2.2
v -2.2 -0.9 2.1
v 2.2 -0.9 2.1
v -2.2 -0.9 0.9
v 2.2 -0.9 0.9
v -1.3 0.5 0.5
v 1.3 0.5 0.5
v -1 0.5 0.4
v -0.8 0.5 0.4
v 0.8 0.5 0.4
v 1 0.5 0.4
v -1.3 0.5 0.3
v -1 0.5 0.3
v -0.8 0.5 0.3
v 0.8 0.5 0.3
v 1 0.5 0.3
v 1.3 0.5 0.3
v -2.2 -0.5 2.2
v 2.2 -0.5 2.2
v -2.2 -0.5 2.1
v 2.2 -0.5 2.1
v -1.8 -0.5 1.9
v 1.8 -0.5 1.9
v -1.8 -0.5 1.1
v 1.8 -0.5 1.1
v -2 -0.5 0.8
v -0.2 -0.5 0.8
v 0.2 -0.5 0.8
v 2 -0.5 0.8
v -2 -0.5 0.5
v -0.2 -0.5 0.5
v 0.2 -0.5 0.5
v 2 -0.5 0.5
v -2.2 -0.5 0.4
v 2.2 -0.5 0.4
v -1.8 -0.4 1.9
v 1.8 -0.4 1.9
v -1.7 -0.4 1.8
v -0.9 -0.4 1.8
v -0.8 -0.4 1.8
v -0.6 -0.4 1.8
v -0.5 -0.4 1.8
v -0.4 -0.4 1.8
v -0.3 -0.4 1.8
v 0.2 -0.4 1.8
v 0.3 -0.4 1.8
v 0.5 -0.4 1.8
v 0.6 -0.4 1.8
v 0.8 -0.4 1.8
v 0.9 -0.4 1.8
v 1.2 -0.4 1.8
v 1.3 -0.4 1.8
v 1.7 -0.4 1.8
v -0.8 -0.4 1.7
v -0.7 -0.4 1.7
v -0.6 -0.4 1.7
v -0.5 -0.4 1.7
v -0.4 -0.4 1.7
v -0.3 -0.4 1.7
v -0.2 -0.4 1.7
v -0.0999999 -0.4 1.7
v 0 -0.4 1.7
v 0.1 -0.4 1.7
v 0.2 -0.4 1.7
v 0.3 -0.4 1.7
v 0.4 -0.4 1.7
v 0.5 -0.4 1.7
v 0.6 -0.4 1.7
v 0.7 -0.4 1.7
v 0.8 -0.4 1.7
v -0.8 -0.4 1.6
v -0.7 -0.4 1.6
v -0.6 -0.4 1.6
v -0.5 -0.4 1.6
v -0.4 -0.4 1.6
v -0.3 -0.4 1.6
v -0.2 -0.4 1.6
v -0.0999999 -0.4 1.6
v 0 -0.4 1.6
v 0.1 -0.4 1.6
v 0.2 -0.4 1.6
v 0.3 -0.4 1.6
v 0.4 -0.4 1.6
v 0.5 -0.4 1.6
v 0.6 -0.4 1.6
v 0.7 -0.4 1.6
v 0.8 -0.4 1.6
v -0.8 -0.4 1.5
v -0.7 -0.4 1.5
v -0.6 -0.4 1.5
v -0.5 -0.4 1.5
v -0.4 -0.4 1.5
v -0.3 -0.4 1.5
v -0.2 -0.4 1.5
v -0.0999999 -0.4 1.5
v 0 -0.4 1.5
v 0.1 -0.4 1.5
v 0.2 -0.4 1.5
v 0.3 -0.4 1.5
v 0.4 -0.4 1.5
v 0.5 -0.4 1.5
v 0.6 -0.4 1.5
v 0.7 -0.4 1.5
v 0.8 -0.4 1.5
v -0.8 -0.4 1.4
v -0.7 -0.4 1.4
v -0.6 -0.4 1.4
v -0.5 -0.4 1.4
v -0.4 -0.4 1.4
v -0.3 -0.4 1.4
v -0.2 -0.4 1.4
v -0.0999999 -0.4 1.4
v 0 -0.4 1.4
v 0.1 -0.4 1.4
v 0.2 -0.4 1.4
v 0.3 -0.4 1.4
v 0.4 -0.4 1.4
v 0.5 -0.4 1.4
v 0.6 -0.4 1.4
v 0.7 -0.4 1.4
v 0.8 -0.4 1.4
v -0.8 -0.4 1.3
v -0.7 -0.4 1.3
v -0.6 -0.4 1.3
v -0.5 -0.4 1.3
v -0.4 -0.4 1.3
v -0.3 -0.4 1.3
v -0.2 -0.4 1.3
v -0.0999999 -0.4 1.3
v 0 -0.4 1.3
v 0.1 -0.4 1.3
v 0.2 -0.4 1.3
v 0.3 -0.4 1.3
v 0.4 -0.4 1.3
v 0.5 -0.4 1.3
v 0.6 -0.4 1.3
v 0.7 -0.4 1.3
v 0.8 -0.4 1.3
v -1.7 -0.4 1.2
v -0.9 -0.4 1.2
v -0.8 -0.4 1.2
v -0.7 -0.4 1.2
v -0.6 -0.4 1.2
v -0.5 -0.4 1.2
v -0.4 -0.4 1.2
v -0.3 -0.4 1.2
v -0.2 -0.4 1.2
v -0.0999999 -0.4 1.2
v 0 -0.4 1.2
v 0.1 -0.4 1.2
v 0.2 -0.4 1.2
v 0.3 -0.4 1.2
v 0.4 -0.4 1.2
v 0.5 -0.4 1.2
v 0.6 -0.4 1.2
v 0.8 -0.4 1.2
v 0.9 -0.4 1.2
v 1.2 -0.4 1.2
v 1.3 -0.4 1.2
v 1.7 -0.4 1.2
v -1.8 -0.4 1.1
v 1.8 -0.4 1.1
v -2 -0.4 0.8
v -0.2 -0.4 0.8
v 0.2 -0.4 0.8
v 2 -0.4 0.8
v -1.9 -0.4 0.7
v -0.3 -0.4 0.7
v 0.3 -0.4 0.7
v 1.9 -0.4 0.7
v -1.9 -0.4 0.6
v -0.3 -0.4 0.6
v 0.3 -0.4 0.6
v 1.9 -0.4 0.6
v -2 -0.4 0.5
v -0.2 -0.4 0.5
v 0.2 -0.4 0.5
v 2 -0.4 0.5
v -2.2 -0.4 0.4
v -1 -0.4 0.4
v -0.8 -0.4 0.4
v 0.8 -0.4 0.4
v 1 -0.4 0.4
v 2.2 -0.4 0.4
v -2.2 -0.4 0.3
v -1 -0.4 0.3
v -0.8 -0.4 0.3
v 0.8 -0.4 0.3
v 1 -0.4 0.3
v 2.2 -0.4 0.3
v -1.9 0.5 0.7
v -0.3 0.5 0.7
v 0.3 0.5 0.7
v 1.9 0.5 0.7
v -1.9 0.5 0.6
v -0.3 0.5 0.6
v 0.3 0.5 0.6
v 1.9 0.5 0.6
v -2.2 0.5 0.3
v -1.3 0.5 0.3
v 1.3 0.5 0.3
v 2.2 0.5 0.3
v -2.2 0.5 0.2
v -1.3 0.5 0.2
v 1.3 0.5 0.2
v 2.2 0.5 0.2
v -1.3 0.5 0.0999999
v 1.3 0.5 0.0999999
v -2.2 0.5 -0.5
v 2.2 0.5 -0.5
v -2.2 0.5 -0.6
v 2.2 0.5 -0.6
v -1.3 0.7 0.5
v 1.3 0.7 0.5
v -1.2 0.7 0.4
v 1.2 0.7 0.4
v -1.2 0.7 0.2
v 1.2 0.7 0.2
v -1.3 0.7 0.0999999
v 1.3 0.7 0.0999999
v -1.2 1.9 0.4
v 1.2 1.9 0.4
v -1.2 1.9 0.2
v 1.2 1.9 0.2

# faces
f 3/7/1 2/7/1 1/7/1
f 4/7/1 2/7/1 3/7/1
f 5/6/1 4/6/1 3/6/1
f 6/6/1 4/6/1 5/6/1
f 9/7/1 6/7/1 5/7/1
f 10/6/1 4/6/1 6/6/1
f 10/7/1 6/7/1 9/7/1
f 11/7/1 8/7/1 7/7/1
f 12/6/1 9/6/1 8/6/1
f 12/7/1 8/7/1 11/7/1
f 12/6/1 10/6/1 9/6/1
f 13/6/1 12/6/1 11/6/1
f 14/6/1 10/6/1 12/6/1
f 14/6/1 12/6/1 13/6/1
f 15/7/1 14/7/1 13/7/1
f 16/6/1 10/6/1 14/6/1
f 16/7/1 14/7/1 15/7/1
f 17/6/1 4/6/1 10/6/1
f 17/6/1 10/6/1 16/6/1
f 18/6/1 4/6/1 17/6/1
f 19/7/1 18/7/1 17/7/1
f 20/6/1 4/6/1 18/6/1
f 20/7/1 18/7/1 19/7/1
f 21/6/1 4/6/1 20/6/1
f 22/6/1 4/6/1 21/6/1
f 23/6/1 4/6/1 22/6/1
f 24/6/1 4/6/1 23/6/1
f 25/7/1 22/7/1 21/7/1
f 26/6/1 23/6/1 22/6/1
f 26/7/1 22/7/1 25/7/1
f 27/7/1 24/7/1 23/7/1
f 27/6/1 23/6/1 26/6/1
f 28/7/1 24/7/1 27/7/1
f 31/7/1 30/7/1 29/7/1
f 32/7/1 30/7/1 31/7/1
f 35/1/1 34/1/1 33/1/1
f 36/1/1 34/1/1 35/1/1
f 39/7/1 38/7/1 37/7/1
f 40/7/1 38/7/1 39/7/1
f 45/7/1 42/7/1 41/7/1
f 45/7/1 44/7/1 43/7/1
f 45/7/1 43/7/1 42/7/1
f 46/7/1 44/7/1 45/7/1
f 49/1/1 48/1/1 47/1/1
f 50/1/1 48/1/1 49/1/1
f 53/7/1 52/7/1 51/7/1
f 54/7/1 53/7/1 51/7/1
f 55/7/1 53/7/1 54/7/1
f 58/7/1 57/7/1 56/7/1
f 59/7/1 57/7/1 58/7/1
f 62/1/1 61/1/1 60/1/1
f 63/1/1 61/1/1 62/1/1
f 66/7/1 65/7/1 64/7/1
f 67/7/1 66/7/1 64/7/1
f 68/7/1 66/7/1 67/7/1
f 69/7/2 70/7/2 71/7/2
f 69/7/2 71/7/2 72/7/2
f 72/7/2 71/7/2 73/7/2
f 74/1/2 75/1/2 76/1/2
f 76/1/2 75/1/2 77/1/2
f 78/7/2 79/7/2 80/7/2
f 80/7/2 79/7/2 81/7/2
f 82/7/2 83/7/2 84/7/2
f 82/7/2 84/7/2 85/7/2
f 85/7/2 84/7/2 86/7/2
f 87/1/2 88/1/2 89/1/2
f 89/1/2 88/1/2 90/1/2
f 91/7/2 92/7/2 95/7/2
f 93/7/2 94/7/2 95/7/2
f 92/7/2 93/7/2 95/7/2
f 95/7/2 94/7/2 96/7/2
f 97/7/2 98/7/2 99/7/2
f 99/7/2 98/7/2 100/7/2
f 101/1/2 102/1/2 103/1/2
f 103/1/2 102/1/2 104/1/2
f 105/7/2 106/7/2 107/7/2
f 107/7/2 106/7/2 108/7/2
f 109/7/2 110/7/2 111/7/2
f 111/7/2 110/7/2 112/7/2
f 111/6/2 112/6/2 113/6/2
f 113/6/2 112/6/2 114/6/2
f 113/7/2 114/7/2 117/7/2
f 114/6/2 112/6/2 118/6/2
f 117/7/2 114/7/2 118/7/2
f 115/7/2 116/7/2 119/7/2
f 116/6/2 117/6/2 120/6/2
f 119/7/2 116/7/2 120/7/2
f 117/6/2 118/6/2 120/6/2
f 119/6/2 120/6/2 121/6/2
f 120/6/2 118/6/2 122/6/2
f 121/6/2 120/6/2 122/6/2
f 121/7/2 122/7/2 123/7/2
f 122/6/2 118/6/2 124/6/2
f 123/7/2 122/7/2 124/7/2
f 118/6/2 112/6/2 125/6/2
f 124/6/2 118/6/2 125/6/2
f 125/6/2 112/6/2 126/6/2
f 125/7/2 126/7/2 127/7/2
f 126/6/2 112/6/2 128/6/2
f 127/7/2 126/7/2 128/7/2
f 128/6/2 112/6/2 129/6/2
f 129/6/2 112/6/2 130/6/2
f 130/6/2 112/6/2 131/6/2
f 131/6/2 112/6/2 132/6/2
f 129/7/2 130/7/2 133/7/2
f 130/6/2 131/6/2 134/6/2
f 133/7/2 130/7/2 134/7/2
f 131/7/2 132/7/2 135/7/2
f 134/6/2 131/6/2 135/6/2
f 135/7/2 132/7/2 136/7/2
f 141/7/3 138/7/3 137/7/3
f 142/6/3 139/6/3 138/6/3
f 142/7/3 138/7/3 141/7/3
f 143/7/3 140/7/3 139/7/3
f 143/6/3 139/6/3 142/6/3
f 144/7/3 140/7/3 143/7/3
f 147/7/3 146/7/3 145/7/3
f 148/7/3 146/7/3 147/7/3
f 153/7/3 150/7/3 149/7/3
f 154/6/3 151/6/3 150/6/3
f 154/7/3 150/7/3 153/7/3
f 155/7/3 152/7/3 151/7/3
f 155/6/3 151/6/3 154/6/3
f 156/7/3 152/7/3 155/7/3
f 159/7/3 158/7/3 157/7/3
f 160/7/3 158/7/3 159/7/3
f 163/7/3 162/7/3 161/7/3
f 164/7/3 162/7/3 163/7/3
f 167/1/3 166/1/3 165/1/3
f 168/1/3 166/1/3 167/1/3
f 171/1/3 170/1/3 169/1/3
f 172/1/3 170/1/3 171/1/3
f 175/7/3 174/7/3 173/7/3
f 176/7/3 174/7/3 175/7/3
f 181/7/3 178/7/3 177/7/3
f 183/7/3 181/7/3 177/7/3
f 183/7/3 182/7/3 181/7/3
f 184/7/3 182/7/3 183/7/3
f 185/7/3 183/7/3 177/7/3
f 187/7/3 185/7/3 177/7/3
f 187/7/3 186/7/3 185/7/3
f 188/7/3 186/7/3 187/7/3
f 189/1/3 180/1/3 179/1/3
f 190/1/3 180/1/3 189/1/3
f 191/7/3 187/7/3 177/7/3
f 192/7/3 187/7/3 191/7/3
f 196/7/3 195/7/3 194/7/3
f 197/6/3 194/6/3 193/6/3
f 198/7/3 196/7/3 194/7/3
f 198/6/3 194/6/3 197/6/3
f 199/7/3 196/7/3 198/7/3
f 203/6/3 201/6/3 200/6/3
f 204/7/3 202/7/3 201/7/3
f 204/6/3 201/6/3 203/6/3
f 205/7/3 202/7/3 204/7/3
f 209/7/3 208/7/3 207/7/3
f 210/6/3 207/6/3 206/6/3
f 211/7/3 209/7/3 207/7/3
f 211/6/3 207/6/3 210/6/3
f 212/7/3 209/7/3 211/7/3
f 213/7/4 214/7/4 215/7/4
f 215/7/4 214/7/4 216/7/4
f 217/1/4 218/1/4 219/1/4
f 219/1/4 218/1/4 220/1/4
f 221/1/4 222/1/4 223/1/4
f 223/1/4 222/1/4 224/1/4
f 225/7/4 226/7/4 227/7/4
f 227/7/4 226/7/4 228/7/4
f 229/7/4 230/7/4 231/7/4
f 231/7/4 230/7/4 232/7/4
f 233/1/4 234/1/4 235/1/4
f 235/1/4 234/1/4 236/1/4
f 237/7/4 238/7/4 239/7/4
f 239/7/4 238/7/4 240/7/4
f 241/7/4 242/7/4 245/7/4
f 242/6/4 243/6/4 246/6/4
f 245/7/4 242/7/4 246/7/4
f 243/7/4 244/7/4 247/7/4
f 246/6/4 243/6/4 247/6/4
f 247/7/4 244/7/4 248/7/4
f 251/7/5 250/7/5 249/7/5
f 252/7/5 250/7/5 251/7/5
f 255/7/5 254/7/5 253/7/5
f 256/7/5 254/7/5 255/7/5
f 257/6/5 256/6/5 255/6/5
f 258/6/5 256/6/5 257/6/5
f 261/7/5 260/7/5 259/7/5
f 262/7/5 260/7/5 261/7/5
f 263/7/5 260/7/5 262/7/5
f 264/7/5 260/7/5 263/7/5
f 265/7/5 261/7/5 259/7/5
f 266/7/5 261/7/5 265/7/5
f 267/7/5 263/7/5 262/7/5
f 268/7/5 263/7/5 267/7/5
f 269/7/5 260/7/5 264/7/5
f 270/7/5 260/7/5 269/7/5
f 271/7/6 272/7/6 273/7/6
f 273/7/6 272/7/6 274/7/6
f 273/6/6 274/6/6 275/6/6
f 275/6/6 274/6/6 276/6/6
f 273/6/6 275/6/6 277/6/6
f 276/6/6 274/6/6 278/6/6
f 273/6/6 277/6/6 279/6/6
f 277/6/6 278/6/6 279/6/6
f 279/6/6 278/6/6 280/6/6
f 280/6/6 278/6/6 281/6/6
f 278/6/6 274/6/6 282/6/6
f 281/6/6 278/6/6 282/6/6
f 273/6/6 279/6/6 283/6/6
f 280/6/6 281/6/6 284/6/6
f 284/6/6 281/6/6 285/6/6
f 282/6/6 274/6/6 286/6/6
f 273/6/6 283/6/6 287/6/6
f 285/6/6 286/6/6 287/6/6
f 284/6/6 285/6/6 287/6/6
f 283/6/6 284/6/6 287/6/6
f 286/6/6 274/6/6 288/6/6
f 287/6/6 286/6/6 288/6/6
f 289/7/6 290/7/6 291/7/6
f 291/7/6 290/7/6 292/7/6
f 292/7/6 290/7/6 293/7/6
f 293/7/6 290/7/6 294/7/6
f 294/7/6 290/7/6 295/7/6
f 295/7/6 290/7/6 296/7/6
f 296/7/6 290/7/6 297/7/6
f 297/7/6 290/7/6 298/7/6
f 298/7/6 290/7/6 299/7/6
f 299/7/6 290/7/6 300/7/6
f 300/7/6 290/7/6 301/7/6
f 301/7/6 290/7/6 302/7/6
f 302/7/6 290/7/6 303/7/6
f 303/7/6 290/7/6 304/7/6
f 304/7/6 290/7/6 305/7/6
f 305/7/6 290/7/6 306/7/6
f 292/7/6 293/7/6 307/7/6
f 293/3/6 294/3/6 307/3/6
f 307/3/6 294/3/6 308/3/6
f 294/5/6 295/5/6 309/5/6
f 308/3/6 294/3/6 309/3/6
f 295/4/6 296/4/6 310/4/6
f 309/5/6 295/5/6 310/5/6
f 296/5/6 297/5/6 311/5/6
f 310/4/6 296/4/6 311/4/6
f 297/3/6 298/3/6 312/3/6
f 311/5/6 297/5/6 312/5/6
f 312/3/6 298/3/6 313/3/6
f 313/3/6 298/3/6 314/3/6
f 314/3/6 298/3/6 315/3/6
f 315/3/6 298/3/6 316/3/6
f 298/5/6 299/5/6 317/5/6
f 316/3/6 298/3/6 317/3/6
f 299/3/6 300/3/6 318/3/6
f 317/5/6 299/5/6 318/5/6
f 318/3/6 300/3/6 319/3/6
f 300/4/6 301/4/6 320/4/6
f 319/3/6 300/3/6 320/3/6
f 301/3/6 302/3/6 321/3/6
f 320/4/6 301/4/6 321/4/6
f 321/3/6 302/3/6 322/3/6
f 302/7/6 303/7/6 323/7/6
f 322/3/6 302/3/6 323/3/6
f 307/4/6 308/4/6 324/4/6
f 292/7/6 307/7/6 324/7/6
f 308/5/6 309/5/6 325/5/6
f 324/4/6 308/4/6 325/4/6
f 309/4/6 310/4/6 326/4/6
f 325/5/6 309/5/6 326/5/6
f 310/5/6 311/5/6 327/5/6
f 326/4/6 310/4/6 327/4/6
f 311/4/6 312/4/6 328/4/6
f 327/5/6 311/5/6 328/5/6
f 312/5/6 313/5/6 329/5/6
f 328/4/6 312/4/6 329/4/6
f 313/4/6 314/4/6 330/4/6
f 329/5/6 313/5/6 330/5/6
f 314/5/6 315/5/6 331/5/6
f 330/4/6 314/4/6 331/4/6
f 315/4/6 316/4/6 332/4/6
f 331/5/6 315/5/6 332/5/6
f 316/5/6 317/5/6 333/5/6
f 332/4/6 316/4/6 333/4/6
f 317/4/6 318/4/6 334/4/6
f 333/5/6 317/5/6 334/5/6
f 318/5/6 319/5/6 335/5/6
f 334/4/6 318/4/6 335/4/6
f 319/4/6 320/4/6 336/4/6
f 335/5/6 319/5/6 336/5/6
f 320/5/6 321/5/6 337/5/6
f 336/4/6 320/4/6 337/4/6
f 321/4/6 322/4/6 338/4/6
f 337/5/6 321/5/6 338/5/6
f 322/5/6 323/5/6 339/5/6
f 338/4/6 322/4/6 339/4/6
f 323/7/6 303/7/6 340/7/6
f 339/5/6 323/5/6 340/5/6
f 292/7/6 324/7/6 341/7/6
f 324/3/6 325/3/6 341/3/6
f 325/3/6 326/3/6 341/3/6
f 341/3/6 326/3/6 342/3/6
f 326/5/6 327/5/6 343/5/6
f 342/3/6 326/3/6 343/3/6
f 327/4/6 328/4/6 344/4/6
f 343/5/6 327/5/6 344/5/6
f 328/5/6 329/5/6 345/5/6
f 344/4/6 328/4/6 345/4/6
f 329/4/6 330/4/6 346/4/6
f 345/5/6 329/5/6 346/5/6
f 330/5/6 331/5/6 347/5/6
f 346/4/6 330/4/6 347/4/6
f 331/4/6 332/4/6 348/4/6
f 347/5/6 331/5/6 348/5/6
f 332/5/6 333/5/6 349/5/6
f 348/4/6 332/4/6 349/4/6
f 333/4/6 334/4/6 350/4/6
f 349/5/6 333/5/6 350/5/6
f 334/5/6 335/5/6 351/5/6
f 350/4/6 334/4/6 351/4/6
f 335/4/6 336/4/6 352/4/6
f 351/5/6 335/5/6 352/5/6
f 336/5/6 337/5/6 353/5/6
f 352/4/6 336/4/6 353/4/6
f 337/4/6 338/4/6 354/4/6
f 353/5/6 337/5/6 354/5/6
f 338/3/6 339/3/6 355/3/6
f 354/4/6 338/4/6 355/4/6
f 339/3/6 340/3/6 355/3/6
f 355/3/6 340/3/6 356/3/6
f 340/7/6 303/7/6 357/7/6
f 356/3/6 340/3/6 357/3/6
f 292/7/6 341/7/6 358/7/6
f 341/4/6 342/4/6 358/4/6
f 342/5/6 343/5/6 359/5/6
f 358/4/6 342/4/6 359/4/6
f 343/4/6 344/4/6 360/4/6
f 359/5/6 343/5/6 360/5/6
f 344/5/6 345/5/6 361/5/6
f 360/4/6 344/4/6 361/4/6
f 345/4/6 346/4/6 362/4/6
f 361/5/6 345/5/6 362/5/6
f 346/5/6 347/5/6 363/5/6
f 362/4/6 346/4/6 363/4/6
f 347/4/6 348/4/6 364/4/6
f 363/5/6 347/5/6 364/5/6
f 348/5/6 349/5/6 365/5/6
f 364/4/6 348/4/6 365/4/6
f 349/4/6 350/4/6 366/4/6
f 365/5/6 349/5/6 366/5/6
f 350/5/6 351/5/6 367/5/6
f 366/4/6 350/4/6 367/4/6
f 351/4/6 352/4/6 368/4/6
f 367/5/6 351/5/6 368/5/6
f 352/5/6 353/5/6 369/5/6
f 368/4/6 352/4/6 369/4/6
f 353/4/6 354/4/6 370/4/6
f 369/5/6 353/5/6 370/5/6
f 354/5/6 355/5/6 371/5/6
f 370/4/6 354/4/6 371/4/6
f 355/4/6 356/4/6 372/4/6
f 371/5/6 355/5/6 372/5/6
f 356/5/6 357/5/6 373/5/6
f 372/4/6 356/4/6 373/4/6
f 357/7/6 303/7/6 374/7/6
f 373/5/6 357/5/6 374/5/6
f 292/7/6 358/7/6 375/7/6
f 358/5/6 359/5/6 375/5/6
f 359/4/6 360/4/6 376/4/6
f 375/5/6 359/5/6 376/5/6
f 360/5/6 361/5/6 377/5/6
f 376/4/6 360/4/6 377/4/6
f 361/4/6 362/4/6 378/4/6
f 377/5/6 361/5/6 378/5/6
f 362/5/6 363/5/6 379/5/6
f 378/4/6 362/4/6 379/4/6
f 363/4/6 364/4/6 380/4/6
f 379/5/6 363/5/6 380/5/6
f 364/5/6 365/5/6 381/5/6
f 380/4/6 364/4/6 381/4/6
f 365/4/6 366/4/6 382/4/6
f 381/5/6 365/5/6 382/5/6
f 366/5/6 367/5/6 383/5/6
f 382/4/6 366/4/6 383/4/6
f 367/4/6 368/4/6 384/4/6
f 383/5/6 367/5/6 384/5/6
f 368/5/6 369/5/6 385/5/6
f 384/4/6 368/4/6 385/4/6
f 369/4/6 370/4/6 386/4/6
f 385/5/6 369/5/6 386/5/6
f 370/5/6 371/5/6 387/5/6
f 386/4/6 370/4/6 387/4/6
f 371/4/6 372/4/6 388/4/6
f 387/5/6 371/5/6 388/5/6
f 372/5/6 373/5/6 389/5/6
f 388/4/6 372/4/6 389/4/6
f 373/4/6 374/4/6 390/4/6
f 389/5/6 373/5/6 390/5/6
f 374/7/6 303/7/6 391/7/6
f 390/4/6 374/4/6 391/4/6
f 289/7/6 291/7/6 392/7/6
f 291/2/6 292/2/6 392/2/6
f 292/7/6 375/7/6 393/7/6
f 392/2/6 292/2/6 393/2/6
f 375/4/6 376/4/6 394/4/6
f 393/7/6 375/7/6 394/7/6
f 376/5/6 377/5/6 395/5/6
f 394/4/6 376/4/6 395/4/6
f 377/4/6 378/4/6 396/4/6
f 395/5/6 377/5/6 396/5/6
f 378/5/6 379/5/6 397/5/6
f 396/4/6 378/4/6 397/4/6
f 379/4/6 380/4/6 398/4/6
f 397/5/6 379/5/6 398/5/6
f 380/5/6 381/5/6 399/5/6
f 398/4/6 380/4/6 399/4/6
f 381/4/6 382/4/6 400/4/6
f 399/5/6 381/5/6 400/5/6
f 382/5/6 383/5/6 401/5/6
f 400/4/6 382/4/6 401/4/6
f 383/4/6 384/4/6 402/4/6
f 401/5/6 383/5/6 402/5/6
f 384/5/6 385/5/6 403/5/6
f 402/4/6 384/4/6 403/4/6
f 385/4/6 386/4/6 404/4/6
f 403/5/6 385/5/6 404/5/6
f 386/5/6 387/5/6 405/5/6
f 404/4/6 386/4/6 405/4/6
f 387/4/6 388/4/6 406/4/6
f 405/5/6 387/5/6 406/5/6
f 388/5/6 389/5/6 407/5/6
f 406/4/6 388/4/6 407/4/6
f 390/3/6 391/3/6 408/3/6
f 407/5/6 389/5/6 408/5/6
f 389/3/6 390/3/6 408/3/6
f 391/7/6 303/7/6 409/7/6
f 408/3/6 391/3/6 409/3/6
f 303/2/6 304/2/6 410/2/6
f 409/7/6 303/7/6 410/7/6
f 304/7/6 305/7/6 411/7/6
f 410/2/6 304/2/6 411/2/6
f 305/2/6 306/2/6 412/2/6
f 411/7/6 305/7/6 412/7/6
f 306/7/6 290/7/6 413/7/6
f 412/2/6 306/2/6 413/2/6
f 407/7/6 408/7/6 414/7/6
f 406/7/6 407/7/6 414/7/6
f 412/7/6 413/7/6 414/7/6
f 394/7/6 395/7/6 414/7/6
f 289/7/6 392/7/6 414/7/6
f 405/7/6 406/7/6 414/7/6
f 401/7/6 402/7/6 414/7/6
f 403/7/6 404/7/6 414/7/6
f 399/7/6 400/7/6 414/7/6
f 409/7/6 410/7/6 414/7/6
f 408/7/6 409/7/6 414/7/6
f 398/7/6 399/7/6 414/7/6
f 396/7/6 397/7/6 414/7/6
f 395/7/6 396/7/6 414/7/6
f 393/7/6 394/7/6 414/7/6
f 392/7/6 393/7/6 414/7/6
f 397/7/6 398/7/6 414/7/6
f 404/7/6 405/7/6 414/7/6
f 402/7/6 403/7/6 414/7/6
f 400/7/6 401/7/6 414/7/6
f 410/7/6 411/7/6 414/7/6
f 411/7/6 412/7/6 414/7/6
f 413/7/6 290/7/6 415/7/6
f 414/7/6 413/7/6 415/7/6
f 416/7/6 417/7/6 420/7/6
f 420/7/6 417/7/6 421/7/6
f 418/7/6 419/7/6 422/7/6
f 422/7/6 419/7/6 423/7/6
f 416/7/6 420/7/6 424/7/6
f 421/7/6 417/7/6 425/7/6
f 418/7/6 422/7/6 426/7/6
f 423/7/6 419/7/6 427/7/6
f 416/7/6 424/7/6 428/7/6
f 424/7/6 425/7/6 428/7/6
f 425/7/6 417/7/6 429/7/6
f 428/7/6 425/7/6 429/7/6
f 426/7/6 427/7/6 430/7/6
f 418/7/6 426/7/6 430/7/6
f 427/7/6 419/7/6 431/7/6
f 430/7/6 427/7/6 431/7/6
f 432/7/6 433/7/6 438/7/6
f 438/7/6 433/7/6 439/7/6
f 434/7/6 435/7/6 440/7/6
f 440/7/6 435/7/6 441/7/6
f 436/7/6 437/7/6 442/7/6
f 442/7/6 437/7/6 443/7/6
f 444/1/6 445/1/6 448/1/6
f 448/1/6 445/1/6 449/1/6
f 446/1/6 447/1/6 450/1/6
f 450/1/6 447/1/6 451/1/6
f 452/7/6 453/7/6 456/7/6
f 456/7/6 453/7/6 457/7/6
f 454/7/6 455/7/6 458/7/6
f 458/7/6 455/7/6 459/7/6
f 456/6/6 457/6/6 460/6/6
f 458/6/6 459/6/6 461/6/6
f 456/6/6 460/6/6 462/6/6
f 460/6/6 461/6/6 462/6/6
f 461/6/6 459/6/6 463/6/6
f 462/6/6 461/6/6 463/6/6
f 462/7/6 463/7/6 464/7/6
f 464/7/6 463/7/6 465/7/6
f 466/7/6 467/7/6 468/7/6
f 468/7/6 467/7/6 469/7/6
f 466/7/6 468/7/6 470/7/6
f 469/7/6 467/7/6 471/7/6
f 466/7/6 470/7/6 472/7/6
f 470/7/6 471/7/6 472/7/6
f 471/7/6 467/7/6 473/7/6
f 472/7/6 471/7/6 473/7/6
f 474/1/6 475/1/6 476/1/6
f 476/1/6 475/1/6 477/1/6
