# MagicaVoxel @ Ephtracy

# group
o 

# material
mtllib mesh_stairway_2.mtl
usemtl palette

# normals
vn -1 0 0
vn 1 0 0
vn 0 0 1
vn 0 0 -1
vn 0 -1 0
vn 0 1 0

# texcoords
vt 0.0605469 0.5
vt 0.986328 0.5
vt 0.990234 0.5
vt 0.994141 0.5

# verts
v -2.2 -2.2 2.2
v -2.2 -2.2 0.9
v -2.2 -2.2 0.8
v -2.2 -2.2 -2.2
v -2.2 2 0.9
v -2.2 2 0.8
v -2.2 2.2 2.2
v -2.2 2.2 -2.2
v 2 -2.2 2.2
v 2 -2.2 1.7
v 2 -2.2 1.6
v 2 -2.2 1.5
v 2 -2.2 1.4
v 2 -2.2 0.9
v 2 -2.2 0.8
v 2 -2.2 0.7
v 2 -2.2 0.5
v 2 -2.2 0.4
v 2 -2.2 0.3
v 2 -2.2 0.0999999
v 2 -2.2 0
v 2 -2.2 -0.1
v 2 -2.2 -0.3
v 2 -2.2 -0.4
v 2 -2.2 -0.5
v 2 -2.2 -0.7
v 2 -2.2 -0.8
v 2 -2.2 -0.9
v 2 -2.2 -1.1
v 2 -2.2 -1.2
v 2 -2.2 -1.3
v 2 -2.2 -1.5
v 2 -2.2 -1.6
v 2 -2.2 -1.7
v 2 -2.2 -1.9
v 2 -2.2 -2
v 2 -2.2 -2.1
v 2 -2.2 -2.2
v 2 -2.1 1.3
v 2 -2.1 1.2
v 2 -2.1 1.1
v 2 -2.1 0.9
v 2 -2 2
v 2 -2 1.7
v 2 -2 1.6
v 2 -1.9 1.9
v 2 -1.9 1.7
v 2 -1.9 1.5
v 2 -1.8 1.7
v 2 -1.8 1.4
v 2 -1.7 1.7
v 2 -1.7 1.6
v 2 -1.7 1.5
v 2 -1.7 1.3
v 2 -0.7 2.2
v 2 -0.7 2
v 2 -0.6 2.2
v 2 -0.6 2
v 2 -0.0999999 2.2
v 2 -0.0999999 2
v 2 0 2.2
v 2 0 2
v 2 1.5 -2.1
v 2 1.5 -2.2
v 2 1.6 2.2
v 2 1.6 2
v 2 1.7 2.2
v 2 1.7 1.9
v 2 1.9 1.7
v 2 1.9 1.6
v 2 1.9 1.5
v 2 1.9 1.3
v 2 1.9 1.2
v 2 1.9 1.1
v 2 1.9 0.9
v 2 1.9 0.8
v 2 1.9 0.7
v 2 1.9 0.5
v 2 1.9 0.4
v 2 1.9 0.3
v 2 1.9 0.0999999
v 2 1.9 0
v 2 1.9 -0.1
v 2 1.9 -0.3
v 2 1.9 -0.4
v 2 1.9 -0.5
v 2 1.9 -0.7
v 2 1.9 -0.8
v 2 1.9 -0.9
v 2 1.9 -1.1
v 2 1.9 -1.2
v 2 1.9 -1.3
v 2 1.9 -1.5
v 2 1.9 -1.6
v 2 1.9 -1.7
v 2 1.9 -1.9
v 2 1.9 -2
v 2 2 2.2
v 2 2 -2.2
v -2 -2.2 2.2
v -2 -2.2 1.7
v -2 -2.2 1.6
v -2 -2.2 1.5
v -2 -2.2 1.4
v -2 -2.2 0.9
v -2 -2.2 0.8
v -2 -2.2 0.7
v -2 -2.2 0.5
v -2 -2.2 0.4
v -2 -2.2 0.3
v -2 -2.2 0.0999999
v -2 -2.2 0
v -2 -2.2 -0.1
v -2 -2.2 -0.3
v -2 -2.2 -0.4
v -2 -2.2 -0.5
v -2 -2.2 -0.7
v -2 -2.2 -0.8
v -2 -2.2 -0.9
v -2 -2.2 -1.1
v -2 -2.2 -1.2
v -2 -2.2 -1.3
v -2 -2.2 -1.5
v -2 -2.2 -1.6
v -2 -2.2 -1.7
v -2 -2.2 -1.9
v -2 -2.2 -2
v -2 -2.2 -2.1
v -2 -2.2 -2.2
v -2 -2.1 1.3
v -2 -2.1 1.2
v -2 -2.1 1.1
v -2 -2.1 0.9
v -2 -2 2
v -2 -2 1.7
v -2 -2 1.6
v -2 -1.9 1.9
v -2 -1.9 1.7
v -2 -1.9 1.5
v -2 -1.8 1.7
v -2 -1.8 1.4
v -2 -1.7 1.7
v -2 -1.7 1.6
v -2 -1.7 1.5
v -2 -1.7 1.3
v -2 -0.7 2.2
v -2 -0.7 2
v -2 -0.6 2.2
v -2 -0.6 2
v -2 -0.0999999 2.2
v -2 -0.0999999 2
v -2 0 2.2
v -2 0 2
v -2 1.4 2.2
v -2 1.4 2
v -2 1.5 2.2
v -2 1.5 1.9
v -2 1.5 -2.1
v -2 1.5 -2.2
v -2 1.9 1.7
v -2 1.9 1.6
v -2 1.9 1.5
v -2 1.9 1.3
v -2 1.9 1.2
v -2 1.9 1.1
v -2 1.9 0.9
v -2 1.9 0.8
v -2 1.9 0.7
v -2 1.9 0.5
v -2 1.9 0.4
v -2 1.9 0.3
v -2 1.9 0.0999999
v -2 1.9 0
v -2 1.9 -0.1
v -2 1.9 -0.3
v -2 1.9 -0.4
v -2 1.9 -0.5
v -2 1.9 -0.7
v -2 1.9 -0.8
v -2 1.9 -0.9
v -2 1.9 -1.1
v -2 1.9 -1.2
v -2 1.9 -1.3
v -2 1.9 -1.5
v -2 1.9 -1.6
v -2 1.9 -1.7
v -2 1.9 -1.9
v -2 1.9 -2
v -2 2 2.2
v -2 2 -2.2
v 2.2 -2.2 2.2
v 2.2 -2.2 0.9
v 2.2 -2.2 0.8
v 2.2 -2.2 -2.2
v 2.2 2 0.9
v 2.2 2 0.8
v 2.2 2.2 2.2
v 2.2 2.2 -2.2
v -2.2 -2.2 2.2
v -2.2 2.2 2.2
v -2.1 -0.7 2.2
v -2.1 -0.6 2.2
v -2.1 -0.0999999 2.2
v -2.1 0 2.2
v -2.1 1.4 2.2
v -2.1 1.5 2.2
v -2 -2.2 2.2
v -2 -0.7 2.2
v -2 -0.6 2.2
v -2 -0.0999999 2.2
v -2 0 2.2
v -2 1.4 2.2
v -2 1.5 2.2
v -2 2 2.2
v 2 -2.2 2.2
v 2 -0.7 2.2
v 2 -0.6 2.2
v 2 -0.0999999 2.2
v 2 0 2.2
v 2 1.6 2.2
v 2 1.7 2.2
v 2 2 2.2
v 2.1 -0.7 2.2
v 2.1 -0.6 2.2
v 2.1 -0.0999999 2.2
v 2.1 0 2.2
v 2.1 1.6 2.2
v 2.1 1.7 2.2
v 2.2 -2.2 2.2
v 2.2 2.2 2.2
v -2.2 -2.2 -2.2
v -2.2 2.2 -2.2
v -2.1 -2.2 -2.2
v -2.1 1.5 -2.2
v -2 -2.2 -2.2
v -2 1.5 -2.2
v -2 2 -2.2
v 2 -2.2 -2.2
v 2 1.5 -2.2
v 2 2 -2.2
v 2.1 -2.2 -2.2
v 2.1 1.5 -2.2
v 2.2 -2.2 -2.2
v 2.2 2.2 -2.2
v -2.2 -2.2 2.2
v -2 -2.2 2.2
v 2 -2.2 2.2
v 2.2 -2.2 2.2
v -2.1 -2.2 1.7
v -2 -2.2 1.7
v 2 -2.2 1.7
v 2.1 -2.2 1.7
v -2.1 -2.2 1.6
v -2 -2.2 1.6
v 2 -2.2 1.6
v 2.1 -2.2 1.6
v -2.1 -2.2 1.5
v -2 -2.2 1.5
v 2 -2.2 1.5
v 2.1 -2.2 1.5
v -2.1 -2.2 1.4
v -2 -2.2 1.4
v 2 -2.2 1.4
v 2.1 -2.2 1.4
v -2.2 -2.2 0.9
v -2 -2.2 0.9
v 2 -2.2 0.9
v 2.2 -2.2 0.9
v -2.2 -2.2 0.8
v -2 -2.2 0.8
v 2 -2.2 0.8
v 2.2 -2.2 0.8
v -2.1 -2.2 0.7
v -2 -2.2 0.7
v 2 -2.2 0.7
v 2.1 -2.2 0.7
v -2.1 -2.2 0.5
v -2 -2.2 0.5
v 2 -2.2 0.5
v 2.1 -2.2 0.5
v -2.1 -2.2 0.4
v -2 -2.2 0.4
v 2 -2.2 0.4
v 2.1 -2.2 0.4
v -2.1 -2.2 0.3
v -2 -2.2 0.3
v 2 -2.2 0.3
v 2.1 -2.2 0.3
v -2.1 -2.2 0.0999999
v -2 -2.2 0.0999999
v 2 -2.2 0.0999999
v 2.1 -2.2 0.0999999
v -2.1 -2.2 0
v -2 -2.2 0
v 2 -2.2 0
v 2.1 -2.2 0
v -2.1 -2.2 -0.1
v -2 -2.2 -0.1
v 2 -2.2 -0.1
v 2.1 -2.2 -0.1
v -2.1 -2.2 -0.3
v -2 -2.2 -0.3
v 2 -2.2 -0.3
v 2.1 -2.2 -0.3
v -2.1 -2.2 -0.4
v -2 -2.2 -0.4
v 2 -2.2 -0.4
v 2.1 -2.2 -0.4
v -2.1 -2.2 -0.5
v -2 -2.2 -0.5
v 2 -2.2 -0.5
v 2.1 -2.2 -0.5
v -2.1 -2.2 -0.7
v -2 -2.2 -0.7
v 2 -2.2 -0.7
v 2.1 -2.2 -0.7
v -2.1 -2.2 -0.8
v -2 -2.2 -0.8
v 2 -2.2 -0.8
v 2.1 -2.2 -0.8
v -2.1 -2.2 -0.9
v -2 -2.2 -0.9
v 2 -2.2 -0.9
v 2.1 -2.2 -0.9
v -2.1 -2.2 -1.1
v -2 -2.2 -1.1
v 2 -2.2 -1.1
v 2.1 -2.2 -1.1
v -2.1 -2.2 -1.2
v -2 -2.2 -1.2
v 2 -2.2 -1.2
v 2.1 -2.2 -1.2
v -2.1 -2.2 -1.3
v -2 -2.2 -1.3
v 2 -2.2 -1.3
v 2.1 -2.2 -1.3
v -2.1 -2.2 -1.5
v -2 -2.2 -1.5
v 2 -2.2 -1.5
v 2.1 -2.2 -1.5
v -2.1 -2.2 -1.6
v -2 -2.2 -1.6
v 2 -2.2 -1.6
v 2.1 -2.2 -1.6
v -2.1 -2.2 -1.7
v -2 -2.2 -1.7
v 2 -2.2 -1.7
v 2.1 -2.2 -1.7
v -2.1 -2.2 -1.9
v -2 -2.2 -1.9
v 2 -2.2 -1.9
v 2.1 -2.2 -1.9
v -2.1 -2.2 -2
v -2 -2.2 -2
v 2 -2.2 -2
v 2.1 -2.2 -2
v -2.1 -2.2 -2.1
v -2 -2.2 -2.1
v 2 -2.2 -2.1
v 2.1 -2.2 -2.1
v -2.2 -2.2 -2.2
v -2.1 -2.2 -2.2
v -2 -2.2 -2.2
v 2 -2.2 -2.2
v 2.1 -2.2 -2.2
v 2.2 -2.2 -2.2
v -2 2 2.2
v 2 2 2.2
v -2 2 -2.2
v 2 2 -2.2
v -2.2 2.2 2.2
v 2.2 2.2 2.2
v -2.2 2.2 -2.2
v 2.2 2.2 -2.2

# faces
f 5/4/1 2/4/1 1/4/1
f 5/3/1 3/3/1 2/3/1
f 6/4/1 4/4/1 3/4/1
f 6/3/1 3/3/1 5/3/1
f 7/4/1 5/4/1 1/4/1
f 7/4/1 6/4/1 5/4/1
f 8/4/1 4/4/1 6/4/1
f 8/4/1 6/4/1 7/4/1
f 39/4/1 14/4/1 13/4/1
f 40/4/1 14/4/1 39/4/1
f 41/4/1 14/4/1 40/4/1
f 42/3/1 15/3/1 14/3/1
f 42/4/1 14/4/1 41/4/1
f 43/4/1 10/4/1 9/4/1
f 44/3/1 11/3/1 10/3/1
f 44/4/1 10/4/1 43/4/1
f 45/1/1 12/1/1 11/1/1
f 45/3/1 11/3/1 44/3/1
f 46/1/1 44/1/1 43/1/1
f 46/1/1 45/1/1 44/1/1
f 47/1/1 45/1/1 46/1/1
f 48/1/1 12/1/1 45/1/1
f 48/1/1 45/1/1 47/1/1
f 48/3/1 13/3/1 12/3/1
f 49/4/1 47/4/1 46/4/1
f 49/3/1 48/3/1 47/3/1
f 50/3/1 13/3/1 48/3/1
f 50/3/1 48/3/1 49/3/1
f 50/4/1 39/4/1 13/4/1
f 51/4/1 49/4/1 46/4/1
f 51/4/1 50/4/1 49/4/1
f 52/4/1 50/4/1 51/4/1
f 53/4/1 50/4/1 52/4/1
f 54/4/1 39/4/1 50/4/1
f 54/4/1 50/4/1 53/4/1
f 54/3/1 40/3/1 39/3/1
f 55/4/1 43/4/1 9/4/1
f 56/1/1 46/1/1 43/1/1
f 56/4/1 43/4/1 55/4/1
f 57/1/1 56/1/1 55/1/1
f 58/1/1 46/1/1 56/1/1
f 58/1/1 56/1/1 57/1/1
f 59/4/1 58/4/1 57/4/1
f 60/1/1 46/1/1 58/1/1
f 60/4/1 58/4/1 59/4/1
f 61/1/1 60/1/1 59/1/1
f 62/1/1 46/1/1 60/1/1
f 62/1/1 60/1/1 61/1/1
f 63/2/1 38/2/1 37/2/1
f 63/4/1 37/4/1 36/4/1
f 64/2/1 38/2/1 63/2/1
f 65/4/1 62/4/1 61/4/1
f 66/1/1 46/1/1 62/1/1
f 66/4/1 62/4/1 65/4/1
f 67/1/1 66/1/1 65/1/1
f 68/4/1 51/4/1 46/4/1
f 68/1/1 66/1/1 67/1/1
f 68/1/1 46/1/1 66/1/1
f 69/3/1 52/3/1 51/3/1
f 69/4/1 51/4/1 68/4/1
f 69/4/1 68/4/1 67/4/1
f 70/4/1 53/4/1 52/4/1
f 70/3/1 52/3/1 69/3/1
f 71/2/1 54/2/1 53/2/1
f 71/4/1 53/4/1 70/4/1
f 72/3/1 40/3/1 54/3/1
f 72/2/1 54/2/1 71/2/1
f 73/4/1 41/4/1 40/4/1
f 73/3/1 40/3/1 72/3/1
f 74/2/1 42/2/1 41/2/1
f 74/4/1 41/4/1 73/4/1
f 75/3/1 15/3/1 42/3/1
f 75/2/1 42/2/1 74/2/1
f 76/4/1 16/4/1 15/4/1
f 76/3/1 15/3/1 75/3/1
f 77/2/1 17/2/1 16/2/1
f 77/4/1 16/4/1 76/4/1
f 78/3/1 18/3/1 17/3/1
f 78/2/1 17/2/1 77/2/1
f 79/4/1 19/4/1 18/4/1
f 79/3/1 18/3/1 78/3/1
f 80/2/1 20/2/1 19/2/1
f 80/4/1 19/4/1 79/4/1
f 81/3/1 21/3/1 20/3/1
f 81/2/1 20/2/1 80/2/1
f 82/4/1 22/4/1 21/4/1
f 82/3/1 21/3/1 81/3/1
f 83/2/1 23/2/1 22/2/1
f 83/4/1 22/4/1 82/4/1
f 84/3/1 24/3/1 23/3/1
f 84/2/1 23/2/1 83/2/1
f 85/4/1 25/4/1 24/4/1
f 85/3/1 24/3/1 84/3/1
f 86/2/1 26/2/1 25/2/1
f 86/4/1 25/4/1 85/4/1
f 87/3/1 27/3/1 26/3/1
f 87/2/1 26/2/1 86/2/1
f 88/4/1 28/4/1 27/4/1
f 88/3/1 27/3/1 87/3/1
f 89/2/1 29/2/1 28/2/1
f 89/4/1 28/4/1 88/4/1
f 90/3/1 30/3/1 29/3/1
f 90/2/1 29/2/1 89/2/1
f 91/4/1 31/4/1 30/4/1
f 91/3/1 30/3/1 90/3/1
f 92/2/1 32/2/1 31/2/1
f 92/4/1 31/4/1 91/4/1
f 93/3/1 33/3/1 32/3/1
f 93/2/1 32/2/1 92/2/1
f 94/4/1 34/4/1 33/4/1
f 94/3/1 33/3/1 93/3/1
f 95/2/1 35/2/1 34/2/1
f 95/4/1 34/4/1 94/4/1
f 96/3/1 36/3/1 35/3/1
f 96/2/1 35/2/1 95/2/1
f 97/4/1 64/4/1 63/4/1
f 97/3/1 36/3/1 96/3/1
f 97/4/1 63/4/1 36/4/1
f 98/4/1 74/4/1 73/4/1
f 98/4/1 71/4/1 70/4/1
f 98/4/1 97/4/1 96/4/1
f 98/4/1 69/4/1 67/4/1
f 98/4/1 72/4/1 71/4/1
f 98/4/1 75/4/1 74/4/1
f 98/4/1 70/4/1 69/4/1
f 98/4/1 76/4/1 75/4/1
f 98/4/1 96/4/1 95/4/1
f 98/4/1 73/4/1 72/4/1
f 98/4/1 77/4/1 76/4/1
f 98/4/1 95/4/1 94/4/1
f 98/4/1 94/4/1 93/4/1
f 98/4/1 93/4/1 92/4/1
f 98/4/1 92/4/1 91/4/1
f 98/4/1 91/4/1 90/4/1
f 98/4/1 90/4/1 89/4/1
f 98/4/1 89/4/1 88/4/1
f 98/4/1 88/4/1 87/4/1
f 98/4/1 87/4/1 86/4/1
f 98/4/1 86/4/1 85/4/1
f 98/4/1 85/4/1 84/4/1
f 98/4/1 84/4/1 83/4/1
f 98/4/1 83/4/1 82/4/1
f 98/4/1 82/4/1 81/4/1
f 98/4/1 81/4/1 80/4/1
f 98/4/1 80/4/1 79/4/1
f 98/4/1 79/4/1 78/4/1
f 98/4/1 78/4/1 77/4/1
f 99/4/1 64/4/1 97/4/1
f 99/4/1 97/4/1 98/4/1
f 104/4/2 105/4/2 130/4/2
f 130/4/2 105/4/2 131/4/2
f 131/4/2 105/4/2 132/4/2
f 105/3/2 106/3/2 133/3/2
f 132/4/2 105/4/2 133/4/2
f 100/4/2 101/4/2 134/4/2
f 101/3/2 102/3/2 135/3/2
f 134/4/2 101/4/2 135/4/2
f 102/1/2 103/1/2 136/1/2
f 135/3/2 102/3/2 136/3/2
f 134/1/2 135/1/2 137/1/2
f 135/1/2 136/1/2 137/1/2
f 137/1/2 136/1/2 138/1/2
f 136/1/2 103/1/2 139/1/2
f 138/1/2 136/1/2 139/1/2
f 103/3/2 104/3/2 139/3/2
f 137/4/2 138/4/2 140/4/2
f 138/3/2 139/3/2 140/3/2
f 139/3/2 104/3/2 141/3/2
f 140/3/2 139/3/2 141/3/2
f 104/4/2 130/4/2 141/4/2
f 137/4/2 140/4/2 142/4/2
f 140/4/2 141/4/2 142/4/2
f 142/4/2 141/4/2 143/4/2
f 143/4/2 141/4/2 144/4/2
f 141/4/2 130/4/2 145/4/2
f 144/4/2 141/4/2 145/4/2
f 130/3/2 131/3/2 145/3/2
f 100/4/2 134/4/2 146/4/2
f 134/1/2 137/1/2 147/1/2
f 146/4/2 134/4/2 147/4/2
f 146/1/2 147/1/2 148/1/2
f 147/1/2 137/1/2 149/1/2
f 148/1/2 147/1/2 149/1/2
f 148/4/2 149/4/2 150/4/2
f 149/1/2 137/1/2 151/1/2
f 150/4/2 149/4/2 151/4/2
f 150/1/2 151/1/2 152/1/2
f 151/1/2 137/1/2 153/1/2
f 152/1/2 151/1/2 153/1/2
f 152/4/2 153/4/2 154/4/2
f 153/1/2 137/1/2 155/1/2
f 154/4/2 153/4/2 155/4/2
f 154/1/2 155/1/2 156/1/2
f 137/4/2 142/4/2 157/4/2
f 156/1/2 155/1/2 157/1/2
f 155/1/2 137/1/2 157/1/2
f 128/2/2 129/2/2 158/2/2
f 127/4/2 128/4/2 158/4/2
f 158/2/2 129/2/2 159/2/2
f 157/4/2 142/4/2 160/4/2
f 156/4/2 157/4/2 160/4/2
f 142/3/2 143/3/2 160/3/2
f 143/4/2 144/4/2 161/4/2
f 160/3/2 143/3/2 161/3/2
f 144/2/2 145/2/2 162/2/2
f 161/4/2 144/4/2 162/4/2
f 145/3/2 131/3/2 163/3/2
f 162/2/2 145/2/2 163/2/2
f 131/4/2 132/4/2 164/4/2
f 163/3/2 131/3/2 164/3/2
f 132/2/2 133/2/2 165/2/2
f 164/4/2 132/4/2 165/4/2
f 133/3/2 106/3/2 166/3/2
f 165/2/2 133/2/2 166/2/2
f 106/4/2 107/4/2 167/4/2
f 166/3/2 106/3/2 167/3/2
f 107/2/2 108/2/2 168/2/2
f 167/4/2 107/4/2 168/4/2
f 108/3/2 109/3/2 169/3/2
f 168/2/2 108/2/2 169/2/2
f 109/4/2 110/4/2 170/4/2
f 169/3/2 109/3/2 170/3/2
f 110/2/2 111/2/2 171/2/2
f 170/4/2 110/4/2 171/4/2
f 111/3/2 112/3/2 172/3/2
f 171/2/2 111/2/2 172/2/2
f 112/4/2 113/4/2 173/4/2
f 172/3/2 112/3/2 173/3/2
f 113/2/2 114/2/2 174/2/2
f 173/4/2 113/4/2 174/4/2
f 114/3/2 115/3/2 175/3/2
f 174/2/2 114/2/2 175/2/2
f 115/4/2 116/4/2 176/4/2
f 175/3/2 115/3/2 176/3/2
f 116/2/2 117/2/2 177/2/2
f 176/4/2 116/4/2 177/4/2
f 117/3/2 118/3/2 178/3/2
f 177/2/2 117/2/2 178/2/2
f 118/4/2 119/4/2 179/4/2
f 178/3/2 118/3/2 179/3/2
f 119/2/2 120/2/2 180/2/2
f 179/4/2 119/4/2 180/4/2
f 120/3/2 121/3/2 181/3/2
f 180/2/2 120/2/2 181/2/2
f 121/4/2 122/4/2 182/4/2
f 181/3/2 121/3/2 182/3/2
f 122/2/2 123/2/2 183/2/2
f 182/4/2 122/4/2 183/4/2
f 123/3/2 124/3/2 184/3/2
f 183/2/2 123/2/2 184/2/2
f 124/4/2 125/4/2 185/4/2
f 184/3/2 124/3/2 185/3/2
f 125/2/2 126/2/2 186/2/2
f 185/4/2 125/4/2 186/4/2
f 126/3/2 127/3/2 187/3/2
f 186/2/2 126/2/2 187/2/2
f 158/4/2 159/4/2 188/4/2
f 187/3/2 127/3/2 188/3/2
f 127/4/2 158/4/2 188/4/2
f 164/4/2 165/4/2 189/4/2
f 161/4/2 162/4/2 189/4/2
f 187/4/2 188/4/2 189/4/2
f 156/4/2 160/4/2 189/4/2
f 162/4/2 163/4/2 189/4/2
f 165/4/2 166/4/2 189/4/2
f 160/4/2 161/4/2 189/4/2
f 166/4/2 167/4/2 189/4/2
f 167/4/2 168/4/2 189/4/2
f 163/4/2 164/4/2 189/4/2
f 186/4/2 187/4/2 189/4/2
f 185/4/2 186/4/2 189/4/2
f 184/4/2 185/4/2 189/4/2
f 183/4/2 184/4/2 189/4/2
f 182/4/2 183/4/2 189/4/2
f 181/4/2 182/4/2 189/4/2
f 180/4/2 181/4/2 189/4/2
f 179/4/2 180/4/2 189/4/2
f 178/4/2 179/4/2 189/4/2
f 177/4/2 178/4/2 189/4/2
f 176/4/2 177/4/2 189/4/2
f 175/4/2 176/4/2 189/4/2
f 174/4/2 175/4/2 189/4/2
f 173/4/2 174/4/2 189/4/2
f 172/4/2 173/4/2 189/4/2
f 171/4/2 172/4/2 189/4/2
f 170/4/2 171/4/2 189/4/2
f 169/4/2 170/4/2 189/4/2
f 168/4/2 169/4/2 189/4/2
f 188/4/2 159/4/2 190/4/2
f 189/4/2 188/4/2 190/4/2
f 191/4/2 192/4/2 195/4/2
f 192/3/2 193/3/2 195/3/2
f 193/4/2 194/4/2 196/4/2
f 195/3/2 193/3/2 196/3/2
f 191/4/2 195/4/2 197/4/2
f 195/4/2 196/4/2 197/4/2
f 196/4/2 194/4/2 198/4/2
f 197/4/2 196/4/2 198/4/2
f 201/4/3 200/4/3 199/4/3
f 202/4/3 200/4/3 201/4/3
f 203/4/3 200/4/3 202/4/3
f 204/4/3 200/4/3 203/4/3
f 205/4/3 200/4/3 204/4/3
f 206/4/3 200/4/3 205/4/3
f 207/4/3 201/4/3 199/4/3
f 208/1/3 202/1/3 201/1/3
f 208/4/3 201/4/3 207/4/3
f 209/4/3 203/4/3 202/4/3
f 209/1/3 202/1/3 208/1/3
f 210/1/3 204/1/3 203/1/3
f 210/4/3 203/4/3 209/4/3
f 211/4/3 205/4/3 204/4/3
f 211/1/3 204/1/3 210/1/3
f 212/1/3 206/1/3 205/1/3
f 212/4/3 205/4/3 211/4/3
f 213/4/3 200/4/3 206/4/3
f 213/1/3 206/1/3 212/1/3
f 214/4/3 200/4/3 213/4/3
f 222/4/3 200/4/3 214/4/3
f 223/4/3 216/4/3 215/4/3
f 223/1/3 217/1/3 216/1/3
f 224/4/3 218/4/3 217/4/3
f 224/1/3 217/1/3 223/1/3
f 225/1/3 219/1/3 218/1/3
f 225/4/3 218/4/3 224/4/3
f 226/4/3 220/4/3 219/4/3
f 226/1/3 219/1/3 225/1/3
f 227/1/3 221/1/3 220/1/3
f 227/4/3 220/4/3 226/4/3
f 228/4/3 222/4/3 221/4/3
f 228/1/3 221/1/3 227/1/3
f 229/4/3 226/4/3 225/4/3
f 229/4/3 227/4/3 226/4/3
f 229/4/3 228/4/3 227/4/3
f 229/4/3 223/4/3 215/4/3
f 229/4/3 225/4/3 224/4/3
f 229/4/3 224/4/3 223/4/3
f 230/4/3 222/4/3 228/4/3
f 230/4/3 228/4/3 229/4/3
f 230/4/3 200/4/3 222/4/3
f 231/4/4 232/4/4 233/4/4
f 233/4/4 232/4/4 234/4/4
f 233/2/4 234/2/4 235/2/4
f 234/4/4 232/4/4 236/4/4
f 235/2/4 234/2/4 236/2/4
f 236/4/4 232/4/4 237/4/4
f 237/4/4 232/4/4 240/4/4
f 238/2/4 239/2/4 241/2/4
f 239/4/4 240/4/4 242/4/4
f 241/2/4 239/2/4 242/2/4
f 241/4/4 242/4/4 243/4/4
f 240/4/4 232/4/4 244/4/4
f 243/4/4 242/4/4 244/4/4
f 242/4/4 240/4/4 244/4/4
f 249/4/5 246/4/5 245/4/5
f 250/4/5 246/4/5 249/4/5
f 251/4/5 248/4/5 247/4/5
f 252/4/5 248/4/5 251/4/5
f 253/3/5 250/3/5 249/3/5
f 253/4/5 249/4/5 245/4/5
f 254/3/5 250/3/5 253/3/5
f 255/3/5 252/3/5 251/3/5
f 256/4/5 248/4/5 252/4/5
f 256/3/5 252/3/5 255/3/5
f 257/1/5 254/1/5 253/1/5
f 257/4/5 253/4/5 245/4/5
f 258/1/5 254/1/5 257/1/5
f 259/1/5 256/1/5 255/1/5
f 260/4/5 248/4/5 256/4/5
f 260/1/5 256/1/5 259/1/5
f 261/3/5 258/3/5 257/3/5
f 261/4/5 257/4/5 245/4/5
f 262/3/5 258/3/5 261/3/5
f 263/3/5 260/3/5 259/3/5
f 264/4/5 248/4/5 260/4/5
f 264/3/5 260/3/5 263/3/5
f 265/4/5 262/4/5 261/4/5
f 265/4/5 261/4/5 245/4/5
f 266/4/5 262/4/5 265/4/5
f 267/4/5 264/4/5 263/4/5
f 268/4/5 248/4/5 264/4/5
f 268/4/5 264/4/5 267/4/5
f 269/3/5 266/3/5 265/3/5
f 270/3/5 266/3/5 269/3/5
f 271/3/5 268/3/5 267/3/5
f 272/3/5 268/3/5 271/3/5
f 273/4/5 270/4/5 269/4/5
f 274/4/5 270/4/5 273/4/5
f 275/4/5 272/4/5 271/4/5
f 276/4/5 272/4/5 275/4/5
f 277/2/5 274/2/5 273/2/5
f 277/4/5 273/4/5 269/4/5
f 278/2/5 274/2/5 277/2/5
f 279/2/5 276/2/5 275/2/5
f 280/4/5 272/4/5 276/4/5
f 280/2/5 276/2/5 279/2/5
f 281/3/5 278/3/5 277/3/5
f 281/4/5 277/4/5 269/4/5
f 282/3/5 278/3/5 281/3/5
f 283/3/5 280/3/5 279/3/5
f 284/4/5 272/4/5 280/4/5
f 284/3/5 280/3/5 283/3/5
f 285/4/5 282/4/5 281/4/5
f 285/4/5 281/4/5 269/4/5
f 286/4/5 282/4/5 285/4/5
f 287/4/5 284/4/5 283/4/5
f 288/4/5 272/4/5 284/4/5
f 288/4/5 284/4/5 287/4/5
f 289/2/5 286/2/5 285/2/5
f 289/4/5 285/4/5 269/4/5
f 290/2/5 286/2/5 289/2/5
f 291/2/5 288/2/5 287/2/5
f 292/4/5 272/4/5 288/4/5
f 292/2/5 288/2/5 291/2/5
f 293/3/5 290/3/5 289/3/5
f 293/4/5 289/4/5 269/4/5
f 294/3/5 290/3/5 293/3/5
f 295/3/5 292/3/5 291/3/5
f 296/4/5 272/4/5 292/4/5
f 296/3/5 292/3/5 295/3/5
f 297/4/5 294/4/5 293/4/5
f 297/4/5 293/4/5 269/4/5
f 298/4/5 294/4/5 297/4/5
f 299/4/5 296/4/5 295/4/5
f 300/4/5 272/4/5 296/4/5
f 300/4/5 296/4/5 299/4/5
f 301/2/5 298/2/5 297/2/5
f 301/4/5 297/4/5 269/4/5
f 302/2/5 298/2/5 301/2/5
f 303/2/5 300/2/5 299/2/5
f 304/4/5 272/4/5 300/4/5
f 304/2/5 300/2/5 303/2/5
f 305/3/5 302/3/5 301/3/5
f 305/4/5 301/4/5 269/4/5
f 306/3/5 302/3/5 305/3/5
f 307/3/5 304/3/5 303/3/5
f 308/4/5 272/4/5 304/4/5
f 308/3/5 304/3/5 307/3/5
f 309/4/5 306/4/5 305/4/5
f 309/4/5 305/4/5 269/4/5
f 310/4/5 306/4/5 309/4/5
f 311/4/5 308/4/5 307/4/5
f 312/4/5 272/4/5 308/4/5
f 312/4/5 308/4/5 311/4/5
f 313/2/5 310/2/5 309/2/5
f 313/4/5 309/4/5 269/4/5
f 314/2/5 310/2/5 313/2/5
f 315/2/5 312/2/5 311/2/5
f 316/4/5 272/4/5 312/4/5
f 316/2/5 312/2/5 315/2/5
f 317/3/5 314/3/5 313/3/5
f 317/4/5 313/4/5 269/4/5
f 318/3/5 314/3/5 317/3/5
f 319/3/5 316/3/5 315/3/5
f 320/4/5 272/4/5 316/4/5
f 320/3/5 316/3/5 319/3/5
f 321/4/5 318/4/5 317/4/5
f 321/4/5 317/4/5 269/4/5
f 322/4/5 318/4/5 321/4/5
f 323/4/5 320/4/5 319/4/5
f 324/4/5 272/4/5 320/4/5
f 324/4/5 320/4/5 323/4/5
f 325/2/5 322/2/5 321/2/5
f 325/4/5 321/4/5 269/4/5
f 326/2/5 322/2/5 325/2/5
f 327/2/5 324/2/5 323/2/5
f 328/4/5 272/4/5 324/4/5
f 328/2/5 324/2/5 327/2/5
f 329/3/5 326/3/5 325/3/5
f 329/4/5 325/4/5 269/4/5
f 330/3/5 326/3/5 329/3/5
f 331/3/5 328/3/5 327/3/5
f 332/4/5 272/4/5 328/4/5
f 332/3/5 328/3/5 331/3/5
f 333/4/5 330/4/5 329/4/5
f 333/4/5 329/4/5 269/4/5
f 334/4/5 330/4/5 333/4/5
f 335/4/5 332/4/5 331/4/5
f 336/4/5 272/4/5 332/4/5
f 336/4/5 332/4/5 335/4/5
f 337/2/5 334/2/5 333/2/5
f 337/4/5 333/4/5 269/4/5
f 338/2/5 334/2/5 337/2/5
f 339/2/5 336/2/5 335/2/5
f 340/4/5 272/4/5 336/4/5
f 340/2/5 336/2/5 339/2/5
f 341/3/5 338/3/5 337/3/5
f 341/4/5 337/4/5 269/4/5
f 342/3/5 338/3/5 341/3/5
f 343/3/5 340/3/5 339/3/5
f 344/4/5 272/4/5 340/4/5
f 344/3/5 340/3/5 343/3/5
f 345/4/5 342/4/5 341/4/5
f 345/4/5 341/4/5 269/4/5
f 346/4/5 342/4/5 345/4/5
f 347/4/5 344/4/5 343/4/5
f 348/4/5 272/4/5 344/4/5
f 348/4/5 344/4/5 347/4/5
f 349/2/5 346/2/5 345/2/5
f 349/4/5 345/4/5 269/4/5
f 350/2/5 346/2/5 349/2/5
f 351/2/5 348/2/5 347/2/5
f 352/4/5 272/4/5 348/4/5
f 352/2/5 348/2/5 351/2/5
f 353/3/5 350/3/5 349/3/5
f 353/4/5 349/4/5 269/4/5
f 354/3/5 350/3/5 353/3/5
f 355/3/5 352/3/5 351/3/5
f 356/4/5 272/4/5 352/4/5
f 356/3/5 352/3/5 355/3/5
f 357/4/5 354/4/5 353/4/5
f 357/4/5 353/4/5 269/4/5
f 358/4/5 354/4/5 357/4/5
f 359/4/5 356/4/5 355/4/5
f 360/4/5 272/4/5 356/4/5
f 360/4/5 356/4/5 359/4/5
f 361/4/5 357/4/5 269/4/5
f 362/2/5 358/2/5 357/2/5
f 362/4/5 357/4/5 361/4/5
f 363/2/5 358/2/5 362/2/5
f 364/2/5 360/2/5 359/2/5
f 365/4/5 272/4/5 360/4/5
f 365/2/5 360/2/5 364/2/5
f 366/4/5 272/4/5 365/4/5
f 369/4/5 368/4/5 367/4/5
f 370/4/5 368/4/5 369/4/5
f 371/4/6 372/4/6 373/4/6
f 373/4/6 372/4/6 374/4/6
